M48
METRIC,LZ,000.000
;FILE_FORMAT=3:3
;TYPE=PLATED
;Layer: PTH_Through_Via
;EasyEDA v6.5.51, 2026-07-14 13:55:30
;2faf433936cd4e32b4fc0feecefa4e4c,96b9eb17c6bf4bf1aa34359f555252a9,10
;Gerber Generator version 0.2
;Holesize 1 = 0.305 mm
T01C0.305
;Holesize 2 = 0.501 mm
T02C0.501
%
G05
G90
T01
X-007800Y019750
X-003400Y026050
X-042650Y027450
X-038650Y049600
X-035912Y052500
X-043400Y049350
X-043950Y051900
X-033900Y053250
X-031800Y053250
X-054700Y033600
X-030052Y053275
X-028427Y053275
X-010000Y045000
X-052200Y021450
X-027100Y024400
X-027200Y018450
X-052000Y044000
X-056000Y039700
X-003750Y032350
X-020100Y022850
X-007500Y030800
X-026900Y037200
X-027650Y039100
X-038750Y051900
X-043000Y051900
X-042650Y028550
X-017950Y049400
X-023200Y053350
X-027106Y023607
X-026450Y018800
X-034400Y018300
X-044431Y020371
X-008650Y023650
X-011250Y028000
X-021050Y051950
X-044463Y021271
X-024550Y030700
X-032050Y030800
X-033600Y030850
X-035000Y030850
X-027950Y030750
X-023801Y025233
X-050038Y042241
X-037600Y023300
X-032100Y025150
X-011850Y036250
X-025550Y013450
X-008350Y025950
X-030250Y030800
X-045400Y060450
X-055300Y056500
X-051100Y053900
X-045400Y058200
X-048650Y051300
X-053100Y050600
X-048650Y050100
X-053200Y060800
X-052200Y054700
X-055350Y055450
X-048525Y045346
X-054800Y063950
X-043900Y024750
X-042950Y023650
X-052050Y023850
X-046150Y021950
X-039450Y066450
X-006050Y014100
X-005100Y014100
X-001800Y013350
X-002650Y013350
X-008400Y014100
X-004050Y036400
X-045000Y014900
X-045000Y013750
X-045600Y050700
X-057100Y046100
X-056000Y044000
X-017883Y003300
X-055050Y057800
X-050000Y052550
X-017950Y048500
X-003125Y044450
X-003250Y021900
X-003250Y020950
X-057550Y049800
X-010800Y053400
X-011600Y049000
X-004650Y040950
X-003150Y048350
X-007350Y067600
X-013100Y058100
X-037851Y051883
X-051550Y056700
X-056000Y040850
X-042600Y029700
X-012800Y040700
X-012200Y039400
X-013100Y057300
X-012150Y066150
X-022950Y063950
X-007250Y058150
X-029400Y025050
X-030200Y022650
X-041800Y033450
X-026300Y064000
X-007600Y048750
X-007250Y057250
X-019100Y050950
X-023200Y054850
X-021200Y053650
X-025528Y051951
X-026350Y053350
X-029300Y007750
X-034800Y012175
X-032600Y011250
X-029300Y011300
X-046650Y030100
X-033700Y023750
X-025550Y014400
X000300Y013300
X-025750Y054850
X-004850Y054000
X-033050Y037600
X-023300Y058550
X-048700Y057100
X-056400Y053850
X-055700Y027000
X-055750Y024300
X-033050Y039650
X-016700Y019400
X-032400Y006650
X-018800Y044250
X-019950Y037300
X-020350Y034250
X-053800Y033600
X-049150Y019151
X-022850Y022300
X-040650Y066450
X-049250Y061800
X-022700Y015600
X-027850Y058700
X-031100Y063250
X-052850Y016050
X-016550Y030550
X-008700Y011500
X-055750Y021850
X-055750Y019700
X-031000Y001650
X-027500Y009600
X-031250Y003700
X-043051Y001001
X-050750Y055950
X-046351Y068150
X-045501Y068151
X-049850Y058300
X-017050Y049400
X-017050Y048501
X-021050Y049750
X-052134Y063131
X-013800Y014650
X-015150Y014700
X-033400Y002350
X-016717Y003300
X-015550Y003300
X-017100Y012600
X-013900Y011900
X-015850Y019400
X-020150Y025700
X-008400Y027950
X-013800Y029750
X-025200Y001650
X-019950Y001650
X-010850Y003150
X-013050Y017200
X-014200Y022550
X-022650Y014300
X-001250Y027200
X-000900Y023500
X-000900Y020450
X-018350Y032300
X-022800Y019950
X-010350Y030800
X-022350Y030700
X-020500Y014250
X-021550Y014300
X-000950Y004001
X-017550Y035550
X-000200Y001401
X-010200Y034050
X-024800Y016550
X-019550Y027800
X-021400Y033150
X-019450Y031150
X-027000Y011700
X-031200Y009300
X-019050Y003300
X-020400Y042250
X-020600Y046450
X-010700Y019000
X-038650Y017500
X-030150Y063250
X-040850Y060450
X-007400Y014100
X-049550Y030200
X-036601Y030901
X-017650Y029400
X-003250Y022850
X-001750Y010000
X-038814Y008942
X-033950Y008450
X-041350Y008950
X-037900Y012175
X-035787Y010266
X-023233Y056795
X-027850Y056750
X-018800Y043150
X-000600Y059625
X-001450Y059625
X-011650Y053400
X-011850Y037950
X-006600Y040950
X-028650Y066350
X-006200Y051001
X-010450Y064451
T02
X-005150Y055350
X001050Y055400
X-002225Y032325
X-002900Y027100
X-007200Y053400
X-002950Y059650
M30
