M48
METRIC,LZ,000.000
;FILE_FORMAT=3:3
;TYPE=NON_PLATED
;Layer: NPTH_Through
;EasyEDA v6.5.51, 2026-07-14 13:55:30
;2faf433936cd4e32b4fc0feecefa4e4c,96b9eb17c6bf4bf1aa34359f555252a9,10
;Gerber Generator version 0.2
;Holesize 1 = 0.551 mm
T01C0.551
;Holesize 2 = 0.600 mm
T02C0.600
;Holesize 3 = 1.301 mm
T03C1.301
;Holesize 4 = 2.000 mm
T04C2.000
;Holesize 5 = 3.200 mm
T05C3.200
%
G05
G90
T01
X005859Y049791
X005859Y048941
X005859Y048091
X005859Y047241
X005859Y046391
X005859Y045541
X005859Y044691
X005859Y043841
X005859Y026357
X005859Y025507
X005859Y024657
X005859Y023807
X005859Y022957
X005859Y022107
X005859Y021257
X005859Y020407
X003043Y049791
X003043Y048941
X003043Y048091
X003043Y047241
X003043Y046391
X003043Y045541
X003043Y044691
X003043Y043841
X003043Y026357
X003043Y025507
X003043Y024657
X003043Y023807
X003043Y022957
X003043Y022107
X003043Y021257
X003043Y020407
X-058741Y049791
X-058741Y048941
X-058741Y048091
X-058741Y047241
X-058741Y046391
X-058741Y045541
X-058741Y044691
X-058741Y043841
X-058741Y026357
X-058741Y025507
X-058741Y024657
X-058741Y023807
X-058741Y022957
X-058741Y022107
X-058741Y021257
X-058741Y020407
X067643Y049791
X067643Y048941
X067643Y048091
X067643Y047241
X067643Y046391
X067643Y045541
X067643Y044691
X067643Y043841
X067643Y026357
X067643Y025507
X067643Y024657
X067643Y023807
X067643Y022957
X067643Y022107
X067643Y021257
X067643Y020407
T02
X-004957Y032510
X-004957Y038290
T03
X-003000Y002900
X-012900Y002900
X-007950Y007950
T04
X-063649Y065249
X072551Y060249
X-063649Y004949
X072551Y009949
T05
X-053350Y066350
X-002700Y066350
X-022050Y005500
M30
