G04 Layer: TopPasteMaskLayer*
G04 Panelize: Stamp Hole, Column: 2, Row: 1, Board Size: 61.6mm x 70.3mm, Panelized Board Size: 126.2mm x 70.3mm*
G04 EasyEDA v6.5.51, 2026-07-14 13:55:30*
G04 2faf433936cd4e32b4fc0feecefa4e4c,96b9eb17c6bf4bf1aa34359f555252a9,10*
G04 Gerber Generator version 0.2*
G04 Scale: 100 percent, Rotated: No, Reflected: No *
G04 Dimensions in millimeters *
G04 leading zeros omitted , absolute positions ,4 integer and 5 decimal *
%FSLAX45Y45*%
%MOMM*%

%AMMACRO1*21,1,$1,$2,0,0,$3*%
%ADD10R,0.8000X0.8000*%
%ADD11R,0.8000X1.0000*%
%ADD12R,0.9000X0.8000*%
%ADD13R,1.5000X0.9000*%
%ADD14R,0.9000X1.5000*%
%ADD15R,0.0186X1.5000*%
%ADD16R,0.9000X0.9000*%
%ADD17R,1.1000X2.5000*%
%ADD18MACRO1,3.6X2.34X0.0000*%
%ADD19R,0.8000X0.9000*%
%ADD20MACRO1,1.36X1.23X90.0000*%
%ADD21R,1.2300X1.3600*%
%ADD22R,0.6500X0.8000*%
%ADD23R,0.5000X0.8000*%
%ADD24R,1.0000X0.5000*%
%ADD25R,1.2000X0.9500*%
%ADD26O,1.742008X0.364007*%

%LPD*%
G36*
X-2150008Y1035507D02*
G01*
X-2154986Y1030478D01*
X-2154986Y950518D01*
X-2150008Y945489D01*
X-2069998Y945489D01*
X-2065020Y950518D01*
X-2065020Y1030478D01*
X-2069998Y1035507D01*
X-2092807Y1035507D01*
X-2092807Y998474D01*
X-2125776Y998474D01*
X-2125776Y1035507D01*
G37*
G36*
X-2150008Y1194511D02*
G01*
X-2154986Y1189482D01*
X-2154986Y1109522D01*
X-2150008Y1104493D01*
X-2127199Y1104493D01*
X-2127199Y1141476D01*
X-2094179Y1141476D01*
X-2094179Y1104493D01*
X-2069998Y1104493D01*
X-2065020Y1109522D01*
X-2065020Y1189482D01*
X-2069998Y1194511D01*
G37*
G36*
X-1287475Y3481984D02*
G01*
X-1292504Y3477006D01*
X-1291996Y3434994D01*
X-1248003Y3434994D01*
X-1248003Y3389985D01*
X-1293012Y3389985D01*
X-1292504Y3348990D01*
X-1287475Y3344011D01*
X-1172514Y3344011D01*
X-1167485Y3348990D01*
X-1167485Y3477006D01*
X-1172514Y3481984D01*
G37*
G36*
X-1502511Y3481984D02*
G01*
X-1507490Y3477006D01*
X-1507490Y3348990D01*
X-1502511Y3344011D01*
X-1387500Y3344011D01*
X-1382471Y3348990D01*
X-1382979Y3389985D01*
X-1426972Y3389985D01*
X-1426972Y3434994D01*
X-1382522Y3434994D01*
X-1382471Y3477006D01*
X-1387500Y3481984D01*
G37*
G36*
X-1750009Y3919474D02*
G01*
X-1754987Y3914495D01*
X-1754987Y3834485D01*
X-1750009Y3829507D01*
X-1727200Y3829507D01*
X-1727200Y3866489D01*
X-1694180Y3866489D01*
X-1694180Y3829507D01*
X-1669999Y3829507D01*
X-1665020Y3834485D01*
X-1665020Y3914495D01*
X-1669999Y3919474D01*
G37*
G36*
X-1750009Y3760470D02*
G01*
X-1754987Y3755491D01*
X-1754987Y3675481D01*
X-1750009Y3670503D01*
X-1669999Y3670503D01*
X-1665020Y3675481D01*
X-1665020Y3755491D01*
X-1669999Y3760470D01*
X-1692808Y3760470D01*
X-1692808Y3723487D01*
X-1725777Y3723487D01*
X-1725777Y3760470D01*
G37*
G36*
X-380492Y6218986D02*
G01*
X-385521Y6214008D01*
X-385521Y6085992D01*
X-380492Y6080963D01*
X-265480Y6080963D01*
X-260502Y6085992D01*
X-261010Y6128004D01*
X-305003Y6128004D01*
X-305003Y6172962D01*
X-259994Y6172962D01*
X-260502Y6214008D01*
X-265480Y6218986D01*
G37*
G36*
X-164490Y6218986D02*
G01*
X-169519Y6214008D01*
X-169011Y6171996D01*
X-125018Y6171996D01*
X-125018Y6126988D01*
X-170027Y6126988D01*
X-169519Y6085992D01*
X-164490Y6080963D01*
X-49479Y6080963D01*
X-44500Y6085992D01*
X-44500Y6214008D01*
X-49479Y6218986D01*
G37*
G36*
X-899972Y3949496D02*
G01*
X-905002Y3944518D01*
X-905002Y3864508D01*
X-899972Y3859479D01*
X-877214Y3859479D01*
X-877214Y3896512D01*
X-844194Y3896512D01*
X-844194Y3859479D01*
X-820013Y3859479D01*
X-814984Y3864508D01*
X-814984Y3944518D01*
X-820013Y3949496D01*
G37*
G36*
X-900023Y3790492D02*
G01*
X-905002Y3785514D01*
X-905002Y3705504D01*
X-900023Y3700475D01*
X-820013Y3700475D01*
X-814984Y3705504D01*
X-814984Y3785514D01*
X-820013Y3790492D01*
X-842822Y3790492D01*
X-842822Y3753510D01*
X-875792Y3753510D01*
X-875792Y3790492D01*
G37*
G36*
X-905002Y3509467D02*
G01*
X-909980Y3504488D01*
X-909980Y3424478D01*
X-905002Y3419500D01*
X-882192Y3419500D01*
X-882192Y3456482D01*
X-849223Y3456482D01*
X-849223Y3419500D01*
X-824992Y3419500D01*
X-820013Y3424478D01*
X-820013Y3504488D01*
X-824992Y3509467D01*
G37*
G36*
X-905002Y3350514D02*
G01*
X-909980Y3345484D01*
X-909980Y3265474D01*
X-905002Y3260496D01*
X-824992Y3260496D01*
X-820013Y3265474D01*
X-820013Y3345484D01*
X-824992Y3350514D01*
X-847801Y3350514D01*
X-847801Y3313480D01*
X-880821Y3313480D01*
X-880821Y3350514D01*
G37*
G36*
X-3123996Y6775500D02*
G01*
X-3128975Y6770471D01*
X-3128975Y6655460D01*
X-3123996Y6650481D01*
X-3081985Y6650990D01*
X-3081985Y6694982D01*
X-3036976Y6694982D01*
X-3036976Y6649974D01*
X-2995980Y6650481D01*
X-2991002Y6655460D01*
X-2991002Y6770471D01*
X-2995980Y6775500D01*
G37*
G36*
X-3083001Y6560007D02*
G01*
X-3123996Y6559499D01*
X-3128975Y6554470D01*
X-3128975Y6439509D01*
X-3123996Y6434480D01*
X-2995980Y6434480D01*
X-2991002Y6439509D01*
X-2991002Y6554470D01*
X-2995980Y6559499D01*
X-3037992Y6558991D01*
X-3037992Y6514998D01*
X-3083001Y6514998D01*
G37*
G36*
X-578002Y1624990D02*
G01*
X-618998Y1624533D01*
X-623976Y1619504D01*
X-623976Y1504492D01*
X-618998Y1499514D01*
X-490982Y1499514D01*
X-486003Y1504492D01*
X-486003Y1619504D01*
X-490982Y1624533D01*
X-532993Y1624025D01*
X-532993Y1580032D01*
X-578002Y1580032D01*
G37*
G36*
X-618998Y1840484D02*
G01*
X-623976Y1835505D01*
X-623976Y1720494D01*
X-618998Y1715516D01*
X-576986Y1716024D01*
X-576986Y1760016D01*
X-531977Y1760016D01*
X-531977Y1715007D01*
X-490982Y1715516D01*
X-486003Y1720494D01*
X-486003Y1835505D01*
X-490982Y1840484D01*
G37*
G36*
X-508000Y2290013D02*
G01*
X-548995Y2289505D01*
X-553974Y2284526D01*
X-553974Y2169515D01*
X-548995Y2164486D01*
X-420979Y2164486D01*
X-416001Y2169515D01*
X-416001Y2284526D01*
X-420979Y2289505D01*
X-462991Y2288997D01*
X-462991Y2245004D01*
X-508000Y2245004D01*
G37*
G36*
X-548995Y2505506D02*
G01*
X-553974Y2500477D01*
X-553974Y2385517D01*
X-548995Y2380488D01*
X-506984Y2380996D01*
X-506984Y2424988D01*
X-461975Y2424988D01*
X-461975Y2379980D01*
X-420979Y2380488D01*
X-416001Y2385517D01*
X-416001Y2500477D01*
X-420979Y2505506D01*
G37*
G36*
X-248005Y1630019D02*
G01*
X-289001Y1629511D01*
X-293979Y1624482D01*
X-293979Y1509522D01*
X-289001Y1504492D01*
X-160985Y1504492D01*
X-156006Y1509522D01*
X-156006Y1624482D01*
X-160985Y1629511D01*
X-202996Y1629003D01*
X-202996Y1585010D01*
X-248005Y1585010D01*
G37*
G36*
X-289001Y1845513D02*
G01*
X-293979Y1840484D01*
X-293979Y1725472D01*
X-289001Y1720494D01*
X-246989Y1721002D01*
X-246989Y1764995D01*
X-201980Y1764995D01*
X-201980Y1719986D01*
X-160985Y1720494D01*
X-156006Y1725472D01*
X-156006Y1840484D01*
X-160985Y1845513D01*
G37*
G36*
X-1729486Y1643989D02*
G01*
X-1734515Y1639011D01*
X-1734007Y1596999D01*
X-1690014Y1596999D01*
X-1690014Y1551990D01*
X-1735023Y1551990D01*
X-1734515Y1510995D01*
X-1729486Y1506016D01*
X-1614474Y1506016D01*
X-1609496Y1510995D01*
X-1609496Y1639011D01*
X-1614474Y1643989D01*
G37*
G36*
X-1945487Y1643989D02*
G01*
X-1950516Y1639011D01*
X-1950516Y1510995D01*
X-1945487Y1506016D01*
X-1830476Y1506016D01*
X-1825498Y1510995D01*
X-1826006Y1553006D01*
X-1869998Y1553006D01*
X-1869998Y1598015D01*
X-1824989Y1598015D01*
X-1825498Y1639011D01*
X-1830476Y1643989D01*
G37*
G36*
X-947978Y4725009D02*
G01*
X-988974Y4724501D01*
X-994003Y4719472D01*
X-994003Y4604512D01*
X-988974Y4599482D01*
X-861009Y4599482D01*
X-855980Y4604512D01*
X-855980Y4719472D01*
X-861009Y4724501D01*
X-902969Y4723993D01*
X-902969Y4680000D01*
X-947978Y4680000D01*
G37*
G36*
X-988974Y4940503D02*
G01*
X-994003Y4935474D01*
X-994003Y4820462D01*
X-988974Y4815484D01*
X-947013Y4815992D01*
X-947013Y4859985D01*
X-902004Y4859985D01*
X-902004Y4814976D01*
X-861009Y4815484D01*
X-855980Y4820462D01*
X-855980Y4935474D01*
X-861009Y4940503D01*
G37*
G36*
X-1198981Y5830468D02*
G01*
X-1204010Y5825490D01*
X-1204010Y5710478D01*
X-1198981Y5705500D01*
X-1157020Y5705957D01*
X-1157020Y5750001D01*
X-1112012Y5750001D01*
X-1112012Y5704992D01*
X-1071016Y5705500D01*
X-1065987Y5710478D01*
X-1065987Y5825490D01*
X-1071016Y5830468D01*
G37*
G36*
X-1157986Y5614974D02*
G01*
X-1198981Y5614466D01*
X-1204010Y5609488D01*
X-1204010Y5494477D01*
X-1198981Y5489498D01*
X-1071016Y5489498D01*
X-1065987Y5494477D01*
X-1065987Y5609488D01*
X-1071016Y5614466D01*
X-1112977Y5614009D01*
X-1112977Y5570016D01*
X-1157986Y5570016D01*
G37*
G36*
X-5048046Y4505096D02*
G01*
X-5089093Y4504588D01*
X-5094071Y4499559D01*
X-5094071Y4384548D01*
X-5089093Y4379569D01*
X-4961077Y4379569D01*
X-4956048Y4384548D01*
X-4956048Y4499559D01*
X-4961077Y4504588D01*
X-5003088Y4504080D01*
X-5003088Y4460087D01*
X-5048046Y4460087D01*
G37*
G36*
X-5089093Y4720590D02*
G01*
X-5094071Y4715560D01*
X-5094071Y4600549D01*
X-5089093Y4595571D01*
X-5047081Y4596079D01*
X-5047081Y4640072D01*
X-5002072Y4640072D01*
X-5002072Y4595063D01*
X-4961077Y4595571D01*
X-4956048Y4600549D01*
X-4956048Y4715560D01*
X-4961077Y4720590D01*
G37*
G36*
X-951992Y5827471D02*
G01*
X-957021Y5822492D01*
X-957021Y5707481D01*
X-951992Y5702503D01*
X-909980Y5703011D01*
X-909980Y5747004D01*
X-865022Y5747004D01*
X-865022Y5701995D01*
X-823976Y5702503D01*
X-818997Y5707481D01*
X-818997Y5822492D01*
X-823976Y5827471D01*
G37*
G36*
X-951992Y5612485D02*
G01*
X-957021Y5607507D01*
X-957021Y5492496D01*
X-951992Y5487466D01*
X-823976Y5487466D01*
X-818997Y5492496D01*
X-818997Y5607507D01*
X-823976Y5612485D01*
X-865022Y5611977D01*
X-865022Y5567984D01*
X-909980Y5567984D01*
X-909980Y5612485D01*
G37*
G36*
X-5717489Y4850993D02*
G01*
X-5722467Y4846015D01*
X-5722467Y4717999D01*
X-5717489Y4712970D01*
X-5602478Y4712970D01*
X-5597499Y4717999D01*
X-5598007Y4760010D01*
X-5642000Y4760010D01*
X-5642000Y4804968D01*
X-5596991Y4804968D01*
X-5597499Y4846015D01*
X-5602478Y4850993D01*
G37*
G36*
X-5502503Y4850993D02*
G01*
X-5507482Y4846015D01*
X-5506974Y4804968D01*
X-5462981Y4804968D01*
X-5462981Y4760010D01*
X-5507482Y4760010D01*
X-5507482Y4717999D01*
X-5502503Y4712970D01*
X-5387492Y4712970D01*
X-5382514Y4717999D01*
X-5382514Y4846015D01*
X-5387492Y4850993D01*
G37*
G36*
X-2204974Y2720492D02*
G01*
X-2210003Y2715514D01*
X-2210003Y2635504D01*
X-2204974Y2630474D01*
X-2125014Y2630474D01*
X-2119985Y2635504D01*
X-2119985Y2715514D01*
X-2125014Y2720492D01*
X-2147773Y2720492D01*
X-2147773Y2683510D01*
X-2180793Y2683510D01*
X-2180793Y2720492D01*
G37*
G36*
X-2204974Y2879496D02*
G01*
X-2210003Y2874518D01*
X-2210003Y2794508D01*
X-2204974Y2789478D01*
X-2182215Y2789478D01*
X-2182215Y2826512D01*
X-2149195Y2826512D01*
X-2149195Y2789478D01*
X-2125014Y2789478D01*
X-2119985Y2794508D01*
X-2119985Y2874518D01*
X-2125014Y2879496D01*
G37*
G36*
X-4227372Y1424990D02*
G01*
X-4232351Y1420012D01*
X-4232351Y1397203D01*
X-4195368Y1397203D01*
X-4195368Y1364183D01*
X-4232351Y1364183D01*
X-4232351Y1340002D01*
X-4227372Y1335024D01*
X-4147362Y1335024D01*
X-4142333Y1340002D01*
X-4142333Y1420012D01*
X-4147362Y1424990D01*
G37*
G36*
X-4386376Y1424990D02*
G01*
X-4391355Y1420012D01*
X-4391355Y1340002D01*
X-4386376Y1335024D01*
X-4306366Y1335024D01*
X-4301337Y1340002D01*
X-4301337Y1362811D01*
X-4338370Y1362811D01*
X-4338370Y1395780D01*
X-4301337Y1395780D01*
X-4301337Y1420012D01*
X-4306366Y1424990D01*
G37*
G36*
X-3905504Y1424990D02*
G01*
X-3910482Y1420012D01*
X-3910482Y1397203D01*
X-3873500Y1397203D01*
X-3873500Y1364183D01*
X-3910482Y1364183D01*
X-3910482Y1340002D01*
X-3905504Y1335024D01*
X-3825494Y1335024D01*
X-3820464Y1340002D01*
X-3820464Y1420012D01*
X-3825494Y1424990D01*
G37*
G36*
X-4064508Y1424990D02*
G01*
X-4069486Y1420012D01*
X-4069486Y1340002D01*
X-4064508Y1335024D01*
X-3984498Y1335024D01*
X-3979468Y1340002D01*
X-3979468Y1362811D01*
X-4016501Y1362811D01*
X-4016501Y1395780D01*
X-3979468Y1395780D01*
X-3979468Y1420012D01*
X-3984498Y1424990D01*
G37*
G36*
X-3583584Y1424990D02*
G01*
X-3588613Y1420012D01*
X-3588613Y1397203D01*
X-3551580Y1397203D01*
X-3551580Y1364183D01*
X-3588613Y1364183D01*
X-3588613Y1340002D01*
X-3583584Y1335024D01*
X-3503625Y1335024D01*
X-3498596Y1340002D01*
X-3498596Y1420012D01*
X-3503625Y1424990D01*
G37*
G36*
X-3742588Y1424990D02*
G01*
X-3747617Y1420012D01*
X-3747617Y1340002D01*
X-3742588Y1335024D01*
X-3662629Y1335024D01*
X-3657600Y1340002D01*
X-3657600Y1362811D01*
X-3694582Y1362811D01*
X-3694582Y1395780D01*
X-3657600Y1395780D01*
X-3657600Y1420012D01*
X-3662629Y1424990D01*
G37*
G36*
X-3261715Y1424990D02*
G01*
X-3266744Y1420012D01*
X-3266744Y1397203D01*
X-3229762Y1397203D01*
X-3229762Y1364183D01*
X-3266744Y1364183D01*
X-3266744Y1340002D01*
X-3261715Y1335024D01*
X-3181756Y1335024D01*
X-3176727Y1340002D01*
X-3176727Y1420012D01*
X-3181756Y1424990D01*
G37*
G36*
X-3420719Y1424990D02*
G01*
X-3425748Y1420012D01*
X-3425748Y1340002D01*
X-3420719Y1335024D01*
X-3340760Y1335024D01*
X-3335731Y1340002D01*
X-3335731Y1362811D01*
X-3372764Y1362811D01*
X-3372764Y1395780D01*
X-3335731Y1395780D01*
X-3335731Y1420012D01*
X-3340760Y1424990D01*
G37*
G36*
X-2939846Y1424990D02*
G01*
X-2944876Y1420012D01*
X-2944876Y1397203D01*
X-2907842Y1397203D01*
X-2907842Y1364183D01*
X-2944876Y1364183D01*
X-2944876Y1340002D01*
X-2939846Y1335024D01*
X-2859836Y1335024D01*
X-2854858Y1340002D01*
X-2854858Y1420012D01*
X-2859836Y1424990D01*
G37*
G36*
X-3098850Y1424990D02*
G01*
X-3103829Y1420012D01*
X-3103829Y1340002D01*
X-3098850Y1335024D01*
X-3018840Y1335024D01*
X-3013862Y1340002D01*
X-3013862Y1362811D01*
X-3050844Y1362811D01*
X-3050844Y1395780D01*
X-3013862Y1395780D01*
X-3013862Y1420012D01*
X-3018840Y1424990D01*
G37*
G36*
X-4225493Y1594967D02*
G01*
X-4230471Y1589989D01*
X-4230471Y1567180D01*
X-4193489Y1567180D01*
X-4193489Y1534210D01*
X-4230471Y1534210D01*
X-4230471Y1509979D01*
X-4225493Y1505000D01*
X-4145483Y1505000D01*
X-4140504Y1509979D01*
X-4140504Y1589989D01*
X-4145483Y1594967D01*
G37*
G36*
X-4384497Y1595018D02*
G01*
X-4389475Y1589989D01*
X-4389475Y1509979D01*
X-4384497Y1505000D01*
X-4304487Y1505000D01*
X-4299508Y1509979D01*
X-4299508Y1532788D01*
X-4336491Y1532788D01*
X-4336491Y1565808D01*
X-4299508Y1565808D01*
X-4299508Y1589989D01*
X-4304487Y1595018D01*
G37*
G36*
X-3903014Y1594967D02*
G01*
X-3907993Y1589989D01*
X-3907993Y1567180D01*
X-3871010Y1567180D01*
X-3871010Y1534210D01*
X-3907993Y1534210D01*
X-3907993Y1509979D01*
X-3903014Y1505000D01*
X-3823004Y1505000D01*
X-3817975Y1509979D01*
X-3817975Y1589989D01*
X-3823004Y1594967D01*
G37*
G36*
X-4062018Y1595018D02*
G01*
X-4066997Y1589989D01*
X-4066997Y1509979D01*
X-4062018Y1505000D01*
X-3982008Y1505000D01*
X-3976979Y1509979D01*
X-3976979Y1532788D01*
X-4014012Y1532788D01*
X-4014012Y1565808D01*
X-3976979Y1565808D01*
X-3976979Y1589989D01*
X-3982008Y1595018D01*
G37*
G36*
X-3579266Y1594967D02*
G01*
X-3584244Y1589989D01*
X-3584244Y1567180D01*
X-3547262Y1567180D01*
X-3547262Y1534210D01*
X-3584244Y1534210D01*
X-3584244Y1509979D01*
X-3579266Y1505000D01*
X-3499256Y1505000D01*
X-3494227Y1509979D01*
X-3494227Y1589989D01*
X-3499256Y1594967D01*
G37*
G36*
X-3738270Y1595018D02*
G01*
X-3743248Y1589989D01*
X-3743248Y1509979D01*
X-3738270Y1505000D01*
X-3658260Y1505000D01*
X-3653231Y1509979D01*
X-3653231Y1532788D01*
X-3690264Y1532788D01*
X-3690264Y1565808D01*
X-3653231Y1565808D01*
X-3653231Y1589989D01*
X-3658260Y1595018D01*
G37*
G36*
X-3256127Y1594967D02*
G01*
X-3261106Y1589989D01*
X-3261106Y1567180D01*
X-3224123Y1567180D01*
X-3224123Y1534210D01*
X-3261106Y1534210D01*
X-3261106Y1509979D01*
X-3256127Y1505000D01*
X-3176117Y1505000D01*
X-3171139Y1509979D01*
X-3171139Y1589989D01*
X-3176117Y1594967D01*
G37*
G36*
X-3415131Y1595018D02*
G01*
X-3420110Y1589989D01*
X-3420110Y1509979D01*
X-3415131Y1505000D01*
X-3335121Y1505000D01*
X-3330143Y1509979D01*
X-3330143Y1532788D01*
X-3367125Y1532788D01*
X-3367125Y1565808D01*
X-3330143Y1565808D01*
X-3330143Y1589989D01*
X-3335121Y1595018D01*
G37*
G36*
X-2932988Y1594967D02*
G01*
X-2938018Y1589989D01*
X-2938018Y1567180D01*
X-2900984Y1567180D01*
X-2900984Y1534210D01*
X-2938018Y1534210D01*
X-2938018Y1509979D01*
X-2932988Y1505000D01*
X-2852978Y1505000D01*
X-2848000Y1509979D01*
X-2848000Y1589989D01*
X-2852978Y1594967D01*
G37*
G36*
X-3091992Y1595018D02*
G01*
X-3097022Y1589989D01*
X-3097022Y1509979D01*
X-3091992Y1505000D01*
X-3011982Y1505000D01*
X-3007004Y1509979D01*
X-3007004Y1532788D01*
X-3043986Y1532788D01*
X-3043986Y1565808D01*
X-3007004Y1565808D01*
X-3007004Y1589989D01*
X-3011982Y1595018D01*
G37*
G36*
X-4030472Y2700020D02*
G01*
X-4035501Y2694990D01*
X-4035501Y2672181D01*
X-3998468Y2672181D01*
X-3998468Y2639212D01*
X-4035501Y2639212D01*
X-4035501Y2614980D01*
X-4030472Y2610002D01*
X-3950462Y2610002D01*
X-3945483Y2614980D01*
X-3945483Y2694990D01*
X-3950462Y2700020D01*
G37*
G36*
X-4189476Y2700020D02*
G01*
X-4194505Y2694990D01*
X-4194505Y2614980D01*
X-4189476Y2610002D01*
X-4109465Y2610002D01*
X-4104487Y2614980D01*
X-4104487Y2637790D01*
X-4141470Y2637790D01*
X-4141470Y2670810D01*
X-4104487Y2670810D01*
X-4104487Y2694990D01*
X-4109465Y2700020D01*
G37*
G36*
X-3702964Y2700020D02*
G01*
X-3707993Y2694990D01*
X-3707993Y2672181D01*
X-3670960Y2672181D01*
X-3670960Y2639212D01*
X-3707993Y2639212D01*
X-3707993Y2614980D01*
X-3702964Y2610002D01*
X-3623005Y2610002D01*
X-3617976Y2614980D01*
X-3617976Y2694990D01*
X-3623005Y2700020D01*
G37*
G36*
X-3861968Y2700020D02*
G01*
X-3866997Y2694990D01*
X-3866997Y2614980D01*
X-3861968Y2610002D01*
X-3782009Y2610002D01*
X-3776979Y2614980D01*
X-3776979Y2637790D01*
X-3813962Y2637790D01*
X-3813962Y2670810D01*
X-3776979Y2670810D01*
X-3776979Y2694990D01*
X-3782009Y2700020D01*
G37*
G36*
X-3380486Y2700020D02*
G01*
X-3385464Y2694990D01*
X-3385464Y2672181D01*
X-3348482Y2672181D01*
X-3348482Y2639212D01*
X-3385464Y2639212D01*
X-3385464Y2614980D01*
X-3380486Y2610002D01*
X-3300476Y2610002D01*
X-3295497Y2614980D01*
X-3295497Y2694990D01*
X-3300476Y2700020D01*
G37*
G36*
X-3539490Y2700020D02*
G01*
X-3544468Y2694990D01*
X-3544468Y2614980D01*
X-3539490Y2610002D01*
X-3459479Y2610002D01*
X-3454501Y2614980D01*
X-3454501Y2637790D01*
X-3491484Y2637790D01*
X-3491484Y2670810D01*
X-3454501Y2670810D01*
X-3454501Y2694990D01*
X-3459479Y2700020D01*
G37*
G36*
X-3052978Y2700020D02*
G01*
X-3058007Y2694990D01*
X-3058007Y2672181D01*
X-3020974Y2672181D01*
X-3020974Y2639212D01*
X-3058007Y2639212D01*
X-3058007Y2614980D01*
X-3052978Y2610002D01*
X-2972968Y2610002D01*
X-2967990Y2614980D01*
X-2967990Y2694990D01*
X-2972968Y2700020D01*
G37*
G36*
X-3211982Y2700020D02*
G01*
X-3217011Y2694990D01*
X-3217011Y2614980D01*
X-3211982Y2610002D01*
X-3131972Y2610002D01*
X-3126994Y2614980D01*
X-3126994Y2637790D01*
X-3163976Y2637790D01*
X-3163976Y2670810D01*
X-3126994Y2670810D01*
X-3126994Y2694990D01*
X-3131972Y2700020D01*
G37*
G36*
X-2725470Y2699969D02*
G01*
X-2730500Y2694990D01*
X-2730500Y2672181D01*
X-2693517Y2672181D01*
X-2693517Y2639212D01*
X-2730500Y2639212D01*
X-2730500Y2614980D01*
X-2725470Y2610002D01*
X-2645511Y2610002D01*
X-2640482Y2614980D01*
X-2640482Y2694990D01*
X-2645511Y2699969D01*
G37*
G36*
X-2884474Y2699969D02*
G01*
X-2889504Y2694990D01*
X-2889504Y2614980D01*
X-2884474Y2610002D01*
X-2804515Y2610002D01*
X-2799486Y2614980D01*
X-2799486Y2637790D01*
X-2836519Y2637790D01*
X-2836519Y2670810D01*
X-2799486Y2670810D01*
X-2799486Y2694990D01*
X-2804515Y2699969D01*
G37*
G36*
X-2410510Y2694990D02*
G01*
X-2415489Y2690012D01*
X-2415489Y2667203D01*
X-2378506Y2667203D01*
X-2378506Y2634183D01*
X-2415489Y2634183D01*
X-2415489Y2610002D01*
X-2410510Y2604973D01*
X-2330500Y2604973D01*
X-2325471Y2610002D01*
X-2325471Y2690012D01*
X-2330500Y2694990D01*
G37*
G36*
X-2569514Y2694990D02*
G01*
X-2574493Y2690012D01*
X-2574493Y2610002D01*
X-2569514Y2604973D01*
X-2489504Y2604973D01*
X-2484475Y2610002D01*
X-2484475Y2632811D01*
X-2521508Y2632811D01*
X-2521508Y2665780D01*
X-2484475Y2665780D01*
X-2484475Y2690012D01*
X-2489504Y2694990D01*
G37*
G36*
X-4030472Y2872486D02*
G01*
X-4035501Y2867507D01*
X-4035501Y2844698D01*
X-3998468Y2844698D01*
X-3998468Y2811678D01*
X-4035501Y2811678D01*
X-4035501Y2787497D01*
X-4030472Y2782519D01*
X-3950462Y2782519D01*
X-3945483Y2787497D01*
X-3945483Y2867507D01*
X-3950462Y2872486D01*
G37*
G36*
X-4189476Y2872486D02*
G01*
X-4194454Y2867507D01*
X-4194454Y2787497D01*
X-4189476Y2782519D01*
X-4109465Y2782519D01*
X-4104487Y2787497D01*
X-4104487Y2810306D01*
X-4141470Y2810306D01*
X-4141470Y2843276D01*
X-4104487Y2843276D01*
X-4104487Y2867507D01*
X-4109465Y2872486D01*
G37*
G36*
X-3702964Y2872486D02*
G01*
X-3707993Y2867507D01*
X-3707993Y2844698D01*
X-3670960Y2844698D01*
X-3670960Y2811678D01*
X-3707993Y2811678D01*
X-3707993Y2787497D01*
X-3702964Y2782519D01*
X-3623005Y2782519D01*
X-3617976Y2787497D01*
X-3617976Y2867507D01*
X-3623005Y2872486D01*
G37*
G36*
X-3861968Y2872486D02*
G01*
X-3866997Y2867507D01*
X-3866997Y2787497D01*
X-3861968Y2782519D01*
X-3782009Y2782519D01*
X-3776979Y2787497D01*
X-3776979Y2810306D01*
X-3813962Y2810306D01*
X-3813962Y2843276D01*
X-3776979Y2843276D01*
X-3776979Y2867507D01*
X-3782009Y2872486D01*
G37*
G36*
X-3380486Y2872486D02*
G01*
X-3385464Y2867507D01*
X-3385464Y2844698D01*
X-3348482Y2844698D01*
X-3348482Y2811678D01*
X-3385464Y2811678D01*
X-3385464Y2787497D01*
X-3380486Y2782519D01*
X-3300476Y2782519D01*
X-3295497Y2787497D01*
X-3295497Y2867507D01*
X-3300476Y2872486D01*
G37*
G36*
X-3539490Y2872486D02*
G01*
X-3544468Y2867507D01*
X-3544468Y2787497D01*
X-3539490Y2782519D01*
X-3459479Y2782519D01*
X-3454501Y2787497D01*
X-3454501Y2810306D01*
X-3491484Y2810306D01*
X-3491484Y2843276D01*
X-3454501Y2843276D01*
X-3454501Y2867507D01*
X-3459479Y2872486D01*
G37*
G36*
X-3052978Y2872486D02*
G01*
X-3058007Y2867507D01*
X-3058007Y2844698D01*
X-3020974Y2844698D01*
X-3020974Y2811678D01*
X-3058007Y2811678D01*
X-3058007Y2787497D01*
X-3052978Y2782519D01*
X-2972968Y2782519D01*
X-2967990Y2787497D01*
X-2967990Y2867507D01*
X-2972968Y2872486D01*
G37*
G36*
X-3211982Y2872486D02*
G01*
X-3217011Y2867507D01*
X-3217011Y2787497D01*
X-3211982Y2782519D01*
X-3131972Y2782519D01*
X-3126994Y2787497D01*
X-3126994Y2810306D01*
X-3163976Y2810306D01*
X-3163976Y2843276D01*
X-3126994Y2843276D01*
X-3126994Y2867507D01*
X-3131972Y2872486D01*
G37*
G36*
X-2730500Y2869996D02*
G01*
X-2735478Y2864967D01*
X-2735478Y2842209D01*
X-2698496Y2842209D01*
X-2698496Y2809189D01*
X-2735478Y2809189D01*
X-2735478Y2785008D01*
X-2730500Y2779979D01*
X-2650490Y2779979D01*
X-2645511Y2785008D01*
X-2645511Y2864967D01*
X-2650490Y2869996D01*
G37*
G36*
X-2889504Y2869996D02*
G01*
X-2894482Y2865018D01*
X-2894482Y2785008D01*
X-2889504Y2779979D01*
X-2809494Y2779979D01*
X-2804515Y2785008D01*
X-2804515Y2807766D01*
X-2841498Y2807766D01*
X-2841498Y2840786D01*
X-2804515Y2840786D01*
X-2804515Y2865018D01*
X-2809494Y2869996D01*
G37*
G36*
X-2410510Y2874975D02*
G01*
X-2415489Y2869996D01*
X-2415489Y2847187D01*
X-2378506Y2847187D01*
X-2378506Y2814218D01*
X-2415489Y2814218D01*
X-2415489Y2789986D01*
X-2410510Y2785008D01*
X-2330500Y2785008D01*
X-2325471Y2789986D01*
X-2325471Y2869996D01*
X-2330500Y2874975D01*
G37*
G36*
X-2569514Y2874975D02*
G01*
X-2574493Y2869996D01*
X-2574493Y2789986D01*
X-2569514Y2785008D01*
X-2489504Y2785008D01*
X-2484475Y2789986D01*
X-2484475Y2812796D01*
X-2521508Y2812796D01*
X-2521508Y2845816D01*
X-2484475Y2845816D01*
X-2484475Y2869996D01*
X-2489504Y2874975D01*
G37*
G36*
X-4210507Y2024989D02*
G01*
X-4215485Y2020011D01*
X-4215485Y1997202D01*
X-4178503Y1997202D01*
X-4178503Y1964182D01*
X-4215485Y1964182D01*
X-4215485Y1940001D01*
X-4210507Y1934972D01*
X-4130497Y1934972D01*
X-4125468Y1940001D01*
X-4125468Y2020011D01*
X-4130497Y2024989D01*
G37*
G36*
X-4369511Y2024989D02*
G01*
X-4374489Y2020011D01*
X-4374489Y1940001D01*
X-4369511Y1934972D01*
X-4289501Y1934972D01*
X-4284472Y1940001D01*
X-4284472Y1962810D01*
X-4321505Y1962810D01*
X-4321505Y1995779D01*
X-4284472Y1995779D01*
X-4284472Y2020011D01*
X-4289501Y2024989D01*
G37*
G36*
X-3890467Y2024989D02*
G01*
X-3895496Y2020011D01*
X-3895496Y1997202D01*
X-3858514Y1997202D01*
X-3858514Y1964182D01*
X-3895496Y1964182D01*
X-3895496Y1940001D01*
X-3890467Y1934972D01*
X-3810508Y1934972D01*
X-3805478Y1940001D01*
X-3805478Y2020011D01*
X-3810508Y2024989D01*
G37*
G36*
X-4049471Y2024989D02*
G01*
X-4054500Y2020011D01*
X-4054500Y1940001D01*
X-4049471Y1934972D01*
X-3969512Y1934972D01*
X-3964482Y1940001D01*
X-3964482Y1962810D01*
X-4001515Y1962810D01*
X-4001515Y1995779D01*
X-3964482Y1995779D01*
X-3964482Y2020011D01*
X-3969512Y2024989D01*
G37*
G36*
X-3565499Y2022551D02*
G01*
X-3570478Y2017522D01*
X-3570478Y1994763D01*
X-3533495Y1994763D01*
X-3533495Y1961743D01*
X-3570478Y1961743D01*
X-3570478Y1937562D01*
X-3565499Y1932533D01*
X-3485489Y1932533D01*
X-3480460Y1937562D01*
X-3480460Y2017522D01*
X-3485489Y2022551D01*
G37*
G36*
X-3724503Y2022551D02*
G01*
X-3729482Y2017572D01*
X-3729482Y1937562D01*
X-3724503Y1932533D01*
X-3644493Y1932533D01*
X-3639464Y1937562D01*
X-3639464Y1960372D01*
X-3676497Y1960372D01*
X-3676497Y1993341D01*
X-3639464Y1993341D01*
X-3639464Y2017572D01*
X-3644493Y2022551D01*
G37*
G36*
X-3235502Y2017522D02*
G01*
X-3240481Y2012543D01*
X-3240481Y1989734D01*
X-3203498Y1989734D01*
X-3203498Y1956765D01*
X-3240481Y1956765D01*
X-3240481Y1932533D01*
X-3235502Y1927555D01*
X-3155492Y1927555D01*
X-3150463Y1932533D01*
X-3150463Y2012543D01*
X-3155492Y2017522D01*
G37*
G36*
X-3394506Y2017572D02*
G01*
X-3399485Y2012543D01*
X-3399485Y1932533D01*
X-3394506Y1927555D01*
X-3314496Y1927555D01*
X-3309467Y1932533D01*
X-3309467Y1955342D01*
X-3346500Y1955342D01*
X-3346500Y1988362D01*
X-3309467Y1988362D01*
X-3309467Y2012543D01*
X-3314496Y2017572D01*
G37*
G36*
X-2905506Y2017522D02*
G01*
X-2910484Y2012543D01*
X-2910484Y1989734D01*
X-2873502Y1989734D01*
X-2873502Y1956765D01*
X-2910484Y1956765D01*
X-2910484Y1932533D01*
X-2905506Y1927555D01*
X-2825496Y1927555D01*
X-2820466Y1932533D01*
X-2820466Y2012543D01*
X-2825496Y2017522D01*
G37*
G36*
X-3064510Y2017572D02*
G01*
X-3069488Y2012543D01*
X-3069488Y1932533D01*
X-3064510Y1927555D01*
X-2984500Y1927555D01*
X-2979470Y1932533D01*
X-2979470Y1955342D01*
X-3016504Y1955342D01*
X-3016504Y1988362D01*
X-2979470Y1988362D01*
X-2979470Y2012543D01*
X-2984500Y2017572D01*
G37*
G36*
X-4210507Y2189988D02*
G01*
X-4215485Y2185009D01*
X-4215485Y2162200D01*
X-4178503Y2162200D01*
X-4178503Y2129180D01*
X-4215485Y2129180D01*
X-4215485Y2104999D01*
X-4210507Y2099970D01*
X-4130497Y2099970D01*
X-4125468Y2104999D01*
X-4125468Y2185009D01*
X-4130497Y2189988D01*
G37*
G36*
X-4369511Y2189988D02*
G01*
X-4374489Y2185009D01*
X-4374489Y2104999D01*
X-4369511Y2099970D01*
X-4289501Y2099970D01*
X-4284472Y2104999D01*
X-4284472Y2127808D01*
X-4321505Y2127808D01*
X-4321505Y2160778D01*
X-4284472Y2160778D01*
X-4284472Y2185009D01*
X-4289501Y2189988D01*
G37*
G36*
X-3890467Y2189988D02*
G01*
X-3895496Y2185009D01*
X-3895496Y2162200D01*
X-3858514Y2162200D01*
X-3858514Y2129180D01*
X-3895496Y2129180D01*
X-3895496Y2104999D01*
X-3890467Y2099970D01*
X-3810508Y2099970D01*
X-3805478Y2104999D01*
X-3805478Y2185009D01*
X-3810508Y2189988D01*
G37*
G36*
X-4049471Y2189988D02*
G01*
X-4054500Y2185009D01*
X-4054500Y2104999D01*
X-4049471Y2099970D01*
X-3969512Y2099970D01*
X-3964482Y2104999D01*
X-3964482Y2127808D01*
X-4001515Y2127808D01*
X-4001515Y2160778D01*
X-3964482Y2160778D01*
X-3964482Y2185009D01*
X-3969512Y2189988D01*
G37*
G36*
X-3565499Y2187549D02*
G01*
X-3570478Y2182520D01*
X-3570478Y2159762D01*
X-3533495Y2159762D01*
X-3533495Y2126742D01*
X-3570478Y2126742D01*
X-3570478Y2102561D01*
X-3565499Y2097532D01*
X-3485489Y2097532D01*
X-3480460Y2102561D01*
X-3480460Y2182520D01*
X-3485489Y2187549D01*
G37*
G36*
X-3724503Y2187549D02*
G01*
X-3729482Y2182571D01*
X-3729482Y2102561D01*
X-3724503Y2097532D01*
X-3644493Y2097532D01*
X-3639464Y2102561D01*
X-3639464Y2125370D01*
X-3676497Y2125370D01*
X-3676497Y2158339D01*
X-3639464Y2158339D01*
X-3639464Y2182571D01*
X-3644493Y2187549D01*
G37*
G36*
X-3235502Y2187549D02*
G01*
X-3240481Y2182520D01*
X-3240481Y2159762D01*
X-3203498Y2159762D01*
X-3203498Y2126742D01*
X-3240481Y2126742D01*
X-3240481Y2102561D01*
X-3235502Y2097532D01*
X-3155492Y2097532D01*
X-3150463Y2102561D01*
X-3150463Y2182520D01*
X-3155492Y2187549D01*
G37*
G36*
X-3394506Y2187549D02*
G01*
X-3399485Y2182571D01*
X-3399485Y2102561D01*
X-3394506Y2097532D01*
X-3314496Y2097532D01*
X-3309467Y2102561D01*
X-3309467Y2125370D01*
X-3346500Y2125370D01*
X-3346500Y2158339D01*
X-3309467Y2158339D01*
X-3309467Y2182571D01*
X-3314496Y2187549D01*
G37*
G36*
X-2900476Y2185009D02*
G01*
X-2905506Y2179980D01*
X-2905506Y2157171D01*
X-2868472Y2157171D01*
X-2868472Y2124202D01*
X-2905506Y2124202D01*
X-2905506Y2099970D01*
X-2900476Y2094992D01*
X-2820517Y2094992D01*
X-2815488Y2099970D01*
X-2815488Y2179980D01*
X-2820517Y2185009D01*
G37*
G36*
X-3059480Y2185009D02*
G01*
X-3064510Y2179980D01*
X-3064510Y2100021D01*
X-3059480Y2094992D01*
X-2979521Y2094992D01*
X-2974492Y2100021D01*
X-2974492Y2122779D01*
X-3011474Y2122779D01*
X-3011474Y2155799D01*
X-2974492Y2155799D01*
X-2974492Y2179980D01*
X-2979521Y2185009D01*
G37*
G36*
X-5035499Y4925009D02*
G01*
X-5040477Y4919980D01*
X-5040477Y4897170D01*
X-5003495Y4897170D01*
X-5003495Y4864201D01*
X-5040477Y4864201D01*
X-5040477Y4839970D01*
X-5035499Y4834991D01*
X-4955489Y4834991D01*
X-4950510Y4839970D01*
X-4950510Y4919980D01*
X-4955489Y4925009D01*
G37*
G36*
X-5194503Y4925009D02*
G01*
X-5199481Y4919980D01*
X-5199481Y4839970D01*
X-5194503Y4834991D01*
X-5114493Y4834991D01*
X-5109514Y4839970D01*
X-5109514Y4862779D01*
X-5146497Y4862779D01*
X-5146497Y4895799D01*
X-5109514Y4895799D01*
X-5109514Y4919980D01*
X-5114493Y4925009D01*
G37*
G36*
X-659739Y3680002D02*
G01*
X-659739Y3649979D01*
X-544728Y3649979D01*
X-544728Y3680002D01*
G37*
G36*
X-659739Y3729990D02*
G01*
X-659739Y3700018D01*
X-544728Y3700018D01*
X-544728Y3729990D01*
G37*
G36*
X-659739Y3249980D02*
G01*
X-659739Y3189986D01*
X-544728Y3189986D01*
X-544728Y3249980D01*
G37*
G36*
X-659739Y3630015D02*
G01*
X-659739Y3599992D01*
X-544728Y3599992D01*
X-544728Y3630015D01*
G37*
G36*
X-659739Y3810000D02*
G01*
X-659739Y3750005D01*
X-544728Y3750005D01*
X-544728Y3810000D01*
G37*
G36*
X-659739Y3890010D02*
G01*
X-659739Y3830015D01*
X-544728Y3830015D01*
X-544728Y3890010D01*
G37*
G36*
X-659739Y3579977D02*
G01*
X-659739Y3550005D01*
X-544728Y3550005D01*
X-544728Y3579977D01*
G37*
G36*
X-659739Y3529990D02*
G01*
X-659739Y3500018D01*
X-544728Y3500018D01*
X-544728Y3529990D01*
G37*
G36*
X-659739Y3329990D02*
G01*
X-659739Y3269996D01*
X-544728Y3269996D01*
X-544728Y3329990D01*
G37*
G36*
X-659739Y3480003D02*
G01*
X-659739Y3449980D01*
X-544728Y3449980D01*
X-544728Y3480003D01*
G37*
G36*
X-659739Y3430015D02*
G01*
X-659739Y3399993D01*
X-544728Y3399993D01*
X-544728Y3430015D01*
G37*
G36*
X-659739Y3379978D02*
G01*
X-659739Y3350006D01*
X-544728Y3350006D01*
X-544728Y3379978D01*
G37*
G36*
X-590753Y4021988D02*
G01*
X-595731Y4021734D01*
X-600659Y4021023D01*
X-605485Y4019753D01*
X-610158Y4018076D01*
X-614629Y4015892D01*
X-618896Y4013301D01*
X-622858Y4010304D01*
X-626516Y4006900D01*
X-629818Y4003192D01*
X-632714Y3999128D01*
X-635203Y3994810D01*
X-637286Y3990238D01*
X-638860Y3985514D01*
X-639978Y3980687D01*
X-640588Y3975709D01*
X-640740Y3970731D01*
X-640334Y3965752D01*
X-639470Y3960876D01*
X-638149Y3956050D01*
X-636320Y3951427D01*
X-634034Y3947007D01*
X-631342Y3942791D01*
X-628243Y3938930D01*
X-624738Y3935323D01*
X-620928Y3932123D01*
X-616813Y3929329D01*
X-612444Y3926941D01*
X-607822Y3925011D01*
X-603046Y3923537D01*
X-598170Y3922572D01*
X-593242Y3922064D01*
X-500735Y3922014D01*
X-495757Y3922268D01*
X-490829Y3922979D01*
X-486003Y3924198D01*
X-481330Y3925925D01*
X-476808Y3928059D01*
X-472541Y3930700D01*
X-468579Y3933698D01*
X-464921Y3937101D01*
X-461619Y3940810D01*
X-458724Y3944874D01*
X-456234Y3949192D01*
X-454202Y3953713D01*
X-452577Y3958437D01*
X-451510Y3963314D01*
X-450850Y3968242D01*
X-450748Y3973220D01*
X-451104Y3978198D01*
X-451967Y3983126D01*
X-453339Y3987901D01*
X-455168Y3992575D01*
X-457454Y3996994D01*
X-460146Y4001160D01*
X-463245Y4005072D01*
X-466699Y4008628D01*
X-470560Y4011828D01*
X-474675Y4014673D01*
X-479043Y4017060D01*
X-483616Y4018991D01*
X-488391Y4020464D01*
X-493268Y4021429D01*
X-498246Y4021937D01*
G37*
G36*
X-590753Y3157982D02*
G01*
X-595731Y3157728D01*
X-600659Y3157016D01*
X-605485Y3155746D01*
X-610158Y3154070D01*
X-614629Y3151886D01*
X-618896Y3149295D01*
X-622858Y3146298D01*
X-626516Y3142894D01*
X-629818Y3139186D01*
X-632714Y3135122D01*
X-635203Y3130804D01*
X-637286Y3126232D01*
X-638860Y3121507D01*
X-639978Y3116681D01*
X-640588Y3111703D01*
X-640740Y3106724D01*
X-640334Y3101746D01*
X-639470Y3096869D01*
X-638149Y3092043D01*
X-636320Y3087420D01*
X-634034Y3083001D01*
X-631342Y3078784D01*
X-628243Y3074924D01*
X-624738Y3071317D01*
X-620928Y3068116D01*
X-616813Y3065322D01*
X-612444Y3062935D01*
X-607822Y3061004D01*
X-603046Y3059531D01*
X-598170Y3058566D01*
X-593242Y3058058D01*
X-500735Y3058007D01*
X-495757Y3058261D01*
X-490829Y3058972D01*
X-486003Y3060192D01*
X-481330Y3061919D01*
X-476808Y3064052D01*
X-472541Y3066694D01*
X-468579Y3069691D01*
X-464921Y3073095D01*
X-461619Y3076803D01*
X-458724Y3080867D01*
X-456234Y3085185D01*
X-454202Y3089706D01*
X-452577Y3094431D01*
X-451510Y3099308D01*
X-450850Y3104235D01*
X-450748Y3109214D01*
X-451104Y3114192D01*
X-451967Y3119120D01*
X-453339Y3123895D01*
X-455168Y3128568D01*
X-457454Y3132988D01*
X-460146Y3137154D01*
X-463245Y3141065D01*
X-466699Y3144621D01*
X-470560Y3147822D01*
X-474675Y3150666D01*
X-479043Y3153054D01*
X-483616Y3154984D01*
X-488391Y3156458D01*
X-493268Y3157423D01*
X-498246Y3157931D01*
G37*
G36*
X-157734Y3157982D02*
G01*
X-162712Y3157728D01*
X-167640Y3157016D01*
X-172466Y3155746D01*
X-177190Y3154070D01*
X-181660Y3151886D01*
X-185928Y3149295D01*
X-189890Y3146298D01*
X-193548Y3142894D01*
X-196850Y3139186D01*
X-199745Y3135122D01*
X-202234Y3130804D01*
X-204317Y3126232D01*
X-205892Y3121507D01*
X-207010Y3116681D01*
X-207619Y3111703D01*
X-207721Y3106724D01*
X-207365Y3101746D01*
X-206502Y3096869D01*
X-205130Y3092043D01*
X-203301Y3087420D01*
X-201066Y3083001D01*
X-198323Y3078784D01*
X-195224Y3074924D01*
X-191770Y3071317D01*
X-187960Y3068116D01*
X-183845Y3065322D01*
X-179425Y3062935D01*
X-174853Y3061004D01*
X-170078Y3059531D01*
X-165201Y3058566D01*
X-160223Y3058058D01*
X-97739Y3058007D01*
X-92760Y3058261D01*
X-87833Y3058972D01*
X-83007Y3060192D01*
X-78333Y3061919D01*
X-73863Y3064052D01*
X-69596Y3066694D01*
X-65633Y3069691D01*
X-61976Y3073095D01*
X-58674Y3076803D01*
X-55727Y3080867D01*
X-53238Y3085185D01*
X-51206Y3089706D01*
X-49631Y3094431D01*
X-48514Y3099308D01*
X-47904Y3104235D01*
X-47752Y3109214D01*
X-48158Y3114192D01*
X-49022Y3119120D01*
X-50342Y3123895D01*
X-52171Y3128568D01*
X-54457Y3132988D01*
X-57150Y3137154D01*
X-60248Y3141065D01*
X-63754Y3144621D01*
X-67564Y3147822D01*
X-71678Y3150666D01*
X-76047Y3153054D01*
X-80670Y3154984D01*
X-85394Y3156458D01*
X-90322Y3157423D01*
X-95250Y3157931D01*
G37*
G36*
X-157734Y4021988D02*
G01*
X-162712Y4021734D01*
X-167640Y4021023D01*
X-172466Y4019753D01*
X-177190Y4018076D01*
X-181660Y4015892D01*
X-185928Y4013301D01*
X-189890Y4010304D01*
X-193548Y4006900D01*
X-196850Y4003192D01*
X-199745Y3999128D01*
X-202234Y3994810D01*
X-204317Y3990238D01*
X-205892Y3985514D01*
X-207010Y3980687D01*
X-207619Y3975709D01*
X-207721Y3970731D01*
X-207365Y3965752D01*
X-206502Y3960876D01*
X-205130Y3956050D01*
X-203301Y3951427D01*
X-201066Y3947007D01*
X-198323Y3942791D01*
X-195224Y3938930D01*
X-191770Y3935323D01*
X-187960Y3932123D01*
X-183845Y3929329D01*
X-179425Y3926941D01*
X-174853Y3925011D01*
X-170078Y3923537D01*
X-165201Y3922572D01*
X-160223Y3922064D01*
X-97739Y3922014D01*
X-92760Y3922268D01*
X-87833Y3922979D01*
X-83007Y3924198D01*
X-78333Y3925925D01*
X-73863Y3928059D01*
X-69596Y3930700D01*
X-65633Y3933698D01*
X-61976Y3937101D01*
X-58674Y3940810D01*
X-55727Y3944874D01*
X-53238Y3949192D01*
X-51206Y3953713D01*
X-49631Y3958437D01*
X-48514Y3963314D01*
X-47904Y3968242D01*
X-47752Y3973220D01*
X-48158Y3978198D01*
X-49022Y3983126D01*
X-50342Y3987901D01*
X-52171Y3992575D01*
X-54457Y3996994D01*
X-57150Y4001160D01*
X-60248Y4005072D01*
X-63754Y4008628D01*
X-67564Y4011828D01*
X-71678Y4014673D01*
X-76047Y4017060D01*
X-80670Y4018991D01*
X-85394Y4020464D01*
X-90322Y4021429D01*
X-95250Y4021937D01*
G37*
G36*
X-986993Y5382514D02*
G01*
X-991971Y5377484D01*
X-991971Y5262473D01*
X-986993Y5257495D01*
X-944981Y5258003D01*
X-944981Y5301996D01*
X-900023Y5301996D01*
X-900023Y5256987D01*
X-858977Y5257495D01*
X-853998Y5262473D01*
X-853998Y5377484D01*
X-858977Y5382514D01*
G37*
G36*
X-986993Y5167477D02*
G01*
X-991971Y5162499D01*
X-991971Y5047488D01*
X-986993Y5042509D01*
X-858977Y5042509D01*
X-853998Y5047488D01*
X-853998Y5162499D01*
X-858977Y5167477D01*
X-900023Y5166969D01*
X-900023Y5122976D01*
X-944981Y5122976D01*
X-944981Y5167477D01*
G37*
G36*
X-5304993Y4623968D02*
G01*
X-5309971Y4618990D01*
X-5309514Y4576978D01*
X-5265470Y4576978D01*
X-5265470Y4532020D01*
X-5310479Y4532020D01*
X-5309971Y4490974D01*
X-5304993Y4485995D01*
X-5189982Y4485995D01*
X-5185003Y4490974D01*
X-5185003Y4618990D01*
X-5189982Y4623968D01*
G37*
G36*
X-5519978Y4623968D02*
G01*
X-5525008Y4618990D01*
X-5525008Y4490974D01*
X-5519978Y4485995D01*
X-5404967Y4485995D01*
X-5399989Y4490974D01*
X-5400497Y4532020D01*
X-5444490Y4532020D01*
X-5444490Y4576978D01*
X-5399989Y4576978D01*
X-5399989Y4618990D01*
X-5404967Y4623968D01*
G37*
G36*
X-535025Y2738983D02*
G01*
X-540004Y2734005D01*
X-539496Y2691993D01*
X-495503Y2691993D01*
X-495503Y2646984D01*
X-540512Y2646984D01*
X-540004Y2605989D01*
X-535025Y2601010D01*
X-420014Y2601010D01*
X-414985Y2605989D01*
X-414985Y2734005D01*
X-420014Y2738983D01*
G37*
G36*
X-750011Y2738983D02*
G01*
X-754989Y2734005D01*
X-754989Y2605989D01*
X-750011Y2601010D01*
X-635000Y2601010D01*
X-630021Y2605989D01*
X-630478Y2646984D01*
X-674522Y2646984D01*
X-674522Y2691993D01*
X-630021Y2691993D01*
X-630021Y2734005D01*
X-635000Y2738983D01*
G37*
G36*
X-2140000Y1642973D02*
G01*
X-2180996Y1642516D01*
X-2185974Y1637487D01*
X-2185974Y1522476D01*
X-2180996Y1517497D01*
X-2052980Y1517497D01*
X-2048002Y1522476D01*
X-2048002Y1637487D01*
X-2052980Y1642516D01*
X-2094992Y1642008D01*
X-2094992Y1598015D01*
X-2140000Y1598015D01*
G37*
G36*
X-2180996Y1857502D02*
G01*
X-2185974Y1852472D01*
X-2185974Y1737512D01*
X-2180996Y1732483D01*
X-2140000Y1732991D01*
X-2140000Y1776984D01*
X-2094992Y1776984D01*
X-2094992Y1732483D01*
X-2052980Y1732483D01*
X-2048002Y1737512D01*
X-2048002Y1852472D01*
X-2052980Y1857502D01*
G37*
G36*
X-772007Y2502509D02*
G01*
X-776986Y2497480D01*
X-776986Y2382520D01*
X-772007Y2377490D01*
X-729996Y2377998D01*
X-729996Y2421991D01*
X-684987Y2421991D01*
X-684987Y2376982D01*
X-643991Y2377490D01*
X-638962Y2382520D01*
X-638962Y2497480D01*
X-643991Y2502509D01*
G37*
G36*
X-772007Y2287524D02*
G01*
X-776986Y2282494D01*
X-776986Y2167483D01*
X-772007Y2162505D01*
X-643991Y2162505D01*
X-638962Y2167483D01*
X-638962Y2282494D01*
X-643991Y2287524D01*
X-684987Y2287016D01*
X-684987Y2243023D01*
X-729996Y2243023D01*
X-729996Y2287524D01*
G37*
G36*
X-814984Y1627987D02*
G01*
X-855980Y1627479D01*
X-861009Y1622501D01*
X-861009Y1507490D01*
X-855980Y1502511D01*
X-728014Y1502511D01*
X-722985Y1507490D01*
X-722985Y1622501D01*
X-728014Y1627479D01*
X-769975Y1626971D01*
X-769975Y1582978D01*
X-814984Y1582978D01*
G37*
G36*
X-855980Y1842516D02*
G01*
X-861009Y1837486D01*
X-861009Y1722475D01*
X-855980Y1717497D01*
X-814984Y1718005D01*
X-814984Y1761998D01*
X-769975Y1761998D01*
X-769975Y1717497D01*
X-728014Y1717497D01*
X-722985Y1722475D01*
X-722985Y1837486D01*
X-728014Y1842516D01*
G37*
G36*
X-1282496Y1640992D02*
G01*
X-1287475Y1636014D01*
X-1287475Y1507998D01*
X-1282496Y1503019D01*
X-1167485Y1503019D01*
X-1162507Y1507998D01*
X-1162964Y1550009D01*
X-1207008Y1550009D01*
X-1207008Y1595018D01*
X-1161999Y1595018D01*
X-1162507Y1636014D01*
X-1167485Y1640992D01*
G37*
G36*
X-1067511Y1640992D02*
G01*
X-1072489Y1636014D01*
X-1071981Y1595018D01*
X-1027988Y1595018D01*
X-1027988Y1550009D01*
X-1072489Y1550009D01*
X-1072489Y1507998D01*
X-1067511Y1503019D01*
X-952500Y1503019D01*
X-947470Y1507998D01*
X-947470Y1636014D01*
X-952500Y1640992D01*
G37*
G36*
X-2234996Y2194001D02*
G01*
X-2239975Y2188972D01*
X-2239975Y2061006D01*
X-2234996Y2055977D01*
X-2119985Y2055977D01*
X-2115007Y2061006D01*
X-2115515Y2102967D01*
X-2159508Y2102967D01*
X-2159508Y2147976D01*
X-2114499Y2147976D01*
X-2115007Y2188972D01*
X-2119985Y2194001D01*
G37*
G36*
X-2020011Y2194001D02*
G01*
X-2024989Y2188972D01*
X-2024481Y2147976D01*
X-1980488Y2147976D01*
X-1980488Y2102967D01*
X-2024989Y2102967D01*
X-2024989Y2061006D01*
X-2020011Y2055977D01*
X-1905000Y2055977D01*
X-1900021Y2061006D01*
X-1900021Y2188972D01*
X-1905000Y2194001D01*
G37*
G36*
X-1727504Y1861972D02*
G01*
X-1732483Y1856993D01*
X-1731975Y1814982D01*
X-1687982Y1814982D01*
X-1687982Y1769973D01*
X-1732991Y1769973D01*
X-1732483Y1728978D01*
X-1727504Y1723999D01*
X-1612493Y1723999D01*
X-1607515Y1728978D01*
X-1607515Y1856993D01*
X-1612493Y1861972D01*
G37*
G36*
X-1942490Y1861972D02*
G01*
X-1947519Y1856993D01*
X-1947519Y1728978D01*
X-1942490Y1723999D01*
X-1827479Y1723999D01*
X-1822500Y1728978D01*
X-1823008Y1769973D01*
X-1867001Y1769973D01*
X-1867001Y1814982D01*
X-1822500Y1814982D01*
X-1822500Y1856993D01*
X-1827479Y1861972D01*
G37*
G36*
X-1867966Y2435504D02*
G01*
X-1909013Y2434996D01*
X-1913991Y2429967D01*
X-1913991Y2315006D01*
X-1909013Y2309977D01*
X-1780997Y2309977D01*
X-1775968Y2315006D01*
X-1775968Y2429967D01*
X-1780997Y2434996D01*
X-1823008Y2434488D01*
X-1823008Y2390495D01*
X-1867966Y2390495D01*
G37*
G36*
X-1909013Y2649982D02*
G01*
X-1913991Y2645003D01*
X-1913991Y2529992D01*
X-1909013Y2525014D01*
X-1867966Y2525471D01*
X-1867966Y2569514D01*
X-1823008Y2569514D01*
X-1823008Y2525014D01*
X-1780997Y2525014D01*
X-1775968Y2529992D01*
X-1775968Y2645003D01*
X-1780997Y2649982D01*
G37*
G36*
X-1588008Y970483D02*
G01*
X-1629003Y969975D01*
X-1633982Y964996D01*
X-1633982Y849985D01*
X-1629003Y845007D01*
X-1500987Y845007D01*
X-1496009Y849985D01*
X-1496009Y964996D01*
X-1500987Y969975D01*
X-1542999Y969518D01*
X-1542999Y925474D01*
X-1588008Y925474D01*
G37*
G36*
X-1629003Y1185011D02*
G01*
X-1633982Y1179982D01*
X-1633982Y1064971D01*
X-1629003Y1059992D01*
X-1588008Y1060500D01*
X-1588008Y1104493D01*
X-1542999Y1104493D01*
X-1542999Y1059992D01*
X-1500987Y1059992D01*
X-1496009Y1064971D01*
X-1496009Y1179982D01*
X-1500987Y1185011D01*
G37*
G36*
X-1589989Y553008D02*
G01*
X-1630984Y552500D01*
X-1636014Y547522D01*
X-1636014Y432511D01*
X-1630984Y427482D01*
X-1503019Y427482D01*
X-1497990Y432511D01*
X-1497990Y547522D01*
X-1503019Y552500D01*
X-1544980Y551992D01*
X-1544980Y508000D01*
X-1589989Y508000D01*
G37*
G36*
X-1630984Y767486D02*
G01*
X-1636014Y762508D01*
X-1636014Y647496D01*
X-1630984Y642518D01*
X-1589989Y642975D01*
X-1589989Y687019D01*
X-1544980Y687019D01*
X-1544980Y642518D01*
X-1503019Y642518D01*
X-1497990Y647496D01*
X-1497990Y762508D01*
X-1503019Y767486D01*
G37*
G36*
X-1813001Y970483D02*
G01*
X-1853996Y969975D01*
X-1858975Y964996D01*
X-1858975Y849985D01*
X-1853996Y845007D01*
X-1725980Y845007D01*
X-1721002Y849985D01*
X-1721002Y964996D01*
X-1725980Y969975D01*
X-1767992Y969518D01*
X-1767992Y925474D01*
X-1813001Y925474D01*
G37*
G36*
X-1853996Y1185011D02*
G01*
X-1858975Y1179982D01*
X-1858975Y1064971D01*
X-1853996Y1059992D01*
X-1813001Y1060500D01*
X-1813001Y1104493D01*
X-1767992Y1104493D01*
X-1767992Y1059992D01*
X-1725980Y1059992D01*
X-1721002Y1064971D01*
X-1721002Y1179982D01*
X-1725980Y1185011D01*
G37*
G36*
X-1814982Y553008D02*
G01*
X-1855978Y552500D01*
X-1861007Y547471D01*
X-1861007Y432511D01*
X-1855978Y427482D01*
X-1728012Y427482D01*
X-1722983Y432511D01*
X-1722983Y547471D01*
X-1728012Y552500D01*
X-1769973Y551992D01*
X-1769973Y508000D01*
X-1814982Y508000D01*
G37*
G36*
X-1855978Y767486D02*
G01*
X-1861007Y762508D01*
X-1861007Y647496D01*
X-1855978Y642518D01*
X-1814982Y642975D01*
X-1814982Y687019D01*
X-1769973Y687019D01*
X-1769973Y642518D01*
X-1728012Y642518D01*
X-1722983Y647496D01*
X-1722983Y762508D01*
X-1728012Y767486D01*
G37*
G36*
X-2719984Y2035505D02*
G01*
X-2725013Y2030475D01*
X-2725013Y1950516D01*
X-2719984Y1945487D01*
X-2639974Y1945487D01*
X-2634996Y1950516D01*
X-2634996Y2030475D01*
X-2639974Y2035505D01*
X-2662783Y2035505D01*
X-2662783Y1998472D01*
X-2695803Y1998472D01*
X-2695803Y2035505D01*
G37*
G36*
X-2719984Y2194509D02*
G01*
X-2725013Y2189480D01*
X-2725013Y2110486D01*
X-2719984Y2105507D01*
X-2695803Y2105507D01*
X-2695803Y2143506D01*
X-2662783Y2143506D01*
X-2662783Y2105507D01*
X-2639974Y2105507D01*
X-2634996Y2110486D01*
X-2634996Y2189480D01*
X-2639974Y2194509D01*
G37*
G36*
X-2619502Y2430018D02*
G01*
X-2624480Y2424988D01*
X-2624480Y2344978D01*
X-2619502Y2340000D01*
X-2539492Y2340000D01*
X-2534513Y2344978D01*
X-2534513Y2367788D01*
X-2571496Y2367788D01*
X-2571496Y2400808D01*
X-2534513Y2400808D01*
X-2534513Y2424988D01*
X-2539492Y2430018D01*
G37*
G36*
X-2459482Y2430018D02*
G01*
X-2464511Y2424988D01*
X-2464511Y2400808D01*
X-2426512Y2400808D01*
X-2426512Y2367788D01*
X-2464511Y2367788D01*
X-2464511Y2344978D01*
X-2459482Y2340000D01*
X-2380488Y2340000D01*
X-2375509Y2344978D01*
X-2375509Y2424988D01*
X-2380488Y2430018D01*
G37*
G36*
X-2724962Y1420520D02*
G01*
X-2729992Y1415491D01*
X-2729992Y1335481D01*
X-2724962Y1330502D01*
X-2645003Y1330502D01*
X-2639974Y1335481D01*
X-2639974Y1415491D01*
X-2645003Y1420520D01*
X-2667762Y1420520D01*
X-2667762Y1383487D01*
X-2700782Y1383487D01*
X-2700782Y1420520D01*
G37*
G36*
X-2724962Y1579524D02*
G01*
X-2729992Y1574495D01*
X-2729992Y1495501D01*
X-2724962Y1490522D01*
X-2700782Y1490522D01*
X-2700782Y1528521D01*
X-2667762Y1528521D01*
X-2667762Y1490522D01*
X-2645003Y1490522D01*
X-2639974Y1495501D01*
X-2639974Y1574495D01*
X-2645003Y1579524D01*
G37*
D10*
G01*
X-2299980Y995044D03*
G01*
X-2300005Y1154963D03*
D11*
G01*
X-1330004Y3629990D03*
G01*
X-1425000Y3859987D03*
G01*
X-1519996Y3629990D03*
D10*
G01*
X-2160000Y2504947D03*
G01*
X-2160000Y2345029D03*
D12*
G01*
X-4809982Y4716144D03*
G01*
X-4809982Y4856149D03*
D13*
G01*
X-4100001Y5184495D03*
G01*
X-4100001Y5057495D03*
G01*
X-4100001Y4930495D03*
G01*
X-4100001Y4803495D03*
G01*
X-4100001Y4676495D03*
G01*
X-4100001Y4549495D03*
G01*
X-4100001Y4422495D03*
G01*
X-4100001Y4295495D03*
G01*
X-4100001Y4168495D03*
G01*
X-4100001Y4041495D03*
G01*
X-4100001Y3914495D03*
G01*
X-4100001Y3787495D03*
G01*
X-4100001Y3660495D03*
G01*
X-4100001Y3533495D03*
D14*
G01*
X-3923497Y3405479D03*
G01*
X-3796497Y3405479D03*
G01*
X-3669497Y3405479D03*
G01*
X-3542497Y3405479D03*
G01*
X-3415497Y3405479D03*
G01*
X-3288497Y3405479D03*
G01*
X-3161497Y3405479D03*
G01*
X-3034497Y3405479D03*
G01*
X-2907497Y3405479D03*
G01*
X-2780497Y3405479D03*
G01*
X-2653497Y3405479D03*
G01*
X-2526497Y3408476D03*
D13*
G01*
X-2349992Y3533495D03*
G01*
X-2349992Y3660495D03*
G01*
X-2349992Y3787495D03*
G01*
X-2349992Y3914495D03*
G01*
X-2349992Y4041495D03*
G01*
X-2349992Y4168495D03*
G01*
X-2349992Y4295495D03*
G01*
X-2349992Y4422495D03*
G01*
X-2349992Y4549495D03*
G01*
X-2349992Y4676495D03*
G01*
X-2349992Y4803495D03*
G01*
X-2349992Y4930495D03*
G01*
X-2349992Y5057495D03*
G01*
X-2349992Y5184495D03*
D16*
G01*
X-3235004Y4272483D03*
G01*
X-3375009Y4272457D03*
G01*
X-3514989Y4272483D03*
G01*
X-3514989Y4552467D03*
G01*
X-3375009Y4552467D03*
G01*
X-3235004Y4552467D03*
G01*
X-3235004Y4412462D03*
G01*
X-3514989Y4412462D03*
G01*
X-3375009Y4412462D03*
D17*
G01*
X-1769983Y4623003D03*
G01*
X-1539986Y4623003D03*
G01*
X-1309989Y4623003D03*
D18*
G01*
X-1539994Y5216992D03*
D19*
G01*
X-5389991Y3510000D03*
G01*
X-5249986Y3510000D03*
D20*
G01*
X-5148947Y4234990D03*
D21*
G01*
X-5585952Y4234992D03*
D20*
G01*
X-5141408Y3799992D03*
D21*
G01*
X-5578408Y3799992D03*
D22*
G01*
X-5014986Y6454978D03*
G01*
X-5014986Y6634987D03*
D23*
G01*
X-4935001Y6454978D03*
G01*
X-4935001Y6634987D03*
G01*
X-4854991Y6454978D03*
G01*
X-4854991Y6634987D03*
D22*
G01*
X-4775006Y6454978D03*
G01*
X-4775006Y6634987D03*
D24*
G01*
X-5344982Y5174995D03*
G01*
X-5344982Y5285003D03*
G01*
X-5344982Y5394985D03*
G01*
X-5344982Y5504992D03*
G01*
X-5344982Y5615000D03*
G01*
X-5344982Y5724982D03*
G01*
X-5344982Y5834989D03*
G01*
X-5344982Y5909995D03*
G01*
X-5344982Y5979998D03*
D25*
G01*
X-5169976Y6069990D03*
G01*
X-4724968Y6069990D03*
G01*
X-4724968Y5050002D03*
G01*
X-5169976Y5050002D03*
D26*
G01*
X-1027897Y2032482D03*
G01*
X-1027897Y2097481D03*
G01*
X-1027897Y2162479D03*
G01*
X-1027897Y2227478D03*
G01*
X-1027897Y2292502D03*
G01*
X-1027897Y2357500D03*
G01*
X-1027897Y2422499D03*
G01*
X-1027897Y2487498D03*
G01*
X-1027897Y2552496D03*
G01*
X-1027897Y2617495D03*
G01*
X-1602089Y2032482D03*
G01*
X-1602089Y2097481D03*
G01*
X-1602089Y2162479D03*
G01*
X-1602089Y2227478D03*
G01*
X-1602089Y2292502D03*
G01*
X-1602089Y2357500D03*
G01*
X-1602089Y2422499D03*
G01*
X-1602089Y2487498D03*
G01*
X-1602089Y2552496D03*
G01*
X-1602089Y2617495D03*
D19*
G01*
X-479996Y2010001D03*
G01*
X-620001Y2010001D03*
G01*
X-1019997Y1784984D03*
G01*
X-1160002Y1784984D03*
M02*
