G04 Layer: BoardOutlineLayer*
G04 Panelize: Stamp Hole, Column: 2, Row: 1, Board Size: 61.6mm x 70.3mm, Panelized Board Size: 126.2mm x 70.3mm*
G04 EasyEDA v6.5.51, 2026-07-14 13:55:30*
G04 2faf433936cd4e32b4fc0feecefa4e4c,96b9eb17c6bf4bf1aa34359f555252a9,10*
G04 Gerber Generator version 0.2*
G04 Scale: 100 percent, Rotated: No, Reflected: No *
G04 Dimensions in millimeters *
G04 leading zeros omitted , absolute positions ,4 integer and 5 decimal *
%FSLAX45Y45*%
%MOMM*%

%ADD10C,0.2540*%
%ADD11C,0.0198*%
D10*
X137353Y130809D02*
G01*
X1463Y-5080D01*
X-2354894Y-5080D01*
X-3210112Y-5080D01*
X-3210112Y-5080D01*
X-5573836Y-5080D01*
X-5705154Y126237D01*
X-5705154Y165100D01*
X-5704900Y165100D02*
G01*
X-5704900Y275081D01*
X-5704900Y1119885D01*
X-5864920Y1279905D01*
X-5864920Y1489963D01*
X-5864920Y2770123D01*
X-5712266Y2922777D01*
X-5712266Y4132325D01*
X-5864920Y4284979D01*
X-5864920Y6269989D01*
X-5712266Y6422643D01*
X-5712266Y6759955D01*
X137353Y133857D02*
G01*
X137353Y1122425D01*
X295087Y1279905D01*
X295087Y2769869D01*
X124907Y2940050D01*
X124907Y3940047D01*
X124907Y4129785D01*
X295087Y4299965D01*
X295087Y6259829D01*
X124907Y6430009D01*
X124907Y6765035D01*
X-5712266Y6745985D02*
G01*
X-5712266Y6882637D01*
X-5570026Y7024877D01*
X-14792Y7024877D01*
X124907Y6885177D01*
X124907Y6739889D01*
X6597360Y130809D02*
G01*
X6461470Y-5080D01*
X4105112Y-5080D01*
X3249894Y-5080D01*
X3249894Y-5080D01*
X886170Y-5080D01*
X754852Y126237D01*
X754852Y165100D01*
X755106Y165100D02*
G01*
X755106Y275081D01*
X755106Y1119885D01*
X595086Y1279905D01*
X595086Y1489963D01*
X595086Y2770123D01*
X747740Y2922777D01*
X747740Y4132325D01*
X595086Y4284979D01*
X595086Y6269989D01*
X747740Y6422643D01*
X747740Y6759955D01*
X6597360Y133857D02*
G01*
X6597360Y1122425D01*
X6755094Y1279905D01*
X6755094Y2769869D01*
X6584914Y2940050D01*
X6584914Y3940047D01*
X6584914Y4129785D01*
X6755094Y4299965D01*
X6755094Y6259829D01*
X6584914Y6430009D01*
X6584914Y6765035D01*
X747740Y6745985D02*
G01*
X747740Y6882637D01*
X889980Y7024877D01*
X6445214Y7024877D01*
X6584914Y6885177D01*
X6584914Y6739889D01*
X-6764920Y7024879D02*
G01*
X7655092Y7024879D01*
X7655092Y-5078D01*
X-6764920Y-5078D01*
X-6764920Y7024879D01*
X-6164922Y5023566D02*
G01*
X-6164922Y7024880D01*
X7055093Y5023566D02*
G01*
X7055093Y7024880D01*
X-6164922Y2680246D02*
G01*
X-6164922Y4339556D01*
X7055093Y2680246D02*
G01*
X7055093Y4339556D01*
X-6164922Y-5077D02*
G01*
X-6164922Y1996236D01*
X7055093Y-5077D02*
G01*
X7055093Y1996236D01*
X585919Y5023566D02*
G01*
X304253Y5023566D01*
X585919Y4339556D02*
G01*
X304253Y4339556D01*
X585919Y2680246D02*
G01*
X304253Y2680246D01*
X585919Y1996236D02*
G01*
X304253Y1996236D01*
X-5874087Y5023566D02*
G01*
X-6164922Y5023566D01*
X7055093Y5023566D02*
G01*
X6764261Y5023566D01*
X-5874087Y4339556D02*
G01*
X-6164922Y4339556D01*
X7055093Y4339556D02*
G01*
X6764261Y4339556D01*
X-5874087Y2680246D02*
G01*
X-6164922Y2680246D01*
X7055093Y2680246D02*
G01*
X6764261Y2680246D01*
X-5874087Y1996236D02*
G01*
X-6164922Y1996236D01*
X7055093Y1996236D02*
G01*
X6764261Y1996236D01*

%LPD*%
M02*
