G04 Layer: BottomSolderMaskLayer*
G04 Panelize: Stamp Hole, Column: 2, Row: 1, Board Size: 61.6mm x 70.3mm, Panelized Board Size: 126.2mm x 70.3mm*
G04 EasyEDA v6.5.51, 2026-07-14 13:55:30*
G04 2faf433936cd4e32b4fc0feecefa4e4c,96b9eb17c6bf4bf1aa34359f555252a9,10*
G04 Gerber Generator version 0.2*
G04 Scale: 100 percent, Rotated: No, Reflected: No *
G04 Dimensions in millimeters *
G04 leading zeros omitted , absolute positions ,4 integer and 5 decimal *
%FSLAX45Y45*%
%MOMM*%

%AMMACRO1*4,1,8,-0.9101,-0.9398,-0.9398,-0.91,-0.9398,0.9101,-0.9101,0.9398,0.91,0.9398,0.9398,0.9101,0.9398,-0.91,0.91,-0.9398,-0.9101,-0.9398,0*%
%AMMACRO2*4,1,8,-0.8207,-0.85,-0.85,-0.8207,-0.85,0.8207,-0.8207,0.85,0.8207,0.85,0.85,0.8207,0.85,-0.8207,0.8207,-0.85,-0.8207,-0.85,0*%
%AMMACRO3*4,1,8,-0.8211,-0.9008,-0.8508,-0.871,-0.8508,0.8711,-0.8211,0.9008,0.821,0.9008,0.8508,0.8711,0.8508,-0.871,0.821,-0.9008,-0.8211,-0.9008,0*%
%ADD10C,2.1016*%
%ADD11C,1.6256*%
%ADD12MACRO1*%
%ADD13C,1.8796*%
%ADD14O,1.400023X2.90002*%
%ADD15C,1.7000*%
%ADD16C,0.0167*%
%ADD17MACRO2*%
%ADD18O,1.901596X2.60096*%
%ADD19O,2.60096X1.901596*%
%ADD20C,1.9016*%
%ADD21C,4.6016*%
%ADD22MACRO3*%
%ADD23C,1.8016*%
%ADD24O,2.000021X1.100023*%
%ADD25O,1.700022X1.100023*%
%ADD26C,0.8232*%
%ADD27C,3.0000*%

%LPD*%
D10*
G01*
X-3905971Y3149980D03*
G01*
X-4159971Y3149980D03*
D11*
G01*
X-2685018Y6554952D03*
G01*
X-2435006Y6554952D03*
G01*
X-2184994Y6554952D03*
G01*
X-2685018Y6224955D03*
G01*
X-2435006Y6224955D03*
G01*
X-2184994Y6224955D03*
D12*
G01*
X-1617995Y5764987D03*
D13*
G01*
X-1872015Y5765012D03*
G01*
X-1872015Y5511012D03*
G01*
X-1618015Y5511012D03*
D14*
G01*
X-4574981Y6379997D03*
G01*
X-3284992Y6379997D03*
D15*
G01*
X-4279986Y6229984D03*
G01*
X-4029999Y6229984D03*
G01*
X-3829999Y6229984D03*
D17*
G01*
X-3579990Y6229982D03*
D18*
G01*
X-529981Y794994D03*
D19*
G01*
X-795004Y324992D03*
D18*
G01*
X-1060002Y794994D03*
G01*
X-299984Y794994D03*
G01*
X-1289974Y794994D03*
D20*
G01*
X-4477928Y302005D03*
G01*
X-4248947Y302005D03*
G01*
X-4019941Y302005D03*
G01*
X-3790934Y302005D03*
G01*
X-3561928Y302005D03*
G01*
X-4363425Y499998D03*
G01*
X-4134444Y499998D03*
G01*
X-3905437Y499998D03*
G01*
X-3676431Y499998D03*
G01*
X-3447425Y499998D03*
G01*
X-4477928Y697991D03*
G01*
X-4248947Y697991D03*
G01*
X-4019941Y697991D03*
G01*
X-3790934Y697991D03*
G01*
X-3561928Y697991D03*
D21*
G01*
X-5269976Y499998D03*
G01*
X-2769981Y499998D03*
D10*
G01*
X-1426042Y4274997D03*
G01*
X-1680042Y4274997D03*
D22*
G01*
X-4781184Y1535098D03*
D23*
G01*
X-5035179Y1535099D03*
G01*
X-4781179Y1789099D03*
G01*
X-5035179Y1789099D03*
G01*
X-4781179Y2043099D03*
G01*
X-5035179Y2043099D03*
G01*
X-4781179Y2297099D03*
G01*
X-5035179Y2297099D03*
G01*
X-4781179Y2551099D03*
G01*
X-5035179Y2551099D03*
G01*
X-4781179Y2805099D03*
G01*
X-5035179Y2805099D03*
D11*
G01*
X-141767Y4944821D03*
G01*
X-141767Y4694808D03*
G01*
X-141767Y4444822D03*
G01*
X-471764Y4944821D03*
G01*
X-471764Y4694808D03*
G01*
X-471764Y4444822D03*
D24*
G01*
X-545729Y3972001D03*
D25*
G01*
X-127746Y3972001D03*
G01*
X-127746Y3107994D03*
D24*
G01*
X-545729Y3107994D03*
D14*
G01*
X-1825000Y6379997D03*
G01*
X-535010Y6379997D03*
D15*
G01*
X-1530004Y6229984D03*
G01*
X-1280017Y6229984D03*
G01*
X-1080018Y6229984D03*
D17*
G01*
X-829993Y6229982D03*
D26*
G01*
X-3444986Y4554981D03*
G01*
X-3301552Y4554981D03*
G01*
X-3231474Y4474997D03*
G01*
X-3231067Y4334992D03*
G01*
X-3304296Y4404537D03*
G01*
X-3370996Y4334992D03*
G01*
X-3439982Y4404994D03*
G01*
X-3370996Y4474997D03*
G01*
X-3297615Y4264964D03*
G01*
X-3441075Y4264964D03*
G01*
X-3509985Y4334992D03*
G01*
X-3509985Y4474997D03*
D27*
G01*
X-6364921Y6024881D03*
G01*
X7255092Y5524882D03*
G01*
X-6364921Y994919D03*
G01*
X7255092Y1494918D03*
M02*
