M48
METRIC,LZ,000.000
;FILE_FORMAT=3:3
;TYPE=PLATED
;Layer: PTH_Through
;EasyEDA v6.5.51, 2026-07-14 13:51:35
;a907fb12628a40e4b555dd5b908cb7f1,96b9eb17c6bf4bf1aa34359f555252a9,10
;Gerber Generator version 0.2
;Holesize 1 = 0.305 mm
T01C0.305
;Holesize 2 = 0.400 mm
T02C0.400
;Holesize 3 = 0.501 mm
T03C0.501
;Holesize 4 = 0.600 mm
T04C0.600
;Holesize 5 = 0.800 mm
T05C0.800
;Holesize 6 = 0.901 mm
T06C0.901
;Holesize 7 = 1.000 mm
T07C1.000
;Holesize 8 = 1.101 mm
T08C1.101
%
G05
G90
T01
X022050Y-032650
X019450Y-039150
X033200Y-046600
X029150Y-047050
X043900Y-034900
X043900Y-035850
X039500Y-041300
X031550Y-027300
X020250Y-034950
X034000Y-035400
X030700Y-039950
X026250Y-036150
X021150Y-065550
X057200Y-048600
X049650Y-048300
X019900Y-041700
X019900Y-043150
X053900Y-049700
X059440Y-066600
X051100Y-055250
X051925Y-053100
X027300Y-013900
X015100Y-037000
X015150Y-035550
X015100Y-040300
X030100Y-048450
X032700Y-032550
X029550Y-032650
X025600Y-031400
X026349Y-035150
X033900Y-034300
X026250Y-039100
X032700Y-040300
X028500Y-040150
X034000Y-039000
X035150Y-028300
X030148Y-036348
X029398Y-037148
X030897Y-037148
X030898Y-035599
X029399Y-035599
X007850Y-036800
X007850Y-038300
X007850Y-039750
X007850Y-041100
X031900Y-032550
X050300Y-053100
X021200Y-054200
X012050Y-020400
X013050Y-020400
X012050Y-021397
X013050Y-021396
X015150Y-045650
X035200Y-030250
X045550Y-036850
X052200Y-055250
X004350Y-035400
X004350Y-038300
X045550Y-033900
X053750Y-047250
X052250Y-045350
X022850Y-049550
X027400Y-050600
X057100Y-054300
X054450Y-057700
X047200Y-053550
X013850Y-034450
X004300Y-040900
X006400Y-034150
X008350Y-002825
X041850Y-026500
X012600Y-002825
X009650Y-022950
X002150Y-040900
X002150Y-038300
X002150Y-035350
X042650Y-041300
X027700Y-021100
X037350Y-020850
X042700Y-022250
X024800Y-020600
X002250Y-031800
X050250Y-043450
X006550Y-000150
X027150Y000500
X045550Y-001100
X010829Y-000101
X013500Y001200
X007200Y-032300
X000800Y-009400
X002100Y-006350
X059450Y-064150
X019000Y-051500
X026000Y-047100
X020000Y-024050
X023400Y-019300
X022250Y-015550
X019450Y-015850
X033650Y-010150
X008400Y-024100
X057250Y-051550
X049700Y-050700
X053550Y-053100
X052750Y-051300
X049300Y-057900
X012500Y-007400
X019800Y-019900
X001050Y-006350
X015950Y-010900
X001450Y-011350
X027450Y-026200
X007350Y-010100
X015200Y-042050
X015199Y-043650
X015150Y-038500
X015450Y-018550
X012000Y-034450
X-001100Y-008100
X004050Y-025300
X008150Y-031750
X019500Y-015850
X047250Y-063100
X049450Y-063200
X024400Y-009450
X021400Y-044750
X038150Y-043900
X017400Y-032550
X024100Y-024800
X016850Y-023700
X025800Y-028100
X019400Y-044600
X052400Y-047250
X016950Y-021450
X053150Y-069450
X-000600Y002400
X060100Y-048600
X027900Y-052050
X027450Y-053450
X011150Y-025800
X009900Y-024900
X017349Y-047200
X020450Y-046800
X000800Y-050900
X002150Y-050900
X010600Y-048200
X004400Y-032650
X003900Y-031350
X005950Y-046150
X007400Y-025350
X034750Y-013900
X028600Y-016500
X036750Y-018100
X037300Y-024700
X038600Y-018100
X032200Y-021200
X030350Y-016500
X032049Y-023350
X004150Y-012350
X016250Y-050250
X041850Y-027400
X051050Y-051300
X056600Y-071100
X031500Y-055300
X043500Y-023300
X040500Y-031200
X057250Y-044600
X027450Y-064000
X029850Y-066650
X023250Y-058400
X017700Y-070950
X016000Y-059950
X016900Y-061150
X004050Y-053000
X009200Y-055100
X009250Y-056500
X015300Y-054700
X016950Y-054700
X020100Y-060500
X016250Y-051250
X021050Y-057450
X050950Y-045350
X015300Y-023700
X012500Y-052750
X011900Y-015200
X006950Y-014750
X006600Y-017250
X019300Y-068850
X023850Y-067900
X025700Y-062450
X004850Y-045350
X035500Y-007050
X035500Y-008100
X043100Y-011750
X044350Y-011300
X045100Y-004250
X048850Y-037600
X048850Y-035850
X051800Y-038100
X056350Y-022350
X037250Y-012350
X056350Y-037850
X043000Y-014550
X025349Y-047900
X028449Y-049749
X040350Y-067400
X035400Y-046850
X047650Y-041800
X045400Y-019750
X051500Y-019750
X059350Y-034400
X059350Y-039650
X060200Y-005250
X047800Y001700
X041800Y-000800
X022050Y-005600
X032150Y-005850
X032500Y000500
X056650Y-040900
X059150Y-043000
X001100Y-061550
X001050Y-056050
X029300Y-002450
X031500Y-002500
X034050Y-055350
X041900Y003600
X045250Y003600
X035050Y-003000
X027199Y003329
X033448Y003329
X030323Y003329
X037525Y-064000
X007650Y-012106
X025100Y-002200
X016700Y-003000
X010499Y-018150
X011900Y-016550
X060200Y-006600
X054774Y001550
X044600Y-001637
X004350Y002400
X001100Y-065750
X005100Y-068250
X013450Y-062000
X009250Y-062225
X009300Y-058250
X017400Y-068700
X015950Y-068350
X005000Y-070600
X009200Y-065000
X009200Y-066000
X005000Y-071600
X042550Y-046100
X040500Y-058150
X038800Y-051150
X050850Y-048300
X057750Y-009850
X044750Y-054600
X045650Y-058100
X057700Y-061350
X060050Y-001500
X050850Y-028150
X056700Y-027650
X056750Y-028900
X054800Y-009850
X044950Y-048350
X043400Y-049850
X035450Y-048400
X017499Y-066350
X027000Y-067750
X056050Y-021200
X054850Y-030900
X040400Y-066050
X054774Y-000150
X060199Y-008000
X004700Y-066500
X004700Y-059950
X056600Y-068900
X046400Y-066450
X001650Y-002950
X039450Y-068750
X037525Y-066000
X037525Y-067950
X037525Y-069700
X022850Y-067900
X038800Y-007000
X038300Y-007900
X051700Y-018400
X045400Y-026850
X040050Y-013400
X047050Y-025300
X057450Y-021200
X053600Y-009850
X057600Y-018350
X055848Y-018400
X044600Y-005050
X050000Y-027200
X046950Y-038650
X028199Y-013900
X043499Y-068450
X028150Y-062350
X031349Y-059650
X023048Y-051551
X021499Y-049500
X045050Y-020950
X051899Y-036750
X017299Y-007350
X038050Y-020100
X054449Y-059450
T02
X024999Y-041699
T03
X001200Y-028849
X056348Y-005900
X056248Y-011900
T04
X055142Y-033030G85X054242Y-033030
X059172Y-033030G85X058572Y-033030
X059172Y-041670G85X058572Y-041670
X055142Y-041670G85X054242Y-041670
X040480Y-001907G85X040480Y-002807
X040480Y002123G85X040480Y001523
X049120Y002123G85X049120Y001523
X049120Y-001907G85X049120Y-002807
T05
X005350Y-003700G85X005350Y-002400
X018250Y-003700G85X018250Y-002400
X023600Y-003700G85X023600Y-002400
X036500Y-003700G85X036500Y-002400
T06
X002519Y-044551G85X003719Y-044551
X002519Y-030049G85X003719Y-030049
X008220Y-044551G85X010020Y-044551
X008220Y-030049G85X010020Y-030049
T07
X028210Y-069250
X030750Y-069250
X036250Y-052010
X036250Y-054550
X010010Y-069300
X012550Y-069300
X038350Y002940
X038350Y000400
X008300Y-004550
X010800Y-004550
X012800Y-004550
X015300Y-004550
X026550Y-004550
X029050Y-004550
X031050Y-004550
X033550Y-004550
X006100Y-061550G85X005400Y-061550
X001050Y-058550G85X001050Y-059250
X006100Y-056250G85X005400Y-056250
X006100Y-063850G85X005400Y-063850
X006100Y-053950G85X005400Y-053950
T08
X046930Y-010897G85X046930Y-010903
X049470Y-010897G85X049470Y-010903
X046930Y-013437G85X046930Y-013443
X049470Y-013437G85X049470Y-013443
X046930Y-015977G85X046930Y-015983
X049470Y-015977G85X049470Y-015983
X046930Y-018517G85X046930Y-018523
X049470Y-018517G85X049470Y-018523
X046930Y-021057G85X046930Y-021063
X049470Y-021057G85X049470Y-021063
X046930Y-023597G85X046930Y-023603
X049470Y-023597G85X049470Y-023603
X005620Y-023603G85X005620Y-023597
X003080Y-023603G85X003080Y-023597
X005620Y-021063G85X005620Y-021057
X003080Y-021063G85X003080Y-021057
X005620Y-018523G85X005620Y-018517
X003080Y-018523G85X003080Y-018517
X005620Y-015983G85X005620Y-015977
X003080Y-015983G85X003080Y-015977
X005620Y-013443G85X005620Y-013437
X003080Y-013443G85X003080Y-013437
X005620Y-010903G85X005620Y-010897
X003080Y-010903G85X003080Y-010897
X054952Y-065080G85X054947Y-065080
X054952Y-067620G85X054947Y-067620
X052412Y-065080G85X052407Y-065080
X052412Y-067620G85X052407Y-067620
X049872Y-065080G85X049867Y-065080
X049872Y-067620G85X049867Y-067620
X047332Y-065080G85X047327Y-065080
X047332Y-067620G85X047327Y-067620
X044792Y-065080G85X044787Y-065080
X044792Y-067620G85X044787Y-067620
X042252Y-065080G85X042247Y-065080
X042252Y-067620G85X042247Y-067620
M30
