M48
METRIC,LZ,000.000
;FILE_FORMAT=3:3
;TYPE=NON_PLATED
;Layer: NPTH_Through
;EasyEDA v6.5.51, 2026-07-14 13:51:35
;a907fb12628a40e4b555dd5b908cb7f1,96b9eb17c6bf4bf1aa34359f555252a9,10
;Gerber Generator version 0.2
;Holesize 1 = 0.551 mm
T01C0.551
;Holesize 2 = 0.600 mm
T02C0.600
;Holesize 3 = 1.301 mm
T03C1.301
;Holesize 4 = 2.901 mm
T04C2.901
%
G05
G90
T01
X062959Y-018192
X062959Y-019042
X062959Y-019892
X062959Y-020742
X062959Y-021592
X062959Y-022442
X062959Y-023292
X062959Y-024142
X064559Y-043908
X064559Y-044758
X064559Y-045608
X064559Y-046458
X064559Y-047308
X063999Y-048158
X063149Y-049008
X062959Y-049858
X061142Y-018192
X061142Y-019042
X061142Y-019892
X061142Y-020742
X061142Y-021592
X061142Y-022442
X061142Y-023292
X061142Y-024142
X061123Y-043908
X061122Y-044758
X061120Y-045608
X061119Y-046458
X061118Y-047308
X061117Y-048158
X061116Y-049008
X061115Y-049858
X-002041Y-018192
X-002041Y-019042
X-002041Y-019892
X-002041Y-020742
X-002041Y-021592
X-002041Y-022442
X-002041Y-023292
X-002041Y-024142
X-000441Y-043908
X-000441Y-044758
X-000441Y-045608
X-000441Y-046458
X-000441Y-047308
X-001000Y-048158
X-001850Y-049008
X-002041Y-049858
X126141Y-018192
X126141Y-019042
X126141Y-019892
X126141Y-020742
X126141Y-021592
X126141Y-022442
X126141Y-023292
X126141Y-024142
X126122Y-043908
X126121Y-044758
X126120Y-045608
X126119Y-046458
X126118Y-047308
X126117Y-048158
X126116Y-049008
X126115Y-049858
T02
X055193Y-040240
X055193Y-034460
X047690Y-001857
X041910Y-001857
T03
X000700Y-063850
X000700Y-053950
X005750Y-058900
T04
X001850Y-068399
X057050Y000950
X001850Y000950
X057050Y-058700
M30
