G04 Layer: BoardOutlineLayer*
G04 Panelize: Stamp Hole, Column: 2, Row: 1, Board Size: 63mm x 77.15mm, Panelized Board Size: 128mm x 77.15mm*
G04 EasyEDA v6.5.51, 2026-07-14 13:51:35*
G04 a907fb12628a40e4b555dd5b908cb7f1,96b9eb17c6bf4bf1aa34359f555252a9,10*
G04 Gerber Generator version 0.2*
G04 Scale: 100 percent, Rotated: No, Reflected: No *
G04 Dimensions in millimeters *
G04 leading zeros omitted , absolute positions ,4 integer and 5 decimal *
%FSLAX45Y45*%
%MOMM*%

%ADD10C,0.2540*%
%ADD11C,0.0191*%
D10*
X259971Y-7260000D02*
G01*
X220093Y-7260000D01*
X-19936Y-7260000D01*
X-194942Y-7084994D01*
X-194942Y-4919898D01*
X-34922Y-4759878D01*
X-34922Y-2695112D01*
X-194942Y-2535092D01*
X-194942Y-593770D01*
X-194942Y270083D01*
X-10030Y454995D01*
X345061Y454995D01*
X6099939Y-7029876D02*
G01*
X6099939Y-6984918D01*
X6105019Y-2800014D01*
X6105019Y-2889930D01*
X6105019Y270083D01*
X5920107Y454995D01*
X5589907Y454995D01*
X5565015Y454995D01*
X222529Y455000D02*
G01*
X5647461Y455000D01*
X6099939Y-6930054D02*
G01*
X6099939Y-7079914D01*
X5919853Y-7260000D01*
X3425065Y-7260000D01*
X3349881Y-7260000D01*
X3424994Y-7259985D02*
G01*
X2569778Y-7259985D01*
X2566860Y-7259985D02*
G01*
X203133Y-7259985D01*
X6759933Y-7260000D02*
G01*
X6720055Y-7260000D01*
X6480025Y-7260000D01*
X6305019Y-7084994D01*
X6305019Y-4919898D01*
X6465039Y-4759878D01*
X6465039Y-2695112D01*
X6305019Y-2535092D01*
X6305019Y-593770D01*
X6305019Y270083D01*
X6489931Y454995D01*
X6845023Y454995D01*
X12599901Y-7029876D02*
G01*
X12599901Y-6984918D01*
X12604981Y-2800014D01*
X12604981Y-2889930D01*
X12604981Y270083D01*
X12420069Y454995D01*
X12089869Y454995D01*
X12064977Y454995D01*
X6722491Y455000D02*
G01*
X12147423Y455000D01*
X12599901Y-6930054D02*
G01*
X12599901Y-7079914D01*
X12419815Y-7260000D01*
X9925027Y-7260000D01*
X9849843Y-7260000D01*
X9924956Y-7259985D02*
G01*
X9069741Y-7259985D01*
X9066822Y-7259985D02*
G01*
X6703096Y-7259985D01*
X-694941Y454997D02*
G01*
X13104981Y454997D01*
X13104981Y-7259998D01*
X-694941Y-7259998D01*
X-694941Y454997D01*
X-394942Y-1774662D02*
G01*
X-394942Y454997D01*
X12804980Y-1774662D02*
G01*
X12804980Y454997D01*
X-394942Y-4346328D02*
G01*
X-394942Y-2458671D01*
X12804980Y-4346328D02*
G01*
X12804980Y-2458671D01*
X-394942Y-7259998D02*
G01*
X-394942Y-5030337D01*
X12804980Y-7259998D02*
G01*
X12804980Y-5030337D01*
X6295852Y-1774662D02*
G01*
X6114186Y-1774662D01*
X6295852Y-2458671D02*
G01*
X6114186Y-2458671D01*
X6455872Y-4346328D02*
G01*
X6112309Y-4346328D01*
X6295852Y-5030337D02*
G01*
X6111478Y-5030337D01*
X-204109Y-1774662D02*
G01*
X-394942Y-1774662D01*
X12804980Y-1774662D02*
G01*
X12614148Y-1774662D01*
X-204109Y-2458671D02*
G01*
X-394942Y-2458671D01*
X12804980Y-2458671D02*
G01*
X12614148Y-2458671D01*
X-44089Y-4346328D02*
G01*
X-394942Y-4346328D01*
X12804980Y-4346328D02*
G01*
X12612270Y-4346328D01*
X-204109Y-5030337D02*
G01*
X-394942Y-5030337D01*
X12804980Y-5030337D02*
G01*
X12611440Y-5030337D01*

%LPD*%
M02*
