G04 Layer: BottomLayer*
G04 Panelize: Stamp Hole, Column: 2, Row: 1, Board Size: 63mm x 77.15mm, Panelized Board Size: 128mm x 77.15mm*
G04 EasyEDA v6.5.51, 2026-07-14 13:51:35*
G04 a907fb12628a40e4b555dd5b908cb7f1,96b9eb17c6bf4bf1aa34359f555252a9,10*
G04 Gerber Generator version 0.2*
G04 Scale: 100 percent, Rotated: No, Reflected: No *
G04 Dimensions in millimeters *
G04 leading zeros omitted , absolute positions ,4 integer and 5 decimal *
%FSLAX45Y45*%
%MOMM*%

%AMMACRO1*21,1,$1,$2,0,0,$3*%
%ADD10C,0.3700*%
%ADD11C,0.4500*%
%ADD12C,0.8000*%
%ADD13C,0.3000*%
%ADD14C,0.2000*%
%ADD15C,0.2640*%
%ADD16C,0.4000*%
%ADD17C,0.6000*%
%ADD18C,0.0159*%
%ADD19C,2.0000*%
%ADD20R,1.6000X1.7000*%
%ADD21C,1.7000*%
%ADD22O,1.299997X2.799994*%
%ADD23C,1.6000*%
%ADD24MACRO1,1.6X1.6X0.0000*%
%ADD25O,1.899996X0.999998*%
%ADD26O,1.599997X0.999998*%
%ADD27R,1.7000X1.6000*%
%ADD28O,2.49936X1.799996*%
%ADD29O,1.799996X2.49936*%
%ADD30O,0.999998X1.899996*%
%ADD31O,0.999998X1.599997*%
%ADD32O,2.70002X1.499997*%
%ADD33O,3.299968X1.499997*%
%ADD34C,1.0000*%
%ADD35C,0.7500*%
%ADD36C,0.6100*%

%LPD*%
G36*
X-4978Y-7234072D02*
G01*
X-8839Y-7233310D01*
X-12141Y-7231075D01*
X-166014Y-7077202D01*
X-168249Y-7073900D01*
X-169011Y-7070039D01*
X-169011Y-4934813D01*
X-168249Y-4930952D01*
X-166014Y-4927650D01*
X-16865Y-4778451D01*
X-14376Y-4775555D01*
X-10820Y-4769104D01*
X-9296Y-4763719D01*
X-8991Y-4759452D01*
X-8991Y-2695498D01*
X-9296Y-2691688D01*
X-11328Y-2684627D01*
X-14071Y-2679750D01*
X-16865Y-2676499D01*
X-166014Y-2527300D01*
X-168249Y-2523998D01*
X-169011Y-2520137D01*
X-169011Y255168D01*
X-168249Y259029D01*
X-166014Y262331D01*
X-2235Y426110D01*
X1066Y428345D01*
X4927Y429107D01*
X3781653Y429107D01*
X3785260Y428396D01*
X3788816Y429107D01*
X3881221Y429107D01*
X3884777Y428396D01*
X3888333Y429107D01*
X5905195Y429107D01*
X5909056Y428345D01*
X5912358Y426110D01*
X6076137Y262331D01*
X6078372Y259029D01*
X6079134Y255168D01*
X6079134Y-2799994D01*
X6074054Y-6930237D01*
X6074054Y-7064959D01*
X6073292Y-7068820D01*
X6071057Y-7072122D01*
X5912104Y-7231075D01*
X5908802Y-7233310D01*
X5904941Y-7234072D01*
G37*

%LPC*%
G36*
X1001014Y-7055866D02*
G01*
X1016203Y-7054951D01*
X1031138Y-7052208D01*
X1045667Y-7047687D01*
X1059535Y-7041438D01*
X1072540Y-7033564D01*
X1084478Y-7024217D01*
X1095248Y-7013448D01*
X1104646Y-7001459D01*
X1112469Y-6988454D01*
X1118768Y-6974535D01*
X1121003Y-6971385D01*
X1124204Y-6969302D01*
X1128014Y-6968540D01*
X1131824Y-6969302D01*
X1135075Y-6971385D01*
X1137310Y-6974535D01*
X1143558Y-6988454D01*
X1151432Y-7001459D01*
X1160780Y-7013448D01*
X1171549Y-7024217D01*
X1183487Y-7033564D01*
X1196543Y-7041438D01*
X1210360Y-7047687D01*
X1224889Y-7052208D01*
X1239824Y-7054951D01*
X1255014Y-7055866D01*
X1270203Y-7054951D01*
X1285138Y-7052208D01*
X1299667Y-7047687D01*
X1313535Y-7041438D01*
X1326540Y-7033564D01*
X1338478Y-7024217D01*
X1349248Y-7013448D01*
X1358646Y-7001459D01*
X1366012Y-6989368D01*
X1401673Y-6924344D01*
X1403908Y-6921550D01*
X1407007Y-6919722D01*
X1410563Y-6919061D01*
X1549501Y-6919061D01*
X1557629Y-6918248D01*
X1564944Y-6916064D01*
X1571701Y-6912457D01*
X1578000Y-6907275D01*
X1587804Y-6897471D01*
X1591411Y-6895134D01*
X1602282Y-6891070D01*
X1614322Y-6887921D01*
X1623212Y-6883755D01*
X1631238Y-6878167D01*
X1638198Y-6871208D01*
X1643837Y-6863130D01*
X1648002Y-6854240D01*
X1650542Y-6844741D01*
X1651406Y-6834987D01*
X1650542Y-6825183D01*
X1648002Y-6815683D01*
X1643837Y-6806793D01*
X1638198Y-6798716D01*
X1631238Y-6791756D01*
X1623212Y-6786168D01*
X1614322Y-6782003D01*
X1604822Y-6779463D01*
X1595018Y-6778599D01*
X1585214Y-6779463D01*
X1575714Y-6782003D01*
X1566824Y-6786168D01*
X1558798Y-6791756D01*
X1551838Y-6798716D01*
X1546199Y-6806793D01*
X1542034Y-6815683D01*
X1538884Y-6827723D01*
X1536446Y-6834276D01*
X1534261Y-6837730D01*
X1530908Y-6840016D01*
X1526946Y-6840880D01*
X1385519Y-6840880D01*
X1378559Y-6841286D01*
X1376324Y-6840728D01*
X1299972Y-6812381D01*
X1285138Y-6807758D01*
X1270203Y-6805015D01*
X1255014Y-6804101D01*
X1239824Y-6805015D01*
X1224889Y-6807758D01*
X1210360Y-6812280D01*
X1196543Y-6818477D01*
X1183487Y-6826351D01*
X1171549Y-6835749D01*
X1160780Y-6846468D01*
X1151432Y-6858457D01*
X1143558Y-6871462D01*
X1137310Y-6885381D01*
X1135075Y-6888530D01*
X1131824Y-6890664D01*
X1128014Y-6891375D01*
X1124204Y-6890664D01*
X1121003Y-6888530D01*
X1118768Y-6885381D01*
X1112469Y-6871462D01*
X1104646Y-6858457D01*
X1095248Y-6846468D01*
X1084478Y-6835749D01*
X1072540Y-6826351D01*
X1059535Y-6818477D01*
X1045667Y-6812280D01*
X1031138Y-6807758D01*
X1016203Y-6805015D01*
X1001014Y-6804101D01*
X985824Y-6805015D01*
X970889Y-6807758D01*
X956360Y-6812280D01*
X942543Y-6818477D01*
X929487Y-6826351D01*
X917549Y-6835749D01*
X906780Y-6846468D01*
X897432Y-6858457D01*
X889558Y-6871462D01*
X883310Y-6885330D01*
X878789Y-6899859D01*
X876046Y-6914794D01*
X875131Y-6929983D01*
X876046Y-6945122D01*
X878789Y-6960108D01*
X883310Y-6974586D01*
X889558Y-6988454D01*
X897432Y-7001459D01*
X906780Y-7013448D01*
X917549Y-7024217D01*
X929487Y-7033564D01*
X942543Y-7041438D01*
X956360Y-7047687D01*
X970889Y-7052208D01*
X985824Y-7054951D01*
G37*
G36*
X2821025Y-7050836D02*
G01*
X2836214Y-7049922D01*
X2851150Y-7047179D01*
X2865678Y-7042658D01*
X2879496Y-7036409D01*
X2892552Y-7028586D01*
X2904490Y-7019188D01*
X2915259Y-7008469D01*
X2924606Y-6996480D01*
X2932480Y-6983475D01*
X2938729Y-6969556D01*
X2943250Y-6955078D01*
X2945993Y-6940143D01*
X2946908Y-6924954D01*
X2945993Y-6909765D01*
X2943250Y-6894830D01*
X2938729Y-6880402D01*
X2932480Y-6866483D01*
X2924606Y-6853428D01*
X2915259Y-6841490D01*
X2904490Y-6830720D01*
X2892552Y-6821373D01*
X2879496Y-6813499D01*
X2865678Y-6807250D01*
X2851150Y-6802729D01*
X2836214Y-6799986D01*
X2821025Y-6799072D01*
X2805836Y-6799986D01*
X2790901Y-6802729D01*
X2776372Y-6807250D01*
X2762504Y-6813499D01*
X2749499Y-6821373D01*
X2737561Y-6830720D01*
X2726791Y-6841490D01*
X2717393Y-6853428D01*
X2709570Y-6866483D01*
X2703322Y-6880301D01*
X2698800Y-6894830D01*
X2696057Y-6909765D01*
X2695143Y-6924954D01*
X2696057Y-6940143D01*
X2698800Y-6955078D01*
X2703322Y-6969607D01*
X2709570Y-6983475D01*
X2717393Y-6996480D01*
X2726791Y-7008469D01*
X2737561Y-7019188D01*
X2749499Y-7028586D01*
X2762504Y-7036409D01*
X2776372Y-7042658D01*
X2790901Y-7047179D01*
X2805836Y-7049922D01*
G37*
G36*
X3018688Y-7037425D02*
G01*
X3018688Y-6981291D01*
X2962554Y-6981291D01*
X2963570Y-6983475D01*
X2971393Y-6996480D01*
X2980791Y-7008469D01*
X2991561Y-7019188D01*
X3003499Y-7028586D01*
X3016504Y-7036409D01*
G37*
G36*
X3131362Y-7037425D02*
G01*
X3133496Y-7036409D01*
X3146552Y-7028586D01*
X3158490Y-7019188D01*
X3169259Y-7008469D01*
X3178606Y-6996480D01*
X3186480Y-6983475D01*
X3187446Y-6981291D01*
X3131362Y-6981291D01*
G37*
G36*
X185013Y-7010806D02*
G01*
X202895Y-7009841D01*
X220522Y-7007047D01*
X237845Y-7002424D01*
X254508Y-6996023D01*
X270459Y-6987895D01*
X285445Y-6978142D01*
X299364Y-6966864D01*
X312013Y-6954266D01*
X323291Y-6940346D01*
X332994Y-6925360D01*
X341122Y-6909409D01*
X347522Y-6892696D01*
X352196Y-6875424D01*
X354990Y-6857746D01*
X355904Y-6839915D01*
X354990Y-6822033D01*
X352196Y-6804355D01*
X347522Y-6787083D01*
X341122Y-6770370D01*
X332994Y-6754418D01*
X323291Y-6739432D01*
X312013Y-6725513D01*
X299364Y-6712915D01*
X285445Y-6701637D01*
X270459Y-6691884D01*
X254508Y-6683756D01*
X237845Y-6677355D01*
X220522Y-6672732D01*
X202895Y-6669938D01*
X185013Y-6668973D01*
X167132Y-6669938D01*
X149504Y-6672732D01*
X132181Y-6677355D01*
X115519Y-6683756D01*
X99568Y-6691884D01*
X84582Y-6701637D01*
X70662Y-6712915D01*
X58013Y-6725513D01*
X46736Y-6739432D01*
X37033Y-6754418D01*
X28905Y-6770370D01*
X22504Y-6787083D01*
X17830Y-6804355D01*
X15036Y-6822033D01*
X14122Y-6839915D01*
X15036Y-6857746D01*
X17830Y-6875424D01*
X22504Y-6892696D01*
X28905Y-6909409D01*
X37033Y-6925360D01*
X46736Y-6940346D01*
X58013Y-6954266D01*
X70662Y-6966864D01*
X84582Y-6978142D01*
X99568Y-6987895D01*
X115519Y-6996023D01*
X132181Y-7002424D01*
X149504Y-7007047D01*
X167132Y-7009841D01*
G37*
G36*
X4729480Y-6872782D02*
G01*
X4743653Y-6872325D01*
X4757674Y-6870090D01*
X4771288Y-6866026D01*
X4784293Y-6860286D01*
X4796434Y-6852920D01*
X4807559Y-6844030D01*
X4817465Y-6833870D01*
X4825949Y-6822440D01*
X4832908Y-6810095D01*
X4838242Y-6796887D01*
X4841849Y-6783171D01*
X4843678Y-6769049D01*
X4843678Y-6754875D01*
X4841849Y-6740753D01*
X4838242Y-6727037D01*
X4832908Y-6713880D01*
X4825949Y-6701485D01*
X4817465Y-6690106D01*
X4807559Y-6679895D01*
X4796434Y-6671005D01*
X4784293Y-6663639D01*
X4771288Y-6657898D01*
X4757674Y-6653885D01*
X4743653Y-6651599D01*
X4729480Y-6651142D01*
X4715306Y-6652514D01*
X4701438Y-6655663D01*
X4688128Y-6660591D01*
X4675530Y-6667144D01*
X4663897Y-6675272D01*
X4653381Y-6684822D01*
X4644136Y-6695643D01*
X4636414Y-6707530D01*
X4630216Y-6720331D01*
X4625746Y-6733844D01*
X4623054Y-6747764D01*
X4622139Y-6761988D01*
X4623054Y-6776161D01*
X4625746Y-6790080D01*
X4630216Y-6803593D01*
X4636414Y-6816394D01*
X4644136Y-6828281D01*
X4653381Y-6839102D01*
X4663897Y-6848652D01*
X4675530Y-6856780D01*
X4688128Y-6863384D01*
X4701438Y-6868261D01*
X4715306Y-6871411D01*
G37*
G36*
X5237480Y-6872782D02*
G01*
X5251653Y-6872325D01*
X5265674Y-6870090D01*
X5279288Y-6866026D01*
X5292293Y-6860286D01*
X5304434Y-6852920D01*
X5315559Y-6844030D01*
X5325465Y-6833870D01*
X5333949Y-6822440D01*
X5340908Y-6810095D01*
X5346242Y-6796887D01*
X5349849Y-6783171D01*
X5351678Y-6769049D01*
X5351678Y-6754875D01*
X5349849Y-6740753D01*
X5346242Y-6727037D01*
X5340908Y-6713880D01*
X5333949Y-6701485D01*
X5325465Y-6690106D01*
X5315559Y-6679895D01*
X5304434Y-6671005D01*
X5292293Y-6663639D01*
X5279288Y-6657898D01*
X5265674Y-6653885D01*
X5251653Y-6651599D01*
X5237480Y-6651142D01*
X5223306Y-6652514D01*
X5209438Y-6655663D01*
X5196128Y-6660591D01*
X5183530Y-6667144D01*
X5171897Y-6675272D01*
X5161381Y-6684822D01*
X5152136Y-6695643D01*
X5144414Y-6707530D01*
X5138216Y-6720331D01*
X5133746Y-6733844D01*
X5131054Y-6747764D01*
X5130139Y-6761988D01*
X5131054Y-6776161D01*
X5133746Y-6790080D01*
X5138216Y-6803593D01*
X5144414Y-6816394D01*
X5152136Y-6828281D01*
X5161381Y-6839102D01*
X5171897Y-6848652D01*
X5183530Y-6856780D01*
X5196128Y-6863384D01*
X5209438Y-6868261D01*
X5223306Y-6871411D01*
G37*
G36*
X4983480Y-6872782D02*
G01*
X4997653Y-6872325D01*
X5011674Y-6870090D01*
X5025288Y-6866026D01*
X5038293Y-6860286D01*
X5050434Y-6852920D01*
X5061559Y-6844030D01*
X5071465Y-6833870D01*
X5079949Y-6822440D01*
X5086908Y-6810095D01*
X5092242Y-6796887D01*
X5095849Y-6783171D01*
X5097678Y-6769049D01*
X5097678Y-6754875D01*
X5095849Y-6740753D01*
X5092242Y-6727037D01*
X5086908Y-6713880D01*
X5079949Y-6701485D01*
X5071465Y-6690106D01*
X5061559Y-6679895D01*
X5050434Y-6671005D01*
X5038293Y-6663639D01*
X5025288Y-6657898D01*
X5011674Y-6653885D01*
X4997653Y-6651599D01*
X4983480Y-6651142D01*
X4969306Y-6652514D01*
X4955438Y-6655663D01*
X4942128Y-6660591D01*
X4929530Y-6667144D01*
X4917897Y-6675272D01*
X4907381Y-6684822D01*
X4898136Y-6695643D01*
X4890414Y-6707530D01*
X4884216Y-6720331D01*
X4879746Y-6733844D01*
X4877054Y-6747764D01*
X4876139Y-6761988D01*
X4877054Y-6776161D01*
X4879746Y-6790080D01*
X4884216Y-6803593D01*
X4890414Y-6816394D01*
X4898136Y-6828281D01*
X4907381Y-6839102D01*
X4917897Y-6848652D01*
X4929530Y-6856780D01*
X4942128Y-6863384D01*
X4955438Y-6868261D01*
X4969306Y-6871411D01*
G37*
G36*
X5491480Y-6872782D02*
G01*
X5505653Y-6872325D01*
X5519674Y-6870090D01*
X5533288Y-6866026D01*
X5546293Y-6860286D01*
X5558434Y-6852920D01*
X5569559Y-6844030D01*
X5579465Y-6833870D01*
X5587949Y-6822440D01*
X5594908Y-6810095D01*
X5600242Y-6796887D01*
X5603849Y-6783171D01*
X5605678Y-6769049D01*
X5605678Y-6754875D01*
X5603849Y-6740753D01*
X5600242Y-6727037D01*
X5594908Y-6713880D01*
X5587949Y-6701485D01*
X5579465Y-6690106D01*
X5569559Y-6679895D01*
X5558434Y-6671005D01*
X5546293Y-6663639D01*
X5533288Y-6657898D01*
X5519674Y-6653885D01*
X5505653Y-6651599D01*
X5491480Y-6651142D01*
X5477306Y-6652514D01*
X5463438Y-6655663D01*
X5450128Y-6660591D01*
X5437530Y-6667144D01*
X5425897Y-6675272D01*
X5415381Y-6684822D01*
X5406136Y-6695643D01*
X5398414Y-6707530D01*
X5392216Y-6720331D01*
X5387746Y-6733844D01*
X5385054Y-6747764D01*
X5384139Y-6761988D01*
X5385054Y-6776161D01*
X5387746Y-6790080D01*
X5392216Y-6803593D01*
X5398414Y-6816394D01*
X5406136Y-6828281D01*
X5415381Y-6839102D01*
X5425897Y-6848652D01*
X5437530Y-6856780D01*
X5450128Y-6863384D01*
X5463438Y-6868261D01*
X5477306Y-6871411D01*
G37*
G36*
X4221480Y-6872782D02*
G01*
X4235653Y-6872325D01*
X4249674Y-6870090D01*
X4263288Y-6866026D01*
X4276293Y-6860286D01*
X4288434Y-6852920D01*
X4299559Y-6844030D01*
X4309465Y-6833870D01*
X4317949Y-6822440D01*
X4324908Y-6810095D01*
X4330242Y-6796887D01*
X4333849Y-6783171D01*
X4335678Y-6769049D01*
X4335678Y-6754875D01*
X4333849Y-6740753D01*
X4330242Y-6727037D01*
X4324908Y-6713880D01*
X4317949Y-6701485D01*
X4309465Y-6690106D01*
X4305858Y-6686397D01*
X4303725Y-6683095D01*
X4303014Y-6679234D01*
X4303826Y-6675374D01*
X4306011Y-6672122D01*
X4309313Y-6669938D01*
X4313174Y-6669176D01*
X4390694Y-6669176D01*
X4394454Y-6669887D01*
X4397705Y-6671970D01*
X4399940Y-6675069D01*
X4400854Y-6678777D01*
X4400296Y-6682587D01*
X4398416Y-6685889D01*
X4390136Y-6695643D01*
X4382414Y-6707530D01*
X4376216Y-6720331D01*
X4371746Y-6733844D01*
X4369054Y-6747764D01*
X4368139Y-6761988D01*
X4369054Y-6776161D01*
X4371746Y-6790080D01*
X4376216Y-6803593D01*
X4382414Y-6816394D01*
X4390136Y-6828281D01*
X4399381Y-6839102D01*
X4409897Y-6848652D01*
X4421530Y-6856780D01*
X4434128Y-6863384D01*
X4447438Y-6868261D01*
X4461306Y-6871411D01*
X4475480Y-6872782D01*
X4489653Y-6872325D01*
X4503674Y-6870090D01*
X4517288Y-6866026D01*
X4530293Y-6860286D01*
X4542434Y-6852920D01*
X4553559Y-6844030D01*
X4563465Y-6833870D01*
X4571949Y-6822440D01*
X4578908Y-6810095D01*
X4584242Y-6796887D01*
X4587849Y-6783171D01*
X4589678Y-6769049D01*
X4589678Y-6754875D01*
X4587849Y-6740753D01*
X4584242Y-6727037D01*
X4578908Y-6713880D01*
X4571949Y-6701485D01*
X4563465Y-6690106D01*
X4557471Y-6683908D01*
X4555236Y-6680403D01*
X4554626Y-6676339D01*
X4555642Y-6672325D01*
X4558182Y-6669074D01*
X4561789Y-6667093D01*
X4564989Y-6666128D01*
X4571746Y-6662521D01*
X4578045Y-6657340D01*
X4635296Y-6600037D01*
X4638243Y-6597954D01*
X4641748Y-6597091D01*
X4645355Y-6597497D01*
X4701235Y-6614210D01*
X4715306Y-6617411D01*
X4729480Y-6618782D01*
X4743653Y-6618325D01*
X4757674Y-6616090D01*
X4771288Y-6612026D01*
X4784293Y-6606286D01*
X4796434Y-6598920D01*
X4807559Y-6590030D01*
X4817465Y-6579870D01*
X4825949Y-6568440D01*
X4832908Y-6556095D01*
X4838242Y-6542887D01*
X4841849Y-6529171D01*
X4843678Y-6515049D01*
X4843678Y-6500876D01*
X4841849Y-6486753D01*
X4838242Y-6473037D01*
X4832908Y-6459880D01*
X4825949Y-6447485D01*
X4817465Y-6436106D01*
X4807559Y-6425895D01*
X4796434Y-6417005D01*
X4784293Y-6409639D01*
X4771288Y-6403898D01*
X4757674Y-6399885D01*
X4743653Y-6397599D01*
X4729480Y-6397142D01*
X4715306Y-6398514D01*
X4701438Y-6401663D01*
X4688128Y-6406591D01*
X4675530Y-6413144D01*
X4663897Y-6421272D01*
X4653381Y-6430822D01*
X4644136Y-6441643D01*
X4636414Y-6453530D01*
X4608880Y-6507124D01*
X4605985Y-6510528D01*
X4601921Y-6512407D01*
X4597450Y-6512356D01*
X4593437Y-6510375D01*
X4590643Y-6506870D01*
X4589678Y-6502501D01*
X4589678Y-6500876D01*
X4587849Y-6486753D01*
X4584242Y-6473037D01*
X4578908Y-6459880D01*
X4571949Y-6447485D01*
X4563465Y-6436106D01*
X4553559Y-6425895D01*
X4542434Y-6417005D01*
X4530293Y-6409639D01*
X4517288Y-6403898D01*
X4503674Y-6399885D01*
X4489653Y-6397599D01*
X4475480Y-6397142D01*
X4461306Y-6398514D01*
X4447438Y-6401663D01*
X4434128Y-6406591D01*
X4421530Y-6413144D01*
X4409897Y-6421272D01*
X4399381Y-6430822D01*
X4390136Y-6441643D01*
X4382414Y-6453530D01*
X4376216Y-6466332D01*
X4371746Y-6479844D01*
X4369054Y-6493764D01*
X4368139Y-6507988D01*
X4369054Y-6522161D01*
X4371746Y-6536080D01*
X4376216Y-6549593D01*
X4382363Y-6562344D01*
X4390847Y-6575196D01*
X4392371Y-6579260D01*
X4392117Y-6583578D01*
X4390034Y-6587439D01*
X4386580Y-6590030D01*
X4382363Y-6590944D01*
X4321403Y-6590944D01*
X4317085Y-6589979D01*
X4313580Y-6587236D01*
X4311548Y-6583222D01*
X4311446Y-6578803D01*
X4313275Y-6574739D01*
X4317949Y-6568440D01*
X4324908Y-6556095D01*
X4330242Y-6542887D01*
X4333849Y-6529171D01*
X4335678Y-6515049D01*
X4335678Y-6500876D01*
X4333849Y-6486753D01*
X4330242Y-6473037D01*
X4324908Y-6459880D01*
X4317949Y-6447485D01*
X4309465Y-6436106D01*
X4299559Y-6425895D01*
X4288434Y-6417005D01*
X4276293Y-6409639D01*
X4263288Y-6403898D01*
X4249674Y-6399885D01*
X4235653Y-6397599D01*
X4221480Y-6397142D01*
X4207306Y-6398514D01*
X4193438Y-6401663D01*
X4180128Y-6406591D01*
X4167530Y-6413144D01*
X4155897Y-6421272D01*
X4145381Y-6430822D01*
X4136136Y-6441643D01*
X4128414Y-6453530D01*
X4122216Y-6466332D01*
X4117746Y-6479844D01*
X4115054Y-6493764D01*
X4114139Y-6507988D01*
X4115054Y-6522161D01*
X4117746Y-6536080D01*
X4122216Y-6549593D01*
X4128363Y-6562344D01*
X4136847Y-6575196D01*
X4138371Y-6579260D01*
X4138117Y-6583578D01*
X4136034Y-6587439D01*
X4132579Y-6590030D01*
X4128363Y-6590944D01*
X4101896Y-6590944D01*
X4098188Y-6590233D01*
X4094937Y-6588201D01*
X4092701Y-6585102D01*
X4088841Y-6576771D01*
X4083202Y-6568744D01*
X4076242Y-6561785D01*
X4068216Y-6556146D01*
X4059326Y-6551980D01*
X4049826Y-6549440D01*
X4040022Y-6548577D01*
X4030218Y-6549440D01*
X4020718Y-6551980D01*
X4011828Y-6556146D01*
X4003801Y-6561785D01*
X3996842Y-6568744D01*
X3991203Y-6576771D01*
X3987037Y-6585661D01*
X3984498Y-6595160D01*
X3983634Y-6604965D01*
X3984498Y-6614769D01*
X3987037Y-6624269D01*
X3991203Y-6633159D01*
X3996842Y-6641185D01*
X4003801Y-6648145D01*
X4011828Y-6653784D01*
X4020718Y-6657949D01*
X4030218Y-6660489D01*
X4032859Y-6660794D01*
X4043781Y-6663283D01*
X4046372Y-6664248D01*
X4049776Y-6666077D01*
X4057091Y-6668312D01*
X4065422Y-6669176D01*
X4136694Y-6669176D01*
X4140454Y-6669887D01*
X4143705Y-6671970D01*
X4145940Y-6675069D01*
X4146854Y-6678777D01*
X4146296Y-6682587D01*
X4144416Y-6685889D01*
X4136136Y-6695643D01*
X4128414Y-6707530D01*
X4122216Y-6720331D01*
X4117746Y-6733844D01*
X4115054Y-6747764D01*
X4114139Y-6761988D01*
X4115054Y-6776161D01*
X4117746Y-6790080D01*
X4122216Y-6803593D01*
X4128414Y-6816394D01*
X4136136Y-6828281D01*
X4145381Y-6839102D01*
X4155897Y-6848652D01*
X4167530Y-6856780D01*
X4180128Y-6863384D01*
X4193438Y-6868261D01*
X4207306Y-6871411D01*
G37*
G36*
X2962554Y-6868617D02*
G01*
X3018688Y-6868617D01*
X3018688Y-6812534D01*
X3016504Y-6813499D01*
X3003499Y-6821373D01*
X2991561Y-6830720D01*
X2980791Y-6841490D01*
X2971393Y-6853428D01*
X2963570Y-6866483D01*
G37*
G36*
X3131362Y-6868617D02*
G01*
X3187446Y-6868617D01*
X3186480Y-6866483D01*
X3178606Y-6853428D01*
X3169259Y-6841490D01*
X3158490Y-6830720D01*
X3146552Y-6821373D01*
X3133496Y-6813499D01*
X3131362Y-6812534D01*
G37*
G36*
X4983480Y-6618782D02*
G01*
X4997653Y-6618325D01*
X5011674Y-6616090D01*
X5025288Y-6612026D01*
X5038293Y-6606286D01*
X5050434Y-6598920D01*
X5061559Y-6590030D01*
X5071465Y-6579870D01*
X5079949Y-6568440D01*
X5086908Y-6556095D01*
X5092242Y-6542887D01*
X5095849Y-6529171D01*
X5097678Y-6515049D01*
X5097678Y-6500876D01*
X5095849Y-6486753D01*
X5092242Y-6473037D01*
X5086908Y-6459880D01*
X5079949Y-6447485D01*
X5071465Y-6436106D01*
X5061559Y-6425895D01*
X5050434Y-6417005D01*
X5038293Y-6409639D01*
X5025288Y-6403898D01*
X5011674Y-6399885D01*
X4997653Y-6397599D01*
X4983480Y-6397142D01*
X4969306Y-6398514D01*
X4955438Y-6401663D01*
X4942128Y-6406591D01*
X4929530Y-6413144D01*
X4917897Y-6421272D01*
X4907381Y-6430822D01*
X4898136Y-6441643D01*
X4890414Y-6453530D01*
X4884216Y-6466332D01*
X4879746Y-6479844D01*
X4877054Y-6493764D01*
X4876139Y-6507988D01*
X4877054Y-6522161D01*
X4879746Y-6536080D01*
X4884216Y-6549593D01*
X4890414Y-6562394D01*
X4898136Y-6574281D01*
X4907381Y-6585102D01*
X4917897Y-6594652D01*
X4929530Y-6602780D01*
X4942128Y-6609384D01*
X4955438Y-6614261D01*
X4969306Y-6617411D01*
G37*
G36*
X5410606Y-6613855D02*
G01*
X5446166Y-6613855D01*
X5446166Y-6554317D01*
X5384088Y-6554317D01*
X5384088Y-6587388D01*
X5384800Y-6593738D01*
X5386730Y-6599174D01*
X5389829Y-6604101D01*
X5393893Y-6608165D01*
X5398820Y-6611264D01*
X5404256Y-6613144D01*
G37*
G36*
X5543854Y-6613855D02*
G01*
X5579465Y-6613855D01*
X5585764Y-6613144D01*
X5591251Y-6611264D01*
X5596128Y-6608165D01*
X5600242Y-6604101D01*
X5603290Y-6599174D01*
X5605221Y-6593738D01*
X5605932Y-6587388D01*
X5605932Y-6554317D01*
X5543854Y-6554317D01*
G37*
G36*
X5289854Y-6607352D02*
G01*
X5292293Y-6606286D01*
X5304434Y-6598920D01*
X5315559Y-6590030D01*
X5325465Y-6579870D01*
X5333949Y-6568440D01*
X5340502Y-6556806D01*
X5289854Y-6556806D01*
G37*
G36*
X5192166Y-6607302D02*
G01*
X5192166Y-6556806D01*
X5141722Y-6556806D01*
X5144414Y-6562394D01*
X5152136Y-6574281D01*
X5161381Y-6585102D01*
X5171897Y-6594652D01*
X5183530Y-6602780D01*
G37*
G36*
X540359Y-6500876D02*
G01*
X609650Y-6500876D01*
X624535Y-6499961D01*
X638810Y-6497218D01*
X652627Y-6492697D01*
X665835Y-6486499D01*
X678129Y-6478727D01*
X689305Y-6469430D01*
X699262Y-6458813D01*
X707847Y-6447078D01*
X714857Y-6434328D01*
X720191Y-6420764D01*
X723798Y-6406692D01*
X725627Y-6392265D01*
X725627Y-6377686D01*
X723798Y-6363258D01*
X720191Y-6349136D01*
X714857Y-6335623D01*
X707847Y-6322872D01*
X699262Y-6311087D01*
X689305Y-6300470D01*
X678129Y-6291224D01*
X665835Y-6283401D01*
X656793Y-6279134D01*
X653694Y-6276898D01*
X651662Y-6273698D01*
X650951Y-6269939D01*
X651662Y-6266230D01*
X653694Y-6263030D01*
X656793Y-6260795D01*
X665835Y-6256528D01*
X678129Y-6248704D01*
X689305Y-6239459D01*
X699262Y-6228842D01*
X707847Y-6217056D01*
X714857Y-6204305D01*
X720191Y-6190792D01*
X723798Y-6176670D01*
X725627Y-6162243D01*
X725627Y-6147663D01*
X723798Y-6133236D01*
X720191Y-6119164D01*
X714857Y-6105601D01*
X707847Y-6092850D01*
X699262Y-6081064D01*
X689305Y-6070498D01*
X678129Y-6061202D01*
X665835Y-6053429D01*
X652627Y-6047232D01*
X638810Y-6042710D01*
X624535Y-6039967D01*
X609650Y-6039053D01*
X540359Y-6039053D01*
X525526Y-6039967D01*
X511251Y-6042710D01*
X497382Y-6047232D01*
X484225Y-6053429D01*
X471932Y-6061202D01*
X460705Y-6070498D01*
X450748Y-6081064D01*
X442214Y-6092850D01*
X435203Y-6105601D01*
X429818Y-6119164D01*
X426212Y-6133236D01*
X424383Y-6147663D01*
X424383Y-6162243D01*
X426212Y-6176670D01*
X429818Y-6190792D01*
X435203Y-6204305D01*
X442214Y-6217056D01*
X450748Y-6228842D01*
X460705Y-6239459D01*
X471932Y-6248704D01*
X484225Y-6256528D01*
X493268Y-6260795D01*
X496366Y-6263030D01*
X498398Y-6266230D01*
X499109Y-6269939D01*
X498398Y-6273698D01*
X496366Y-6276898D01*
X493268Y-6279134D01*
X484225Y-6283401D01*
X471932Y-6291224D01*
X460705Y-6300470D01*
X450748Y-6311087D01*
X442214Y-6322872D01*
X435203Y-6335623D01*
X429818Y-6349136D01*
X426212Y-6363258D01*
X424383Y-6377686D01*
X424383Y-6392265D01*
X426212Y-6406692D01*
X429818Y-6420764D01*
X435203Y-6434328D01*
X442214Y-6447078D01*
X450748Y-6458813D01*
X460705Y-6469430D01*
X471932Y-6478727D01*
X484225Y-6486499D01*
X497382Y-6492697D01*
X511251Y-6497218D01*
X525526Y-6499961D01*
G37*
G36*
X73152Y-6475780D02*
G01*
X85801Y-6474460D01*
X98094Y-6471412D01*
X109829Y-6466687D01*
X120802Y-6460337D01*
X130810Y-6452514D01*
X139649Y-6443370D01*
X147066Y-6433159D01*
X153009Y-6421932D01*
X157378Y-6410045D01*
X160020Y-6397599D01*
X160883Y-6385001D01*
X160020Y-6372352D01*
X157378Y-6359906D01*
X153009Y-6348018D01*
X147066Y-6336792D01*
X139649Y-6326581D01*
X130810Y-6317437D01*
X120802Y-6309614D01*
X109829Y-6303314D01*
X98094Y-6298539D01*
X85801Y-6295491D01*
X73152Y-6294170D01*
X60502Y-6294577D01*
X48006Y-6296812D01*
X35966Y-6300724D01*
X24536Y-6306261D01*
X14071Y-6313373D01*
X4622Y-6321856D01*
X-3505Y-6331559D01*
X-10261Y-6342329D01*
X-15392Y-6353911D01*
X-18897Y-6366103D01*
X-20675Y-6378651D01*
X-20675Y-6391300D01*
X-18897Y-6403848D01*
X-15392Y-6416040D01*
X-10261Y-6427622D01*
X-3505Y-6438392D01*
X4622Y-6448094D01*
X14071Y-6456578D01*
X24536Y-6463690D01*
X35966Y-6469227D01*
X48006Y-6473139D01*
X60502Y-6475374D01*
G37*
G36*
X5543854Y-6461607D02*
G01*
X5605932Y-6461607D01*
X5605932Y-6428536D01*
X5605221Y-6422237D01*
X5603290Y-6416751D01*
X5600242Y-6411874D01*
X5596128Y-6407759D01*
X5591251Y-6404660D01*
X5585764Y-6402781D01*
X5579465Y-6402070D01*
X5543854Y-6402070D01*
G37*
G36*
X5384088Y-6461607D02*
G01*
X5446166Y-6461607D01*
X5446166Y-6402070D01*
X5410606Y-6402070D01*
X5404256Y-6402781D01*
X5398820Y-6404660D01*
X5393893Y-6407759D01*
X5389829Y-6411874D01*
X5386730Y-6416751D01*
X5384800Y-6422237D01*
X5384088Y-6428536D01*
G37*
G36*
X5141722Y-6459118D02*
G01*
X5192166Y-6459118D01*
X5192166Y-6408623D01*
X5183530Y-6413144D01*
X5171897Y-6421272D01*
X5161381Y-6430822D01*
X5152136Y-6441643D01*
X5144414Y-6453530D01*
G37*
G36*
X5289854Y-6459118D02*
G01*
X5340502Y-6459118D01*
X5333949Y-6447485D01*
X5325465Y-6436106D01*
X5315559Y-6425895D01*
X5304434Y-6417005D01*
X5292293Y-6409639D01*
X5289854Y-6408572D01*
G37*
G36*
X1385671Y-6179413D02*
G01*
X1671624Y-6179362D01*
X1680108Y-6178194D01*
X1687982Y-6175552D01*
X1693925Y-6172403D01*
X1695957Y-6171590D01*
X1709267Y-6167983D01*
X1718208Y-6163767D01*
X1726234Y-6158179D01*
X1733194Y-6151219D01*
X1738833Y-6143142D01*
X1742998Y-6134252D01*
X1745538Y-6124752D01*
X1746402Y-6114999D01*
X1745538Y-6105194D01*
X1742998Y-6095695D01*
X1738833Y-6086805D01*
X1733194Y-6078728D01*
X1726234Y-6071768D01*
X1718208Y-6066180D01*
X1709318Y-6062014D01*
X1699818Y-6059474D01*
X1690014Y-6058611D01*
X1680210Y-6059474D01*
X1670710Y-6062014D01*
X1661820Y-6066180D01*
X1653793Y-6071768D01*
X1646834Y-6078728D01*
X1642110Y-6085484D01*
X1638198Y-6088938D01*
X1635506Y-6090158D01*
X1632559Y-6090615D01*
X1407820Y-6090615D01*
X1403908Y-6089853D01*
X1400657Y-6087618D01*
X1377492Y-6064453D01*
X1375257Y-6061202D01*
X1374495Y-6057290D01*
X1374444Y-5708396D01*
X1373276Y-5699912D01*
X1370685Y-5692140D01*
X1366672Y-5684977D01*
X1361186Y-5678322D01*
X1320139Y-5637377D01*
X1313332Y-5632196D01*
X1305966Y-5628589D01*
X1298092Y-5626354D01*
X1289507Y-5625541D01*
X982421Y-5625541D01*
X979474Y-5625084D01*
X975563Y-5623001D01*
X972819Y-5620359D01*
X968197Y-5613755D01*
X961237Y-5606796D01*
X953211Y-5601157D01*
X944321Y-5596991D01*
X934821Y-5594451D01*
X925017Y-5593588D01*
X915212Y-5594451D01*
X905713Y-5596991D01*
X896823Y-5601157D01*
X888796Y-5606796D01*
X881837Y-5613755D01*
X876198Y-5621782D01*
X872032Y-5630672D01*
X869492Y-5640171D01*
X868629Y-5649976D01*
X869492Y-5659780D01*
X872032Y-5669280D01*
X876198Y-5678170D01*
X881837Y-5686196D01*
X888796Y-5693156D01*
X896823Y-5698794D01*
X905764Y-5702960D01*
X918971Y-5706516D01*
X920851Y-5707227D01*
X929030Y-5711291D01*
X936904Y-5713526D01*
X945489Y-5714339D01*
X1267358Y-5714339D01*
X1271270Y-5715101D01*
X1274521Y-5717336D01*
X1282700Y-5725515D01*
X1284935Y-5728766D01*
X1285697Y-5732678D01*
X1285748Y-6081572D01*
X1286916Y-6090056D01*
X1289507Y-6097828D01*
X1293520Y-6104991D01*
X1299006Y-6111646D01*
X1355039Y-6167577D01*
X1361846Y-6172758D01*
X1369212Y-6176365D01*
X1377086Y-6178600D01*
G37*
G36*
X1600047Y-6051346D02*
G01*
X1609801Y-6050483D01*
X1619300Y-6047943D01*
X1628190Y-6043777D01*
X1636268Y-6038138D01*
X1643227Y-6031179D01*
X1648815Y-6023152D01*
X1652981Y-6014262D01*
X1655521Y-6004763D01*
X1656384Y-5994958D01*
X1655521Y-5985154D01*
X1652981Y-5975654D01*
X1648815Y-5966764D01*
X1643227Y-5958738D01*
X1636268Y-5951778D01*
X1628190Y-5946140D01*
X1619300Y-5941974D01*
X1609801Y-5939434D01*
X1600047Y-5938570D01*
X1590243Y-5939434D01*
X1580743Y-5941974D01*
X1567383Y-5948222D01*
X1559458Y-5949899D01*
X1556105Y-5950051D01*
X1552905Y-5949086D01*
X1550212Y-5947156D01*
X1527352Y-5924245D01*
X1525117Y-5920994D01*
X1524355Y-5917082D01*
X1524304Y-5583174D01*
X1523136Y-5574690D01*
X1520545Y-5566918D01*
X1516532Y-5559755D01*
X1511046Y-5553100D01*
X1450187Y-5492343D01*
X1443380Y-5487162D01*
X1436014Y-5483555D01*
X1428140Y-5481320D01*
X1419555Y-5480507D01*
X975309Y-5480507D01*
X972718Y-5480151D01*
X966927Y-5477306D01*
X956259Y-5466791D01*
X948182Y-5461152D01*
X939292Y-5456986D01*
X929792Y-5454446D01*
X920038Y-5453583D01*
X910234Y-5454446D01*
X900734Y-5456986D01*
X891844Y-5461152D01*
X883767Y-5466791D01*
X876808Y-5473750D01*
X871219Y-5481777D01*
X867054Y-5490667D01*
X864514Y-5500166D01*
X863650Y-5509971D01*
X864514Y-5519775D01*
X867054Y-5529275D01*
X871219Y-5538165D01*
X876808Y-5546191D01*
X883767Y-5553151D01*
X891844Y-5558790D01*
X900734Y-5562955D01*
X910234Y-5565495D01*
X917702Y-5566156D01*
X926744Y-5568492D01*
X935329Y-5569305D01*
X1397406Y-5569305D01*
X1401318Y-5570067D01*
X1404569Y-5572302D01*
X1432560Y-5600293D01*
X1434795Y-5603544D01*
X1435557Y-5607456D01*
X1435608Y-5941364D01*
X1436776Y-5949848D01*
X1439367Y-5957620D01*
X1443380Y-5964783D01*
X1448866Y-5971438D01*
X1505153Y-6027623D01*
X1511960Y-6032804D01*
X1519326Y-6036411D01*
X1527200Y-6038646D01*
X1535785Y-6039459D01*
X1554937Y-6039459D01*
X1556969Y-6039662D01*
X1567586Y-6041796D01*
X1580743Y-6047943D01*
X1590243Y-6050483D01*
G37*
G36*
X5705043Y-6040882D02*
G01*
X5722874Y-6039916D01*
X5740552Y-6037122D01*
X5757824Y-6032500D01*
X5774537Y-6026099D01*
X5790488Y-6017971D01*
X5805474Y-6008217D01*
X5819394Y-5996940D01*
X5831992Y-5984341D01*
X5843270Y-5970422D01*
X5853023Y-5955436D01*
X5861151Y-5939485D01*
X5867552Y-5922772D01*
X5872175Y-5905500D01*
X5874969Y-5887821D01*
X5875934Y-5869990D01*
X5874969Y-5852109D01*
X5872175Y-5834430D01*
X5867552Y-5817158D01*
X5861151Y-5800445D01*
X5853023Y-5784494D01*
X5843270Y-5769508D01*
X5831992Y-5755589D01*
X5819394Y-5742990D01*
X5805474Y-5731713D01*
X5790488Y-5721959D01*
X5774537Y-5713831D01*
X5757824Y-5707430D01*
X5740552Y-5702808D01*
X5722874Y-5700014D01*
X5705043Y-5699048D01*
X5687161Y-5700014D01*
X5669483Y-5702808D01*
X5652211Y-5707430D01*
X5635498Y-5713831D01*
X5619546Y-5721959D01*
X5604560Y-5731713D01*
X5590641Y-5742990D01*
X5578043Y-5755589D01*
X5566765Y-5769508D01*
X5557012Y-5784494D01*
X5548884Y-5800445D01*
X5542483Y-5817158D01*
X5537860Y-5834430D01*
X5535066Y-5852109D01*
X5534101Y-5869990D01*
X5535066Y-5887821D01*
X5537860Y-5905500D01*
X5542483Y-5922772D01*
X5548884Y-5939485D01*
X5557012Y-5955436D01*
X5566765Y-5970422D01*
X5578043Y-5984341D01*
X5590641Y-5996940D01*
X5604560Y-6008217D01*
X5619546Y-6017971D01*
X5635498Y-6026099D01*
X5652211Y-6032500D01*
X5669483Y-6037122D01*
X5687161Y-6039916D01*
G37*
G36*
X53695Y-6028690D02*
G01*
X53695Y-5958789D01*
X-5588Y-5958789D01*
X-2743Y-5967577D01*
X3454Y-5980785D01*
X11277Y-5993079D01*
X20523Y-6004255D01*
X31140Y-6014212D01*
X42926Y-6022797D01*
G37*
G36*
X156362Y-6028690D02*
G01*
X167132Y-6022797D01*
X178917Y-6014212D01*
X189484Y-6004255D01*
X198780Y-5993079D01*
X206552Y-5980785D01*
X212750Y-5967577D01*
X215646Y-5958789D01*
X156362Y-5958789D01*
G37*
G36*
X578154Y-5980785D02*
G01*
X590804Y-5979464D01*
X603097Y-5976416D01*
X614832Y-5971692D01*
X625805Y-5965342D01*
X635812Y-5957519D01*
X644652Y-5948375D01*
X652068Y-5938164D01*
X658012Y-5926937D01*
X662381Y-5915050D01*
X665022Y-5902604D01*
X665886Y-5890006D01*
X665022Y-5877356D01*
X662381Y-5864910D01*
X658012Y-5853023D01*
X652068Y-5841796D01*
X644652Y-5831586D01*
X635812Y-5822442D01*
X625805Y-5814618D01*
X614832Y-5808319D01*
X603097Y-5803544D01*
X590804Y-5800496D01*
X578154Y-5799175D01*
X565505Y-5799582D01*
X553008Y-5801817D01*
X540969Y-5805728D01*
X529539Y-5811266D01*
X519074Y-5818378D01*
X509625Y-5826861D01*
X501497Y-5836564D01*
X494741Y-5847334D01*
X489610Y-5858916D01*
X486105Y-5871108D01*
X484327Y-5883656D01*
X484327Y-5896305D01*
X486105Y-5908852D01*
X489610Y-5921044D01*
X494741Y-5932627D01*
X501497Y-5943396D01*
X509625Y-5953099D01*
X519074Y-5961583D01*
X529539Y-5968695D01*
X540969Y-5974232D01*
X553008Y-5978144D01*
X565505Y-5980379D01*
G37*
G36*
X156362Y-5821121D02*
G01*
X215646Y-5821121D01*
X212750Y-5812332D01*
X206552Y-5799175D01*
X198780Y-5786882D01*
X189484Y-5775655D01*
X178917Y-5765698D01*
X167132Y-5757164D01*
X156362Y-5751271D01*
G37*
G36*
X-5588Y-5821121D02*
G01*
X53695Y-5821121D01*
X53695Y-5751271D01*
X42926Y-5757164D01*
X31140Y-5765698D01*
X20523Y-5775655D01*
X11277Y-5786882D01*
X3454Y-5799175D01*
X-2743Y-5812332D01*
G37*
G36*
X540359Y-5740857D02*
G01*
X609650Y-5740857D01*
X624535Y-5739942D01*
X638810Y-5737199D01*
X652627Y-5732729D01*
X665835Y-5726531D01*
X678129Y-5718708D01*
X689305Y-5709412D01*
X699262Y-5698845D01*
X707847Y-5687060D01*
X714857Y-5674309D01*
X720191Y-5660745D01*
X723798Y-5646674D01*
X725627Y-5632246D01*
X725627Y-5617667D01*
X723798Y-5603240D01*
X720191Y-5589168D01*
X714857Y-5575604D01*
X707847Y-5562854D01*
X699262Y-5551068D01*
X689305Y-5540502D01*
X678129Y-5531205D01*
X665835Y-5523382D01*
X656793Y-5519166D01*
X653694Y-5516930D01*
X651662Y-5513730D01*
X650951Y-5509971D01*
X651662Y-5506212D01*
X653694Y-5503011D01*
X656793Y-5500776D01*
X665835Y-5496509D01*
X678129Y-5488736D01*
X689305Y-5479440D01*
X699262Y-5468823D01*
X707847Y-5457088D01*
X714857Y-5444337D01*
X720191Y-5430774D01*
X723798Y-5416702D01*
X725627Y-5402224D01*
X725627Y-5387695D01*
X723798Y-5373268D01*
X720191Y-5359146D01*
X714857Y-5345633D01*
X707847Y-5332882D01*
X699262Y-5321096D01*
X689305Y-5310479D01*
X678129Y-5301234D01*
X665835Y-5293410D01*
X652627Y-5287213D01*
X638810Y-5282742D01*
X624535Y-5279999D01*
X609650Y-5279085D01*
X540359Y-5279085D01*
X525526Y-5279999D01*
X511251Y-5282742D01*
X497382Y-5287213D01*
X484225Y-5293410D01*
X471932Y-5301234D01*
X460705Y-5310479D01*
X450748Y-5321096D01*
X442214Y-5332882D01*
X435203Y-5345633D01*
X429818Y-5359146D01*
X426212Y-5373268D01*
X424383Y-5387695D01*
X424383Y-5402224D01*
X426212Y-5416702D01*
X429818Y-5430774D01*
X435203Y-5444337D01*
X442214Y-5457088D01*
X450748Y-5468823D01*
X460705Y-5479440D01*
X471932Y-5488736D01*
X484225Y-5496509D01*
X493268Y-5500776D01*
X496316Y-5503011D01*
X498348Y-5506212D01*
X499059Y-5509971D01*
X498348Y-5513730D01*
X496316Y-5516930D01*
X493268Y-5519166D01*
X484225Y-5523382D01*
X471932Y-5531205D01*
X460705Y-5540502D01*
X450748Y-5551068D01*
X442214Y-5562854D01*
X435203Y-5575604D01*
X429818Y-5589168D01*
X426212Y-5603240D01*
X424383Y-5617667D01*
X424383Y-5632246D01*
X426212Y-5646674D01*
X429818Y-5660745D01*
X435203Y-5674309D01*
X442214Y-5687060D01*
X450748Y-5698845D01*
X460705Y-5709412D01*
X471932Y-5718708D01*
X484225Y-5726531D01*
X497382Y-5732729D01*
X511251Y-5737199D01*
X525526Y-5739942D01*
G37*
G36*
X3625037Y-5580837D02*
G01*
X3640175Y-5579922D01*
X3655161Y-5577179D01*
X3669639Y-5572658D01*
X3683508Y-5566460D01*
X3696512Y-5558586D01*
X3708501Y-5549188D01*
X3719271Y-5538470D01*
X3728618Y-5526481D01*
X3736492Y-5513476D01*
X3742740Y-5499608D01*
X3747262Y-5485079D01*
X3750005Y-5470144D01*
X3750919Y-5454954D01*
X3750005Y-5439816D01*
X3747262Y-5424830D01*
X3742740Y-5410352D01*
X3736492Y-5396484D01*
X3728618Y-5383479D01*
X3719271Y-5371490D01*
X3708501Y-5360720D01*
X3696512Y-5351373D01*
X3683508Y-5343499D01*
X3669588Y-5337251D01*
X3666439Y-5335016D01*
X3664356Y-5331764D01*
X3663594Y-5327954D01*
X3664356Y-5324195D01*
X3666439Y-5320944D01*
X3669588Y-5318709D01*
X3683508Y-5312460D01*
X3696512Y-5304586D01*
X3708501Y-5295188D01*
X3719271Y-5284470D01*
X3728618Y-5272481D01*
X3736492Y-5259476D01*
X3742740Y-5245608D01*
X3747262Y-5231079D01*
X3750005Y-5216144D01*
X3750919Y-5200954D01*
X3750005Y-5185816D01*
X3747262Y-5170830D01*
X3742740Y-5156352D01*
X3736492Y-5142484D01*
X3728618Y-5129479D01*
X3719271Y-5117490D01*
X3708501Y-5106720D01*
X3696512Y-5097373D01*
X3683508Y-5089499D01*
X3669639Y-5083251D01*
X3655161Y-5078730D01*
X3640175Y-5075986D01*
X3625037Y-5075072D01*
X3609848Y-5075986D01*
X3594912Y-5078730D01*
X3580384Y-5083251D01*
X3566515Y-5089499D01*
X3553510Y-5097373D01*
X3541522Y-5106720D01*
X3530803Y-5117490D01*
X3521405Y-5129479D01*
X3513531Y-5142484D01*
X3507333Y-5156352D01*
X3502761Y-5170830D01*
X3500069Y-5185816D01*
X3499104Y-5200954D01*
X3500069Y-5216144D01*
X3502761Y-5231079D01*
X3507333Y-5245608D01*
X3513531Y-5259476D01*
X3521405Y-5272481D01*
X3530803Y-5284470D01*
X3541522Y-5295188D01*
X3553510Y-5304586D01*
X3566515Y-5312460D01*
X3580434Y-5318709D01*
X3583584Y-5320944D01*
X3585667Y-5324195D01*
X3586429Y-5327954D01*
X3585667Y-5331764D01*
X3583584Y-5335016D01*
X3580434Y-5337251D01*
X3566515Y-5343499D01*
X3553510Y-5351373D01*
X3541522Y-5360720D01*
X3530803Y-5371490D01*
X3521405Y-5383479D01*
X3513531Y-5396484D01*
X3507333Y-5410352D01*
X3502761Y-5424830D01*
X3500069Y-5439816D01*
X3499104Y-5454954D01*
X3500069Y-5470144D01*
X3502761Y-5485079D01*
X3507333Y-5499608D01*
X3513531Y-5513476D01*
X3521405Y-5526481D01*
X3530803Y-5538470D01*
X3541522Y-5549188D01*
X3553510Y-5558586D01*
X3566515Y-5566460D01*
X3580384Y-5572658D01*
X3594912Y-5577179D01*
X3609848Y-5579922D01*
G37*
G36*
X73152Y-5485790D02*
G01*
X85801Y-5484469D01*
X98094Y-5481421D01*
X109829Y-5476697D01*
X120802Y-5470347D01*
X130810Y-5462524D01*
X139649Y-5453380D01*
X147066Y-5443169D01*
X153009Y-5431942D01*
X157378Y-5420055D01*
X160020Y-5407609D01*
X160883Y-5395010D01*
X160020Y-5382361D01*
X157378Y-5369915D01*
X153009Y-5358028D01*
X147066Y-5346801D01*
X139649Y-5336590D01*
X130810Y-5327446D01*
X120802Y-5319623D01*
X109829Y-5313324D01*
X98094Y-5308549D01*
X85801Y-5305501D01*
X73152Y-5304180D01*
X60502Y-5304586D01*
X48006Y-5306822D01*
X35966Y-5310733D01*
X24536Y-5316270D01*
X14071Y-5323382D01*
X4622Y-5331866D01*
X-3505Y-5341569D01*
X-10261Y-5352338D01*
X-15392Y-5363921D01*
X-18897Y-5376113D01*
X-20675Y-5388660D01*
X-20675Y-5401310D01*
X-18897Y-5413857D01*
X-15392Y-5426049D01*
X-10261Y-5437632D01*
X-3505Y-5448401D01*
X4622Y-5458104D01*
X14071Y-5466588D01*
X24536Y-5473700D01*
X35966Y-5479237D01*
X48006Y-5483148D01*
X60502Y-5485384D01*
G37*
G36*
X2745028Y-5401360D02*
G01*
X2754833Y-5400497D01*
X2764332Y-5397957D01*
X2773222Y-5393791D01*
X2781249Y-5388152D01*
X2788208Y-5381193D01*
X2793847Y-5373166D01*
X2798013Y-5364276D01*
X2800553Y-5354777D01*
X2801416Y-5344972D01*
X2800553Y-5335168D01*
X2798013Y-5325668D01*
X2793847Y-5316778D01*
X2788208Y-5308752D01*
X2781249Y-5301792D01*
X2773222Y-5296154D01*
X2764332Y-5291988D01*
X2754833Y-5289448D01*
X2745028Y-5288584D01*
X2735224Y-5289448D01*
X2725724Y-5291988D01*
X2716834Y-5296154D01*
X2711297Y-5299811D01*
X2706674Y-5301945D01*
X2702712Y-5302859D01*
X2698699Y-5302097D01*
X2695295Y-5299862D01*
X2643073Y-5247690D01*
X2636774Y-5242509D01*
X2630017Y-5238902D01*
X2622702Y-5236667D01*
X2614574Y-5235854D01*
X2270455Y-5235854D01*
X2266594Y-5235092D01*
X2263292Y-5232908D01*
X2174087Y-5143906D01*
X2047036Y-5016652D01*
X2044852Y-5013350D01*
X2044090Y-5009489D01*
X2044090Y-4830470D01*
X2043277Y-4822342D01*
X2041042Y-4815027D01*
X2037435Y-4808270D01*
X2032254Y-4801971D01*
X1922983Y-4692700D01*
X1916684Y-4687519D01*
X1909927Y-4683912D01*
X1902612Y-4681677D01*
X1894484Y-4680864D01*
X1784299Y-4680864D01*
X1780082Y-4679950D01*
X1768602Y-4674768D01*
X1763166Y-4671161D01*
X1754276Y-4666996D01*
X1744776Y-4664456D01*
X1734972Y-4663592D01*
X1725168Y-4664456D01*
X1715668Y-4666996D01*
X1706778Y-4671161D01*
X1698752Y-4676749D01*
X1691792Y-4683709D01*
X1686153Y-4691786D01*
X1681988Y-4700676D01*
X1679448Y-4710176D01*
X1678584Y-4719980D01*
X1679448Y-4729734D01*
X1681988Y-4739233D01*
X1686153Y-4748123D01*
X1691792Y-4756200D01*
X1698752Y-4763160D01*
X1706778Y-4768748D01*
X1715668Y-4772914D01*
X1725168Y-4775454D01*
X1734972Y-4776317D01*
X1744776Y-4775454D01*
X1754276Y-4772914D01*
X1763166Y-4768748D01*
X1768551Y-4765192D01*
X1780082Y-4760010D01*
X1784248Y-4759096D01*
X1874570Y-4759096D01*
X1878482Y-4759858D01*
X1881784Y-4762042D01*
X1962912Y-4843170D01*
X1965096Y-4846472D01*
X1965858Y-4850384D01*
X1965858Y-5029352D01*
X1966671Y-5037429D01*
X1968855Y-5044795D01*
X1972462Y-5051552D01*
X1977643Y-5057851D01*
X2118766Y-5199227D01*
X2222093Y-5302300D01*
X2228392Y-5307431D01*
X2235149Y-5311038D01*
X2242464Y-5313273D01*
X2250592Y-5314086D01*
X2594660Y-5314086D01*
X2598572Y-5314848D01*
X2601874Y-5317032D01*
X2657195Y-5372354D01*
X2663494Y-5377535D01*
X2670251Y-5381142D01*
X2677566Y-5383377D01*
X2685694Y-5384190D01*
X2695803Y-5384190D01*
X2699969Y-5385104D01*
X2711551Y-5390286D01*
X2716834Y-5393791D01*
X2725724Y-5397957D01*
X2735224Y-5400497D01*
G37*
G36*
X2790037Y-5261356D02*
G01*
X2799791Y-5260492D01*
X2809290Y-5257952D01*
X2818180Y-5253786D01*
X2826258Y-5248148D01*
X2833217Y-5241188D01*
X2838805Y-5233162D01*
X2842971Y-5224272D01*
X2845511Y-5214772D01*
X2846374Y-5204968D01*
X2845511Y-5195163D01*
X2842971Y-5185664D01*
X2838805Y-5176774D01*
X2833217Y-5168747D01*
X2826258Y-5161788D01*
X2818180Y-5156149D01*
X2809290Y-5151983D01*
X2799791Y-5149443D01*
X2790037Y-5148580D01*
X2780233Y-5149443D01*
X2770733Y-5151983D01*
X2761843Y-5156149D01*
X2756509Y-5159654D01*
X2744927Y-5164886D01*
X2740761Y-5165750D01*
X2720340Y-5165750D01*
X2716428Y-5164988D01*
X2713126Y-5162804D01*
X2678125Y-5127802D01*
X2671826Y-5122621D01*
X2665069Y-5119014D01*
X2657754Y-5116779D01*
X2649626Y-5115966D01*
X2354173Y-5115966D01*
X2350008Y-5115052D01*
X2338527Y-5109870D01*
X2333040Y-5106263D01*
X2324150Y-5102098D01*
X2314651Y-5099558D01*
X2304897Y-5098694D01*
X2295093Y-5099558D01*
X2285593Y-5102098D01*
X2276703Y-5106263D01*
X2268626Y-5111851D01*
X2261666Y-5118811D01*
X2256078Y-5126888D01*
X2251913Y-5135778D01*
X2249373Y-5145278D01*
X2248509Y-5155082D01*
X2249373Y-5164836D01*
X2251913Y-5174335D01*
X2256078Y-5183225D01*
X2261666Y-5191302D01*
X2268626Y-5198262D01*
X2276703Y-5203850D01*
X2285593Y-5208016D01*
X2295093Y-5210556D01*
X2304897Y-5211419D01*
X2314651Y-5210556D01*
X2324150Y-5208016D01*
X2333040Y-5203850D01*
X2338476Y-5200294D01*
X2349957Y-5195112D01*
X2354173Y-5194198D01*
X2629712Y-5194198D01*
X2633624Y-5194960D01*
X2636926Y-5197144D01*
X2671927Y-5232146D01*
X2678226Y-5237327D01*
X2684983Y-5240934D01*
X2692298Y-5243169D01*
X2700426Y-5243982D01*
X2740660Y-5243982D01*
X2744876Y-5244896D01*
X2756255Y-5250129D01*
X2761843Y-5253786D01*
X2770733Y-5257952D01*
X2780233Y-5260492D01*
G37*
G36*
X5725007Y-5211368D02*
G01*
X5734812Y-5210505D01*
X5744311Y-5207965D01*
X5753201Y-5203799D01*
X5761228Y-5198160D01*
X5768187Y-5191201D01*
X5773826Y-5183174D01*
X5777992Y-5174284D01*
X5780532Y-5164785D01*
X5781395Y-5154980D01*
X5780532Y-5145176D01*
X5777992Y-5135676D01*
X5773826Y-5126786D01*
X5768187Y-5118760D01*
X5761228Y-5111800D01*
X5753150Y-5106111D01*
X5746699Y-5103063D01*
X5743651Y-5100777D01*
X5741619Y-5097576D01*
X5740908Y-5093868D01*
X5740908Y-4938979D01*
X5741670Y-4935067D01*
X5744972Y-4930648D01*
X5750052Y-4924399D01*
X5753506Y-4917643D01*
X5755081Y-4911852D01*
X5756503Y-4907686D01*
X5765241Y-4893259D01*
X5768797Y-4888128D01*
X5772962Y-4879238D01*
X5775502Y-4869738D01*
X5776366Y-4859985D01*
X5775502Y-4850180D01*
X5772962Y-4840681D01*
X5768797Y-4831791D01*
X5763209Y-4823714D01*
X5756249Y-4816754D01*
X5748172Y-4811166D01*
X5739282Y-4807000D01*
X5729782Y-4804460D01*
X5720029Y-4803597D01*
X5710224Y-4804460D01*
X5700725Y-4807000D01*
X5691835Y-4811166D01*
X5683758Y-4816754D01*
X5676798Y-4823714D01*
X5671210Y-4831791D01*
X5667044Y-4840681D01*
X5664504Y-4850180D01*
X5663641Y-4859985D01*
X5664504Y-4869738D01*
X5667044Y-4879238D01*
X5671210Y-4888128D01*
X5673445Y-4891379D01*
X5674969Y-4894681D01*
X5675223Y-4898339D01*
X5674156Y-4901793D01*
X5671515Y-4907026D01*
X5669534Y-4914392D01*
X5669076Y-4920284D01*
X5669076Y-5119522D01*
X5669940Y-5128768D01*
X5669229Y-5148427D01*
X5668619Y-5154980D01*
X5669483Y-5164785D01*
X5672023Y-5174284D01*
X5676188Y-5183174D01*
X5681827Y-5191201D01*
X5688787Y-5198160D01*
X5696813Y-5203799D01*
X5705703Y-5207965D01*
X5715203Y-5210505D01*
G37*
G36*
X215036Y-5146344D02*
G01*
X224840Y-5145481D01*
X234340Y-5142941D01*
X243230Y-5138775D01*
X251256Y-5133187D01*
X258216Y-5126228D01*
X263855Y-5118150D01*
X268020Y-5109260D01*
X270052Y-5101590D01*
X272084Y-5097729D01*
X275590Y-5095036D01*
X279857Y-5094071D01*
X534517Y-5094071D01*
X542645Y-5093258D01*
X549960Y-5091074D01*
X556717Y-5087467D01*
X563016Y-5082286D01*
X642315Y-5002987D01*
X647496Y-4996688D01*
X651103Y-4989931D01*
X653338Y-4982616D01*
X654151Y-4974488D01*
X654151Y-4635500D01*
X653338Y-4627372D01*
X651560Y-4621479D01*
X651154Y-4617669D01*
X651408Y-4614976D01*
X650544Y-4605172D01*
X648004Y-4595672D01*
X643839Y-4586782D01*
X638200Y-4578756D01*
X631240Y-4571796D01*
X623214Y-4566158D01*
X614324Y-4561992D01*
X604824Y-4559452D01*
X595020Y-4558588D01*
X585216Y-4559452D01*
X575716Y-4561992D01*
X566826Y-4566158D01*
X558800Y-4571796D01*
X551840Y-4578756D01*
X546201Y-4586782D01*
X542036Y-4595672D01*
X539496Y-4605172D01*
X538632Y-4614976D01*
X539496Y-4624781D01*
X542036Y-4634280D01*
X546201Y-4643170D01*
X551840Y-4651197D01*
X558800Y-4658156D01*
X566826Y-4663795D01*
X571144Y-4666234D01*
X572414Y-4667351D01*
X575005Y-4670806D01*
X575919Y-4675022D01*
X575919Y-4954574D01*
X575157Y-4958435D01*
X572922Y-4961737D01*
X521817Y-5012893D01*
X518515Y-5015077D01*
X514604Y-5015839D01*
X250545Y-5015839D01*
X242417Y-5016652D01*
X235102Y-5018887D01*
X228346Y-5022494D01*
X221538Y-5028133D01*
X218643Y-5029809D01*
X207771Y-5033873D01*
X195732Y-5037023D01*
X186842Y-5041188D01*
X178816Y-5046776D01*
X171856Y-5053736D01*
X166217Y-5061813D01*
X162052Y-5070703D01*
X159512Y-5080203D01*
X158648Y-5090007D01*
X159512Y-5099761D01*
X162052Y-5109260D01*
X166217Y-5118150D01*
X171856Y-5126228D01*
X178816Y-5133187D01*
X186842Y-5138775D01*
X195732Y-5142941D01*
X205232Y-5145481D01*
G37*
G36*
X80060Y-5146344D02*
G01*
X89814Y-5145481D01*
X99314Y-5142941D01*
X108204Y-5138775D01*
X116281Y-5133187D01*
X123240Y-5126228D01*
X128828Y-5118150D01*
X132994Y-5109260D01*
X135534Y-5099761D01*
X136398Y-5090007D01*
X135534Y-5080203D01*
X132994Y-5070703D01*
X128828Y-5061813D01*
X125120Y-5056174D01*
X119887Y-5044541D01*
X119024Y-5040579D01*
X119735Y-5036566D01*
X121970Y-5033162D01*
X158140Y-4996992D01*
X161442Y-4994808D01*
X165354Y-4994046D01*
X479450Y-4994046D01*
X487578Y-4993233D01*
X494893Y-4990998D01*
X501650Y-4987391D01*
X507949Y-4982210D01*
X537210Y-4952949D01*
X542391Y-4946650D01*
X545998Y-4939893D01*
X548233Y-4932578D01*
X549046Y-4924450D01*
X549046Y-4700422D01*
X548284Y-4692396D01*
X546049Y-4685080D01*
X542442Y-4678273D01*
X537311Y-4671974D01*
X502208Y-4636719D01*
X500024Y-4633417D01*
X499262Y-4629556D01*
X499262Y-4596739D01*
X499973Y-4593031D01*
X502005Y-4589780D01*
X505104Y-4587544D01*
X513181Y-4583785D01*
X521258Y-4578146D01*
X528218Y-4571187D01*
X533806Y-4563160D01*
X537972Y-4554270D01*
X540512Y-4544771D01*
X541375Y-4534966D01*
X540512Y-4525162D01*
X537972Y-4515662D01*
X533806Y-4506772D01*
X528218Y-4498746D01*
X521258Y-4491786D01*
X513181Y-4486148D01*
X504291Y-4481982D01*
X494792Y-4479442D01*
X485038Y-4478578D01*
X475234Y-4479442D01*
X465734Y-4481982D01*
X456844Y-4486148D01*
X448767Y-4491786D01*
X444601Y-4495952D01*
X441350Y-4498136D01*
X437438Y-4498898D01*
X385775Y-4498898D01*
X385775Y-4554931D01*
X398018Y-4552492D01*
X407720Y-4549241D01*
X411734Y-4548733D01*
X415594Y-4549800D01*
X418744Y-4552289D01*
X420674Y-4555845D01*
X421030Y-4560468D01*
X421030Y-4649368D01*
X421792Y-4657394D01*
X424027Y-4664710D01*
X427634Y-4671517D01*
X432765Y-4677816D01*
X467868Y-4713071D01*
X470052Y-4716373D01*
X470814Y-4720234D01*
X470814Y-4904536D01*
X470052Y-4908448D01*
X466750Y-4912868D01*
X463448Y-4915052D01*
X459536Y-4915814D01*
X145440Y-4915814D01*
X137312Y-4916627D01*
X129997Y-4918862D01*
X123240Y-4922469D01*
X116941Y-4927650D01*
X52628Y-4991963D01*
X47447Y-4998262D01*
X43840Y-5005019D01*
X41605Y-5012334D01*
X40792Y-5020462D01*
X40792Y-5040782D01*
X39928Y-5044948D01*
X34696Y-5056479D01*
X31242Y-5061813D01*
X27076Y-5070703D01*
X24536Y-5080203D01*
X23672Y-5090007D01*
X24536Y-5099761D01*
X27076Y-5109260D01*
X31242Y-5118150D01*
X36830Y-5126228D01*
X43789Y-5133187D01*
X51866Y-5138775D01*
X60756Y-5142941D01*
X70256Y-5145481D01*
G37*
G36*
X4970018Y-5126329D02*
G01*
X4979822Y-5125466D01*
X4989322Y-5122926D01*
X4998212Y-5118760D01*
X5006238Y-5113172D01*
X5013198Y-5106212D01*
X5018836Y-5098135D01*
X5023002Y-5089245D01*
X5025542Y-5079746D01*
X5026406Y-5069992D01*
X5025542Y-5060188D01*
X5023002Y-5050688D01*
X5018836Y-5041798D01*
X5013198Y-5033721D01*
X5010353Y-5030774D01*
X5003038Y-5021376D01*
X5001463Y-5018430D01*
X5000904Y-5015179D01*
X5000904Y-4881524D01*
X5001310Y-4878781D01*
X5002377Y-4876292D01*
X5010302Y-4863236D01*
X5013807Y-4858156D01*
X5017973Y-4849266D01*
X5020513Y-4839766D01*
X5021376Y-4829962D01*
X5020513Y-4820158D01*
X5017973Y-4810658D01*
X5013807Y-4801768D01*
X5008219Y-4793742D01*
X5001260Y-4786782D01*
X4993182Y-4781143D01*
X4984292Y-4776978D01*
X4974793Y-4774438D01*
X4965039Y-4773574D01*
X4955235Y-4774438D01*
X4945735Y-4776978D01*
X4936845Y-4781143D01*
X4928768Y-4786782D01*
X4921808Y-4793742D01*
X4916220Y-4801768D01*
X4912055Y-4810658D01*
X4909515Y-4820158D01*
X4908651Y-4829962D01*
X4909515Y-4839766D01*
X4912055Y-4849266D01*
X4916220Y-4858156D01*
X4920081Y-4863795D01*
X4927650Y-4876292D01*
X4928717Y-4878781D01*
X4929124Y-4881524D01*
X4929124Y-5022291D01*
X4928209Y-5026406D01*
X4922062Y-5040172D01*
X4917033Y-5050688D01*
X4914493Y-5060188D01*
X4913630Y-5069992D01*
X4914493Y-5079746D01*
X4917033Y-5089245D01*
X4921199Y-5098135D01*
X4926838Y-5106212D01*
X4933797Y-5113172D01*
X4941824Y-5118760D01*
X4950714Y-5122926D01*
X4960213Y-5125466D01*
G37*
G36*
X2740050Y-5116322D02*
G01*
X2749804Y-5115458D01*
X2759303Y-5112918D01*
X2768193Y-5108752D01*
X2776270Y-5103164D01*
X2783230Y-5096205D01*
X2788818Y-5088128D01*
X2792984Y-5079238D01*
X2795524Y-5069738D01*
X2796387Y-5059984D01*
X2795524Y-5050180D01*
X2792984Y-5040680D01*
X2788818Y-5031790D01*
X2783230Y-5023713D01*
X2776270Y-5016754D01*
X2773222Y-5014163D01*
X2767330Y-5006898D01*
X2688031Y-4927650D01*
X2681732Y-4922469D01*
X2674975Y-4918862D01*
X2667660Y-4916627D01*
X2659532Y-4915814D01*
X2334260Y-4915814D01*
X2330094Y-4914900D01*
X2318562Y-4909718D01*
X2313178Y-4906162D01*
X2304288Y-4901996D01*
X2294788Y-4899456D01*
X2285034Y-4898593D01*
X2275230Y-4899456D01*
X2265730Y-4901996D01*
X2256840Y-4906162D01*
X2248763Y-4911801D01*
X2241804Y-4918760D01*
X2236216Y-4926787D01*
X2232050Y-4935677D01*
X2229510Y-4945176D01*
X2228646Y-4954981D01*
X2229510Y-4964785D01*
X2232050Y-4974285D01*
X2236216Y-4983175D01*
X2241804Y-4991201D01*
X2248763Y-4998161D01*
X2256840Y-5003800D01*
X2265730Y-5007965D01*
X2275230Y-5010505D01*
X2285034Y-5011369D01*
X2294788Y-5010505D01*
X2304288Y-5007965D01*
X2313178Y-5003800D01*
X2318664Y-5000193D01*
X2330145Y-4994960D01*
X2334361Y-4994046D01*
X2639618Y-4994046D01*
X2643530Y-4994808D01*
X2646832Y-4996992D01*
X2683002Y-5033213D01*
X2685237Y-5036616D01*
X2685948Y-5040630D01*
X2685542Y-5046319D01*
X2684526Y-5050180D01*
X2683662Y-5059984D01*
X2684526Y-5069738D01*
X2687066Y-5079238D01*
X2691231Y-5088128D01*
X2696819Y-5096205D01*
X2703779Y-5103164D01*
X2711856Y-5108752D01*
X2720746Y-5112918D01*
X2730246Y-5115458D01*
G37*
G36*
X2844901Y-5031282D02*
G01*
X2854706Y-5030419D01*
X2864205Y-5027879D01*
X2873095Y-5023713D01*
X2881122Y-5018125D01*
X2888081Y-5011166D01*
X2893720Y-5003088D01*
X2897886Y-4994198D01*
X2900426Y-4984699D01*
X2901289Y-4974945D01*
X2900426Y-4965141D01*
X2897886Y-4955641D01*
X2893720Y-4946751D01*
X2888081Y-4938674D01*
X2883611Y-4934254D01*
X2882087Y-4932273D01*
X2881020Y-4929835D01*
X2877413Y-4923078D01*
X2872232Y-4916779D01*
X2742895Y-4787646D01*
X2736596Y-4782515D01*
X2729839Y-4778908D01*
X2722524Y-4776673D01*
X2714396Y-4775860D01*
X2596794Y-4775860D01*
X2593035Y-4775149D01*
X2589834Y-4773117D01*
X2587599Y-4770018D01*
X2583738Y-4761788D01*
X2578150Y-4753711D01*
X2571191Y-4746752D01*
X2563114Y-4741164D01*
X2554224Y-4736998D01*
X2544724Y-4734458D01*
X2534970Y-4733594D01*
X2525166Y-4734458D01*
X2515666Y-4736998D01*
X2506776Y-4741164D01*
X2498699Y-4746752D01*
X2491740Y-4753711D01*
X2486152Y-4761788D01*
X2481986Y-4770678D01*
X2479446Y-4780178D01*
X2478582Y-4789982D01*
X2479446Y-4799736D01*
X2481986Y-4809236D01*
X2486152Y-4818126D01*
X2491740Y-4826203D01*
X2498699Y-4833162D01*
X2506776Y-4838750D01*
X2515666Y-4842916D01*
X2525166Y-4845456D01*
X2527909Y-4845812D01*
X2538984Y-4848250D01*
X2541574Y-4849215D01*
X2545029Y-4851044D01*
X2552344Y-4853279D01*
X2560472Y-4854092D01*
X2694533Y-4854092D01*
X2698394Y-4854854D01*
X2701696Y-4857038D01*
X2789580Y-4944770D01*
X2791612Y-4947666D01*
X2792526Y-4951069D01*
X2792222Y-4954574D01*
X2789377Y-4965141D01*
X2788513Y-4974945D01*
X2789377Y-4984699D01*
X2791917Y-4994198D01*
X2796082Y-5003088D01*
X2801721Y-5011166D01*
X2808681Y-5018125D01*
X2816707Y-5023713D01*
X2825597Y-5027879D01*
X2835097Y-5030419D01*
G37*
G36*
X2149957Y-5006340D02*
G01*
X2159762Y-5005476D01*
X2169261Y-5002936D01*
X2178151Y-4998770D01*
X2186178Y-4993182D01*
X2193137Y-4986223D01*
X2198776Y-4978146D01*
X2202942Y-4969256D01*
X2205482Y-4959756D01*
X2206345Y-4950002D01*
X2205482Y-4940198D01*
X2202942Y-4930698D01*
X2198776Y-4921808D01*
X2195220Y-4916424D01*
X2192985Y-4911496D01*
X2192121Y-4907534D01*
X2192832Y-4903520D01*
X2195068Y-4900117D01*
X2207260Y-4887925D01*
X2212441Y-4881626D01*
X2216048Y-4874869D01*
X2218283Y-4867554D01*
X2219096Y-4859426D01*
X2219096Y-4800498D01*
X2218283Y-4792421D01*
X2216099Y-4785106D01*
X2212492Y-4778349D01*
X2207310Y-4771999D01*
X2107031Y-4671364D01*
X2096770Y-4657547D01*
X2093823Y-4651806D01*
X2088235Y-4643729D01*
X2081275Y-4636770D01*
X2073198Y-4631182D01*
X2064308Y-4627016D01*
X2054809Y-4624476D01*
X2045055Y-4623612D01*
X2035251Y-4624476D01*
X2025751Y-4627016D01*
X2016861Y-4631182D01*
X2008784Y-4636770D01*
X2001824Y-4643729D01*
X1996236Y-4651806D01*
X1992071Y-4660696D01*
X1989531Y-4670196D01*
X1988667Y-4680000D01*
X1989531Y-4689754D01*
X1992071Y-4699254D01*
X1996236Y-4708144D01*
X2001824Y-4716221D01*
X2008784Y-4723180D01*
X2016861Y-4728768D01*
X2025751Y-4732934D01*
X2035251Y-4735474D01*
X2045055Y-4736338D01*
X2051354Y-4735982D01*
X2058619Y-4736846D01*
X2061870Y-4737811D01*
X2064613Y-4739741D01*
X2137918Y-4813198D01*
X2140102Y-4816500D01*
X2140864Y-4820361D01*
X2140864Y-4839512D01*
X2140102Y-4843424D01*
X2137918Y-4846726D01*
X2122728Y-4861915D01*
X2117547Y-4868214D01*
X2113940Y-4874971D01*
X2111705Y-4882286D01*
X2110892Y-4890414D01*
X2110892Y-4900625D01*
X2109978Y-4904841D01*
X2104796Y-4916271D01*
X2101138Y-4921808D01*
X2096973Y-4930698D01*
X2094433Y-4940198D01*
X2093569Y-4950002D01*
X2094433Y-4959756D01*
X2096973Y-4969256D01*
X2101138Y-4978146D01*
X2106777Y-4986223D01*
X2113737Y-4993182D01*
X2121763Y-4998770D01*
X2130653Y-5002936D01*
X2140153Y-5005476D01*
G37*
G36*
X4285589Y-4785969D02*
G01*
X4314647Y-4785969D01*
X4323537Y-4785106D01*
X4331665Y-4782820D01*
X4335475Y-4781245D01*
X4337812Y-4780940D01*
X4454550Y-4780940D01*
X4463034Y-4780127D01*
X4470704Y-4777790D01*
X4477766Y-4774031D01*
X4484319Y-4768596D01*
X4763516Y-4489399D01*
X4768951Y-4482846D01*
X4772710Y-4475784D01*
X4775047Y-4468114D01*
X4775860Y-4459630D01*
X4775860Y-4243019D01*
X4776825Y-4238701D01*
X4779518Y-4235196D01*
X4793183Y-4228795D01*
X4801260Y-4223156D01*
X4808220Y-4216196D01*
X4813808Y-4208170D01*
X4817973Y-4199280D01*
X4820513Y-4189780D01*
X4821377Y-4179976D01*
X4820513Y-4170172D01*
X4817973Y-4160672D01*
X4813808Y-4151782D01*
X4808220Y-4143756D01*
X4801260Y-4136796D01*
X4793183Y-4131157D01*
X4784293Y-4126992D01*
X4774793Y-4124451D01*
X4765040Y-4123588D01*
X4755235Y-4124451D01*
X4745736Y-4126992D01*
X4736846Y-4131157D01*
X4728768Y-4136796D01*
X4721809Y-4143756D01*
X4716221Y-4151782D01*
X4712055Y-4160672D01*
X4709515Y-4170121D01*
X4708906Y-4171797D01*
X4703318Y-4183938D01*
X4700981Y-4187240D01*
X4697222Y-4194301D01*
X4694885Y-4201972D01*
X4694072Y-4210456D01*
X4694072Y-4439005D01*
X4693310Y-4442866D01*
X4691075Y-4446168D01*
X4441088Y-4696155D01*
X4437786Y-4698390D01*
X4433925Y-4699152D01*
X4337812Y-4699152D01*
X4333290Y-4698085D01*
X4331665Y-4697272D01*
X4323537Y-4694986D01*
X4314647Y-4694123D01*
X4311091Y-4694123D01*
X4307179Y-4693361D01*
X4303877Y-4691176D01*
X4301693Y-4687874D01*
X4300931Y-4683963D01*
X4300931Y-4653940D01*
X4302404Y-4642154D01*
X4303268Y-4639157D01*
X4307992Y-4629251D01*
X4310532Y-4619752D01*
X4311396Y-4609998D01*
X4310532Y-4600194D01*
X4307992Y-4590694D01*
X4303826Y-4581804D01*
X4298188Y-4573727D01*
X4291228Y-4566767D01*
X4283202Y-4561179D01*
X4274312Y-4557014D01*
X4264812Y-4554474D01*
X4255008Y-4553610D01*
X4245203Y-4554474D01*
X4235704Y-4557014D01*
X4226814Y-4561179D01*
X4218787Y-4566767D01*
X4211828Y-4573727D01*
X4206189Y-4581804D01*
X4202023Y-4590694D01*
X4199483Y-4600194D01*
X4198620Y-4609998D01*
X4199483Y-4619752D01*
X4202023Y-4629251D01*
X4206748Y-4639157D01*
X4207611Y-4642154D01*
X4209084Y-4653889D01*
X4209084Y-4688992D01*
X4208322Y-4692853D01*
X4206138Y-4696155D01*
X4202836Y-4698390D01*
X4198924Y-4699152D01*
X3616147Y-4699152D01*
X3612286Y-4698390D01*
X3608984Y-4696155D01*
X3602837Y-4690059D01*
X3600805Y-4687112D01*
X3595573Y-4675378D01*
X3592982Y-4665675D01*
X3588816Y-4656785D01*
X3583228Y-4648758D01*
X3576269Y-4641799D01*
X3568192Y-4636160D01*
X3559301Y-4631994D01*
X3549802Y-4629454D01*
X3540048Y-4628591D01*
X3530244Y-4629454D01*
X3520744Y-4631994D01*
X3511854Y-4636160D01*
X3503777Y-4641799D01*
X3496818Y-4648758D01*
X3491229Y-4656785D01*
X3487064Y-4665675D01*
X3484524Y-4675174D01*
X3483660Y-4684979D01*
X3484524Y-4694783D01*
X3487064Y-4704283D01*
X3491229Y-4713173D01*
X3496818Y-4721199D01*
X3503777Y-4728159D01*
X3511854Y-4733798D01*
X3520744Y-4737963D01*
X3531819Y-4741062D01*
X3542029Y-4745786D01*
X3544925Y-4747818D01*
X3565753Y-4768596D01*
X3572306Y-4774031D01*
X3579368Y-4777790D01*
X3587038Y-4780127D01*
X3595522Y-4780940D01*
X4262069Y-4780940D01*
X4266133Y-4781804D01*
X4268317Y-4782718D01*
X4276699Y-4785106D01*
G37*
G36*
X823163Y-4555998D02*
G01*
X823163Y-4498898D01*
X731418Y-4498898D01*
X734669Y-4505502D01*
X741984Y-4516475D01*
X750671Y-4526381D01*
X760628Y-4535119D01*
X771601Y-4542434D01*
X783437Y-4548276D01*
X795934Y-4552492D01*
X808837Y-4555083D01*
G37*
G36*
X1000861Y-4555998D02*
G01*
X1015187Y-4555083D01*
X1028141Y-4552492D01*
X1040637Y-4548276D01*
X1052474Y-4542434D01*
X1063447Y-4535119D01*
X1073353Y-4526381D01*
X1082040Y-4516475D01*
X1089406Y-4505502D01*
X1092657Y-4498898D01*
X1000861Y-4498898D01*
G37*
G36*
X238099Y-4554931D02*
G01*
X238099Y-4498898D01*
X161290Y-4498898D01*
X164541Y-4505502D01*
X171907Y-4516475D01*
X180594Y-4526381D01*
X190500Y-4535119D01*
X201472Y-4542434D01*
X213309Y-4548276D01*
X225806Y-4552492D01*
G37*
G36*
X385775Y-4411218D02*
G01*
X462534Y-4411218D01*
X459282Y-4404614D01*
X451967Y-4393641D01*
X443280Y-4383735D01*
X433324Y-4375048D01*
X422351Y-4367682D01*
X410514Y-4361840D01*
X398018Y-4357624D01*
X385775Y-4355185D01*
G37*
G36*
X161290Y-4411218D02*
G01*
X238099Y-4411218D01*
X238099Y-4355185D01*
X225806Y-4357624D01*
X213309Y-4361840D01*
X201472Y-4367682D01*
X190500Y-4375048D01*
X180594Y-4383735D01*
X171907Y-4393641D01*
X164541Y-4404614D01*
G37*
G36*
X1000861Y-4411218D02*
G01*
X1092657Y-4411218D01*
X1089406Y-4404614D01*
X1082040Y-4393641D01*
X1073353Y-4383735D01*
X1063447Y-4375048D01*
X1052474Y-4367682D01*
X1040637Y-4361840D01*
X1028141Y-4357624D01*
X1015187Y-4355033D01*
X1000861Y-4354169D01*
G37*
G36*
X731418Y-4411218D02*
G01*
X823163Y-4411218D01*
X823163Y-4354169D01*
X808837Y-4355033D01*
X795934Y-4357624D01*
X783437Y-4361840D01*
X771601Y-4367682D01*
X760628Y-4375048D01*
X750671Y-4383735D01*
X741984Y-4393641D01*
X734669Y-4404614D01*
G37*
G36*
X5415432Y-4242155D02*
G01*
X5415432Y-4198315D01*
X5355386Y-4198315D01*
X5358536Y-4204919D01*
X5364937Y-4214266D01*
X5372658Y-4222597D01*
X5381548Y-4229658D01*
X5391353Y-4235348D01*
X5401919Y-4239463D01*
X5412943Y-4242003D01*
G37*
G36*
X5523128Y-4242155D02*
G01*
X5525617Y-4242003D01*
X5536641Y-4239463D01*
X5547207Y-4235348D01*
X5557012Y-4229658D01*
X5565902Y-4222597D01*
X5573572Y-4214266D01*
X5579973Y-4204919D01*
X5583174Y-4198315D01*
X5523128Y-4198315D01*
G37*
G36*
X5840933Y-4240834D02*
G01*
X5840933Y-4198315D01*
X5788406Y-4198315D01*
X5791555Y-4204919D01*
X5797956Y-4214266D01*
X5805678Y-4222597D01*
X5814517Y-4229658D01*
X5824372Y-4235348D01*
X5834888Y-4239463D01*
G37*
G36*
X5933643Y-4240834D02*
G01*
X5939637Y-4239463D01*
X5950204Y-4235348D01*
X5960008Y-4229658D01*
X5968898Y-4222597D01*
X5976620Y-4214266D01*
X5982970Y-4204919D01*
X5986170Y-4198315D01*
X5933643Y-4198315D01*
G37*
G36*
X2494686Y-4233062D02*
G01*
X2505151Y-4233062D01*
X2515463Y-4231335D01*
X2525369Y-4227931D01*
X2534564Y-4222953D01*
X2542844Y-4216501D01*
X2549906Y-4208830D01*
X2555646Y-4200042D01*
X2559862Y-4190492D01*
X2562402Y-4180332D01*
X2563266Y-4169867D01*
X2561996Y-4156557D01*
X2562250Y-4154170D01*
X2563977Y-4146753D01*
X2564993Y-4144111D01*
X2566670Y-4141876D01*
X2727198Y-3981399D01*
X2730500Y-3979164D01*
X2734411Y-3978401D01*
X2960624Y-3978452D01*
X2964535Y-3979214D01*
X2967837Y-3981450D01*
X3017062Y-4030573D01*
X3024479Y-4036161D01*
X3032556Y-4040225D01*
X3038449Y-4042003D01*
X3050743Y-4047947D01*
X3060242Y-4050487D01*
X3070047Y-4051350D01*
X3079800Y-4050487D01*
X3089300Y-4047947D01*
X3097072Y-4044289D01*
X3099409Y-4043527D01*
X3102203Y-4043375D01*
X3111042Y-4042156D01*
X3119526Y-4039311D01*
X3127298Y-4034942D01*
X3134512Y-4028948D01*
X3157169Y-4006342D01*
X3160471Y-4004106D01*
X3164382Y-4003344D01*
X3232150Y-4003294D01*
X3241344Y-4002024D01*
X3249828Y-3999179D01*
X3257600Y-3994810D01*
X3264814Y-3988815D01*
X3396589Y-3856990D01*
X3402177Y-3849573D01*
X3406190Y-3841597D01*
X3408629Y-3833012D01*
X3409492Y-3823665D01*
X3409492Y-3603447D01*
X3410407Y-3599230D01*
X3412998Y-3595725D01*
X3416808Y-3593693D01*
X3419195Y-3592982D01*
X3428187Y-3588765D01*
X3436264Y-3583178D01*
X3443224Y-3576218D01*
X3448812Y-3568141D01*
X3452977Y-3559251D01*
X3455517Y-3549751D01*
X3456381Y-3539998D01*
X3455517Y-3530193D01*
X3452977Y-3520694D01*
X3448812Y-3511804D01*
X3443224Y-3503726D01*
X3436264Y-3496767D01*
X3428187Y-3491179D01*
X3419297Y-3487013D01*
X3409797Y-3484473D01*
X3400044Y-3483610D01*
X3390239Y-3484473D01*
X3380740Y-3487013D01*
X3371850Y-3491179D01*
X3363772Y-3496767D01*
X3356813Y-3503726D01*
X3351225Y-3511804D01*
X3347059Y-3520694D01*
X3345484Y-3525265D01*
X3343960Y-3527298D01*
X3325469Y-3546144D01*
X3319983Y-3553460D01*
X3315970Y-3561435D01*
X3313531Y-3570020D01*
X3312668Y-3579368D01*
X3312668Y-3799840D01*
X3311906Y-3803751D01*
X3309721Y-3807053D01*
X3213201Y-3903522D01*
X3209899Y-3905758D01*
X3205988Y-3906520D01*
X3138220Y-3906570D01*
X3129026Y-3907840D01*
X3120542Y-3910685D01*
X3112770Y-3915054D01*
X3105556Y-3921048D01*
X3090468Y-3936085D01*
X3088436Y-3937660D01*
X3084372Y-3939184D01*
X3080715Y-3939540D01*
X3070047Y-3938574D01*
X3066135Y-3938524D01*
X3063443Y-3937558D01*
X3059430Y-3935476D01*
X3056991Y-3933647D01*
X3017774Y-3894531D01*
X3010357Y-3888943D01*
X3002381Y-3884929D01*
X2993796Y-3882491D01*
X2984449Y-3881628D01*
X2769412Y-3881628D01*
X2765501Y-3880865D01*
X2762199Y-3878630D01*
X2686304Y-3802735D01*
X2684068Y-3799433D01*
X2683306Y-3795522D01*
X2683205Y-3622040D01*
X2682443Y-3615893D01*
X2680919Y-3609441D01*
X2680512Y-3605174D01*
X2677972Y-3595674D01*
X2673807Y-3586784D01*
X2668219Y-3578758D01*
X2661259Y-3571798D01*
X2653182Y-3566160D01*
X2644292Y-3561994D01*
X2634792Y-3559454D01*
X2625039Y-3558590D01*
X2615234Y-3559454D01*
X2605735Y-3561994D01*
X2596845Y-3566160D01*
X2588768Y-3571798D01*
X2581808Y-3578758D01*
X2576220Y-3586784D01*
X2572054Y-3595674D01*
X2569514Y-3605174D01*
X2568651Y-3614978D01*
X2569514Y-3624783D01*
X2572054Y-3634282D01*
X2576220Y-3643172D01*
X2583738Y-3653688D01*
X2584754Y-3656329D01*
X2586228Y-3662679D01*
X2586482Y-3664915D01*
X2586532Y-3821684D01*
X2587802Y-3830878D01*
X2590647Y-3839362D01*
X2595016Y-3847134D01*
X2601010Y-3854348D01*
X2651963Y-3905351D01*
X2654147Y-3908602D01*
X2654960Y-3912514D01*
X2654147Y-3916426D01*
X2651963Y-3919677D01*
X2464511Y-4107230D01*
X2458821Y-4114749D01*
X2455773Y-4120489D01*
X2454198Y-4125010D01*
X2452116Y-4128566D01*
X2449880Y-4130954D01*
X2444191Y-4139742D01*
X2439974Y-4149293D01*
X2437384Y-4159453D01*
X2436520Y-4169867D01*
X2437384Y-4180332D01*
X2439974Y-4190492D01*
X2444191Y-4200042D01*
X2449880Y-4208830D01*
X2456992Y-4216501D01*
X2465273Y-4222953D01*
X2474468Y-4227931D01*
X2484374Y-4231335D01*
G37*
G36*
X5788406Y-4135628D02*
G01*
X5840933Y-4135628D01*
X5840933Y-4093108D01*
X5834888Y-4094479D01*
X5824372Y-4098594D01*
X5814517Y-4104284D01*
X5805678Y-4111345D01*
X5797956Y-4119676D01*
X5791555Y-4129024D01*
G37*
G36*
X5933643Y-4135628D02*
G01*
X5986170Y-4135628D01*
X5982970Y-4129024D01*
X5976620Y-4119676D01*
X5968898Y-4111345D01*
X5960008Y-4104284D01*
X5950204Y-4098594D01*
X5939637Y-4094479D01*
X5933643Y-4093108D01*
G37*
G36*
X5355386Y-4135628D02*
G01*
X5415432Y-4135628D01*
X5415432Y-4091787D01*
X5412943Y-4091940D01*
X5401919Y-4094479D01*
X5391353Y-4098594D01*
X5381548Y-4104284D01*
X5372658Y-4111345D01*
X5364937Y-4119676D01*
X5358536Y-4129024D01*
G37*
G36*
X5523128Y-4135628D02*
G01*
X5583174Y-4135628D01*
X5579973Y-4129024D01*
X5573572Y-4119676D01*
X5565902Y-4111345D01*
X5557012Y-4104284D01*
X5547207Y-4098594D01*
X5538724Y-4095292D01*
X5535422Y-4093159D01*
X5533136Y-4089958D01*
X5532272Y-4086148D01*
X5532932Y-4082287D01*
X5534964Y-4078935D01*
X5538165Y-4076598D01*
X5547207Y-4072382D01*
X5555183Y-4066794D01*
X5562092Y-4059885D01*
X5567680Y-4051909D01*
X5571794Y-4043121D01*
X5574334Y-4033672D01*
X5575147Y-4024020D01*
X5574334Y-4014317D01*
X5571794Y-4004868D01*
X5567680Y-3996080D01*
X5562092Y-3988104D01*
X5555183Y-3981196D01*
X5547207Y-3975608D01*
X5538419Y-3971493D01*
X5528970Y-3968953D01*
X5519318Y-3968140D01*
X5509615Y-3968953D01*
X5500166Y-3971493D01*
X5491378Y-3975608D01*
X5483402Y-3981196D01*
X5476494Y-3988104D01*
X5470906Y-3996080D01*
X5466791Y-4004868D01*
X5464251Y-4014317D01*
X5463438Y-4024020D01*
X5464251Y-4033672D01*
X5466791Y-4043121D01*
X5470906Y-4051909D01*
X5476494Y-4059885D01*
X5483402Y-4066794D01*
X5491378Y-4072382D01*
X5500166Y-4076496D01*
X5509615Y-4079036D01*
X5513832Y-4079392D01*
X5517438Y-4080408D01*
X5520436Y-4082643D01*
X5522417Y-4085844D01*
X5523128Y-4089501D01*
G37*
G36*
X5180025Y-3866337D02*
G01*
X5189829Y-3865473D01*
X5199329Y-3862933D01*
X5208219Y-3858768D01*
X5216245Y-3853179D01*
X5223205Y-3846220D01*
X5228844Y-3838143D01*
X5233009Y-3829253D01*
X5235549Y-3819753D01*
X5236413Y-3810000D01*
X5235549Y-3800195D01*
X5233009Y-3790696D01*
X5228844Y-3781806D01*
X5223205Y-3773728D01*
X5216245Y-3766769D01*
X5208219Y-3761181D01*
X5199329Y-3757015D01*
X5189829Y-3754475D01*
X5180025Y-3753612D01*
X5170220Y-3754475D01*
X5157673Y-3758031D01*
X5139994Y-3760876D01*
X4975402Y-3760876D01*
X4971542Y-3760114D01*
X4968240Y-3757879D01*
X4942992Y-3732682D01*
X4936693Y-3727500D01*
X4927752Y-3722878D01*
X4925822Y-3721354D01*
X4921250Y-3716782D01*
X4913172Y-3711143D01*
X4904282Y-3706977D01*
X4894783Y-3704437D01*
X4885029Y-3703574D01*
X4875225Y-3704437D01*
X4865725Y-3706977D01*
X4856835Y-3711143D01*
X4848758Y-3716782D01*
X4841798Y-3723741D01*
X4836210Y-3731768D01*
X4832045Y-3740658D01*
X4829505Y-3750157D01*
X4828641Y-3759962D01*
X4829505Y-3769766D01*
X4832045Y-3779265D01*
X4836210Y-3788156D01*
X4841798Y-3796182D01*
X4848758Y-3803142D01*
X4856835Y-3808780D01*
X4865725Y-3812946D01*
X4875225Y-3815486D01*
X4885029Y-3816350D01*
X4894783Y-3815486D01*
X4905298Y-3812692D01*
X4908804Y-3812387D01*
X4912207Y-3813301D01*
X4915052Y-3815334D01*
X4926990Y-3827272D01*
X4933340Y-3832453D01*
X4940046Y-3836060D01*
X4947412Y-3838295D01*
X4955540Y-3839057D01*
X5124246Y-3839057D01*
X5127498Y-3839616D01*
X5130393Y-3841191D01*
X5136845Y-3846220D01*
X5143804Y-3853179D01*
X5151831Y-3858768D01*
X5160721Y-3862933D01*
X5170220Y-3865473D01*
G37*
G36*
X5189931Y-3731310D02*
G01*
X5199735Y-3730447D01*
X5209235Y-3727907D01*
X5218125Y-3723741D01*
X5226151Y-3718153D01*
X5233111Y-3711194D01*
X5238750Y-3703116D01*
X5242915Y-3694226D01*
X5245455Y-3684727D01*
X5246319Y-3674973D01*
X5245455Y-3665169D01*
X5242915Y-3655669D01*
X5238750Y-3646779D01*
X5233111Y-3638702D01*
X5226151Y-3631742D01*
X5218125Y-3626154D01*
X5209235Y-3621989D01*
X5199735Y-3619449D01*
X5189931Y-3618585D01*
X5180126Y-3619449D01*
X5170627Y-3621989D01*
X5161737Y-3626154D01*
X5156301Y-3629710D01*
X5144820Y-3634943D01*
X5140604Y-3635857D01*
X5015382Y-3635857D01*
X5011521Y-3635044D01*
X5008219Y-3632860D01*
X4945430Y-3569970D01*
X4933696Y-3556609D01*
X4928209Y-3548735D01*
X4921250Y-3541776D01*
X4913172Y-3536187D01*
X4904282Y-3532022D01*
X4894783Y-3529482D01*
X4885029Y-3528618D01*
X4875225Y-3529482D01*
X4865725Y-3532022D01*
X4856835Y-3536187D01*
X4848758Y-3541776D01*
X4841798Y-3548735D01*
X4836210Y-3556812D01*
X4832045Y-3565702D01*
X4829505Y-3575202D01*
X4828641Y-3585006D01*
X4829505Y-3594760D01*
X4832045Y-3604260D01*
X4836210Y-3613150D01*
X4841798Y-3621227D01*
X4848758Y-3628186D01*
X4856835Y-3633774D01*
X4865725Y-3637940D01*
X4875225Y-3640480D01*
X4885029Y-3641344D01*
X4895189Y-3640480D01*
X4898390Y-3639870D01*
X4901641Y-3639820D01*
X4904740Y-3640785D01*
X4907432Y-3642664D01*
X4966970Y-3702253D01*
X4973269Y-3707434D01*
X4980025Y-3711041D01*
X4987340Y-3713276D01*
X4995468Y-3714038D01*
X5140655Y-3714038D01*
X5144820Y-3714953D01*
X5156352Y-3720185D01*
X5161737Y-3723741D01*
X5170627Y-3727907D01*
X5180126Y-3730447D01*
G37*
G36*
X5519318Y-3501847D02*
G01*
X5528970Y-3501034D01*
X5538419Y-3498494D01*
X5547207Y-3494379D01*
X5555183Y-3488791D01*
X5562092Y-3481882D01*
X5567680Y-3473907D01*
X5571794Y-3465118D01*
X5574334Y-3455670D01*
X5575147Y-3446018D01*
X5574334Y-3436315D01*
X5571794Y-3426866D01*
X5567680Y-3418078D01*
X5562092Y-3410102D01*
X5555183Y-3403193D01*
X5547207Y-3397605D01*
X5538114Y-3393338D01*
X5534914Y-3391052D01*
X5532882Y-3387699D01*
X5532221Y-3383838D01*
X5533085Y-3379978D01*
X5535371Y-3376777D01*
X5538673Y-3374694D01*
X5547207Y-3371342D01*
X5557012Y-3365652D01*
X5565902Y-3358591D01*
X5573572Y-3350260D01*
X5579973Y-3340912D01*
X5583174Y-3334308D01*
X5523128Y-3334308D01*
X5523128Y-3380486D01*
X5522417Y-3384143D01*
X5520436Y-3387344D01*
X5517438Y-3389579D01*
X5513832Y-3390595D01*
X5509615Y-3390950D01*
X5500217Y-3393490D01*
X5491022Y-3397859D01*
X5483402Y-3403193D01*
X5476494Y-3410102D01*
X5470906Y-3418078D01*
X5466791Y-3426866D01*
X5464251Y-3436315D01*
X5463438Y-3446018D01*
X5464251Y-3455670D01*
X5466791Y-3465118D01*
X5470906Y-3473907D01*
X5476494Y-3481882D01*
X5483402Y-3488791D01*
X5491378Y-3494379D01*
X5500166Y-3498494D01*
X5509615Y-3501034D01*
G37*
G36*
X5415432Y-3378149D02*
G01*
X5415432Y-3334308D01*
X5355386Y-3334308D01*
X5358536Y-3340912D01*
X5364937Y-3350260D01*
X5372658Y-3358591D01*
X5381548Y-3365652D01*
X5391353Y-3371342D01*
X5401919Y-3375456D01*
X5412943Y-3377996D01*
G37*
G36*
X5840933Y-3376879D02*
G01*
X5840933Y-3334308D01*
X5788406Y-3334308D01*
X5791555Y-3340912D01*
X5797956Y-3350260D01*
X5805678Y-3358591D01*
X5814517Y-3365652D01*
X5824372Y-3371342D01*
X5834888Y-3375456D01*
G37*
G36*
X5933643Y-3376879D02*
G01*
X5939637Y-3375456D01*
X5950204Y-3371342D01*
X5960008Y-3365652D01*
X5968898Y-3358591D01*
X5976620Y-3350260D01*
X5982970Y-3340912D01*
X5986170Y-3334308D01*
X5933643Y-3334308D01*
G37*
G36*
X440029Y-3321354D02*
G01*
X449834Y-3320491D01*
X459333Y-3317951D01*
X468223Y-3313785D01*
X476250Y-3308146D01*
X483209Y-3301187D01*
X488848Y-3293160D01*
X492963Y-3284270D01*
X496163Y-3272332D01*
X500278Y-3261461D01*
X502564Y-3257905D01*
X513486Y-3246932D01*
X516788Y-3244748D01*
X520700Y-3243986D01*
X604672Y-3243986D01*
X612800Y-3243173D01*
X620115Y-3240938D01*
X626872Y-3237331D01*
X633171Y-3232150D01*
X672338Y-3192983D01*
X677519Y-3186684D01*
X681126Y-3179927D01*
X683361Y-3172612D01*
X684174Y-3164484D01*
X684174Y-3020314D01*
X684936Y-3016402D01*
X687120Y-3013100D01*
X736244Y-2964027D01*
X739546Y-2961792D01*
X743458Y-2961030D01*
X823163Y-2961030D01*
X823163Y-2904032D01*
X820775Y-2904083D01*
X816914Y-2903321D01*
X813562Y-2901137D01*
X811377Y-2897835D01*
X810564Y-2893923D01*
X811326Y-2890012D01*
X813562Y-2886710D01*
X1033170Y-2667050D01*
X1036472Y-2664866D01*
X1040384Y-2664104D01*
X1069492Y-2664104D01*
X1077620Y-2663291D01*
X1084935Y-2661056D01*
X1091692Y-2657449D01*
X1097991Y-2652268D01*
X1107795Y-2642514D01*
X1111402Y-2640177D01*
X1122273Y-2636113D01*
X1134313Y-2632964D01*
X1143203Y-2628798D01*
X1151280Y-2623159D01*
X1158240Y-2616200D01*
X1163828Y-2608173D01*
X1167993Y-2599283D01*
X1170533Y-2589784D01*
X1171397Y-2579979D01*
X1170533Y-2570175D01*
X1167993Y-2560675D01*
X1163828Y-2551785D01*
X1158240Y-2543759D01*
X1151280Y-2536799D01*
X1143203Y-2531160D01*
X1134313Y-2526995D01*
X1124813Y-2524455D01*
X1115060Y-2523591D01*
X1105255Y-2524455D01*
X1095756Y-2526995D01*
X1086866Y-2531160D01*
X1078788Y-2536799D01*
X1071829Y-2543759D01*
X1066241Y-2551785D01*
X1062075Y-2560675D01*
X1058926Y-2572715D01*
X1056436Y-2579319D01*
X1054252Y-2582722D01*
X1050899Y-2585059D01*
X1046937Y-2585872D01*
X1020470Y-2585872D01*
X1012342Y-2586685D01*
X1005027Y-2588920D01*
X998270Y-2592527D01*
X991971Y-2597708D01*
X617778Y-2971901D01*
X612597Y-2978200D01*
X608990Y-2984957D01*
X606755Y-2992272D01*
X605942Y-3000400D01*
X605942Y-3144570D01*
X605180Y-3148482D01*
X602996Y-3151784D01*
X591972Y-3162808D01*
X588670Y-3164992D01*
X584758Y-3165754D01*
X500786Y-3165754D01*
X492658Y-3166567D01*
X485343Y-3168802D01*
X478586Y-3172409D01*
X472287Y-3177590D01*
X447395Y-3202482D01*
X443738Y-3204819D01*
X432866Y-3208832D01*
X420725Y-3211982D01*
X411835Y-3216148D01*
X403809Y-3221786D01*
X396849Y-3228746D01*
X391210Y-3236772D01*
X387045Y-3245662D01*
X384505Y-3255162D01*
X383641Y-3264966D01*
X384505Y-3274771D01*
X387045Y-3284270D01*
X391210Y-3293160D01*
X396849Y-3301187D01*
X403809Y-3308146D01*
X411835Y-3313785D01*
X420725Y-3317951D01*
X430225Y-3320491D01*
G37*
G36*
X5788406Y-3271621D02*
G01*
X5840933Y-3271621D01*
X5840933Y-3229102D01*
X5834888Y-3230473D01*
X5824372Y-3234588D01*
X5814517Y-3240278D01*
X5805678Y-3247339D01*
X5797956Y-3255670D01*
X5791555Y-3265017D01*
G37*
G36*
X5933643Y-3271621D02*
G01*
X5986170Y-3271621D01*
X5982970Y-3265017D01*
X5976620Y-3255670D01*
X5968898Y-3247339D01*
X5960008Y-3240278D01*
X5950204Y-3234588D01*
X5939637Y-3230473D01*
X5933643Y-3229102D01*
G37*
G36*
X5355386Y-3271621D02*
G01*
X5415432Y-3271621D01*
X5415432Y-3227781D01*
X5412943Y-3227933D01*
X5401919Y-3230473D01*
X5391353Y-3234588D01*
X5381548Y-3240278D01*
X5372658Y-3247339D01*
X5364937Y-3255670D01*
X5358536Y-3265017D01*
G37*
G36*
X5523128Y-3271621D02*
G01*
X5583174Y-3271621D01*
X5579973Y-3265017D01*
X5573572Y-3255670D01*
X5565902Y-3247339D01*
X5557012Y-3240278D01*
X5547207Y-3234588D01*
X5536641Y-3230473D01*
X5525617Y-3227933D01*
X5523128Y-3227781D01*
G37*
G36*
X815035Y-3231337D02*
G01*
X824788Y-3230473D01*
X834288Y-3227933D01*
X843229Y-3223768D01*
X851255Y-3218129D01*
X858215Y-3211220D01*
X863853Y-3203143D01*
X867968Y-3194253D01*
X870508Y-3184753D01*
X871372Y-3174949D01*
X870508Y-3165195D01*
X867968Y-3155696D01*
X863853Y-3146755D01*
X858215Y-3138728D01*
X851255Y-3131769D01*
X843229Y-3126130D01*
X834288Y-3122015D01*
X830681Y-3121050D01*
X826820Y-3119018D01*
X824128Y-3115513D01*
X823163Y-3111195D01*
X823163Y-3048711D01*
X731418Y-3048711D01*
X734669Y-3055315D01*
X741984Y-3066288D01*
X750671Y-3076244D01*
X760628Y-3084931D01*
X771601Y-3092246D01*
X783437Y-3098088D01*
X796493Y-3102508D01*
X800150Y-3104743D01*
X802589Y-3108248D01*
X803402Y-3112465D01*
X802335Y-3116630D01*
X799693Y-3119983D01*
X786841Y-3126130D01*
X778764Y-3131769D01*
X771855Y-3138728D01*
X766216Y-3146755D01*
X762050Y-3155696D01*
X759510Y-3165195D01*
X758647Y-3174949D01*
X759510Y-3184753D01*
X762050Y-3194253D01*
X766216Y-3203143D01*
X771855Y-3211220D01*
X778764Y-3218129D01*
X786841Y-3223768D01*
X795731Y-3227933D01*
X805230Y-3230473D01*
G37*
G36*
X390042Y-3191357D02*
G01*
X399796Y-3190494D01*
X409295Y-3187954D01*
X418185Y-3183788D01*
X423672Y-3180080D01*
X436778Y-3173679D01*
X444855Y-3171088D01*
X451612Y-3167481D01*
X457911Y-3162300D01*
X527304Y-3092907D01*
X532485Y-3086608D01*
X536092Y-3079851D01*
X538327Y-3072536D01*
X539140Y-3064408D01*
X539140Y-3025394D01*
X539902Y-3021482D01*
X542086Y-3018180D01*
X1017269Y-2542997D01*
X1023112Y-2535936D01*
X1026109Y-2533294D01*
X1033221Y-2526233D01*
X1038809Y-2518156D01*
X1042974Y-2509266D01*
X1045514Y-2499766D01*
X1046378Y-2490012D01*
X1045514Y-2480208D01*
X1042974Y-2470708D01*
X1038809Y-2461818D01*
X1033221Y-2453741D01*
X1026261Y-2446782D01*
X1018184Y-2441194D01*
X1009294Y-2437028D01*
X999794Y-2434488D01*
X990041Y-2433624D01*
X980236Y-2434488D01*
X970737Y-2437028D01*
X961847Y-2441194D01*
X953769Y-2446782D01*
X946810Y-2453741D01*
X941222Y-2461818D01*
X937056Y-2470708D01*
X934516Y-2480208D01*
X933653Y-2490012D01*
X934516Y-2499766D01*
X935837Y-2505964D01*
X935939Y-2509266D01*
X935228Y-2513330D01*
X932992Y-2516733D01*
X481177Y-2968498D01*
X478028Y-2970631D01*
X474319Y-2971444D01*
X474014Y-2974289D01*
X472185Y-2977642D01*
X467563Y-2983280D01*
X463956Y-2990037D01*
X461721Y-2997352D01*
X460908Y-3005480D01*
X460908Y-3038551D01*
X460146Y-3042462D01*
X457962Y-3045764D01*
X454659Y-3047949D01*
X450748Y-3048711D01*
X385775Y-3048711D01*
X385775Y-3070199D01*
X384810Y-3074466D01*
X382168Y-3077972D01*
X378256Y-3080004D01*
X370738Y-3081985D01*
X361848Y-3086150D01*
X353771Y-3091789D01*
X346811Y-3098749D01*
X341223Y-3106775D01*
X337058Y-3115665D01*
X334518Y-3125165D01*
X333654Y-3134969D01*
X334518Y-3144774D01*
X337058Y-3154273D01*
X341223Y-3163163D01*
X346811Y-3171190D01*
X353771Y-3178149D01*
X361848Y-3183788D01*
X370738Y-3187954D01*
X380238Y-3190494D01*
G37*
G36*
X1000861Y-3105810D02*
G01*
X1015187Y-3104896D01*
X1028141Y-3102356D01*
X1040637Y-3098088D01*
X1052474Y-3092246D01*
X1063447Y-3084931D01*
X1073353Y-3076244D01*
X1082040Y-3066288D01*
X1089406Y-3055315D01*
X1092657Y-3048711D01*
X1000861Y-3048711D01*
G37*
G36*
X238099Y-3104794D02*
G01*
X238099Y-3048711D01*
X161290Y-3048711D01*
X164541Y-3055315D01*
X171907Y-3066288D01*
X180594Y-3076244D01*
X190500Y-3084931D01*
X201472Y-3092246D01*
X213309Y-3098088D01*
X225806Y-3102356D01*
G37*
G36*
X385775Y-2961030D02*
G01*
X462534Y-2961030D01*
X459282Y-2954426D01*
X451967Y-2943453D01*
X443280Y-2933547D01*
X433324Y-2924860D01*
X422351Y-2917494D01*
X410514Y-2911652D01*
X398018Y-2907436D01*
X385775Y-2904998D01*
G37*
G36*
X1000861Y-2961030D02*
G01*
X1092657Y-2961030D01*
X1089406Y-2954426D01*
X1082040Y-2943453D01*
X1073353Y-2933547D01*
X1063447Y-2924860D01*
X1052474Y-2917494D01*
X1040637Y-2911652D01*
X1028141Y-2907436D01*
X1015187Y-2904845D01*
X1000861Y-2903982D01*
G37*
G36*
X156718Y-2961030D02*
G01*
X238099Y-2961030D01*
X238099Y-2904998D01*
X225806Y-2907436D01*
X213309Y-2911652D01*
X207873Y-2914345D01*
X204216Y-2915361D01*
X200456Y-2914954D01*
X197053Y-2913176D01*
X194614Y-2910332D01*
X193344Y-2906725D01*
X193497Y-2902915D01*
X194360Y-2899156D01*
X195732Y-2895955D01*
X209042Y-2875432D01*
X210413Y-2873806D01*
X299364Y-2784805D01*
X302818Y-2781046D01*
X305765Y-2777185D01*
X308406Y-2773070D01*
X310642Y-2768752D01*
X312521Y-2764231D01*
X313994Y-2759608D01*
X315061Y-2754833D01*
X315671Y-2750007D01*
X315925Y-2744927D01*
X315925Y-2496515D01*
X316382Y-2493467D01*
X317703Y-2490724D01*
X319786Y-2488488D01*
X355955Y-2460091D01*
X368503Y-2452928D01*
X379882Y-2444394D01*
X381863Y-2442514D01*
X385165Y-2440381D01*
X389026Y-2439670D01*
X392887Y-2440432D01*
X396138Y-2442667D01*
X398322Y-2445969D01*
X399084Y-2449830D01*
X399084Y-2465628D01*
X398119Y-2469896D01*
X395478Y-2473401D01*
X391566Y-2475433D01*
X385724Y-2477008D01*
X376834Y-2481173D01*
X368808Y-2486761D01*
X361848Y-2493721D01*
X356209Y-2501798D01*
X352044Y-2510688D01*
X349504Y-2520188D01*
X348640Y-2529992D01*
X349504Y-2539746D01*
X352044Y-2549245D01*
X356209Y-2558135D01*
X361848Y-2566212D01*
X368808Y-2573172D01*
X376834Y-2578760D01*
X385724Y-2582926D01*
X395224Y-2585466D01*
X405028Y-2586329D01*
X414832Y-2585466D01*
X424332Y-2582926D01*
X433222Y-2578760D01*
X441248Y-2573172D01*
X448208Y-2566212D01*
X453847Y-2558135D01*
X458012Y-2549245D01*
X460552Y-2539746D01*
X460908Y-2536952D01*
X465074Y-2520086D01*
X465886Y-2517902D01*
X468477Y-2512872D01*
X470458Y-2505506D01*
X470916Y-2499614D01*
X470916Y-2480919D01*
X471779Y-2476804D01*
X474319Y-2473350D01*
X477977Y-2471267D01*
X482600Y-2470861D01*
X515670Y-2470861D01*
X515670Y-2408834D01*
X481076Y-2408834D01*
X477164Y-2408072D01*
X473862Y-2405837D01*
X471678Y-2402535D01*
X470916Y-2398674D01*
X470916Y-2321306D01*
X471678Y-2317394D01*
X473862Y-2314092D01*
X477164Y-2311908D01*
X481076Y-2311146D01*
X515670Y-2311146D01*
X515670Y-2249068D01*
X482600Y-2249068D01*
X477977Y-2248712D01*
X474319Y-2246579D01*
X471779Y-2243175D01*
X470916Y-2239010D01*
X470916Y-2195779D01*
X471678Y-2191918D01*
X473862Y-2188616D01*
X477113Y-2186432D01*
X480974Y-2185619D01*
X484835Y-2186330D01*
X488137Y-2188464D01*
X490118Y-2190394D01*
X501548Y-2198928D01*
X513181Y-2205482D01*
X513181Y-2154834D01*
X481076Y-2154834D01*
X477164Y-2154072D01*
X473862Y-2151837D01*
X471678Y-2148535D01*
X470916Y-2144674D01*
X470916Y-2067306D01*
X471678Y-2063394D01*
X473862Y-2060092D01*
X477164Y-2057907D01*
X481076Y-2057146D01*
X513181Y-2057146D01*
X513181Y-2006701D01*
X507593Y-2009343D01*
X495706Y-2017115D01*
X487629Y-2023973D01*
X484327Y-2025853D01*
X480517Y-2026361D01*
X476808Y-2025446D01*
X473709Y-2023211D01*
X471627Y-2020011D01*
X470916Y-2016201D01*
X470916Y-1941779D01*
X471678Y-1937918D01*
X473862Y-1934616D01*
X477113Y-1932432D01*
X480974Y-1931619D01*
X484835Y-1932330D01*
X488137Y-1934464D01*
X490118Y-1936394D01*
X501548Y-1944928D01*
X513892Y-1951888D01*
X527100Y-1957222D01*
X540816Y-1960829D01*
X554939Y-1962657D01*
X569112Y-1962657D01*
X583234Y-1960829D01*
X596950Y-1957222D01*
X610158Y-1951888D01*
X622503Y-1944928D01*
X633882Y-1936394D01*
X644093Y-1926539D01*
X652983Y-1915414D01*
X660349Y-1903272D01*
X666089Y-1890268D01*
X670153Y-1876653D01*
X672388Y-1862632D01*
X672846Y-1848408D01*
X671474Y-1834286D01*
X668324Y-1820418D01*
X663397Y-1807108D01*
X656844Y-1794510D01*
X648716Y-1782825D01*
X639165Y-1772310D01*
X628345Y-1763115D01*
X616458Y-1755343D01*
X603656Y-1749196D01*
X590143Y-1744725D01*
X576224Y-1741982D01*
X562000Y-1741068D01*
X547827Y-1741982D01*
X533908Y-1744725D01*
X520395Y-1749196D01*
X507593Y-1755343D01*
X495706Y-1763115D01*
X487629Y-1769973D01*
X484327Y-1771853D01*
X480517Y-1772361D01*
X476808Y-1771446D01*
X473709Y-1769211D01*
X471627Y-1766011D01*
X470916Y-1762201D01*
X470916Y-1725574D01*
X470052Y-1717598D01*
X467766Y-1710486D01*
X463956Y-1703882D01*
X460095Y-1699412D01*
X425043Y-1664309D01*
X422909Y-1661261D01*
X422046Y-1657654D01*
X418744Y-1591868D01*
X417474Y-1580286D01*
X414324Y-1566418D01*
X409397Y-1553108D01*
X402844Y-1540510D01*
X394716Y-1528826D01*
X385165Y-1518310D01*
X374345Y-1509115D01*
X362458Y-1501343D01*
X349656Y-1495196D01*
X336143Y-1490726D01*
X322224Y-1487982D01*
X308000Y-1487068D01*
X293827Y-1487982D01*
X279908Y-1490726D01*
X266395Y-1495196D01*
X253593Y-1501343D01*
X241706Y-1509115D01*
X230886Y-1518310D01*
X221335Y-1528826D01*
X213207Y-1540510D01*
X206603Y-1553108D01*
X201726Y-1566418D01*
X198577Y-1580286D01*
X197205Y-1594408D01*
X197662Y-1608632D01*
X199898Y-1622653D01*
X203962Y-1636268D01*
X209702Y-1649272D01*
X217068Y-1661414D01*
X225958Y-1672539D01*
X236118Y-1682394D01*
X247548Y-1690928D01*
X259892Y-1697888D01*
X273100Y-1703222D01*
X286816Y-1706829D01*
X301701Y-1708708D01*
X367538Y-1712112D01*
X371144Y-1712975D01*
X374192Y-1715058D01*
X396138Y-1736953D01*
X398322Y-1740255D01*
X399084Y-1744167D01*
X399084Y-1762201D01*
X398373Y-1765960D01*
X396290Y-1769160D01*
X393192Y-1771396D01*
X389483Y-1772310D01*
X385673Y-1771802D01*
X382371Y-1769922D01*
X374345Y-1763115D01*
X362458Y-1755343D01*
X349656Y-1749196D01*
X336143Y-1744725D01*
X322224Y-1741982D01*
X308000Y-1741068D01*
X293827Y-1741982D01*
X279908Y-1744725D01*
X266395Y-1749196D01*
X253593Y-1755343D01*
X241706Y-1763115D01*
X230886Y-1772310D01*
X221335Y-1782825D01*
X213207Y-1794510D01*
X206603Y-1807108D01*
X201726Y-1820418D01*
X198577Y-1834286D01*
X197205Y-1848408D01*
X197662Y-1862632D01*
X199898Y-1876653D01*
X203962Y-1890268D01*
X209702Y-1903272D01*
X217068Y-1915414D01*
X225958Y-1926539D01*
X236118Y-1936394D01*
X247548Y-1944928D01*
X259892Y-1951888D01*
X273100Y-1957222D01*
X286816Y-1960829D01*
X300939Y-1962657D01*
X315112Y-1962657D01*
X329234Y-1960829D01*
X342950Y-1957222D01*
X356158Y-1951888D01*
X368503Y-1944928D01*
X379882Y-1936394D01*
X381863Y-1934514D01*
X385165Y-1932381D01*
X389026Y-1931670D01*
X392887Y-1932432D01*
X396138Y-1934667D01*
X398322Y-1937969D01*
X399084Y-1941830D01*
X399084Y-2016201D01*
X398373Y-2019960D01*
X396290Y-2023160D01*
X393192Y-2025396D01*
X389483Y-2026310D01*
X385673Y-2025802D01*
X382371Y-2023922D01*
X374345Y-2017115D01*
X362458Y-2009343D01*
X349656Y-2003196D01*
X336143Y-1998725D01*
X322224Y-1995982D01*
X308000Y-1995068D01*
X293827Y-1995982D01*
X279908Y-1998725D01*
X266395Y-2003196D01*
X253593Y-2009343D01*
X241706Y-2017115D01*
X230886Y-2026310D01*
X221335Y-2036825D01*
X213207Y-2048510D01*
X206603Y-2061108D01*
X201726Y-2074418D01*
X198577Y-2088286D01*
X197205Y-2102408D01*
X197662Y-2116632D01*
X199898Y-2130653D01*
X203962Y-2144268D01*
X209702Y-2157272D01*
X217068Y-2169414D01*
X225958Y-2180539D01*
X236118Y-2190394D01*
X247548Y-2198928D01*
X259892Y-2205888D01*
X273100Y-2211222D01*
X286816Y-2214829D01*
X300939Y-2216658D01*
X315112Y-2216658D01*
X329234Y-2214829D01*
X342950Y-2211222D01*
X356158Y-2205888D01*
X368503Y-2198928D01*
X379882Y-2190394D01*
X381863Y-2188514D01*
X385165Y-2186381D01*
X389026Y-2185670D01*
X392887Y-2186432D01*
X396138Y-2188667D01*
X398322Y-2191969D01*
X399084Y-2195830D01*
X399084Y-2270201D01*
X398373Y-2273960D01*
X396290Y-2277160D01*
X393192Y-2279396D01*
X389483Y-2280310D01*
X385673Y-2279802D01*
X382371Y-2277922D01*
X374345Y-2271115D01*
X362458Y-2263343D01*
X349656Y-2257196D01*
X336143Y-2252726D01*
X322224Y-2249982D01*
X308000Y-2249068D01*
X293827Y-2249982D01*
X279908Y-2252726D01*
X266395Y-2257196D01*
X253593Y-2263343D01*
X241706Y-2271115D01*
X230886Y-2280310D01*
X221335Y-2290826D01*
X213207Y-2302510D01*
X206603Y-2315108D01*
X201726Y-2328418D01*
X198577Y-2342286D01*
X197205Y-2356408D01*
X197662Y-2370632D01*
X199898Y-2384653D01*
X200964Y-2389225D01*
X204063Y-2452522D01*
X204063Y-2717749D01*
X203301Y-2721660D01*
X201117Y-2724962D01*
X131419Y-2794609D01*
X129743Y-2795981D01*
X109270Y-2809189D01*
X105664Y-2810662D01*
X99923Y-2811780D01*
X88950Y-2815691D01*
X78790Y-2821228D01*
X69545Y-2828290D01*
X61467Y-2836672D01*
X54813Y-2846171D01*
X49631Y-2856585D01*
X46126Y-2867660D01*
X44348Y-2879140D01*
X44348Y-2890723D01*
X46126Y-2902204D01*
X49631Y-2913278D01*
X54813Y-2923692D01*
X61467Y-2933192D01*
X69545Y-2941574D01*
X78790Y-2948635D01*
X88950Y-2954172D01*
X99923Y-2958084D01*
X111302Y-2960319D01*
X122935Y-2960725D01*
X134467Y-2959404D01*
X145288Y-2956458D01*
X149656Y-2956204D01*
X153720Y-2957830D01*
G37*
G36*
X5085029Y-2871368D02*
G01*
X5094782Y-2870504D01*
X5104282Y-2867964D01*
X5113172Y-2863799D01*
X5121249Y-2858160D01*
X5128209Y-2851200D01*
X5133797Y-2843174D01*
X5137962Y-2834284D01*
X5141112Y-2823057D01*
X5145786Y-2812897D01*
X5147868Y-2809951D01*
X5169052Y-2788767D01*
X5172354Y-2786583D01*
X5176215Y-2785770D01*
X5573877Y-2785770D01*
X5577738Y-2786583D01*
X5581040Y-2788767D01*
X5585815Y-2793492D01*
X5592368Y-2798927D01*
X5599430Y-2802686D01*
X5607100Y-2805023D01*
X5615584Y-2805836D01*
X5622036Y-2805836D01*
X5625541Y-2806496D01*
X5636717Y-2810611D01*
X5641848Y-2813761D01*
X5650738Y-2817926D01*
X5660237Y-2820466D01*
X5670042Y-2821330D01*
X5679795Y-2820466D01*
X5689295Y-2817926D01*
X5698185Y-2813761D01*
X5706262Y-2808173D01*
X5713222Y-2801213D01*
X5718810Y-2793136D01*
X5722975Y-2784246D01*
X5725515Y-2774746D01*
X5726379Y-2764993D01*
X5725515Y-2755188D01*
X5722975Y-2745689D01*
X5718810Y-2736799D01*
X5713222Y-2728722D01*
X5706262Y-2721762D01*
X5698185Y-2716174D01*
X5689295Y-2712008D01*
X5679795Y-2709468D01*
X5670042Y-2708605D01*
X5660237Y-2709468D01*
X5650738Y-2712008D01*
X5641644Y-2716225D01*
X5637885Y-2718612D01*
X5634736Y-2719984D01*
X5631332Y-2720187D01*
X5628030Y-2719222D01*
X5617718Y-2710891D01*
X5610656Y-2707132D01*
X5602986Y-2704795D01*
X5594502Y-2703982D01*
X5155590Y-2703982D01*
X5147106Y-2704795D01*
X5139436Y-2707132D01*
X5132374Y-2710891D01*
X5125821Y-2716326D01*
X5089956Y-2752140D01*
X5087061Y-2754172D01*
X5075224Y-2759456D01*
X5065725Y-2761996D01*
X5056835Y-2766161D01*
X5048758Y-2771800D01*
X5041798Y-2778760D01*
X5036210Y-2786786D01*
X5032044Y-2795676D01*
X5029504Y-2805176D01*
X5028641Y-2814980D01*
X5029504Y-2824784D01*
X5032044Y-2834284D01*
X5036210Y-2843174D01*
X5041798Y-2851200D01*
X5048758Y-2858160D01*
X5056835Y-2863799D01*
X5065725Y-2867964D01*
X5075224Y-2870504D01*
G37*
G36*
X608380Y-2470861D02*
G01*
X641451Y-2470861D01*
X647750Y-2470150D01*
X653237Y-2468270D01*
X658114Y-2465171D01*
X662228Y-2461107D01*
X665327Y-2456180D01*
X667207Y-2450744D01*
X667918Y-2444394D01*
X667918Y-2408834D01*
X608380Y-2408834D01*
G37*
G36*
X4693005Y-2470861D02*
G01*
X4707178Y-2469946D01*
X4721148Y-2467254D01*
X4734610Y-2462784D01*
X4747412Y-2456586D01*
X4759350Y-2448864D01*
X4770170Y-2439619D01*
X4779721Y-2429103D01*
X4787849Y-2417470D01*
X4794402Y-2404872D01*
X4799330Y-2391511D01*
X4802479Y-2377694D01*
X4803851Y-2363520D01*
X4803394Y-2349347D01*
X4801108Y-2335326D01*
X4797094Y-2321661D01*
X4791303Y-2308707D01*
X4783937Y-2296515D01*
X4775098Y-2285441D01*
X4764887Y-2275535D01*
X4753508Y-2267051D01*
X4741113Y-2260092D01*
X4727956Y-2254758D01*
X4714189Y-2251151D01*
X4700117Y-2249322D01*
X4685893Y-2249322D01*
X4671822Y-2251151D01*
X4658055Y-2254758D01*
X4644898Y-2260092D01*
X4632502Y-2267051D01*
X4621123Y-2275535D01*
X4610912Y-2285441D01*
X4602073Y-2296515D01*
X4594707Y-2308707D01*
X4588967Y-2321661D01*
X4584903Y-2335326D01*
X4582617Y-2349347D01*
X4582160Y-2363520D01*
X4583531Y-2377694D01*
X4586732Y-2391511D01*
X4591608Y-2404872D01*
X4598212Y-2417470D01*
X4606340Y-2429103D01*
X4615891Y-2439619D01*
X4626711Y-2448864D01*
X4638598Y-2456586D01*
X4651400Y-2462784D01*
X4664862Y-2467254D01*
X4678832Y-2469946D01*
G37*
G36*
X4947005Y-2470861D02*
G01*
X4961178Y-2469946D01*
X4975148Y-2467254D01*
X4988610Y-2462784D01*
X5001412Y-2456586D01*
X5013350Y-2448864D01*
X5024170Y-2439619D01*
X5033721Y-2429103D01*
X5041849Y-2417470D01*
X5048402Y-2404872D01*
X5053330Y-2391511D01*
X5056479Y-2377694D01*
X5057851Y-2363520D01*
X5057394Y-2349347D01*
X5055108Y-2335326D01*
X5051094Y-2321661D01*
X5045303Y-2308707D01*
X5037937Y-2296515D01*
X5029098Y-2285441D01*
X5018887Y-2275535D01*
X5007508Y-2267051D01*
X4995113Y-2260092D01*
X4981956Y-2254758D01*
X4968189Y-2251151D01*
X4954117Y-2249322D01*
X4939893Y-2249322D01*
X4925822Y-2251151D01*
X4912055Y-2254758D01*
X4898898Y-2260092D01*
X4886502Y-2267051D01*
X4875123Y-2275535D01*
X4864912Y-2285441D01*
X4856073Y-2296515D01*
X4848707Y-2308707D01*
X4842967Y-2321661D01*
X4838903Y-2335326D01*
X4836617Y-2349347D01*
X4836160Y-2363520D01*
X4837531Y-2377694D01*
X4840732Y-2391511D01*
X4845608Y-2404872D01*
X4852212Y-2417470D01*
X4860340Y-2429103D01*
X4869891Y-2439619D01*
X4880711Y-2448864D01*
X4892598Y-2456586D01*
X4905400Y-2462784D01*
X4918862Y-2467254D01*
X4932832Y-2469946D01*
G37*
G36*
X3204972Y-2391308D02*
G01*
X3214776Y-2390444D01*
X3224276Y-2387904D01*
X3233166Y-2383739D01*
X3241192Y-2378151D01*
X3248152Y-2371191D01*
X3253790Y-2363165D01*
X3255162Y-2360523D01*
X3267608Y-2342997D01*
X3314954Y-2295652D01*
X3320034Y-2289403D01*
X3323437Y-2282748D01*
X3325418Y-2275382D01*
X3325876Y-2269490D01*
X3325876Y-2134057D01*
X3326637Y-2130145D01*
X3328822Y-2126843D01*
X3471773Y-1983892D01*
X3475075Y-1981707D01*
X3478987Y-1980946D01*
X3845915Y-1980946D01*
X3849827Y-1981707D01*
X3853129Y-1983892D01*
X3919270Y-2050034D01*
X3925519Y-2055114D01*
X3932174Y-2058517D01*
X3939540Y-2060498D01*
X3945432Y-2060956D01*
X4311548Y-2060956D01*
X4319524Y-2060092D01*
X4326636Y-2057806D01*
X4333240Y-2053996D01*
X4337710Y-2050135D01*
X4394047Y-1993798D01*
X4397349Y-1991614D01*
X4401261Y-1990852D01*
X4478578Y-1990852D01*
X4481880Y-1991410D01*
X4484827Y-1992985D01*
X4487062Y-1995474D01*
X4489297Y-1999030D01*
X4491228Y-2003145D01*
X4496816Y-2011222D01*
X4503775Y-2018182D01*
X4511852Y-2023770D01*
X4520742Y-2027936D01*
X4530242Y-2030475D01*
X4540046Y-2031339D01*
X4549800Y-2030475D01*
X4559300Y-2027936D01*
X4568190Y-2023770D01*
X4576267Y-2018182D01*
X4583226Y-2011222D01*
X4588814Y-2003145D01*
X4592980Y-1994255D01*
X4595520Y-1984756D01*
X4596384Y-1975002D01*
X4595520Y-1965198D01*
X4592980Y-1955698D01*
X4588814Y-1946808D01*
X4583226Y-1938731D01*
X4576267Y-1931771D01*
X4568190Y-1926183D01*
X4559300Y-1922018D01*
X4549800Y-1919478D01*
X4540046Y-1918614D01*
X4534763Y-1919020D01*
X4382668Y-1919020D01*
X4374692Y-1919884D01*
X4367580Y-1922170D01*
X4360976Y-1925980D01*
X4356506Y-1929841D01*
X4300169Y-1986178D01*
X4296867Y-1988362D01*
X4292955Y-1989124D01*
X3964127Y-1989124D01*
X3960215Y-1988362D01*
X3956913Y-1986178D01*
X3890772Y-1920036D01*
X3884523Y-1914956D01*
X3877868Y-1911553D01*
X3870502Y-1909572D01*
X3864610Y-1909114D01*
X3460394Y-1909114D01*
X3452418Y-1909978D01*
X3445306Y-1912264D01*
X3438702Y-1916074D01*
X3434232Y-1919935D01*
X3264966Y-2089200D01*
X3259886Y-2095449D01*
X3256483Y-2102104D01*
X3254502Y-2109470D01*
X3254044Y-2115362D01*
X3254044Y-2250795D01*
X3253282Y-2254707D01*
X3251098Y-2258009D01*
X3231540Y-2277567D01*
X3227832Y-2279904D01*
X3223514Y-2280513D01*
X3214776Y-2279446D01*
X3204972Y-2278583D01*
X3195167Y-2279446D01*
X3185668Y-2281986D01*
X3176778Y-2286152D01*
X3168751Y-2291740D01*
X3161792Y-2298700D01*
X3156153Y-2306777D01*
X3151987Y-2315667D01*
X3149447Y-2325166D01*
X3148584Y-2334971D01*
X3149447Y-2344724D01*
X3151987Y-2354224D01*
X3156153Y-2363114D01*
X3161792Y-2371191D01*
X3168751Y-2378151D01*
X3176778Y-2383739D01*
X3185668Y-2387904D01*
X3195167Y-2390444D01*
G37*
G36*
X608380Y-2311146D02*
G01*
X667918Y-2311146D01*
X667918Y-2275535D01*
X667207Y-2269236D01*
X665327Y-2263749D01*
X662228Y-2258872D01*
X658114Y-2254758D01*
X653237Y-2251710D01*
X647750Y-2249779D01*
X641451Y-2249068D01*
X608380Y-2249068D01*
G37*
G36*
X5635040Y-2291334D02*
G01*
X5644794Y-2290470D01*
X5654294Y-2287930D01*
X5663184Y-2283764D01*
X5671261Y-2278176D01*
X5678220Y-2271217D01*
X5683808Y-2263140D01*
X5687974Y-2254250D01*
X5690514Y-2244750D01*
X5691378Y-2234996D01*
X5690514Y-2225192D01*
X5687974Y-2215692D01*
X5683808Y-2206802D01*
X5678220Y-2198725D01*
X5671261Y-2191766D01*
X5663184Y-2186178D01*
X5654294Y-2182012D01*
X5644794Y-2179472D01*
X5635040Y-2178608D01*
X5625236Y-2179472D01*
X5615736Y-2182012D01*
X5606846Y-2186178D01*
X5601563Y-2189632D01*
X5589981Y-2194864D01*
X5585815Y-2195728D01*
X5295290Y-2195728D01*
X5291378Y-2194966D01*
X5288127Y-2192782D01*
X5282031Y-2186736D01*
X5279796Y-2183434D01*
X5279034Y-2179523D01*
X5279034Y-1885594D01*
X5278221Y-1877466D01*
X5275986Y-1870151D01*
X5272379Y-1863394D01*
X5267198Y-1857095D01*
X5222697Y-1812594D01*
X5215940Y-1807057D01*
X5213197Y-1803755D01*
X5206238Y-1796796D01*
X5198211Y-1791157D01*
X5189321Y-1786991D01*
X5179822Y-1784451D01*
X5170017Y-1783588D01*
X5160213Y-1784451D01*
X5150713Y-1786991D01*
X5141823Y-1791157D01*
X5133797Y-1796796D01*
X5126837Y-1803755D01*
X5121198Y-1811782D01*
X5117033Y-1820672D01*
X5114493Y-1830171D01*
X5113629Y-1839975D01*
X5114493Y-1849780D01*
X5117033Y-1859280D01*
X5121198Y-1868170D01*
X5126837Y-1876196D01*
X5133797Y-1883156D01*
X5141823Y-1888794D01*
X5150713Y-1892960D01*
X5160213Y-1895500D01*
X5170017Y-1896364D01*
X5179822Y-1895500D01*
X5185765Y-1894179D01*
X5189220Y-1894128D01*
X5193233Y-1894839D01*
X5196636Y-1897075D01*
X5197856Y-1898294D01*
X5200040Y-1901596D01*
X5200802Y-1905507D01*
X5200802Y-1922475D01*
X5199837Y-1926793D01*
X5197195Y-1930247D01*
X5193284Y-1932279D01*
X5188864Y-1932482D01*
X5184800Y-1930806D01*
X5178196Y-1926183D01*
X5169306Y-1922018D01*
X5159806Y-1919478D01*
X5150002Y-1918614D01*
X5140198Y-1919478D01*
X5130698Y-1922018D01*
X5121808Y-1926183D01*
X5116372Y-1929739D01*
X5104892Y-1934972D01*
X5100675Y-1935886D01*
X5042916Y-1935886D01*
X5038598Y-1934921D01*
X5035092Y-1932228D01*
X5033060Y-1928368D01*
X5032857Y-1923948D01*
X5034534Y-1919884D01*
X5041849Y-1909470D01*
X5048402Y-1896872D01*
X5053330Y-1883511D01*
X5056479Y-1869693D01*
X5057851Y-1855520D01*
X5057394Y-1841347D01*
X5055108Y-1827326D01*
X5051094Y-1813661D01*
X5045303Y-1800707D01*
X5037937Y-1788515D01*
X5029098Y-1777441D01*
X5018887Y-1767535D01*
X5007508Y-1759051D01*
X4995113Y-1752092D01*
X4981956Y-1746757D01*
X4968189Y-1743151D01*
X4954117Y-1741322D01*
X4939893Y-1741322D01*
X4925822Y-1743151D01*
X4912055Y-1746757D01*
X4898898Y-1752092D01*
X4886502Y-1759051D01*
X4875123Y-1767535D01*
X4864912Y-1777441D01*
X4856073Y-1788515D01*
X4848707Y-1800707D01*
X4842967Y-1813661D01*
X4838903Y-1827326D01*
X4836617Y-1841347D01*
X4836414Y-1848764D01*
X4835296Y-1853082D01*
X4832451Y-1856486D01*
X4828387Y-1858365D01*
X4823968Y-1858314D01*
X4819954Y-1856384D01*
X4817110Y-1852930D01*
X4791456Y-1800860D01*
X4783937Y-1788515D01*
X4775098Y-1777441D01*
X4764887Y-1767535D01*
X4753508Y-1759051D01*
X4741113Y-1752092D01*
X4727956Y-1746757D01*
X4714189Y-1743151D01*
X4700117Y-1741322D01*
X4685893Y-1741322D01*
X4671822Y-1743151D01*
X4658055Y-1746757D01*
X4644898Y-1752092D01*
X4632502Y-1759051D01*
X4621123Y-1767535D01*
X4610912Y-1777441D01*
X4602073Y-1788515D01*
X4594707Y-1800707D01*
X4588967Y-1813661D01*
X4584903Y-1827326D01*
X4582617Y-1841347D01*
X4582160Y-1855520D01*
X4583531Y-1869693D01*
X4586732Y-1883511D01*
X4591608Y-1896872D01*
X4598212Y-1909470D01*
X4606340Y-1921103D01*
X4615891Y-1931619D01*
X4626711Y-1940864D01*
X4638598Y-1948586D01*
X4651400Y-1954784D01*
X4664862Y-1959254D01*
X4678832Y-1961946D01*
X4693005Y-1962861D01*
X4707178Y-1961946D01*
X4721352Y-1959203D01*
X4779772Y-1942541D01*
X4783378Y-1942185D01*
X4786833Y-1943100D01*
X4789779Y-1945132D01*
X4846878Y-2002282D01*
X4853178Y-2007463D01*
X4859934Y-2011070D01*
X4863236Y-2012035D01*
X4866894Y-2014067D01*
X4869434Y-2017420D01*
X4870450Y-2021484D01*
X4869688Y-2025599D01*
X4867351Y-2029104D01*
X4864912Y-2031441D01*
X4856073Y-2042515D01*
X4848707Y-2054707D01*
X4842967Y-2067661D01*
X4838903Y-2081326D01*
X4836617Y-2095347D01*
X4836160Y-2109520D01*
X4837531Y-2123694D01*
X4840732Y-2137511D01*
X4845608Y-2150872D01*
X4852212Y-2163470D01*
X4860340Y-2175103D01*
X4869891Y-2185619D01*
X4880711Y-2194864D01*
X4892598Y-2202586D01*
X4905400Y-2208784D01*
X4918862Y-2213254D01*
X4932832Y-2215946D01*
X4947005Y-2216861D01*
X4961178Y-2215946D01*
X4975148Y-2213254D01*
X4988610Y-2208784D01*
X5001412Y-2202586D01*
X5013350Y-2194864D01*
X5024170Y-2185619D01*
X5033721Y-2175103D01*
X5041849Y-2163470D01*
X5048402Y-2150872D01*
X5053330Y-2137511D01*
X5056479Y-2123694D01*
X5057851Y-2109520D01*
X5057394Y-2095347D01*
X5055108Y-2081326D01*
X5051094Y-2067661D01*
X5045303Y-2054707D01*
X5037988Y-2042566D01*
X5028387Y-2030628D01*
X5026609Y-2027275D01*
X5026152Y-2023516D01*
X5027117Y-2019858D01*
X5029352Y-2016810D01*
X5032552Y-2014778D01*
X5036312Y-2014067D01*
X5100675Y-2014067D01*
X5104892Y-2014982D01*
X5116423Y-2020214D01*
X5121808Y-2023770D01*
X5130698Y-2027936D01*
X5140198Y-2030475D01*
X5150002Y-2031339D01*
X5159806Y-2030475D01*
X5169306Y-2027936D01*
X5178196Y-2023770D01*
X5184800Y-2019147D01*
X5188864Y-2017471D01*
X5193284Y-2017674D01*
X5197195Y-2019706D01*
X5199837Y-2023160D01*
X5200802Y-2027478D01*
X5200802Y-2199538D01*
X5201615Y-2207666D01*
X5203850Y-2214981D01*
X5207457Y-2221738D01*
X5212588Y-2228037D01*
X5247081Y-2262276D01*
X5253278Y-2267305D01*
X5260035Y-2270912D01*
X5267350Y-2273147D01*
X5275478Y-2273960D01*
X5585612Y-2273960D01*
X5589828Y-2274874D01*
X5601258Y-2280107D01*
X5606846Y-2283764D01*
X5615736Y-2287930D01*
X5625236Y-2290470D01*
G37*
G36*
X4270044Y-2281377D02*
G01*
X4279798Y-2280513D01*
X4289298Y-2277973D01*
X4298188Y-2273808D01*
X4306265Y-2268169D01*
X4313224Y-2261209D01*
X4318812Y-2253183D01*
X4322978Y-2244293D01*
X4325518Y-2234793D01*
X4326382Y-2224989D01*
X4325518Y-2215184D01*
X4322978Y-2205685D01*
X4318812Y-2196795D01*
X4313224Y-2188768D01*
X4306265Y-2181809D01*
X4298188Y-2176170D01*
X4289298Y-2172004D01*
X4286504Y-2171141D01*
X4271111Y-2164232D01*
X4268063Y-2162149D01*
X4225798Y-2119934D01*
X4219549Y-2114854D01*
X4212894Y-2111451D01*
X4205528Y-2109470D01*
X4199636Y-2109012D01*
X3879037Y-2109012D01*
X3875125Y-2108250D01*
X3871823Y-2106066D01*
X3825748Y-2059990D01*
X3819499Y-2054910D01*
X3812844Y-2051507D01*
X3805478Y-2049525D01*
X3799586Y-2049068D01*
X3786581Y-2049068D01*
X3783837Y-2048713D01*
X3781348Y-2047595D01*
X3768242Y-2039721D01*
X3763213Y-2036165D01*
X3754323Y-2032000D01*
X3744823Y-2029460D01*
X3735019Y-2028596D01*
X3725214Y-2029460D01*
X3715715Y-2032000D01*
X3706825Y-2036165D01*
X3698798Y-2041804D01*
X3691839Y-2048764D01*
X3686200Y-2056790D01*
X3682034Y-2065680D01*
X3679494Y-2075180D01*
X3678631Y-2084984D01*
X3679494Y-2094788D01*
X3682034Y-2104288D01*
X3686200Y-2113178D01*
X3691839Y-2121204D01*
X3698798Y-2128164D01*
X3706825Y-2133803D01*
X3715715Y-2137968D01*
X3725214Y-2140508D01*
X3735019Y-2141372D01*
X3744823Y-2140508D01*
X3754323Y-2137968D01*
X3763213Y-2133803D01*
X3768851Y-2129840D01*
X3777792Y-2124456D01*
X3782009Y-2123084D01*
X3786479Y-2123592D01*
X3790238Y-2125980D01*
X3834180Y-2169922D01*
X3840429Y-2175002D01*
X3847084Y-2178405D01*
X3854450Y-2180386D01*
X3860342Y-2180844D01*
X4180941Y-2180844D01*
X4184853Y-2181606D01*
X4188155Y-2183790D01*
X4210050Y-2205736D01*
X4212082Y-2208682D01*
X4212996Y-2212136D01*
X4213758Y-2222195D01*
X4213656Y-2224989D01*
X4214520Y-2234793D01*
X4217060Y-2244293D01*
X4221226Y-2253183D01*
X4226814Y-2261209D01*
X4233773Y-2268169D01*
X4241850Y-2273808D01*
X4250740Y-2277973D01*
X4260240Y-2280513D01*
G37*
G36*
X4693005Y-2216861D02*
G01*
X4707178Y-2215946D01*
X4721148Y-2213254D01*
X4734610Y-2208784D01*
X4747412Y-2202586D01*
X4759350Y-2194864D01*
X4770170Y-2185619D01*
X4779721Y-2175103D01*
X4787849Y-2163470D01*
X4794402Y-2150872D01*
X4799330Y-2137511D01*
X4802479Y-2123694D01*
X4803851Y-2109520D01*
X4803394Y-2095347D01*
X4801108Y-2081326D01*
X4797094Y-2067661D01*
X4791303Y-2054707D01*
X4783937Y-2042515D01*
X4775098Y-2031441D01*
X4764887Y-2021535D01*
X4753508Y-2013051D01*
X4741113Y-2006092D01*
X4727956Y-2000757D01*
X4714189Y-1997151D01*
X4700117Y-1995322D01*
X4685893Y-1995322D01*
X4671822Y-1997151D01*
X4658055Y-2000757D01*
X4644898Y-2006092D01*
X4632502Y-2013051D01*
X4621123Y-2021535D01*
X4610912Y-2031441D01*
X4602073Y-2042515D01*
X4594707Y-2054707D01*
X4588967Y-2067661D01*
X4584903Y-2081326D01*
X4582617Y-2095347D01*
X4582160Y-2109520D01*
X4583531Y-2123694D01*
X4586732Y-2137511D01*
X4591608Y-2150872D01*
X4598212Y-2163470D01*
X4606340Y-2175103D01*
X4615891Y-2185619D01*
X4626711Y-2194864D01*
X4638598Y-2202586D01*
X4651400Y-2208784D01*
X4664862Y-2213254D01*
X4678832Y-2215946D01*
G37*
G36*
X610870Y-2205482D02*
G01*
X622503Y-2198928D01*
X633882Y-2190394D01*
X644093Y-2180539D01*
X652983Y-2169414D01*
X660349Y-2157272D01*
X661416Y-2154834D01*
X610870Y-2154834D01*
G37*
G36*
X610870Y-2057146D02*
G01*
X661365Y-2057146D01*
X656844Y-2048510D01*
X648716Y-2036825D01*
X639165Y-2026310D01*
X628345Y-2017115D01*
X616458Y-2009343D01*
X610870Y-2006701D01*
G37*
G36*
X4947005Y-1708861D02*
G01*
X4961178Y-1707946D01*
X4975148Y-1705254D01*
X4988610Y-1700784D01*
X5001412Y-1694586D01*
X5013350Y-1686864D01*
X5024170Y-1677619D01*
X5033721Y-1667103D01*
X5041849Y-1655470D01*
X5048402Y-1642872D01*
X5053330Y-1629511D01*
X5056479Y-1615694D01*
X5057851Y-1601520D01*
X5057394Y-1587347D01*
X5055108Y-1573326D01*
X5051094Y-1559661D01*
X5045303Y-1546707D01*
X5037937Y-1534515D01*
X5029098Y-1523441D01*
X5018887Y-1513535D01*
X5007508Y-1505051D01*
X4995113Y-1498092D01*
X4981956Y-1492758D01*
X4968189Y-1489151D01*
X4954117Y-1487322D01*
X4939893Y-1487322D01*
X4925822Y-1489151D01*
X4912055Y-1492758D01*
X4898898Y-1498092D01*
X4886502Y-1505051D01*
X4875123Y-1513535D01*
X4864912Y-1523441D01*
X4856073Y-1534515D01*
X4848707Y-1546707D01*
X4842967Y-1559661D01*
X4838903Y-1573326D01*
X4836617Y-1587347D01*
X4836160Y-1601520D01*
X4837531Y-1615694D01*
X4840732Y-1629511D01*
X4845608Y-1642872D01*
X4852212Y-1655470D01*
X4860340Y-1667103D01*
X4869891Y-1677619D01*
X4880711Y-1686864D01*
X4892598Y-1694586D01*
X4905400Y-1700784D01*
X4918862Y-1705254D01*
X4932832Y-1707946D01*
G37*
G36*
X4693005Y-1708861D02*
G01*
X4707178Y-1707946D01*
X4721148Y-1705254D01*
X4734610Y-1700784D01*
X4747412Y-1694586D01*
X4759350Y-1686864D01*
X4770170Y-1677619D01*
X4779721Y-1667103D01*
X4787849Y-1655470D01*
X4794402Y-1642872D01*
X4799330Y-1629511D01*
X4802479Y-1615694D01*
X4803851Y-1601520D01*
X4803394Y-1587347D01*
X4801108Y-1573326D01*
X4797094Y-1559661D01*
X4791303Y-1546707D01*
X4783937Y-1534515D01*
X4775098Y-1523441D01*
X4764887Y-1513535D01*
X4753508Y-1505051D01*
X4741113Y-1498092D01*
X4727956Y-1492758D01*
X4714189Y-1489151D01*
X4700117Y-1487322D01*
X4685893Y-1487322D01*
X4671822Y-1489151D01*
X4658055Y-1492758D01*
X4644898Y-1498092D01*
X4632502Y-1505051D01*
X4621123Y-1513535D01*
X4610912Y-1523441D01*
X4602073Y-1534515D01*
X4594707Y-1546707D01*
X4588967Y-1559661D01*
X4584903Y-1573326D01*
X4582617Y-1587347D01*
X4582160Y-1601520D01*
X4583531Y-1615694D01*
X4586732Y-1629511D01*
X4591608Y-1642872D01*
X4598212Y-1655470D01*
X4606340Y-1667103D01*
X4615891Y-1677619D01*
X4626711Y-1686864D01*
X4638598Y-1694586D01*
X4651400Y-1700784D01*
X4664862Y-1705254D01*
X4678832Y-1707946D01*
G37*
G36*
X554939Y-1708657D02*
G01*
X569112Y-1708657D01*
X583234Y-1706829D01*
X596950Y-1703222D01*
X610158Y-1697888D01*
X622503Y-1690928D01*
X633882Y-1682394D01*
X644093Y-1672539D01*
X652983Y-1661414D01*
X660349Y-1649272D01*
X666089Y-1636268D01*
X670153Y-1622653D01*
X672388Y-1608632D01*
X672846Y-1594408D01*
X671474Y-1580286D01*
X668324Y-1566418D01*
X663397Y-1553108D01*
X656844Y-1540510D01*
X648716Y-1528826D01*
X639165Y-1518310D01*
X628345Y-1509115D01*
X616458Y-1501343D01*
X603656Y-1495196D01*
X590143Y-1490726D01*
X576224Y-1487982D01*
X562000Y-1487068D01*
X547827Y-1487982D01*
X533908Y-1490726D01*
X520395Y-1495196D01*
X507593Y-1501343D01*
X495706Y-1509115D01*
X484885Y-1518310D01*
X475335Y-1528826D01*
X467207Y-1540510D01*
X460603Y-1553108D01*
X455726Y-1566418D01*
X452577Y-1580286D01*
X451205Y-1594408D01*
X451662Y-1608632D01*
X453898Y-1622653D01*
X457962Y-1636268D01*
X463702Y-1649272D01*
X471068Y-1661414D01*
X479958Y-1672539D01*
X490118Y-1682394D01*
X501548Y-1690928D01*
X513892Y-1697888D01*
X527100Y-1703222D01*
X540816Y-1706829D01*
G37*
G36*
X1945436Y-1641398D02*
G01*
X1949551Y-1641398D01*
X1959813Y-1640484D01*
X1969312Y-1637944D01*
X1978202Y-1633778D01*
X1986229Y-1628139D01*
X1993188Y-1621180D01*
X1998827Y-1613154D01*
X2001875Y-1606651D01*
X2004110Y-1603552D01*
X2007311Y-1601520D01*
X2011070Y-1600809D01*
X2180945Y-1600809D01*
X2192731Y-1602333D01*
X2195728Y-1603197D01*
X2205786Y-1607972D01*
X2215235Y-1610512D01*
X2225040Y-1611376D01*
X2234793Y-1610512D01*
X2244293Y-1607972D01*
X2253183Y-1603806D01*
X2261260Y-1598168D01*
X2268220Y-1591208D01*
X2273808Y-1583182D01*
X2277973Y-1574292D01*
X2280513Y-1564792D01*
X2281377Y-1554988D01*
X2280513Y-1545183D01*
X2277973Y-1535684D01*
X2273808Y-1526794D01*
X2268220Y-1518767D01*
X2261260Y-1511808D01*
X2253183Y-1506169D01*
X2244293Y-1502003D01*
X2234793Y-1499463D01*
X2225040Y-1498600D01*
X2215235Y-1499463D01*
X2205736Y-1502003D01*
X2195880Y-1506626D01*
X2192934Y-1507490D01*
X2181148Y-1508963D01*
X1973376Y-1509014D01*
X1964639Y-1510233D01*
X1956612Y-1512925D01*
X1949145Y-1517091D01*
X1942947Y-1522120D01*
X1933803Y-1529080D01*
X1930298Y-1530807D01*
X1925726Y-1532026D01*
X1916836Y-1536192D01*
X1908810Y-1541780D01*
X1901850Y-1548739D01*
X1896211Y-1556816D01*
X1892046Y-1565706D01*
X1889506Y-1575206D01*
X1888642Y-1585010D01*
X1889506Y-1594764D01*
X1892046Y-1604264D01*
X1896211Y-1613154D01*
X1901850Y-1621231D01*
X1908810Y-1628190D01*
X1916836Y-1633778D01*
X1925726Y-1637944D01*
X1935225Y-1640484D01*
G37*
G36*
X4947005Y-1454861D02*
G01*
X4961178Y-1453946D01*
X4975148Y-1451254D01*
X4988610Y-1446784D01*
X5001412Y-1440586D01*
X5013350Y-1432864D01*
X5024170Y-1423619D01*
X5033721Y-1413103D01*
X5041849Y-1401470D01*
X5048402Y-1388872D01*
X5053330Y-1375511D01*
X5056479Y-1361694D01*
X5057851Y-1347520D01*
X5057394Y-1333347D01*
X5055108Y-1319326D01*
X5051094Y-1305661D01*
X5045303Y-1292707D01*
X5037937Y-1280515D01*
X5029098Y-1269441D01*
X5018887Y-1259535D01*
X5007508Y-1251051D01*
X4995113Y-1244092D01*
X4981956Y-1238758D01*
X4968189Y-1235151D01*
X4954117Y-1233322D01*
X4939893Y-1233322D01*
X4925822Y-1235151D01*
X4912055Y-1238758D01*
X4898898Y-1244092D01*
X4886502Y-1251051D01*
X4875123Y-1259535D01*
X4864912Y-1269441D01*
X4856073Y-1280515D01*
X4848707Y-1292707D01*
X4842967Y-1305661D01*
X4838903Y-1319326D01*
X4836617Y-1333347D01*
X4836160Y-1347520D01*
X4837531Y-1361694D01*
X4840732Y-1375511D01*
X4845608Y-1388872D01*
X4852212Y-1401470D01*
X4860340Y-1413103D01*
X4869891Y-1423619D01*
X4880711Y-1432864D01*
X4892598Y-1440586D01*
X4905400Y-1446784D01*
X4918862Y-1451254D01*
X4932832Y-1453946D01*
G37*
G36*
X554939Y-1454658D02*
G01*
X569112Y-1454658D01*
X583234Y-1452829D01*
X596950Y-1449222D01*
X610158Y-1443888D01*
X622503Y-1436928D01*
X633882Y-1428394D01*
X644093Y-1418539D01*
X652983Y-1407414D01*
X660349Y-1395272D01*
X666089Y-1382268D01*
X670153Y-1368653D01*
X672388Y-1354632D01*
X672846Y-1340408D01*
X671474Y-1326286D01*
X668324Y-1312418D01*
X663397Y-1299108D01*
X656844Y-1286510D01*
X648716Y-1274826D01*
X639165Y-1264310D01*
X628345Y-1255115D01*
X616458Y-1247343D01*
X603656Y-1241196D01*
X590143Y-1236726D01*
X576224Y-1233982D01*
X562000Y-1233068D01*
X547827Y-1233982D01*
X533908Y-1236726D01*
X520395Y-1241196D01*
X507593Y-1247343D01*
X495706Y-1255115D01*
X484885Y-1264310D01*
X475335Y-1274826D01*
X467207Y-1286510D01*
X460603Y-1299108D01*
X455726Y-1312418D01*
X452577Y-1326286D01*
X451205Y-1340408D01*
X451662Y-1354632D01*
X453898Y-1368653D01*
X457962Y-1382268D01*
X463702Y-1395272D01*
X471068Y-1407414D01*
X479958Y-1418539D01*
X490118Y-1428394D01*
X501548Y-1436928D01*
X513892Y-1443888D01*
X527100Y-1449222D01*
X540816Y-1452829D01*
G37*
G36*
X300939Y-1454658D02*
G01*
X315112Y-1454658D01*
X329234Y-1452829D01*
X342950Y-1449222D01*
X356158Y-1443888D01*
X368503Y-1436928D01*
X379882Y-1428394D01*
X390093Y-1418539D01*
X398983Y-1407414D01*
X406349Y-1395272D01*
X412089Y-1382268D01*
X416153Y-1368653D01*
X418388Y-1354632D01*
X418846Y-1340408D01*
X417474Y-1326286D01*
X414324Y-1312418D01*
X409397Y-1299108D01*
X402844Y-1286510D01*
X394716Y-1274826D01*
X385165Y-1264310D01*
X374345Y-1255115D01*
X362458Y-1247343D01*
X349656Y-1241196D01*
X336143Y-1236726D01*
X322224Y-1233982D01*
X308000Y-1233068D01*
X293827Y-1233982D01*
X279908Y-1236726D01*
X266395Y-1241196D01*
X253593Y-1247343D01*
X241706Y-1255115D01*
X230886Y-1264310D01*
X221335Y-1274826D01*
X213207Y-1286510D01*
X206603Y-1299108D01*
X201726Y-1312418D01*
X198577Y-1326286D01*
X197205Y-1340408D01*
X197662Y-1354632D01*
X199898Y-1368653D01*
X203962Y-1382268D01*
X209702Y-1395272D01*
X217068Y-1407414D01*
X225958Y-1418539D01*
X236118Y-1428394D01*
X247548Y-1436928D01*
X259892Y-1443888D01*
X273100Y-1449222D01*
X286816Y-1452829D01*
G37*
G36*
X4741875Y-1443278D02*
G01*
X4747412Y-1440586D01*
X4759350Y-1432864D01*
X4770170Y-1423619D01*
X4779721Y-1413103D01*
X4787849Y-1401470D01*
X4792319Y-1392834D01*
X4741875Y-1392834D01*
G37*
G36*
X4644186Y-1443278D02*
G01*
X4644186Y-1392834D01*
X4593691Y-1392834D01*
X4598212Y-1401470D01*
X4606340Y-1413103D01*
X4615891Y-1423619D01*
X4626711Y-1432864D01*
X4638598Y-1440586D01*
G37*
G36*
X4741875Y-1295146D02*
G01*
X4792421Y-1295146D01*
X4791303Y-1292707D01*
X4783937Y-1280515D01*
X4775098Y-1269441D01*
X4764887Y-1259535D01*
X4753508Y-1251051D01*
X4741875Y-1244498D01*
G37*
G36*
X4593640Y-1295146D02*
G01*
X4644186Y-1295146D01*
X4644186Y-1244498D01*
X4632502Y-1251051D01*
X4621123Y-1259535D01*
X4610912Y-1269441D01*
X4602073Y-1280515D01*
X4594707Y-1292707D01*
G37*
G36*
X5627725Y-1265783D02*
G01*
X5639257Y-1264462D01*
X5650433Y-1261364D01*
X5661050Y-1256639D01*
X5670804Y-1250289D01*
X5679490Y-1242568D01*
X5686856Y-1233627D01*
X5692800Y-1223619D01*
X5697118Y-1212850D01*
X5699810Y-1201521D01*
X5700776Y-1189482D01*
X5700776Y-629767D01*
X5701182Y-627075D01*
X5707126Y-612851D01*
X5709767Y-601522D01*
X5710682Y-589940D01*
X5709767Y-578358D01*
X5707126Y-567029D01*
X5702757Y-556260D01*
X5696864Y-546303D01*
X5689447Y-537311D01*
X5680760Y-529590D01*
X5671007Y-523290D01*
X5660440Y-518515D01*
X5649214Y-515467D01*
X5637682Y-514146D01*
X5626100Y-514553D01*
X5614670Y-516788D01*
X5603748Y-520700D01*
X5593537Y-526237D01*
X5584291Y-533298D01*
X5576265Y-541680D01*
X5569559Y-551180D01*
X5564428Y-561594D01*
X5560923Y-572668D01*
X5559145Y-584149D01*
X5559145Y-595731D01*
X5560923Y-607212D01*
X5564428Y-618337D01*
X5567934Y-625398D01*
X5569000Y-629920D01*
X5569000Y-1091184D01*
X5568188Y-1095095D01*
X5566003Y-1098397D01*
X5562701Y-1100582D01*
X5558840Y-1101344D01*
X5554929Y-1100582D01*
X5551627Y-1098397D01*
X5496814Y-1043686D01*
X5488686Y-1036777D01*
X5479897Y-1031392D01*
X5470347Y-1027430D01*
X5460288Y-1024991D01*
X5449570Y-1024178D01*
X5069738Y-1024178D01*
X5065928Y-1023416D01*
X5017465Y-1004062D01*
X5015128Y-1002741D01*
X5007508Y-997051D01*
X4995113Y-990092D01*
X4981956Y-984758D01*
X4968189Y-981151D01*
X4954117Y-979322D01*
X4939893Y-979322D01*
X4925822Y-981151D01*
X4912055Y-984758D01*
X4898898Y-990092D01*
X4886502Y-997051D01*
X4875123Y-1005535D01*
X4864912Y-1015441D01*
X4856073Y-1026515D01*
X4848707Y-1038707D01*
X4842967Y-1051661D01*
X4838903Y-1065326D01*
X4836617Y-1079347D01*
X4836160Y-1093520D01*
X4837531Y-1107694D01*
X4840732Y-1121511D01*
X4845608Y-1134872D01*
X4852212Y-1147470D01*
X4860340Y-1159103D01*
X4869891Y-1169619D01*
X4880711Y-1178864D01*
X4892598Y-1186586D01*
X4905400Y-1192784D01*
X4918862Y-1197254D01*
X4932832Y-1199946D01*
X4947005Y-1200861D01*
X4961178Y-1199946D01*
X4975148Y-1197254D01*
X4988610Y-1192784D01*
X5001412Y-1186586D01*
X5017566Y-1175969D01*
X5065877Y-1156716D01*
X5069636Y-1155954D01*
X5418531Y-1155954D01*
X5422392Y-1156766D01*
X5425694Y-1158951D01*
X5503214Y-1236268D01*
X5511342Y-1243177D01*
X5520131Y-1248562D01*
X5529681Y-1252524D01*
X5539740Y-1254963D01*
X5550458Y-1255776D01*
X5584901Y-1255776D01*
X5587390Y-1256131D01*
X5589778Y-1257046D01*
X5593740Y-1259179D01*
X5604713Y-1263142D01*
X5616092Y-1265326D01*
G37*
G36*
X4310024Y-1231341D02*
G01*
X4319828Y-1230477D01*
X4329328Y-1227937D01*
X4338218Y-1223772D01*
X4346244Y-1218184D01*
X4353204Y-1211224D01*
X4358843Y-1203147D01*
X4363008Y-1194257D01*
X4365548Y-1184757D01*
X4366412Y-1175004D01*
X4365548Y-1165199D01*
X4362754Y-1155242D01*
X4358843Y-1146810D01*
X4355236Y-1141374D01*
X4350054Y-1129842D01*
X4349140Y-1125677D01*
X4349140Y-940308D01*
X4349902Y-936396D01*
X4352086Y-933094D01*
X4412234Y-872947D01*
X4417415Y-866648D01*
X4421022Y-859891D01*
X4423257Y-852576D01*
X4424070Y-844448D01*
X4424070Y-405384D01*
X4424832Y-401472D01*
X4427016Y-398170D01*
X4432300Y-392887D01*
X4437481Y-386588D01*
X4441088Y-379831D01*
X4443323Y-372516D01*
X4444136Y-364388D01*
X4444136Y-229717D01*
X4445000Y-225602D01*
X4447438Y-222250D01*
X4451045Y-220116D01*
X4455160Y-219608D01*
X4460087Y-220014D01*
X4469841Y-219151D01*
X4479340Y-216611D01*
X4488230Y-212445D01*
X4496308Y-206857D01*
X4503267Y-199898D01*
X4508855Y-191820D01*
X4513021Y-182930D01*
X4515561Y-173431D01*
X4516424Y-163677D01*
X4515561Y-153873D01*
X4513021Y-144373D01*
X4508855Y-135483D01*
X4503267Y-127406D01*
X4496308Y-120446D01*
X4488230Y-114858D01*
X4479340Y-110693D01*
X4469841Y-108153D01*
X4460087Y-107289D01*
X4450283Y-108153D01*
X4440783Y-110693D01*
X4431893Y-114858D01*
X4423816Y-120446D01*
X4416856Y-127406D01*
X4414520Y-130810D01*
X4412640Y-132842D01*
X4408271Y-136448D01*
X4377740Y-166979D01*
X4372559Y-173278D01*
X4368952Y-180035D01*
X4366717Y-187350D01*
X4365904Y-195478D01*
X4365904Y-344474D01*
X4365142Y-348386D01*
X4362958Y-351688D01*
X4357674Y-356971D01*
X4352493Y-363270D01*
X4348886Y-370027D01*
X4346651Y-377342D01*
X4345838Y-385470D01*
X4345838Y-824534D01*
X4345076Y-828446D01*
X4342892Y-831748D01*
X4282744Y-891895D01*
X4277563Y-898194D01*
X4273956Y-904951D01*
X4271721Y-912266D01*
X4270908Y-920394D01*
X4270908Y-1125677D01*
X4269994Y-1129893D01*
X4264812Y-1141374D01*
X4261205Y-1146810D01*
X4257040Y-1155700D01*
X4254500Y-1165199D01*
X4253636Y-1175004D01*
X4254500Y-1184757D01*
X4257040Y-1194257D01*
X4261205Y-1203147D01*
X4266844Y-1211224D01*
X4273804Y-1218184D01*
X4281830Y-1223772D01*
X4290720Y-1227937D01*
X4300220Y-1230477D01*
G37*
G36*
X4739386Y-1200861D02*
G01*
X4772456Y-1200861D01*
X4778756Y-1200150D01*
X4784242Y-1198270D01*
X4789119Y-1195171D01*
X4793234Y-1191107D01*
X4796282Y-1186180D01*
X4798212Y-1180744D01*
X4798923Y-1174394D01*
X4798923Y-1138834D01*
X4739386Y-1138834D01*
G37*
G36*
X4613605Y-1200861D02*
G01*
X4646676Y-1200861D01*
X4646676Y-1138834D01*
X4587087Y-1138834D01*
X4587087Y-1174394D01*
X4587798Y-1180744D01*
X4589729Y-1186180D01*
X4592828Y-1191107D01*
X4596892Y-1195171D01*
X4601819Y-1198270D01*
X4607255Y-1200150D01*
G37*
G36*
X300939Y-1200658D02*
G01*
X315112Y-1200658D01*
X329234Y-1198829D01*
X342950Y-1195222D01*
X356158Y-1189888D01*
X368503Y-1182928D01*
X379882Y-1174394D01*
X390093Y-1164539D01*
X398983Y-1153414D01*
X406349Y-1141272D01*
X412089Y-1128268D01*
X416153Y-1114653D01*
X418388Y-1100632D01*
X418846Y-1086408D01*
X417474Y-1072286D01*
X414324Y-1058418D01*
X409397Y-1045108D01*
X402844Y-1032510D01*
X394716Y-1020826D01*
X385165Y-1010310D01*
X374345Y-1001115D01*
X362458Y-993343D01*
X349656Y-987196D01*
X336143Y-982726D01*
X322224Y-979982D01*
X308000Y-979068D01*
X293827Y-979982D01*
X279908Y-982726D01*
X266395Y-987196D01*
X253593Y-993343D01*
X241706Y-1001115D01*
X230886Y-1010310D01*
X221335Y-1020826D01*
X213207Y-1032510D01*
X206603Y-1045108D01*
X201726Y-1058418D01*
X198577Y-1072286D01*
X197205Y-1086408D01*
X197662Y-1100632D01*
X199898Y-1114653D01*
X203962Y-1128268D01*
X209702Y-1141272D01*
X217068Y-1153414D01*
X225958Y-1164539D01*
X236118Y-1174394D01*
X247548Y-1182928D01*
X259892Y-1189888D01*
X273100Y-1195222D01*
X286816Y-1198829D01*
G37*
G36*
X554939Y-1200658D02*
G01*
X569112Y-1200658D01*
X583234Y-1198829D01*
X596950Y-1195222D01*
X610158Y-1189888D01*
X622503Y-1182928D01*
X633882Y-1174394D01*
X644093Y-1164539D01*
X652983Y-1153414D01*
X660349Y-1141272D01*
X666089Y-1128268D01*
X670153Y-1114653D01*
X672388Y-1100632D01*
X672846Y-1086408D01*
X671474Y-1072286D01*
X668324Y-1058418D01*
X663397Y-1045108D01*
X656844Y-1032510D01*
X648716Y-1020826D01*
X639165Y-1010310D01*
X628345Y-1001115D01*
X616458Y-993343D01*
X603656Y-987196D01*
X590143Y-982726D01*
X576224Y-979982D01*
X562000Y-979068D01*
X547827Y-979982D01*
X533908Y-982726D01*
X520395Y-987196D01*
X507593Y-993343D01*
X495706Y-1001115D01*
X484885Y-1010310D01*
X475335Y-1020826D01*
X467207Y-1032510D01*
X460603Y-1045108D01*
X455726Y-1058418D01*
X452577Y-1072286D01*
X451205Y-1086408D01*
X451662Y-1100632D01*
X453898Y-1114653D01*
X457962Y-1128268D01*
X463702Y-1141272D01*
X471068Y-1153414D01*
X479958Y-1164539D01*
X490118Y-1174394D01*
X501548Y-1182928D01*
X513892Y-1189888D01*
X527100Y-1195222D01*
X540816Y-1198829D01*
G37*
G36*
X4435043Y-1186332D02*
G01*
X4444796Y-1185468D01*
X4454296Y-1182928D01*
X4463186Y-1178763D01*
X4471263Y-1173175D01*
X4478223Y-1166215D01*
X4483811Y-1158138D01*
X4487976Y-1149248D01*
X4490516Y-1139748D01*
X4491380Y-1129995D01*
X4490516Y-1120190D01*
X4487976Y-1110691D01*
X4483811Y-1101801D01*
X4480204Y-1096314D01*
X4475022Y-1084834D01*
X4474108Y-1080617D01*
X4474108Y-965453D01*
X4474870Y-961542D01*
X4477054Y-958240D01*
X4562348Y-872947D01*
X4567529Y-866648D01*
X4571136Y-859891D01*
X4573371Y-852576D01*
X4574184Y-844448D01*
X4574184Y-450494D01*
X4573371Y-442366D01*
X4571136Y-435051D01*
X4569307Y-431546D01*
X4568342Y-428955D01*
X4565650Y-416559D01*
X4565548Y-415188D01*
X4563008Y-405688D01*
X4558842Y-396798D01*
X4553204Y-388772D01*
X4546244Y-381812D01*
X4538218Y-376174D01*
X4529328Y-372008D01*
X4519828Y-369468D01*
X4510024Y-368604D01*
X4500219Y-369468D01*
X4490720Y-372008D01*
X4481830Y-376174D01*
X4473803Y-381812D01*
X4466844Y-388772D01*
X4461205Y-396798D01*
X4457039Y-405688D01*
X4454499Y-415188D01*
X4453636Y-424992D01*
X4454499Y-434797D01*
X4457039Y-444296D01*
X4461205Y-453186D01*
X4466844Y-461213D01*
X4473803Y-468172D01*
X4481830Y-473811D01*
X4490110Y-477672D01*
X4493209Y-479907D01*
X4495241Y-483108D01*
X4495952Y-486867D01*
X4495952Y-824534D01*
X4495190Y-828446D01*
X4493006Y-831748D01*
X4407712Y-917041D01*
X4402531Y-923340D01*
X4398924Y-930097D01*
X4396689Y-937412D01*
X4395876Y-945540D01*
X4395876Y-1080668D01*
X4394962Y-1084884D01*
X4389780Y-1096365D01*
X4386224Y-1101801D01*
X4382058Y-1110691D01*
X4379518Y-1120190D01*
X4378655Y-1129995D01*
X4379518Y-1139748D01*
X4382262Y-1149705D01*
X4386224Y-1158138D01*
X4391812Y-1166215D01*
X4398772Y-1173175D01*
X4406849Y-1178763D01*
X4415739Y-1182928D01*
X4425238Y-1185468D01*
G37*
G36*
X4739386Y-1041146D02*
G01*
X4798923Y-1041146D01*
X4798923Y-1005535D01*
X4798212Y-999236D01*
X4796282Y-993749D01*
X4793234Y-988872D01*
X4789119Y-984758D01*
X4784242Y-981710D01*
X4778756Y-979779D01*
X4772456Y-979068D01*
X4739386Y-979068D01*
G37*
G36*
X4587087Y-1041146D02*
G01*
X4646676Y-1041146D01*
X4646676Y-979068D01*
X4613605Y-979068D01*
X4607255Y-979779D01*
X4601819Y-981710D01*
X4596892Y-984758D01*
X4592828Y-988872D01*
X4589729Y-993749D01*
X4587798Y-999236D01*
X4587087Y-1005535D01*
G37*
G36*
X3550005Y-866343D02*
G01*
X3559810Y-865479D01*
X3569309Y-862939D01*
X3578199Y-858774D01*
X3586226Y-853186D01*
X3593185Y-846226D01*
X3598824Y-838149D01*
X3601821Y-832256D01*
X3611879Y-818540D01*
X3613302Y-816914D01*
X3616604Y-814730D01*
X3620515Y-813968D01*
X3771747Y-813968D01*
X3775557Y-814679D01*
X3778758Y-816762D01*
X3783634Y-821690D01*
X3786835Y-826211D01*
X3793794Y-833170D01*
X3801821Y-838809D01*
X3810711Y-842975D01*
X3820210Y-845515D01*
X3830015Y-846378D01*
X3839819Y-845515D01*
X3849319Y-842975D01*
X3858209Y-838809D01*
X3866235Y-833170D01*
X3873195Y-826211D01*
X3878834Y-818184D01*
X3882999Y-809294D01*
X3885539Y-799795D01*
X3886403Y-789990D01*
X3885539Y-780186D01*
X3881577Y-765505D01*
X3882542Y-761187D01*
X3885234Y-757682D01*
X3889146Y-755650D01*
X3899306Y-752957D01*
X3908196Y-748792D01*
X3916273Y-743153D01*
X3923233Y-736193D01*
X3928821Y-728167D01*
X3932986Y-719277D01*
X3935526Y-709777D01*
X3936390Y-699973D01*
X3935526Y-690168D01*
X3932986Y-680669D01*
X3928821Y-671779D01*
X3923233Y-663752D01*
X3916273Y-656793D01*
X3908196Y-651154D01*
X3899306Y-646988D01*
X3889806Y-644448D01*
X3880053Y-643585D01*
X3870248Y-644448D01*
X3860749Y-646988D01*
X3851859Y-651154D01*
X3846423Y-654761D01*
X3834892Y-659942D01*
X3830726Y-660857D01*
X3595065Y-660857D01*
X3592068Y-660400D01*
X3578453Y-656183D01*
X3569309Y-652018D01*
X3559810Y-649478D01*
X3550005Y-648614D01*
X3540201Y-649478D01*
X3530701Y-652018D01*
X3521811Y-656183D01*
X3513785Y-661771D01*
X3506825Y-668731D01*
X3501186Y-676808D01*
X3497021Y-685698D01*
X3494481Y-695198D01*
X3493617Y-705002D01*
X3494481Y-714756D01*
X3497021Y-724255D01*
X3501186Y-733145D01*
X3506825Y-741222D01*
X3513785Y-748182D01*
X3517900Y-751941D01*
X3519322Y-755548D01*
X3519322Y-759409D01*
X3517900Y-763016D01*
X3513785Y-766775D01*
X3506825Y-773734D01*
X3501186Y-781812D01*
X3497021Y-790702D01*
X3494481Y-800201D01*
X3493617Y-810006D01*
X3494481Y-819759D01*
X3497021Y-829259D01*
X3501186Y-838149D01*
X3506825Y-846226D01*
X3513785Y-853186D01*
X3521811Y-858774D01*
X3530701Y-862939D01*
X3540201Y-865479D01*
G37*
G36*
X3275584Y-560882D02*
G01*
X3434435Y-560882D01*
X3440785Y-560171D01*
X3446221Y-558292D01*
X3451148Y-555193D01*
X3455212Y-551078D01*
X3458311Y-546201D01*
X3460191Y-540715D01*
X3460953Y-534416D01*
X3460953Y-375564D01*
X3460191Y-369214D01*
X3458311Y-363778D01*
X3455212Y-358851D01*
X3451148Y-354787D01*
X3446221Y-351688D01*
X3440785Y-349808D01*
X3434435Y-349097D01*
X3275584Y-349097D01*
X3269284Y-349808D01*
X3263798Y-351688D01*
X3258921Y-354787D01*
X3254806Y-358851D01*
X3251758Y-363778D01*
X3249828Y-369214D01*
X3249117Y-375564D01*
X3249117Y-534416D01*
X3249828Y-540715D01*
X3251758Y-546201D01*
X3254806Y-551078D01*
X3258921Y-555193D01*
X3263798Y-558292D01*
X3269284Y-560171D01*
G37*
G36*
X1450594Y-560882D02*
G01*
X1609445Y-560882D01*
X1615795Y-560171D01*
X1621231Y-558292D01*
X1626158Y-555193D01*
X1630222Y-551078D01*
X1633321Y-546201D01*
X1635201Y-540715D01*
X1635912Y-534416D01*
X1635912Y-375564D01*
X1635201Y-369214D01*
X1633321Y-363778D01*
X1630222Y-358851D01*
X1626158Y-354787D01*
X1621231Y-351688D01*
X1615795Y-349808D01*
X1609445Y-349097D01*
X1450594Y-349097D01*
X1444294Y-349808D01*
X1438808Y-351688D01*
X1433931Y-354787D01*
X1429816Y-358851D01*
X1426718Y-363778D01*
X1424838Y-369214D01*
X1424127Y-375564D01*
X1424127Y-534416D01*
X1424838Y-540715D01*
X1426718Y-546201D01*
X1429816Y-551078D01*
X1433931Y-555193D01*
X1438808Y-558292D01*
X1444294Y-560171D01*
G37*
G36*
X2904998Y-560882D02*
G01*
X2918815Y-559968D01*
X2932430Y-557276D01*
X2945536Y-552805D01*
X2957982Y-546658D01*
X2969463Y-538988D01*
X2979877Y-529844D01*
X2989021Y-519430D01*
X2996590Y-508152D01*
X2999384Y-505358D01*
X3003042Y-503834D01*
X3007004Y-503834D01*
X3010662Y-505358D01*
X3013456Y-508152D01*
X3021025Y-519430D01*
X3030169Y-529844D01*
X3040583Y-538988D01*
X3052064Y-546658D01*
X3064510Y-552805D01*
X3077616Y-557276D01*
X3091180Y-559968D01*
X3104997Y-560882D01*
X3118815Y-559968D01*
X3132429Y-557276D01*
X3145536Y-552805D01*
X3157982Y-546658D01*
X3169462Y-538988D01*
X3179876Y-529844D01*
X3189020Y-519430D01*
X3196742Y-507949D01*
X3202838Y-495503D01*
X3207308Y-482396D01*
X3210001Y-468782D01*
X3210915Y-454964D01*
X3210001Y-441147D01*
X3207308Y-427583D01*
X3202838Y-414477D01*
X3196742Y-402031D01*
X3189020Y-390499D01*
X3179876Y-380085D01*
X3169462Y-370992D01*
X3157982Y-363270D01*
X3145536Y-357174D01*
X3132429Y-352704D01*
X3118815Y-350012D01*
X3104997Y-349097D01*
X3091180Y-350012D01*
X3077616Y-352704D01*
X3064510Y-357174D01*
X3052064Y-363270D01*
X3040583Y-370992D01*
X3030169Y-380085D01*
X3021025Y-390499D01*
X3013456Y-401828D01*
X3010662Y-404622D01*
X3007004Y-406146D01*
X3003042Y-406146D01*
X2999384Y-404622D01*
X2996590Y-401828D01*
X2989021Y-390499D01*
X2979877Y-380085D01*
X2969463Y-370992D01*
X2957982Y-363270D01*
X2945536Y-357174D01*
X2932430Y-352704D01*
X2918815Y-350012D01*
X2904998Y-349097D01*
X2891180Y-350012D01*
X2877616Y-352704D01*
X2864510Y-357174D01*
X2852064Y-363270D01*
X2840583Y-370992D01*
X2830169Y-380085D01*
X2821025Y-390499D01*
X2813304Y-402031D01*
X2807208Y-414477D01*
X2802737Y-427583D01*
X2800045Y-441147D01*
X2799130Y-454964D01*
X2800045Y-468782D01*
X2802737Y-482396D01*
X2807208Y-495503D01*
X2813304Y-507949D01*
X2821025Y-519430D01*
X2830169Y-529844D01*
X2840583Y-538988D01*
X2852064Y-546658D01*
X2864510Y-552805D01*
X2877616Y-557276D01*
X2891180Y-559968D01*
G37*
G36*
X1080008Y-560882D02*
G01*
X1093825Y-559968D01*
X1107440Y-557276D01*
X1120546Y-552805D01*
X1132941Y-546709D01*
X1144473Y-538988D01*
X1154887Y-529844D01*
X1164031Y-519430D01*
X1171600Y-508152D01*
X1174394Y-505358D01*
X1178052Y-503834D01*
X1182014Y-503834D01*
X1185672Y-505358D01*
X1188466Y-508152D01*
X1196035Y-519430D01*
X1205128Y-529844D01*
X1215542Y-538988D01*
X1227074Y-546709D01*
X1239520Y-552805D01*
X1252626Y-557276D01*
X1266190Y-559968D01*
X1280007Y-560882D01*
X1293825Y-559968D01*
X1307439Y-557276D01*
X1320546Y-552805D01*
X1332941Y-546709D01*
X1344472Y-538988D01*
X1354886Y-529844D01*
X1364030Y-519430D01*
X1371701Y-507949D01*
X1377848Y-495503D01*
X1382318Y-482396D01*
X1385011Y-468782D01*
X1385925Y-454964D01*
X1385011Y-441147D01*
X1382318Y-427583D01*
X1377848Y-414477D01*
X1371701Y-402031D01*
X1364030Y-390550D01*
X1354886Y-380136D01*
X1344472Y-370992D01*
X1332941Y-363270D01*
X1320546Y-357174D01*
X1307439Y-352704D01*
X1293825Y-350012D01*
X1280007Y-349097D01*
X1266190Y-350012D01*
X1252626Y-352704D01*
X1239520Y-357174D01*
X1227074Y-363270D01*
X1215542Y-370992D01*
X1205128Y-380136D01*
X1196035Y-390550D01*
X1188466Y-401828D01*
X1185672Y-404622D01*
X1182014Y-406146D01*
X1178052Y-406146D01*
X1174394Y-404622D01*
X1171600Y-401828D01*
X1164031Y-390550D01*
X1154887Y-380136D01*
X1144473Y-370992D01*
X1132941Y-363270D01*
X1120546Y-357174D01*
X1107440Y-352704D01*
X1093825Y-350012D01*
X1080008Y-349097D01*
X1066190Y-350012D01*
X1052626Y-352704D01*
X1039520Y-357174D01*
X1027074Y-363270D01*
X1015542Y-370992D01*
X1005128Y-380136D01*
X996035Y-390550D01*
X988314Y-402031D01*
X982218Y-414477D01*
X977747Y-427583D01*
X975055Y-441147D01*
X974140Y-454964D01*
X975055Y-468782D01*
X977747Y-482396D01*
X982218Y-495503D01*
X988314Y-507949D01*
X996035Y-519430D01*
X1005128Y-529844D01*
X1015542Y-538988D01*
X1027074Y-546709D01*
X1039520Y-552805D01*
X1052626Y-557276D01*
X1066190Y-559968D01*
G37*
G36*
X876350Y-549960D02*
G01*
X882954Y-546709D01*
X894486Y-538988D01*
X904900Y-529844D01*
X914044Y-519430D01*
X921715Y-507949D01*
X924966Y-501345D01*
X876350Y-501345D01*
G37*
G36*
X783691Y-549960D02*
G01*
X783691Y-501345D01*
X735076Y-501345D01*
X738327Y-507949D01*
X745998Y-519430D01*
X755142Y-529844D01*
X765556Y-538988D01*
X777087Y-546709D01*
G37*
G36*
X2608681Y-549910D02*
G01*
X2608681Y-501345D01*
X2560066Y-501345D01*
X2563317Y-507949D01*
X2571038Y-519430D01*
X2580132Y-529844D01*
X2590546Y-538988D01*
X2602077Y-546658D01*
G37*
G36*
X2701391Y-549910D02*
G01*
X2707944Y-546658D01*
X2719476Y-538988D01*
X2729890Y-529844D01*
X2739034Y-519430D01*
X2746705Y-507949D01*
X2749956Y-501345D01*
X2701391Y-501345D01*
G37*
G36*
X2398877Y-461975D02*
G01*
X2401824Y-460654D01*
X2412441Y-454253D01*
X2422042Y-446430D01*
X2430526Y-437337D01*
X2437688Y-427228D01*
X2443378Y-416204D01*
X2447544Y-404520D01*
X2450033Y-392379D01*
X2450795Y-381355D01*
X2398877Y-381355D01*
G37*
G36*
X1863852Y-461975D02*
G01*
X1866849Y-460705D01*
X1877415Y-454253D01*
X1887067Y-446430D01*
X1895500Y-437337D01*
X1902663Y-427228D01*
X1908403Y-416204D01*
X1912518Y-404520D01*
X1915058Y-392379D01*
X1915820Y-381355D01*
X1863852Y-381355D01*
G37*
G36*
X573887Y-461975D02*
G01*
X576834Y-460705D01*
X587451Y-454253D01*
X597052Y-446430D01*
X605536Y-437337D01*
X612698Y-427228D01*
X618388Y-416204D01*
X622554Y-404520D01*
X625043Y-392379D01*
X625805Y-381355D01*
X573887Y-381355D01*
G37*
G36*
X1786178Y-461975D02*
G01*
X1786178Y-381355D01*
X1734210Y-381355D01*
X1734972Y-392379D01*
X1737512Y-404520D01*
X1741678Y-416204D01*
X1747367Y-427228D01*
X1754530Y-437337D01*
X1762963Y-446430D01*
X1772615Y-454253D01*
X1783232Y-460705D01*
G37*
G36*
X2321153Y-461975D02*
G01*
X2321153Y-381355D01*
X2269236Y-381355D01*
X2269998Y-392379D01*
X2272487Y-404520D01*
X2276652Y-416204D01*
X2282342Y-427228D01*
X2289505Y-437337D01*
X2297988Y-446430D01*
X2307590Y-454253D01*
X2318207Y-460654D01*
G37*
G36*
X3611168Y-461975D02*
G01*
X3611168Y-381355D01*
X3559251Y-381355D01*
X3559962Y-392379D01*
X3562502Y-404520D01*
X3566668Y-416204D01*
X3572357Y-427228D01*
X3579520Y-437337D01*
X3588004Y-446430D01*
X3597605Y-454253D01*
X3608222Y-460654D01*
G37*
G36*
X496163Y-461975D02*
G01*
X496163Y-381355D01*
X444246Y-381355D01*
X445008Y-392379D01*
X447497Y-404520D01*
X451662Y-416204D01*
X457352Y-427228D01*
X464515Y-437337D01*
X472998Y-446430D01*
X482600Y-454253D01*
X493217Y-460705D01*
G37*
G36*
X3688892Y-461975D02*
G01*
X3691839Y-460654D01*
X3702405Y-454253D01*
X3712057Y-446430D01*
X3720541Y-437337D01*
X3727653Y-427228D01*
X3733393Y-416204D01*
X3737508Y-404520D01*
X3740048Y-392379D01*
X3740810Y-381355D01*
X3688892Y-381355D01*
G37*
G36*
X876350Y-408635D02*
G01*
X924966Y-408635D01*
X921715Y-402031D01*
X914044Y-390550D01*
X904900Y-380136D01*
X894486Y-370992D01*
X882954Y-363270D01*
X876350Y-360019D01*
G37*
G36*
X2560066Y-408635D02*
G01*
X2608681Y-408635D01*
X2608681Y-360019D01*
X2602077Y-363270D01*
X2590546Y-370992D01*
X2580132Y-380085D01*
X2571038Y-390499D01*
X2563317Y-402031D01*
G37*
G36*
X2701391Y-408635D02*
G01*
X2749956Y-408635D01*
X2746705Y-402031D01*
X2739034Y-390499D01*
X2729890Y-380085D01*
X2719476Y-370992D01*
X2707944Y-363270D01*
X2701391Y-360019D01*
G37*
G36*
X735076Y-408635D02*
G01*
X783691Y-408635D01*
X783691Y-360019D01*
X777087Y-363270D01*
X765556Y-370992D01*
X755142Y-380136D01*
X745998Y-390550D01*
X738327Y-402031D01*
G37*
G36*
X4880660Y-349605D02*
G01*
X4880660Y-289560D01*
X4836820Y-289560D01*
X4836972Y-292049D01*
X4839512Y-303072D01*
X4843627Y-313639D01*
X4849317Y-323443D01*
X4856378Y-332333D01*
X4864709Y-340055D01*
X4874056Y-346456D01*
G37*
G36*
X4016654Y-349605D02*
G01*
X4016654Y-289560D01*
X3972814Y-289560D01*
X3972966Y-292049D01*
X3975506Y-303072D01*
X3979672Y-313639D01*
X3985310Y-323443D01*
X3992372Y-332333D01*
X4000703Y-340055D01*
X4010050Y-346456D01*
G37*
G36*
X4079341Y-349605D02*
G01*
X4085945Y-346456D01*
X4095343Y-340055D01*
X4103624Y-332333D01*
X4110685Y-323443D01*
X4116374Y-313639D01*
X4120540Y-303072D01*
X4123029Y-292049D01*
X4123182Y-289560D01*
X4079341Y-289560D01*
G37*
G36*
X4943348Y-349605D02*
G01*
X4949952Y-346456D01*
X4959299Y-340055D01*
X4967630Y-332333D01*
X4974691Y-323443D01*
X4980381Y-313639D01*
X4984496Y-303072D01*
X4987036Y-292049D01*
X4987188Y-289560D01*
X4943348Y-289560D01*
G37*
G36*
X4769053Y-241604D02*
G01*
X4778756Y-240741D01*
X4788154Y-238201D01*
X4796993Y-234086D01*
X4804968Y-228498D01*
X4811826Y-221640D01*
X4817414Y-213664D01*
X4821529Y-204825D01*
X4824069Y-195427D01*
X4824425Y-191160D01*
X4825441Y-187553D01*
X4827727Y-184556D01*
X4830876Y-182575D01*
X4834585Y-181864D01*
X4880660Y-181864D01*
X4880660Y-121818D01*
X4874056Y-125018D01*
X4864709Y-131419D01*
X4856378Y-139090D01*
X4849317Y-147980D01*
X4843627Y-157784D01*
X4840325Y-166268D01*
X4838192Y-169570D01*
X4834991Y-171805D01*
X4831181Y-172720D01*
X4827320Y-172059D01*
X4823968Y-170027D01*
X4821682Y-166827D01*
X4817414Y-157784D01*
X4811826Y-149809D01*
X4804968Y-142951D01*
X4796993Y-137363D01*
X4788154Y-133248D01*
X4778756Y-130708D01*
X4769053Y-129844D01*
X4759350Y-130708D01*
X4749952Y-133248D01*
X4741113Y-137363D01*
X4733137Y-142951D01*
X4726279Y-149809D01*
X4720691Y-157784D01*
X4716576Y-166624D01*
X4714036Y-176022D01*
X4713173Y-185724D01*
X4714036Y-195427D01*
X4716576Y-204825D01*
X4720691Y-213664D01*
X4726279Y-221640D01*
X4733137Y-228498D01*
X4741113Y-234086D01*
X4749952Y-238201D01*
X4759350Y-240741D01*
G37*
G36*
X4191050Y-241604D02*
G01*
X4200753Y-240741D01*
X4210151Y-238201D01*
X4218990Y-234086D01*
X4226966Y-228498D01*
X4233824Y-221640D01*
X4239412Y-213664D01*
X4243527Y-204825D01*
X4246067Y-195427D01*
X4246930Y-185724D01*
X4246067Y-176022D01*
X4243527Y-166624D01*
X4239412Y-157784D01*
X4233824Y-149809D01*
X4226966Y-142951D01*
X4218990Y-137363D01*
X4210151Y-133248D01*
X4200753Y-130708D01*
X4191050Y-129844D01*
X4181348Y-130708D01*
X4171950Y-133248D01*
X4163110Y-137363D01*
X4155135Y-142951D01*
X4148277Y-149809D01*
X4142689Y-157784D01*
X4138422Y-166928D01*
X4136085Y-170129D01*
X4132732Y-172161D01*
X4128871Y-172821D01*
X4125061Y-171907D01*
X4121861Y-169672D01*
X4119727Y-166370D01*
X4116374Y-157784D01*
X4110685Y-147980D01*
X4103624Y-139090D01*
X4095343Y-131419D01*
X4085945Y-125018D01*
X4079341Y-121818D01*
X4079341Y-181864D01*
X4125518Y-181864D01*
X4129227Y-182575D01*
X4132376Y-184556D01*
X4134662Y-187553D01*
X4135678Y-191160D01*
X4136034Y-195427D01*
X4138523Y-204825D01*
X4142892Y-213969D01*
X4148277Y-221640D01*
X4155135Y-228498D01*
X4163110Y-234086D01*
X4171950Y-238201D01*
X4181348Y-240741D01*
G37*
G36*
X573887Y-228650D02*
G01*
X625805Y-228650D01*
X625043Y-217627D01*
X622554Y-205486D01*
X618388Y-193802D01*
X612698Y-182778D01*
X605536Y-172618D01*
X597052Y-163576D01*
X587451Y-155752D01*
X576834Y-149301D01*
X573887Y-147980D01*
G37*
G36*
X3688892Y-228650D02*
G01*
X3740810Y-228650D01*
X3740048Y-217627D01*
X3737508Y-205486D01*
X3733393Y-193751D01*
X3727653Y-182778D01*
X3720541Y-172618D01*
X3712057Y-163576D01*
X3702405Y-155752D01*
X3691839Y-149301D01*
X3688892Y-147980D01*
G37*
G36*
X3559251Y-228650D02*
G01*
X3611168Y-228650D01*
X3611168Y-147980D01*
X3608222Y-149301D01*
X3597605Y-155752D01*
X3588004Y-163576D01*
X3579520Y-172618D01*
X3572357Y-182778D01*
X3566668Y-193751D01*
X3562502Y-205486D01*
X3559962Y-217627D01*
G37*
G36*
X1734210Y-228650D02*
G01*
X1786178Y-228650D01*
X1786178Y-147980D01*
X1783232Y-149301D01*
X1772615Y-155752D01*
X1762963Y-163576D01*
X1754530Y-172618D01*
X1747367Y-182778D01*
X1741678Y-193802D01*
X1737512Y-205486D01*
X1734972Y-217627D01*
G37*
G36*
X2269236Y-228650D02*
G01*
X2321153Y-228650D01*
X2321153Y-147980D01*
X2318207Y-149301D01*
X2307590Y-155752D01*
X2297988Y-163576D01*
X2289505Y-172618D01*
X2282342Y-182778D01*
X2276652Y-193751D01*
X2272487Y-205486D01*
X2269998Y-217627D01*
G37*
G36*
X2398877Y-228650D02*
G01*
X2450795Y-228650D01*
X2450033Y-217627D01*
X2447544Y-205486D01*
X2443378Y-193751D01*
X2437688Y-182778D01*
X2430526Y-172618D01*
X2422042Y-163576D01*
X2412441Y-155752D01*
X2401824Y-149301D01*
X2398877Y-147980D01*
G37*
G36*
X1863852Y-228650D02*
G01*
X1915820Y-228650D01*
X1915058Y-217627D01*
X1912518Y-205486D01*
X1908403Y-193802D01*
X1902663Y-182778D01*
X1895500Y-172618D01*
X1887067Y-163576D01*
X1877415Y-155752D01*
X1866849Y-149301D01*
X1863852Y-147980D01*
G37*
G36*
X444246Y-228650D02*
G01*
X496163Y-228650D01*
X496163Y-147980D01*
X493217Y-149301D01*
X482600Y-155752D01*
X472998Y-163576D01*
X464515Y-172618D01*
X457352Y-182778D01*
X451662Y-193802D01*
X447497Y-205486D01*
X445008Y-217627D01*
G37*
G36*
X3972814Y-181864D02*
G01*
X4016654Y-181864D01*
X4016654Y-121818D01*
X4010050Y-125018D01*
X4000703Y-131419D01*
X3992372Y-139090D01*
X3985310Y-147980D01*
X3979672Y-157784D01*
X3975506Y-168351D01*
X3972966Y-179374D01*
G37*
G36*
X4943348Y-181864D02*
G01*
X4987188Y-181864D01*
X4987036Y-179374D01*
X4984496Y-168351D01*
X4980381Y-157784D01*
X4974691Y-147980D01*
X4967630Y-139090D01*
X4959299Y-131419D01*
X4949952Y-125018D01*
X4943348Y-121818D01*
G37*
G36*
X3834993Y-85852D02*
G01*
X3850182Y-84937D01*
X3865168Y-82194D01*
X3879646Y-77673D01*
X3893515Y-71475D01*
X3906520Y-63601D01*
X3918508Y-54203D01*
X3929227Y-43484D01*
X3938625Y-31495D01*
X3946499Y-18491D01*
X3952748Y-4622D01*
X3957269Y9906D01*
X3960012Y24841D01*
X3960926Y40030D01*
X3960012Y55168D01*
X3957269Y70154D01*
X3952748Y84683D01*
X3946499Y98501D01*
X3938625Y111506D01*
X3929227Y123494D01*
X3918508Y134264D01*
X3906520Y143611D01*
X3893515Y151485D01*
X3879596Y157734D01*
X3865168Y162255D01*
X3850182Y164998D01*
X3834993Y165912D01*
X3819855Y164998D01*
X3804869Y162255D01*
X3790442Y157734D01*
X3776522Y151485D01*
X3763518Y143611D01*
X3751529Y134264D01*
X3740810Y123494D01*
X3731412Y111506D01*
X3723538Y98501D01*
X3717290Y84683D01*
X3712768Y70154D01*
X3710025Y55168D01*
X3709111Y40030D01*
X3710025Y24841D01*
X3712768Y9906D01*
X3717290Y-4622D01*
X3723538Y-18491D01*
X3731412Y-31495D01*
X3740810Y-43484D01*
X3751529Y-54203D01*
X3763518Y-63601D01*
X3776522Y-71475D01*
X3790391Y-77673D01*
X3804869Y-82194D01*
X3819855Y-84937D01*
G37*
G36*
X185013Y-75895D02*
G01*
X202895Y-74930D01*
X220522Y-72136D01*
X237845Y-67513D01*
X254508Y-61112D01*
X270459Y-52984D01*
X285445Y-43230D01*
X299364Y-31953D01*
X312013Y-19354D01*
X323291Y-5435D01*
X332994Y9550D01*
X341122Y25501D01*
X347522Y42214D01*
X352196Y59486D01*
X354990Y77165D01*
X355904Y94996D01*
X354990Y112877D01*
X352196Y130556D01*
X347522Y147828D01*
X341122Y164541D01*
X332994Y180492D01*
X323291Y195478D01*
X312013Y209397D01*
X299364Y221996D01*
X285445Y233273D01*
X270459Y243027D01*
X254508Y251155D01*
X237845Y257556D01*
X220522Y262178D01*
X202895Y264972D01*
X185013Y265938D01*
X167132Y264972D01*
X149504Y262178D01*
X132181Y257556D01*
X115519Y251155D01*
X99568Y243027D01*
X84582Y233273D01*
X70662Y221996D01*
X58013Y209397D01*
X46736Y195478D01*
X37033Y180492D01*
X28905Y164541D01*
X22504Y147828D01*
X17830Y130556D01*
X15036Y112877D01*
X14122Y94996D01*
X15036Y77165D01*
X17830Y59486D01*
X22504Y42214D01*
X28905Y25501D01*
X37033Y9550D01*
X46736Y-5435D01*
X58013Y-19354D01*
X70662Y-31953D01*
X84582Y-43230D01*
X99568Y-52984D01*
X115519Y-61112D01*
X132181Y-67513D01*
X149504Y-72136D01*
X167132Y-74930D01*
G37*
G36*
X5705043Y-75895D02*
G01*
X5722874Y-74930D01*
X5740552Y-72136D01*
X5757824Y-67513D01*
X5774537Y-61112D01*
X5790488Y-52984D01*
X5805474Y-43230D01*
X5819394Y-31953D01*
X5831992Y-19354D01*
X5843270Y-5435D01*
X5853023Y9550D01*
X5861151Y25501D01*
X5867552Y42214D01*
X5872175Y59486D01*
X5874969Y77165D01*
X5875934Y94996D01*
X5874969Y112877D01*
X5872175Y130556D01*
X5867552Y147828D01*
X5861151Y164541D01*
X5853023Y180492D01*
X5843270Y195478D01*
X5831992Y209397D01*
X5819394Y221996D01*
X5805474Y233273D01*
X5790488Y243027D01*
X5774537Y251155D01*
X5757824Y257556D01*
X5740552Y262178D01*
X5722874Y264972D01*
X5705043Y265938D01*
X5687161Y264972D01*
X5669483Y262178D01*
X5652211Y257556D01*
X5635498Y251155D01*
X5619546Y243027D01*
X5604560Y233273D01*
X5590641Y221996D01*
X5578043Y209397D01*
X5566765Y195478D01*
X5557012Y180492D01*
X5548884Y164541D01*
X5542483Y147828D01*
X5537860Y130556D01*
X5535066Y112877D01*
X5534101Y94996D01*
X5535066Y77165D01*
X5537860Y59486D01*
X5542483Y42214D01*
X5548884Y25501D01*
X5557012Y9550D01*
X5566765Y-5435D01*
X5578043Y-19354D01*
X5590641Y-31953D01*
X5604560Y-43230D01*
X5619546Y-52984D01*
X5635498Y-61112D01*
X5652211Y-67513D01*
X5669483Y-72136D01*
X5687161Y-74930D01*
G37*
G36*
X4016654Y83413D02*
G01*
X4016654Y135940D01*
X3974134Y135940D01*
X3975506Y129895D01*
X3979672Y119380D01*
X3985310Y109524D01*
X3992372Y100685D01*
X4000703Y92964D01*
X4010050Y86563D01*
G37*
G36*
X4880660Y83413D02*
G01*
X4880660Y135940D01*
X4838141Y135940D01*
X4839512Y129895D01*
X4843627Y119380D01*
X4849317Y109524D01*
X4856378Y100685D01*
X4864709Y92964D01*
X4874056Y86563D01*
G37*
G36*
X4943348Y83413D02*
G01*
X4949952Y86563D01*
X4959299Y92964D01*
X4967630Y100685D01*
X4974691Y109524D01*
X4980381Y119380D01*
X4984496Y129895D01*
X4985867Y135940D01*
X4943348Y135940D01*
G37*
G36*
X4079341Y83413D02*
G01*
X4085945Y86563D01*
X4095343Y92964D01*
X4103624Y100685D01*
X4110685Y109524D01*
X4116374Y119380D01*
X4120540Y129895D01*
X4121912Y135940D01*
X4079341Y135940D01*
G37*
G36*
X3778656Y181559D02*
G01*
X3778656Y237642D01*
X3722573Y237642D01*
X3723538Y235508D01*
X3731412Y222504D01*
X3740810Y210515D01*
X3751529Y199796D01*
X3763518Y190398D01*
X3776522Y182524D01*
G37*
G36*
X3891381Y181559D02*
G01*
X3893515Y182524D01*
X3906520Y190398D01*
X3918508Y199796D01*
X3929227Y210515D01*
X3938625Y222504D01*
X3946499Y235508D01*
X3947464Y237642D01*
X3891381Y237642D01*
G37*
G36*
X4838141Y228650D02*
G01*
X4880660Y228650D01*
X4880660Y281178D01*
X4874056Y277977D01*
X4864709Y271627D01*
X4856378Y263906D01*
X4849317Y255016D01*
X4843627Y245211D01*
X4839512Y234645D01*
G37*
G36*
X4079341Y228650D02*
G01*
X4121912Y228650D01*
X4120540Y234645D01*
X4116374Y245211D01*
X4110685Y255016D01*
X4103624Y263906D01*
X4095343Y271627D01*
X4085945Y277977D01*
X4079341Y281178D01*
G37*
G36*
X4943348Y228650D02*
G01*
X4985867Y228650D01*
X4984496Y234645D01*
X4980381Y245211D01*
X4974691Y255016D01*
X4967630Y263906D01*
X4959299Y271627D01*
X4949952Y277977D01*
X4943348Y281178D01*
G37*
G36*
X3974134Y228650D02*
G01*
X4016654Y228650D01*
X4016654Y281178D01*
X4010050Y277977D01*
X4000703Y271627D01*
X3992372Y263906D01*
X3985310Y255016D01*
X3979672Y245211D01*
X3975506Y234645D01*
G37*
G36*
X3891381Y350367D02*
G01*
X3947464Y350367D01*
X3946499Y352501D01*
X3938625Y365506D01*
X3929227Y377494D01*
X3918508Y388264D01*
X3906520Y397611D01*
X3893515Y405485D01*
X3891381Y406450D01*
G37*
G36*
X3722573Y350367D02*
G01*
X3778656Y350367D01*
X3778656Y406450D01*
X3776522Y405485D01*
X3763518Y397611D01*
X3751529Y388264D01*
X3740810Y377494D01*
X3731412Y365506D01*
X3723538Y352501D01*
G37*

%LPD*%
G36*
X5169712Y-3652113D02*
G01*
X5148376Y-3661765D01*
X5148376Y-3688181D01*
X5169712Y-3697833D01*
G37*
G36*
X2136800Y-4908448D02*
G01*
X2127097Y-4929784D01*
X2172817Y-4929835D01*
X2163165Y-4908499D01*
G37*
G36*
X2325014Y-5132222D02*
G01*
X2325014Y-5177942D01*
X2346350Y-5168290D01*
X2346401Y-5141925D01*
G37*
G36*
X5196789Y-1825396D02*
G01*
X5181092Y-1868373D01*
X5204002Y-1867916D01*
X5214010Y-1840534D01*
G37*
G36*
X3819550Y-761339D02*
G01*
X3796487Y-761695D01*
X3786174Y-788060D01*
X3802887Y-803960D01*
G37*
G36*
X3859834Y-677113D02*
G01*
X3838498Y-686816D01*
X3838498Y-713181D01*
X3859834Y-722884D01*
G37*
G36*
X4070451Y-6603187D02*
G01*
X4037939Y-6635445D01*
X4055516Y-6639356D01*
X4074261Y-6620764D01*
G37*
G36*
X5649823Y-2742082D02*
G01*
X5628487Y-2749956D01*
X5628436Y-2779979D01*
X5649823Y-2787853D01*
G37*
G36*
X5103723Y-2775000D02*
G01*
X5083048Y-2784551D01*
X5115407Y-2816910D01*
X5124958Y-2796235D01*
G37*
G36*
X4232097Y-4630166D02*
G01*
X4234992Y-4651502D01*
X4274972Y-4651502D01*
X4277868Y-4630166D01*
G37*
G36*
X1564538Y-6833057D02*
G01*
X1556308Y-6855002D01*
X1574952Y-6873697D01*
X1596898Y-6865416D01*
G37*
G36*
X4432960Y-149606D02*
G01*
X4416094Y-165201D01*
X4426508Y-192125D01*
X4449470Y-192278D01*
G37*
G36*
X5129784Y-1952142D02*
G01*
X5108448Y-1961794D01*
X5108448Y-1988210D01*
X5129784Y-1997862D01*
G37*
G36*
X4509160Y-1944979D02*
G01*
X4498136Y-1964943D01*
X4511294Y-1985314D01*
X4533392Y-1945233D01*
G37*
G36*
X4734560Y-4178046D02*
G01*
X4725009Y-4198721D01*
X4746193Y-4219956D01*
X4766868Y-4210456D01*
G37*
G36*
X3570427Y-4683150D02*
G01*
X3538067Y-4715459D01*
X3558692Y-4725009D01*
X3579926Y-4703826D01*
G37*
G36*
X2849727Y-4930902D02*
G01*
X2819857Y-4938420D01*
X2817774Y-4960924D01*
X2862173Y-4949799D01*
G37*
G36*
X2565349Y-4788052D02*
G01*
X2532989Y-4820412D01*
X2550617Y-4824323D01*
X2569260Y-4805680D01*
G37*
G36*
X5614873Y-2212035D02*
G01*
X5593486Y-2221687D01*
X5593435Y-2248052D01*
X5614771Y-2257806D01*
G37*
G36*
X5165953Y-3782923D02*
G01*
X5142992Y-3786784D01*
X5136438Y-3813200D01*
X5154930Y-3827322D01*
G37*
G36*
X4912563Y-3571951D02*
G01*
X4894478Y-3614013D01*
X4914442Y-3613302D01*
X4925771Y-3586937D01*
G37*
G36*
X4910175Y-3742791D02*
G01*
X4898898Y-3787140D01*
X4921453Y-3785108D01*
X4929022Y-3755339D01*
G37*
G36*
X4540453Y-423062D02*
G01*
X4508144Y-455472D01*
X4525721Y-459333D01*
X4544364Y-440690D01*
G37*
G36*
X4448149Y-1088440D02*
G01*
X4421784Y-1088491D01*
X4412132Y-1109827D01*
X4457852Y-1109827D01*
G37*
G36*
X4296816Y-1133449D02*
G01*
X4287113Y-1154836D01*
X4332884Y-1154836D01*
X4323181Y-1133449D01*
G37*
G36*
X3578961Y-777290D02*
G01*
X3555898Y-780084D01*
X3578910Y-819607D01*
X3592728Y-800862D01*
G37*
G36*
X3567277Y-679856D02*
G01*
X3572764Y-725271D01*
X3592829Y-713181D01*
X3589578Y-686816D01*
G37*
G36*
X454558Y-4533138D02*
G01*
X450748Y-4550664D01*
X469493Y-4569307D01*
X486968Y-4565446D01*
G37*
G36*
X953668Y-5639663D02*
G01*
X931671Y-5679744D01*
X951280Y-5688482D01*
X971550Y-5651449D01*
G37*
G36*
X947064Y-5495899D02*
G01*
X930605Y-5538571D01*
X951585Y-5543448D01*
X965860Y-5506415D01*
G37*
G36*
X1661261Y-6104686D02*
G01*
X1643430Y-6116523D01*
X1663801Y-6153556D01*
X1683359Y-6144768D01*
G37*
G36*
X1579778Y-5972149D02*
G01*
X1558442Y-5976569D01*
X1558544Y-6013602D01*
X1579880Y-6017920D01*
G37*
G36*
X3213506Y-2305710D02*
G01*
X3232912Y-2347112D01*
X3247034Y-2326944D01*
X3238042Y-2307691D01*
G37*
G36*
X624738Y-4621682D02*
G01*
X584657Y-4643678D01*
X601776Y-4658664D01*
X628192Y-4644136D01*
G37*
G36*
X410209Y-3112160D02*
G01*
X410159Y-3157880D01*
X429869Y-3148228D01*
X429920Y-3121863D01*
G37*
G36*
X460146Y-3226358D02*
G01*
X438200Y-3234537D01*
X470458Y-3266998D01*
X478739Y-3245053D01*
G37*
G36*
X235051Y-5051298D02*
G01*
X213106Y-5059578D01*
X245465Y-5091887D01*
X253695Y-5069992D01*
G37*
G36*
X93065Y-5048453D02*
G01*
X66700Y-5048504D01*
X57099Y-5069890D01*
X102819Y-5069738D01*
G37*
G36*
X2073910Y-4670298D02*
G01*
X2050999Y-4709922D01*
X2074113Y-4712614D01*
X2087778Y-4688941D01*
G37*
G36*
X1755139Y-4697120D02*
G01*
X1755089Y-4742840D01*
X1776475Y-4733188D01*
X1776475Y-4706823D01*
G37*
G36*
X961644Y-2501239D02*
G01*
X962202Y-2524150D01*
X989634Y-2534005D01*
X1004671Y-2516733D01*
G37*
G36*
X1084580Y-2578100D02*
G01*
X1076299Y-2599994D01*
X1094943Y-2618689D01*
X1116888Y-2610459D01*
G37*
G36*
X2724759Y-5322163D02*
G01*
X2703474Y-5331917D01*
X2703525Y-5358282D01*
X2724912Y-5367934D01*
G37*
G36*
X2769870Y-5182057D02*
G01*
X2748483Y-5191709D01*
X2748432Y-5218074D01*
X2769768Y-5227828D01*
G37*
G36*
X427329Y-2493568D02*
G01*
X403098Y-2499563D01*
X435457Y-2531922D01*
X441451Y-2507691D01*
G37*
G36*
X4974996Y-5027574D02*
G01*
X4954981Y-5029962D01*
X4944872Y-5052720D01*
X4990287Y-5047183D01*
G37*
G36*
X5713984Y-5114899D02*
G01*
X5695950Y-5125212D01*
X5695086Y-5148884D01*
X5734812Y-5126126D01*
G37*
G36*
X1960219Y-1541526D02*
G01*
X1943100Y-1554581D01*
X1975459Y-1586941D01*
X1988515Y-1569770D01*
G37*
G36*
X2204872Y-1532077D02*
G01*
X2183536Y-1534922D01*
X2183434Y-1574901D01*
X2204770Y-1577848D01*
G37*
G36*
X4254398Y-2185212D02*
G01*
X4237786Y-2196896D01*
X4239666Y-2221636D01*
X4277106Y-2195322D01*
G37*
G36*
X3755186Y-2062124D02*
G01*
X3755186Y-2107895D01*
X3776522Y-2094992D01*
X3776522Y-2075027D01*
G37*
G36*
X2739694Y-5015941D02*
G01*
X2712212Y-5025847D01*
X2711653Y-5048707D01*
X2754731Y-5033264D01*
G37*
G36*
X2305151Y-4932121D02*
G01*
X2305202Y-4977841D01*
X2326538Y-4968138D01*
X2326487Y-4941773D01*
G37*
G36*
X4942128Y-4850180D02*
G01*
X4954981Y-4871516D01*
X4974996Y-4871516D01*
X4987848Y-4850180D01*
G37*
G36*
X5697118Y-4880152D02*
G01*
X5709970Y-4901488D01*
X5729935Y-4901488D01*
X5742838Y-4880152D01*
G37*
G36*
X2652014Y-3629151D02*
G01*
X2607564Y-3640023D01*
X2612390Y-3660851D01*
X2657348Y-3649827D01*
G37*
G36*
X3042412Y-3955796D02*
G01*
X3022244Y-3999229D01*
X3042056Y-4007256D01*
X3061309Y-3965752D01*
G37*
G36*
X3103829Y-3959402D02*
G01*
X3083915Y-3967835D01*
X3095193Y-4012184D01*
X3116681Y-4010151D01*
G37*
G36*
X3369564Y-3538067D02*
G01*
X3354730Y-3553460D01*
X3386531Y-3585260D01*
X3401923Y-3570427D01*
G37*
G36*
X5594858Y-1116787D02*
G01*
X5592673Y-1151839D01*
X5666892Y-1162710D01*
X5674868Y-1128522D01*
G37*
G36*
X5556961Y-1149908D02*
G01*
X5556859Y-1229918D01*
X5591860Y-1227480D01*
X5591962Y-1152448D01*
G37*
G36*
X5597448Y-623011D02*
G01*
X5594858Y-658012D01*
X5674868Y-658164D01*
X5672429Y-623163D01*
G37*
G36*
X1959711Y-1542034D02*
G01*
X1945335Y-1554886D01*
X1980488Y-1584198D01*
X1990547Y-1567789D01*
G37*
G36*
X2494788Y-4113529D02*
G01*
X2482392Y-4136898D01*
X2535021Y-4156659D01*
X2541066Y-4130852D01*
G37*
G36*
X147015Y-2815691D02*
G01*
X116941Y-2835097D01*
X169875Y-2888183D01*
X189382Y-2858160D01*
G37*
G36*
X4656277Y-6471412D02*
G01*
X4620971Y-6540296D01*
X4632147Y-6566509D01*
X4706315Y-6588709D01*
G37*
G36*
X392836Y-1592732D02*
G01*
X302615Y-1682851D01*
X382727Y-1686966D01*
X396849Y-1672843D01*
G37*
G36*
X226669Y-2384704D02*
G01*
X229971Y-2451608D01*
X289966Y-2478989D01*
X342646Y-2437638D01*
G37*
G36*
X4770221Y-1816506D02*
G01*
X4718558Y-1933092D01*
X4793081Y-1911857D01*
X4804511Y-1886000D01*
G37*
G36*
X5003292Y-1026312D02*
G01*
X5003190Y-1153820D01*
X5062728Y-1130096D01*
X5062778Y-1050086D01*
G37*
G36*
X1290777Y-6836613D02*
G01*
X1343152Y-6977125D01*
X1387652Y-6895998D01*
X1377492Y-6868820D01*
G37*
D10*
X1600075Y-5995080D02*
G01*
X1535305Y-5995080D01*
X1479933Y-5939708D01*
X1479933Y-5584870D01*
X1419989Y-5524926D01*
X1159893Y-5524926D01*
X934849Y-5524926D01*
X920117Y-5509940D01*
D11*
X3069973Y-3995084D02*
G01*
X3049907Y-3995084D01*
X2984883Y-3930060D01*
X2745107Y-3930060D01*
X2634871Y-3819824D01*
X2634871Y-3624752D01*
X2624965Y-3615100D01*
D12*
X5634865Y-589960D02*
G01*
X5634865Y-1189908D01*
X5624959Y-1189908D01*
X5624959Y-1189908D02*
G01*
X5550029Y-1189908D01*
X5449953Y-1090086D01*
X4947033Y-1090086D01*
D13*
X3539873Y-4684948D02*
G01*
X3594991Y-4740066D01*
X4455035Y-4740066D01*
X4734943Y-4460158D01*
X4734943Y-4209968D01*
X4764915Y-4179996D01*
D14*
X4964991Y-4829982D02*
G01*
X4964991Y-5064983D01*
X4969995Y-5069987D01*
D15*
X4310001Y-1174922D02*
G01*
X4310001Y-919906D01*
X4384931Y-844976D01*
X4384931Y-384982D01*
X4404997Y-364916D01*
X4404997Y-194990D01*
X4436239Y-163748D01*
X4466465Y-163748D01*
D10*
X1689991Y-6114968D02*
G01*
X1669925Y-6135034D01*
X1385191Y-6135034D01*
X1330073Y-6079916D01*
X1330073Y-5710092D01*
X1289941Y-5669960D01*
X945009Y-5669960D01*
X924943Y-5649894D01*
D15*
X2284862Y-4954948D02*
G01*
X2660014Y-4954948D01*
X2740002Y-5034935D01*
X2740002Y-5059979D01*
X4039999Y-6604934D02*
G01*
X4064891Y-6630080D01*
X4550031Y-6630080D01*
X4671951Y-6507906D01*
X4732911Y-6507906D01*
X989967Y-2489880D02*
G01*
X989967Y-2515026D01*
X500001Y-3004992D01*
X500001Y-3064936D01*
X429897Y-3135040D01*
X390019Y-3135040D01*
D14*
X4269996Y-2225009D02*
G01*
X4269996Y-2214925D01*
X4200019Y-2144948D01*
X3859916Y-2144948D01*
X3799969Y-2085002D01*
X3734945Y-2085002D01*
D16*
X2224989Y-1555008D02*
G01*
X2224890Y-1554906D01*
X1975106Y-1554906D01*
X1945007Y-1585005D01*
D11*
X3069973Y-3995087D02*
G01*
X3099945Y-3995087D01*
X3140077Y-3954952D01*
X3230250Y-3954952D01*
X3361057Y-3824140D01*
X3361057Y-3578931D01*
X3399995Y-3539992D01*
D14*
X5719955Y-4859954D02*
G01*
X5719955Y-4904912D01*
X5704969Y-4919898D01*
X5704969Y-5120050D01*
X5725035Y-5139862D01*
X5725035Y-5155102D01*
D11*
X2744995Y-3929992D02*
G01*
X2710055Y-3930060D01*
X2499997Y-4140118D01*
X2499997Y-4170090D01*
D15*
X594997Y-4614997D02*
G01*
X614997Y-4634997D01*
X614997Y-4974991D01*
X534997Y-5054991D01*
X250022Y-5054991D01*
X215016Y-5090005D01*
X485015Y-4535088D02*
G01*
X460123Y-4559980D01*
X460123Y-4649896D01*
X509907Y-4699934D01*
X509907Y-4924978D01*
X479935Y-4954950D01*
X144909Y-4954950D01*
X79885Y-5019974D01*
X79885Y-5090078D01*
X3549982Y-704997D02*
G01*
X3570124Y-704997D01*
X3575128Y-699996D01*
X3880002Y-699996D01*
X3550030Y-809924D02*
G01*
X3565019Y-809924D01*
X3600069Y-774875D01*
X3814856Y-774875D01*
X3829992Y-790011D01*
D14*
X405005Y-2530012D02*
G01*
X434977Y-2500040D01*
X434977Y-1725086D01*
X307977Y-1598086D01*
D15*
X1114935Y-2580050D02*
G01*
X1069977Y-2625008D01*
X1019939Y-2625008D01*
X645035Y-2999912D01*
X645035Y-3165012D01*
X605157Y-3204890D01*
X500255Y-3204890D01*
X440057Y-3265088D01*
D16*
X4254985Y-4609993D02*
G01*
X4254985Y-4709937D01*
X4285112Y-4740066D01*
X4315081Y-4740066D01*
D17*
X307977Y-2360086D02*
G01*
X259971Y-2408092D01*
X259971Y-2745150D01*
X120017Y-2885104D01*
D15*
X1734949Y-4720000D02*
G01*
X1894969Y-4720000D01*
X2004951Y-4829982D01*
X2004951Y-5029880D01*
X2146429Y-5171612D01*
X2250061Y-5274990D01*
X2615059Y-5274990D01*
X2685163Y-5345094D01*
X2745107Y-5345094D01*
X2535049Y-4790104D02*
G01*
X2559941Y-4814996D01*
X2714881Y-4814996D01*
X2844929Y-4944790D01*
X2844929Y-4975016D01*
X2149985Y-4949870D02*
G01*
X2149985Y-4889926D01*
X2179957Y-4859954D01*
X2179957Y-4800010D01*
X2060069Y-4679868D01*
X2045083Y-4679868D01*
X2304925Y-5155102D02*
G01*
X2650111Y-5155102D01*
X2699895Y-5204886D01*
X2790065Y-5204886D01*
X4884981Y-3585001D02*
G01*
X4900096Y-3600117D01*
X4920112Y-3600117D01*
X4994960Y-3674971D01*
X5189905Y-3674971D01*
X4884981Y-3759982D02*
G01*
X4914983Y-3759982D01*
X4954993Y-3799992D01*
X5169999Y-3799992D01*
X5180002Y-3809994D01*
X1254892Y-6930052D02*
G01*
X1334930Y-6930052D01*
X1384998Y-6879983D01*
X1549994Y-6879983D01*
X1594995Y-6834982D01*
D14*
X3204847Y-2334940D02*
G01*
X3224913Y-2334940D01*
X3289937Y-2269916D01*
X3289937Y-2114976D01*
X3459863Y-1945050D01*
X3864993Y-1945050D01*
X3945003Y-2025060D01*
X4312033Y-2025060D01*
X4382137Y-1954956D01*
X4540125Y-1954956D01*
X4540125Y-1975022D01*
D15*
X4434969Y-1129964D02*
G01*
X4434969Y-945052D01*
X4535045Y-844976D01*
X4535045Y-450006D01*
X4509899Y-425114D01*
X5149979Y-1974997D02*
G01*
X4874872Y-1974997D01*
X4751961Y-1852086D01*
X4693030Y-1852086D01*
X5170045Y-1839894D02*
G01*
X5194683Y-1839894D01*
X5239895Y-1885106D01*
X5239895Y-2200066D01*
X5274947Y-2234864D01*
X5634865Y-2234864D01*
D13*
X5084955Y-2815000D02*
G01*
X5155059Y-2744896D01*
X5594987Y-2744896D01*
X5615053Y-2764962D01*
X5669917Y-2764962D01*
D19*
G01*
X2821002Y-6924974D03*
G01*
X3075002Y-6924974D03*
G01*
X3625014Y-5201000D03*
G01*
X3625014Y-5455000D03*
G01*
X1000991Y-6929978D03*
G01*
X1254991Y-6929978D03*
G01*
X3834996Y294010D03*
G01*
X3834996Y40010D03*
D20*
G01*
X4692982Y-1090010D03*
D21*
G01*
X4947008Y-1090010D03*
G01*
X4693008Y-1344010D03*
G01*
X4947008Y-1344010D03*
G01*
X4693008Y-1598010D03*
G01*
X4947008Y-1598010D03*
G01*
X4693008Y-1852010D03*
G01*
X4947008Y-1852010D03*
G01*
X4693008Y-2106010D03*
G01*
X4947008Y-2106010D03*
G01*
X4693008Y-2360010D03*
G01*
X4947008Y-2360010D03*
D20*
G01*
X562002Y-2359985D03*
D21*
G01*
X308002Y-2360010D03*
G01*
X562002Y-2106010D03*
G01*
X308002Y-2106010D03*
G01*
X562002Y-1852010D03*
G01*
X308002Y-1852010D03*
G01*
X562002Y-1598010D03*
G01*
X308002Y-1598010D03*
G01*
X562002Y-1344010D03*
G01*
X308002Y-1344010D03*
G01*
X562002Y-1090010D03*
G01*
X308002Y-1090010D03*
D22*
G01*
X535028Y-304998D03*
G01*
X1825017Y-304998D03*
D23*
G01*
X830023Y-455010D03*
G01*
X1080010Y-455010D03*
G01*
X1280010Y-455010D03*
D24*
G01*
X1530000Y-455005D03*
D22*
G01*
X2360018Y-304972D03*
G01*
X3650007Y-304972D03*
D23*
G01*
X2655013Y-454985D03*
G01*
X2905000Y-454985D03*
G01*
X3105000Y-454985D03*
D24*
G01*
X3354997Y-455002D03*
D25*
G01*
X5469282Y-3303010D03*
D26*
G01*
X5887265Y-3303010D03*
G01*
X5887265Y-4167017D03*
D25*
G01*
X5469282Y-4167017D03*
D27*
G01*
X5494987Y-6507982D03*
D21*
G01*
X5494987Y-6761982D03*
G01*
X5240987Y-6507982D03*
G01*
X5240987Y-6761982D03*
G01*
X4986987Y-6507982D03*
G01*
X4986987Y-6761982D03*
G01*
X4732987Y-6507982D03*
G01*
X4732987Y-6761982D03*
G01*
X4478987Y-6507982D03*
G01*
X4478987Y-6761982D03*
G01*
X4224987Y-6507982D03*
G01*
X4224987Y-6761982D03*
D28*
G01*
X574982Y-6154999D03*
D29*
G01*
X104980Y-5890000D03*
D28*
G01*
X574982Y-5624977D03*
G01*
X574982Y-6384996D03*
G01*
X574982Y-5395005D03*
D30*
G01*
X4048025Y-235732D03*
D31*
G01*
X4048025Y182250D03*
G01*
X4912032Y182250D03*
D30*
G01*
X4912032Y-235732D03*
D32*
G01*
X312041Y-4455053D03*
G01*
X312041Y-3005018D03*
D33*
G01*
X912091Y-4455053D03*
G01*
X912091Y-3005018D03*
D34*
G01*
X119992Y-2885003D03*
D35*
G01*
X2499997Y-4169989D03*
D36*
G01*
X815012Y-3174994D03*
G01*
X1949985Y-1585005D03*
D34*
G01*
X5634992Y-590011D03*
G01*
X5624984Y-1190010D03*
D36*
G01*
X2205001Y-3264987D03*
G01*
X1945007Y-3914998D03*
G01*
X3319985Y-4659980D03*
G01*
X2915008Y-4704989D03*
G01*
X4389986Y-3490005D03*
G01*
X4389986Y-3585001D03*
G01*
X3949981Y-4129984D03*
G01*
X3154987Y-2729986D03*
G01*
X2024992Y-3494984D03*
G01*
X3399995Y-3539992D03*
G01*
X3069998Y-3994983D03*
G01*
X2624990Y-3614999D03*
G01*
X2115009Y-6554998D03*
G01*
X5719980Y-4859980D03*
G01*
X4964991Y-4829982D03*
G01*
X1989990Y-4169989D03*
G01*
X1989990Y-4314997D03*
G01*
X5389984Y-4969987D03*
G01*
X5944008Y-6660001D03*
G01*
X5109999Y-5525002D03*
G01*
X5192473Y-5309991D03*
G01*
X2729994Y-1390009D03*
G01*
X1510007Y-3699987D03*
G01*
X1515010Y-3555004D03*
G01*
X1510007Y-4029984D03*
G01*
X3010004Y-4844994D03*
G01*
X3269998Y-3255004D03*
G01*
X2954987Y-3264987D03*
G01*
X2559992Y-3139993D03*
G01*
X2634947Y-3514973D03*
G01*
X3389988Y-3429985D03*
G01*
X2624990Y-3909994D03*
G01*
X3269998Y-4029984D03*
G01*
X2849984Y-4014998D03*
G01*
X3399995Y-3899987D03*
G01*
X3515006Y-2829986D03*
G01*
X3014779Y-3634836D03*
G01*
X2939823Y-3714846D03*
G01*
X3089734Y-3714846D03*
G01*
X3089836Y-3559881D03*
G01*
X2939925Y-3559881D03*
G01*
X784989Y-3679997D03*
G01*
X784989Y-3829984D03*
G01*
X784989Y-3974993D03*
G01*
X784989Y-4109994D03*
G01*
X3189988Y-3255004D03*
G01*
X5029989Y-5309991D03*
G01*
X2119988Y-5419999D03*
G01*
X1205003Y-2039995D03*
G01*
X1304952Y-2039970D03*
G01*
X1205003Y-2139690D03*
G01*
X1304952Y-2139640D03*
G01*
X1515010Y-4564984D03*
G01*
X3519985Y-3025007D03*
G01*
X4554984Y-3685001D03*
G01*
X5219981Y-5525002D03*
G01*
X435002Y-3539992D03*
G01*
X435002Y-3829984D03*
G01*
X4554984Y-3390005D03*
G01*
X5374998Y-4725004D03*
G01*
X5224985Y-4534987D03*
G01*
X2284986Y-4955001D03*
G01*
X2740002Y-5059979D03*
G01*
X5709998Y-5429981D03*
G01*
X5445000Y-5769985D03*
G01*
X4719982Y-5355000D03*
G01*
X1384988Y-3444996D03*
G01*
X429999Y-4090004D03*
G01*
X640006Y-3414999D03*
G01*
X835002Y-282519D03*
G01*
X4184982Y-2650002D03*
G01*
X1259994Y-282493D03*
G01*
X964999Y-2294986D03*
G01*
X215013Y-4089979D03*
G01*
X215013Y-3829984D03*
G01*
X215013Y-3534989D03*
G01*
X4264992Y-4129984D03*
G01*
X2769999Y-2109998D03*
G01*
X3734996Y-2085004D03*
G01*
X4269996Y-2225009D03*
G01*
X2480007Y-2059985D03*
G01*
X224995Y-3179998D03*
G01*
X5024986Y-4344995D03*
G01*
X654992Y-15006D03*
G01*
X2715008Y49992D03*
G01*
X4554984Y-110002D03*
G01*
X1082931Y-10078D03*
G01*
X1349987Y119994D03*
G01*
X719990Y-3229985D03*
G01*
X80012Y-939998D03*
G01*
X210009Y-634994D03*
G01*
X5944999Y-6414993D03*
G01*
X1899998Y-5149997D03*
G01*
X2599997Y-4709993D03*
G01*
X1999998Y-2404993D03*
G01*
X2340002Y-1929988D03*
G01*
X2224991Y-1555008D03*
G01*
X1945007Y-1585005D03*
G01*
X3364994Y-1015004D03*
G01*
X840005Y-2409997D03*
G01*
X5724984Y-5155001D03*
G01*
X4969995Y-5069987D03*
G01*
X5354982Y-5309991D03*
G01*
X5274998Y-5129982D03*
G01*
X4929990Y-5790001D03*
G01*
X1249987Y-739998D03*
G01*
X1980008Y-1990008D03*
G01*
X105006Y-634994D03*
G01*
X1594995Y-1090010D03*
G01*
X145011Y-1134993D03*
G01*
X2745005Y-2620004D03*
G01*
X735002Y-1010000D03*
G01*
X1519989Y-4204990D03*
G01*
X1519913Y-4364959D03*
G01*
X1515010Y-3849999D03*
G01*
X1545008Y-1855007D03*
G01*
X1200000Y-3444996D03*
G01*
X-110004Y-810000D03*
G01*
X405005Y-2529987D03*
G01*
X4724986Y-6309989D03*
G01*
X4945001Y-6319997D03*
G01*
X2440002Y-945001D03*
G01*
X2140003Y-4474992D03*
G01*
X3815006Y-4390003D03*
G01*
X1740004Y-3255004D03*
G01*
X2410005Y-2480000D03*
G01*
X1684987Y-2369992D03*
G01*
X2580007Y-2809996D03*
G01*
X1940003Y-4459980D03*
G01*
X5239997Y-4725004D03*
G01*
X1694995Y-2144999D03*
G01*
X5315003Y-6944989D03*
G01*
X-59992Y240009D03*
G01*
X6009998Y-4859980D03*
G01*
X2789989Y-5204988D03*
G01*
X2745005Y-5344993D03*
G01*
X1115011Y-2579999D03*
G01*
X989992Y-2490007D03*
G01*
X1734949Y-4719975D03*
G01*
X2045007Y-4679995D03*
G01*
X80012Y-5090002D03*
G01*
X215013Y-5090002D03*
G01*
X1059995Y-4820000D03*
G01*
X440006Y-3264987D03*
G01*
X389994Y-3134989D03*
G01*
X594997Y-4614997D03*
G01*
X740006Y-2534991D03*
G01*
X3475001Y-1390009D03*
G01*
X2859991Y-1650004D03*
G01*
X3675001Y-1809998D03*
G01*
X3729992Y-2469992D03*
G01*
X3859989Y-1809998D03*
G01*
X3219985Y-2120005D03*
G01*
X3034997Y-1650004D03*
G01*
X3204949Y-2334966D03*
G01*
X415013Y-1234993D03*
G01*
X1624992Y-5025003D03*
G01*
X4184982Y-2739994D03*
G01*
X5104996Y-5129982D03*
G01*
X5659986Y-7109988D03*
G01*
X3149983Y-5529981D03*
G01*
X4349981Y-2329987D03*
G01*
X4049981Y-3120003D03*
G01*
X5724984Y-4459980D03*
G01*
X2745005Y-6399982D03*
G01*
X2984985Y-6664980D03*
G01*
X2324991Y-5839988D03*
G01*
X1770001Y-7094976D03*
G01*
X1599999Y-5994979D03*
G01*
X1689991Y-6114994D03*
G01*
X405005Y-5299984D03*
G01*
X919990Y-5509991D03*
G01*
X924994Y-5649996D03*
G01*
X1529996Y-5469986D03*
G01*
X1694995Y-5469986D03*
G01*
X2010006Y-6049995D03*
G01*
X1624992Y-5125003D03*
G01*
X2105002Y-5744992D03*
G01*
X5094988Y-4534987D03*
G01*
X1529996Y-2369992D03*
G01*
X1249987Y-5274990D03*
G01*
X1189992Y-1520007D03*
G01*
X694997Y-1474998D03*
G01*
X659996Y-1725010D03*
G01*
X1929996Y-6884995D03*
G01*
X2384986Y-6789999D03*
G01*
X2569999Y-6244991D03*
G01*
X484990Y-4534987D03*
G01*
X3549982Y-704997D03*
G01*
X3549982Y-810000D03*
G01*
X4310001Y-1174998D03*
G01*
X4434994Y-1129990D03*
G01*
X4510001Y-425013D03*
G01*
X4884981Y-3759982D03*
G01*
X4884981Y-3585001D03*
G01*
X5180002Y-3809994D03*
G01*
X5634992Y-2234991D03*
G01*
X3724988Y-1234993D03*
G01*
X5634992Y-3785001D03*
G01*
X4299993Y-1455008D03*
G01*
X2534922Y-4789977D03*
G01*
X2844878Y-4974940D03*
G01*
X4034995Y-6739986D03*
G01*
X3540000Y-4684999D03*
G01*
X4764991Y-4179996D03*
G01*
X4539998Y-1974997D03*
G01*
X5149979Y-1974997D03*
G01*
X5934991Y-3439993D03*
G01*
X5934991Y-3964985D03*
G01*
X6019980Y-525012D03*
G01*
X4780003Y170007D03*
G01*
X4180004Y-80004D03*
G01*
X2205001Y-559988D03*
G01*
X3215007Y-585007D03*
G01*
X3249983Y49992D03*
G01*
X5664989Y-4090004D03*
G01*
X5915002Y-4299986D03*
G01*
X110009Y-6154999D03*
G01*
X105006Y-5604987D03*
G01*
X2929994Y-245003D03*
G01*
X3149983Y-250007D03*
G01*
X3404999Y-5534985D03*
G01*
X4189986Y359999D03*
G01*
X4524987Y359999D03*
G01*
X3504999Y-299994D03*
G01*
X2719859Y332897D03*
G01*
X3344826Y332897D03*
G01*
X3032330Y332897D03*
G01*
X3752496Y-6399982D03*
G01*
X764999Y-1210609D03*
G01*
X2510005Y-220009D03*
G01*
X1670001Y-299994D03*
G01*
X1049911Y-1814977D03*
G01*
X1189992Y-1655008D03*
G01*
X6019980Y-659988D03*
G01*
X5477410Y154995D03*
G01*
X4460039Y-163672D03*
G01*
X435002Y240009D03*
G01*
X110009Y-6574988D03*
G01*
X510009Y-6825000D03*
G01*
X1345008Y-6199982D03*
G01*
X924994Y-6222512D03*
G01*
X929998Y-5825002D03*
G01*
X1740004Y-6869983D03*
G01*
X1594995Y-6834982D03*
G01*
X500001Y-7059975D03*
G01*
X919990Y-6499981D03*
G01*
X919990Y-6599981D03*
G01*
X500001Y-7159975D03*
G01*
X4254985Y-4609993D03*
G01*
X4049981Y-5814994D03*
G01*
X3880004Y-5114996D03*
G01*
X5084980Y-4829982D03*
G01*
X5774997Y-985006D03*
G01*
X4474999Y-5459978D03*
G01*
X4564992Y-5809990D03*
G01*
X5769993Y-6134983D03*
G01*
X6004994Y-150007D03*
G01*
X5084980Y-2815000D03*
G01*
X5669993Y-2764988D03*
G01*
X5674997Y-2890006D03*
G01*
X5480001Y-985006D03*
G01*
X4494989Y-4834986D03*
G01*
X4339998Y-4984998D03*
G01*
X3544953Y-4839964D03*
G01*
X1749935Y-6634982D03*
G01*
X2699997Y-6774987D03*
G01*
X5604995Y-2120005D03*
G01*
X5484980Y-3090006D03*
G01*
X4039999Y-6604985D03*
G01*
X5477410Y-14955D03*
G01*
X6019929Y-799993D03*
G01*
X470004Y-6649994D03*
G01*
X470004Y-5994979D03*
G01*
X5659986Y-6889998D03*
G01*
X4639998Y-6644990D03*
G01*
X165000Y-294990D03*
G01*
X3945003Y-6874987D03*
G01*
X3752496Y-6599981D03*
G01*
X3752496Y-6794977D03*
G01*
X3752496Y-6969983D03*
G01*
X2284961Y-6789973D03*
G01*
X3880004Y-699993D03*
G01*
X3829992Y-790011D03*
G01*
X5169994Y-1839996D03*
G01*
X4539998Y-2685003D03*
G01*
X4004998Y-1339997D03*
G01*
X4704996Y-2529987D03*
G01*
X5744999Y-2120005D03*
G01*
X5359986Y-985006D03*
G01*
X5759985Y-1834992D03*
G01*
X5584827Y-1839970D03*
G01*
X4459988Y-504997D03*
G01*
X4999992Y-2720004D03*
G01*
X4694989Y-3864985D03*
G01*
X2819910Y-1389984D03*
G01*
X4349879Y-6844964D03*
G01*
X2815008Y-6234983D03*
G01*
X3134946Y-5964956D03*
G01*
X2304849Y-5155077D03*
G01*
X2149934Y-4949997D03*
G01*
X4504997Y-2094986D03*
G01*
X5189908Y-3674968D03*
G01*
X1729945Y-734994D03*
G01*
X3804998Y-2009998D03*
G01*
X5444949Y-5944966D03*
M02*
