G04 Layer: TopPasteMaskLayer*
G04 Panelize: Stamp Hole, Column: 2, Row: 1, Board Size: 63mm x 77.15mm, Panelized Board Size: 128mm x 77.15mm*
G04 EasyEDA v6.5.51, 2026-07-14 13:51:35*
G04 a907fb12628a40e4b555dd5b908cb7f1,96b9eb17c6bf4bf1aa34359f555252a9,10*
G04 Gerber Generator version 0.2*
G04 Scale: 100 percent, Rotated: No, Reflected: No *
G04 Dimensions in millimeters *
G04 leading zeros omitted , absolute positions ,4 integer and 5 decimal *
%FSLAX45Y45*%
%MOMM*%

%AMMACRO1*21,1,$1,$2,0,0,$3*%
%ADD10MACRO1,1.36X1.23X0.0000*%
%ADD11R,0.7000X1.0000*%
%ADD12R,0.5320X1.0450*%
%ADD13O,0.629996X1.864995*%
%ADD14R,0.5000X0.5400*%
%ADD15R,0.8000X0.9000*%
%ADD16R,1.0700X0.6000*%
%ADD17R,0.8000X1.0000*%
%ADD18R,0.0112X1.0000*%
%ADD19R,0.8000X0.8000*%
%ADD20R,0.9000X0.8000*%
%ADD21MACRO1,1.2X1.4X90.0000*%
%ADD22R,1.4000X1.2000*%
%ADD23MACRO1,1.2X1.4X-90.0000*%
%ADD24O,0.364007X1.742008*%
%ADD25R,1.1000X2.5000*%
%ADD26MACRO1,3.6X2.34X0.0000*%
%ADD27O,0.629996X2.250008*%
%ADD28R,0.6650X0.2000*%
%ADD29R,0.2000X0.6650*%
%ADD30R,3.4000X3.4000*%
%ADD31R,1.0000X0.5000*%
%ADD32R,1.2000X0.9500*%

%LPD*%
G36*
X2525471Y-810006D02*
G01*
X2520492Y-814984D01*
X2520492Y-894994D01*
X2525471Y-899972D01*
X2605481Y-899972D01*
X2610510Y-894994D01*
X2610510Y-872185D01*
X2573477Y-872185D01*
X2573477Y-839216D01*
X2610510Y-839216D01*
X2610510Y-814984D01*
X2605481Y-810006D01*
G37*
G36*
X2684475Y-810006D02*
G01*
X2679496Y-814984D01*
X2679496Y-837793D01*
X2716479Y-837793D01*
X2716479Y-870813D01*
X2679496Y-870813D01*
X2679496Y-894994D01*
X2684475Y-900023D01*
X2764485Y-900023D01*
X2769514Y-894994D01*
X2769514Y-814984D01*
X2764485Y-810006D01*
G37*
G36*
X5685485Y-1611020D02*
G01*
X5680506Y-1615998D01*
X5680964Y-1658010D01*
X5725007Y-1658010D01*
X5725007Y-1703019D01*
X5679998Y-1703019D01*
X5680506Y-1744014D01*
X5685485Y-1748993D01*
X5800496Y-1748993D01*
X5805474Y-1744014D01*
X5805474Y-1615998D01*
X5800496Y-1611020D01*
G37*
G36*
X5469483Y-1611020D02*
G01*
X5464505Y-1615998D01*
X5464505Y-1744014D01*
X5469483Y-1748993D01*
X5584494Y-1748993D01*
X5589473Y-1744014D01*
X5589016Y-1702003D01*
X5544972Y-1702003D01*
X5544972Y-1656994D01*
X5589981Y-1656994D01*
X5589473Y-1615998D01*
X5584494Y-1611020D01*
G37*
G36*
X2499969Y-2644495D02*
G01*
X2494991Y-2649474D01*
X2494991Y-2729484D01*
X2499969Y-2734513D01*
X2579979Y-2734513D01*
X2585008Y-2729484D01*
X2585008Y-2649474D01*
X2579979Y-2644495D01*
X2557221Y-2644495D01*
X2557221Y-2681478D01*
X2524201Y-2681478D01*
X2524201Y-2644495D01*
G37*
G36*
X2500020Y-2485491D02*
G01*
X2494991Y-2490470D01*
X2494991Y-2570480D01*
X2500020Y-2575509D01*
X2522778Y-2575509D01*
X2522778Y-2538476D01*
X2555798Y-2538476D01*
X2555798Y-2575509D01*
X2579979Y-2575509D01*
X2585008Y-2570480D01*
X2585008Y-2490470D01*
X2579979Y-2485491D01*
G37*
G36*
X5355234Y-3595014D02*
G01*
X5355234Y-3624986D01*
X5470245Y-3624986D01*
X5470245Y-3595014D01*
G37*
G36*
X5355234Y-3544976D02*
G01*
X5355234Y-3574999D01*
X5470245Y-3574999D01*
X5470245Y-3544976D01*
G37*
G36*
X5355234Y-4024985D02*
G01*
X5355234Y-4084980D01*
X5470245Y-4084980D01*
X5470245Y-4024985D01*
G37*
G36*
X5355234Y-3645001D02*
G01*
X5355234Y-3674973D01*
X5470245Y-3674973D01*
X5470245Y-3645001D01*
G37*
G36*
X5355234Y-3465017D02*
G01*
X5355234Y-3525012D01*
X5470245Y-3525012D01*
X5470245Y-3465017D01*
G37*
G36*
X5355234Y-3385007D02*
G01*
X5355234Y-3445001D01*
X5470245Y-3445001D01*
X5470245Y-3385007D01*
G37*
G36*
X5355234Y-3694988D02*
G01*
X5355234Y-3725011D01*
X5470245Y-3725011D01*
X5470245Y-3694988D01*
G37*
G36*
X5355234Y-3744976D02*
G01*
X5355234Y-3774998D01*
X5470245Y-3774998D01*
X5470245Y-3744976D01*
G37*
G36*
X5355234Y-3944975D02*
G01*
X5355234Y-4004970D01*
X5470245Y-4004970D01*
X5470245Y-3944975D01*
G37*
G36*
X5355234Y-3795014D02*
G01*
X5355234Y-3824986D01*
X5470245Y-3824986D01*
X5470245Y-3795014D01*
G37*
G36*
X5355234Y-3845001D02*
G01*
X5355234Y-3874973D01*
X5470245Y-3874973D01*
X5470245Y-3845001D01*
G37*
G36*
X5355234Y-3894988D02*
G01*
X5355234Y-3925011D01*
X5470245Y-3925011D01*
X5470245Y-3894988D01*
G37*
G36*
X5424271Y-3252978D02*
G01*
X5419293Y-3253232D01*
X5414365Y-3253994D01*
X5409539Y-3255213D01*
X5404815Y-3256940D01*
X5400344Y-3259074D01*
X5396077Y-3261664D01*
X5392115Y-3264662D01*
X5388457Y-3268065D01*
X5385155Y-3271824D01*
X5382260Y-3275838D01*
X5379770Y-3280156D01*
X5377688Y-3284728D01*
X5376113Y-3289452D01*
X5374995Y-3294329D01*
X5374386Y-3299256D01*
X5374284Y-3304235D01*
X5374640Y-3309213D01*
X5375503Y-3314090D01*
X5376875Y-3318916D01*
X5378704Y-3323539D01*
X5380939Y-3328009D01*
X5383631Y-3332175D01*
X5386781Y-3336086D01*
X5390235Y-3339642D01*
X5394045Y-3342843D01*
X5398160Y-3345637D01*
X5402580Y-3348024D01*
X5407152Y-3349955D01*
X5411927Y-3351428D01*
X5416804Y-3352444D01*
X5421782Y-3352952D01*
X5514238Y-3353003D01*
X5519216Y-3352749D01*
X5524144Y-3351987D01*
X5528970Y-3350768D01*
X5533694Y-3349040D01*
X5538165Y-3346907D01*
X5542432Y-3344316D01*
X5546394Y-3341319D01*
X5550052Y-3337915D01*
X5553354Y-3334156D01*
X5556250Y-3330092D01*
X5558739Y-3325825D01*
X5560822Y-3321253D01*
X5562396Y-3316528D01*
X5563514Y-3311651D01*
X5564124Y-3306724D01*
X5564225Y-3301746D01*
X5563870Y-3296767D01*
X5563006Y-3291890D01*
X5561634Y-3287064D01*
X5559856Y-3282442D01*
X5557570Y-3277971D01*
X5554878Y-3273806D01*
X5551728Y-3269894D01*
X5548274Y-3266338D01*
X5544464Y-3263138D01*
X5540349Y-3260344D01*
X5535930Y-3257956D01*
X5531358Y-3256026D01*
X5526582Y-3254552D01*
X5521706Y-3253536D01*
X5516727Y-3253028D01*
G37*
G36*
X5424271Y-4116984D02*
G01*
X5419293Y-4117238D01*
X5414365Y-4118000D01*
X5409539Y-4119219D01*
X5404815Y-4120946D01*
X5400344Y-4123080D01*
X5396077Y-4125671D01*
X5392115Y-4128719D01*
X5388457Y-4132072D01*
X5385155Y-4135831D01*
X5382260Y-4139895D01*
X5379770Y-4144162D01*
X5377688Y-4148734D01*
X5376113Y-4153458D01*
X5374995Y-4158335D01*
X5374386Y-4163263D01*
X5374284Y-4168241D01*
X5374640Y-4173220D01*
X5375503Y-4178096D01*
X5376875Y-4182922D01*
X5378704Y-4187545D01*
X5380939Y-4192015D01*
X5383631Y-4196181D01*
X5386781Y-4200093D01*
X5390235Y-4203649D01*
X5394045Y-4206849D01*
X5398160Y-4209643D01*
X5402580Y-4212031D01*
X5407152Y-4213961D01*
X5411927Y-4215434D01*
X5416804Y-4216450D01*
X5421782Y-4216958D01*
X5514238Y-4217009D01*
X5519216Y-4216755D01*
X5524144Y-4215993D01*
X5528970Y-4214774D01*
X5533694Y-4213047D01*
X5538165Y-4210913D01*
X5542432Y-4208322D01*
X5546394Y-4205325D01*
X5550052Y-4201922D01*
X5553354Y-4198162D01*
X5556250Y-4194149D01*
X5558739Y-4189831D01*
X5560822Y-4185259D01*
X5562396Y-4180535D01*
X5563514Y-4175658D01*
X5564124Y-4170730D01*
X5564225Y-4165752D01*
X5563870Y-4160774D01*
X5563006Y-4155897D01*
X5561634Y-4151071D01*
X5559856Y-4146448D01*
X5557570Y-4141978D01*
X5554878Y-4137812D01*
X5551728Y-4133900D01*
X5548274Y-4130344D01*
X5544464Y-4127144D01*
X5540349Y-4124350D01*
X5535930Y-4121962D01*
X5531358Y-4120032D01*
X5526582Y-4118559D01*
X5521706Y-4117543D01*
X5516727Y-4117035D01*
G37*
G36*
X5857240Y-4116984D02*
G01*
X5852261Y-4117238D01*
X5847334Y-4118000D01*
X5842508Y-4119219D01*
X5837834Y-4120946D01*
X5833313Y-4123080D01*
X5829096Y-4125671D01*
X5825083Y-4128719D01*
X5821426Y-4132072D01*
X5818124Y-4135831D01*
X5815228Y-4139895D01*
X5812739Y-4144162D01*
X5810707Y-4148734D01*
X5809081Y-4153458D01*
X5808014Y-4158335D01*
X5807354Y-4163263D01*
X5807252Y-4168241D01*
X5807608Y-4173220D01*
X5808472Y-4178096D01*
X5809843Y-4182922D01*
X5811672Y-4187545D01*
X5813958Y-4192015D01*
X5816650Y-4196181D01*
X5819749Y-4200093D01*
X5823204Y-4203649D01*
X5827064Y-4206849D01*
X5831179Y-4209643D01*
X5835548Y-4212031D01*
X5840120Y-4213961D01*
X5844895Y-4215434D01*
X5849772Y-4216450D01*
X5854750Y-4216958D01*
X5917234Y-4217009D01*
X5922213Y-4216755D01*
X5927140Y-4215993D01*
X5931966Y-4214774D01*
X5936640Y-4213047D01*
X5941161Y-4210913D01*
X5945378Y-4208322D01*
X5949391Y-4205325D01*
X5953048Y-4201922D01*
X5956350Y-4198162D01*
X5959246Y-4194149D01*
X5961735Y-4189831D01*
X5963767Y-4185259D01*
X5965342Y-4180535D01*
X5966460Y-4175658D01*
X5967120Y-4170730D01*
X5967222Y-4165752D01*
X5966866Y-4160774D01*
X5966002Y-4155897D01*
X5964631Y-4151071D01*
X5962802Y-4146448D01*
X5960516Y-4141978D01*
X5957824Y-4137812D01*
X5954725Y-4133900D01*
X5951220Y-4130344D01*
X5947410Y-4127144D01*
X5943295Y-4124350D01*
X5938926Y-4121962D01*
X5934354Y-4120032D01*
X5929579Y-4118559D01*
X5924702Y-4117543D01*
X5919724Y-4117035D01*
G37*
G36*
X5857240Y-3252978D02*
G01*
X5852261Y-3253232D01*
X5847334Y-3253994D01*
X5842508Y-3255213D01*
X5837834Y-3256940D01*
X5833313Y-3259074D01*
X5829096Y-3261664D01*
X5825083Y-3264662D01*
X5821426Y-3268065D01*
X5818124Y-3271824D01*
X5815228Y-3275838D01*
X5812739Y-3280156D01*
X5810707Y-3284728D01*
X5809081Y-3289452D01*
X5808014Y-3294329D01*
X5807354Y-3299256D01*
X5807252Y-3304235D01*
X5807608Y-3309213D01*
X5808472Y-3314090D01*
X5809843Y-3318916D01*
X5811672Y-3323539D01*
X5813958Y-3328009D01*
X5816650Y-3332175D01*
X5819749Y-3336086D01*
X5823204Y-3339642D01*
X5827064Y-3342843D01*
X5831179Y-3345637D01*
X5835548Y-3348024D01*
X5840120Y-3349955D01*
X5844895Y-3351428D01*
X5849772Y-3352444D01*
X5854750Y-3352952D01*
X5917234Y-3353003D01*
X5922213Y-3352749D01*
X5927140Y-3351987D01*
X5931966Y-3350768D01*
X5936640Y-3349040D01*
X5941161Y-3346907D01*
X5945378Y-3344316D01*
X5949391Y-3341319D01*
X5953048Y-3337915D01*
X5956350Y-3334156D01*
X5959246Y-3330092D01*
X5961735Y-3325825D01*
X5963767Y-3321253D01*
X5965342Y-3316528D01*
X5966460Y-3311651D01*
X5967120Y-3306724D01*
X5967222Y-3301746D01*
X5966866Y-3296767D01*
X5966002Y-3291890D01*
X5964631Y-3287064D01*
X5962802Y-3282442D01*
X5960516Y-3277971D01*
X5957824Y-3273806D01*
X5954725Y-3269894D01*
X5951220Y-3266338D01*
X5947410Y-3263138D01*
X5943295Y-3260344D01*
X5938926Y-3257956D01*
X5934354Y-3256026D01*
X5929579Y-3254552D01*
X5924702Y-3253536D01*
X5919724Y-3253028D01*
G37*
G36*
X4214520Y-4430014D02*
G01*
X4209491Y-4434992D01*
X4209491Y-4457801D01*
X4246473Y-4457801D01*
X4246473Y-4490770D01*
X4209491Y-4490770D01*
X4209491Y-4515002D01*
X4214520Y-4519980D01*
X4294479Y-4519980D01*
X4299508Y-4515002D01*
X4299508Y-4434992D01*
X4294479Y-4430014D01*
G37*
G36*
X4055465Y-4430014D02*
G01*
X4050487Y-4434992D01*
X4050487Y-4515002D01*
X4055465Y-4519980D01*
X4135475Y-4519980D01*
X4140504Y-4515002D01*
X4140504Y-4492193D01*
X4103471Y-4492193D01*
X4103471Y-4459173D01*
X4140504Y-4459173D01*
X4140504Y-4434992D01*
X4135475Y-4430014D01*
G37*
G36*
X35509Y-410006D02*
G01*
X30480Y-414985D01*
X30480Y-494995D01*
X35509Y-499973D01*
X115519Y-499973D01*
X120497Y-494995D01*
X120497Y-472185D01*
X83515Y-472185D01*
X83515Y-439216D01*
X120497Y-439216D01*
X120497Y-414985D01*
X115519Y-410006D01*
G37*
G36*
X194513Y-410006D02*
G01*
X189484Y-414985D01*
X189484Y-437794D01*
X226517Y-437794D01*
X226517Y-470814D01*
X189484Y-470814D01*
X189484Y-494995D01*
X194513Y-500024D01*
X274523Y-500024D01*
X279501Y-494995D01*
X279501Y-414985D01*
X274523Y-410006D01*
G37*
G36*
X1927504Y166014D02*
G01*
X1922475Y160985D01*
X1922475Y33020D01*
X1927504Y27990D01*
X2042515Y27990D01*
X2047493Y33020D01*
X2046986Y74980D01*
X2002993Y74980D01*
X2002993Y119989D01*
X2048002Y119989D01*
X2047493Y160985D01*
X2042515Y166014D01*
G37*
G36*
X2142490Y166014D02*
G01*
X2137511Y160985D01*
X2138019Y119989D01*
X2182012Y119989D01*
X2182012Y74980D01*
X2137511Y74980D01*
X2137511Y33020D01*
X2142490Y27990D01*
X2257501Y27990D01*
X2262479Y33020D01*
X2262479Y160985D01*
X2257501Y166014D01*
G37*
G36*
X2477008Y-1352499D02*
G01*
X2471978Y-1357477D01*
X2471978Y-1402486D01*
X2477008Y-1407515D01*
X2525014Y-1407515D01*
X2531973Y-1402486D01*
X2531973Y-1357477D01*
X2525014Y-1352499D01*
G37*
G36*
X2575001Y-1352499D02*
G01*
X2567990Y-1357477D01*
X2567990Y-1402486D01*
X2575001Y-1407515D01*
X2623007Y-1407515D01*
X2627985Y-1402486D01*
X2627985Y-1357477D01*
X2623007Y-1352499D01*
G37*
G36*
X5160010Y-3325469D02*
G01*
X5154980Y-3330498D01*
X5154980Y-3410508D01*
X5160010Y-3415487D01*
X5182768Y-3415487D01*
X5182768Y-3378504D01*
X5215788Y-3378504D01*
X5215788Y-3415487D01*
X5239969Y-3415487D01*
X5244998Y-3410508D01*
X5244998Y-3330498D01*
X5239969Y-3325469D01*
G37*
G36*
X5160010Y-3484473D02*
G01*
X5154980Y-3489502D01*
X5154980Y-3569512D01*
X5160010Y-3574491D01*
X5239969Y-3574491D01*
X5244998Y-3569512D01*
X5244998Y-3489502D01*
X5239969Y-3484473D01*
X5217210Y-3484473D01*
X5217210Y-3521506D01*
X5184190Y-3521506D01*
X5184190Y-3484473D01*
G37*
G36*
X5150002Y-4079494D02*
G01*
X5144973Y-4084472D01*
X5144973Y-4164482D01*
X5150002Y-4169511D01*
X5230012Y-4169511D01*
X5234990Y-4164482D01*
X5234990Y-4084472D01*
X5230012Y-4079494D01*
X5207203Y-4079494D01*
X5207203Y-4116476D01*
X5174183Y-4116476D01*
X5174183Y-4079494D01*
G37*
G36*
X5150002Y-3920490D02*
G01*
X5144973Y-3925468D01*
X5144973Y-4005478D01*
X5150002Y-4010507D01*
X5172811Y-4010507D01*
X5172811Y-3973474D01*
X5205780Y-3973474D01*
X5205780Y-4010507D01*
X5230012Y-4010507D01*
X5234990Y-4005478D01*
X5234990Y-3925468D01*
X5230012Y-3920490D01*
G37*
G36*
X3600500Y-2845003D02*
G01*
X3595471Y-2849981D01*
X3595471Y-2929991D01*
X3600500Y-2934970D01*
X3680510Y-2934970D01*
X3685489Y-2929991D01*
X3685489Y-2907182D01*
X3648506Y-2907182D01*
X3648506Y-2874213D01*
X3685489Y-2874213D01*
X3685489Y-2849981D01*
X3680510Y-2845003D01*
G37*
G36*
X3759504Y-2845003D02*
G01*
X3754475Y-2849981D01*
X3754475Y-2872790D01*
X3791508Y-2872790D01*
X3791508Y-2905810D01*
X3754475Y-2905810D01*
X3754475Y-2929991D01*
X3759504Y-2934970D01*
X3839514Y-2934970D01*
X3844493Y-2929991D01*
X3844493Y-2849981D01*
X3839514Y-2845003D01*
G37*
G36*
X3866997Y-1129995D02*
G01*
X3826001Y-1130503D01*
X3820972Y-1135481D01*
X3820972Y-1250492D01*
X3826001Y-1255522D01*
X3954018Y-1255522D01*
X3958996Y-1250492D01*
X3958996Y-1135481D01*
X3954018Y-1130503D01*
X3912006Y-1131011D01*
X3912006Y-1175004D01*
X3866997Y-1175004D01*
G37*
G36*
X3826001Y-914501D02*
G01*
X3820972Y-919480D01*
X3820972Y-1034491D01*
X3826001Y-1039520D01*
X3868013Y-1039012D01*
X3868013Y-995019D01*
X3912971Y-995019D01*
X3912971Y-1040028D01*
X3953967Y-1039520D01*
X3958996Y-1034491D01*
X3958996Y-919480D01*
X3953967Y-914501D01*
G37*
G36*
X3520490Y-6895998D02*
G01*
X3515512Y-6900976D01*
X3515969Y-6942988D01*
X3560013Y-6942988D01*
X3560013Y-6987997D01*
X3515004Y-6987997D01*
X3515512Y-7028992D01*
X3520490Y-7033971D01*
X3635501Y-7033971D01*
X3640480Y-7028992D01*
X3640480Y-6900976D01*
X3635501Y-6895998D01*
G37*
G36*
X3304489Y-6895998D02*
G01*
X3299510Y-6900976D01*
X3299510Y-7028992D01*
X3304489Y-7033971D01*
X3419500Y-7033971D01*
X3424478Y-7028992D01*
X3424021Y-6986981D01*
X3379978Y-6986981D01*
X3379978Y-6941972D01*
X3424986Y-6941972D01*
X3424478Y-6900976D01*
X3419500Y-6895998D01*
G37*
G36*
X4175506Y-4205986D02*
G01*
X4170476Y-4211015D01*
X4170984Y-4252976D01*
X4214977Y-4252976D01*
X4214977Y-4297984D01*
X4169968Y-4297984D01*
X4170476Y-4338980D01*
X4175506Y-4344009D01*
X4290466Y-4344009D01*
X4295495Y-4338980D01*
X4295495Y-4211015D01*
X4290466Y-4205986D01*
G37*
G36*
X3959504Y-4205986D02*
G01*
X3954475Y-4211015D01*
X3954475Y-4338980D01*
X3959504Y-4344009D01*
X4074515Y-4344009D01*
X4079494Y-4338980D01*
X4078986Y-4297019D01*
X4034993Y-4297019D01*
X4034993Y-4252010D01*
X4080001Y-4252010D01*
X4079494Y-4211015D01*
X4074515Y-4205986D01*
G37*
G36*
X3974998Y-5314492D02*
G01*
X3969969Y-5319471D01*
X3969969Y-5399481D01*
X3974998Y-5404510D01*
X4055008Y-5404510D01*
X4059986Y-5399481D01*
X4059986Y-5319471D01*
X4055008Y-5314492D01*
X4032199Y-5314492D01*
X4032199Y-5351475D01*
X3999179Y-5351475D01*
X3999179Y-5314492D01*
G37*
G36*
X3974998Y-5155488D02*
G01*
X3969969Y-5160467D01*
X3969969Y-5240477D01*
X3974998Y-5245506D01*
X3997807Y-5245506D01*
X3997807Y-5208473D01*
X4030776Y-5208473D01*
X4030776Y-5245506D01*
X4055008Y-5245506D01*
X4059986Y-5240477D01*
X4059986Y-5160467D01*
X4055008Y-5155488D01*
G37*
G36*
X5065014Y-5889498D02*
G01*
X5059984Y-5894476D01*
X5059984Y-5974486D01*
X5065014Y-5979464D01*
X5144973Y-5979464D01*
X5150002Y-5974486D01*
X5150002Y-5894476D01*
X5144973Y-5889498D01*
X5122214Y-5889498D01*
X5122214Y-5926480D01*
X5089194Y-5926480D01*
X5089194Y-5889498D01*
G37*
G36*
X5065014Y-5730494D02*
G01*
X5059984Y-5735472D01*
X5059984Y-5815482D01*
X5065014Y-5820460D01*
X5087772Y-5820460D01*
X5087772Y-5783478D01*
X5120792Y-5783478D01*
X5120792Y-5820460D01*
X5144973Y-5820460D01*
X5150002Y-5815482D01*
X5150002Y-5735472D01*
X5144973Y-5730494D01*
G37*
G36*
X5905500Y-251002D02*
G01*
X5900470Y-255981D01*
X5900978Y-297992D01*
X5944971Y-297992D01*
X5944971Y-343001D01*
X5899962Y-343001D01*
X5900470Y-383997D01*
X5905500Y-388975D01*
X6020511Y-388975D01*
X6025489Y-383997D01*
X6025489Y-255981D01*
X6020511Y-251002D01*
G37*
G36*
X5689498Y-251002D02*
G01*
X5684469Y-255981D01*
X5684469Y-383997D01*
X5689498Y-389026D01*
X5804509Y-389026D01*
X5809488Y-383997D01*
X5808980Y-341985D01*
X5764987Y-341985D01*
X5764987Y-297027D01*
X5809996Y-297027D01*
X5809488Y-255981D01*
X5804509Y-251002D01*
G37*
G36*
X4954473Y-385978D02*
G01*
X4949494Y-391007D01*
X4949494Y-519023D01*
X4954473Y-524001D01*
X5069484Y-524001D01*
X5074513Y-519023D01*
X5074005Y-477012D01*
X5030012Y-477012D01*
X5030012Y-432003D01*
X5074970Y-432003D01*
X5074513Y-391007D01*
X5069484Y-385978D01*
G37*
G36*
X5170474Y-385978D02*
G01*
X5165496Y-391007D01*
X5166004Y-433019D01*
X5209997Y-433019D01*
X5209997Y-477977D01*
X5164988Y-477977D01*
X5165496Y-518972D01*
X5170474Y-524001D01*
X5285486Y-524001D01*
X5290464Y-518972D01*
X5290464Y-391007D01*
X5285486Y-385978D01*
G37*
G36*
X5130495Y210007D02*
G01*
X5125466Y204978D01*
X5125466Y125018D01*
X5130495Y119989D01*
X5210505Y119989D01*
X5215483Y125018D01*
X5215483Y147777D01*
X5178501Y147777D01*
X5178501Y180797D01*
X5215483Y180797D01*
X5215483Y204978D01*
X5210505Y210007D01*
G37*
G36*
X5289499Y210007D02*
G01*
X5284470Y204978D01*
X5284470Y182219D01*
X5321503Y182219D01*
X5321503Y149199D01*
X5284470Y149199D01*
X5284470Y125018D01*
X5289499Y119989D01*
X5369509Y119989D01*
X5374487Y125018D01*
X5374487Y204978D01*
X5369509Y210007D01*
G37*
G36*
X199999Y-4819497D02*
G01*
X195021Y-4824476D01*
X195021Y-4904486D01*
X199999Y-4909464D01*
X280009Y-4909464D01*
X284988Y-4904486D01*
X284988Y-4824476D01*
X280009Y-4819497D01*
X257200Y-4819497D01*
X257200Y-4856480D01*
X224180Y-4856480D01*
X224180Y-4819497D01*
G37*
G36*
X199999Y-4660493D02*
G01*
X195021Y-4665472D01*
X195021Y-4745482D01*
X199999Y-4750511D01*
X222808Y-4750511D01*
X222808Y-4713478D01*
X255778Y-4713478D01*
X255778Y-4750511D01*
X280009Y-4750511D01*
X284988Y-4745482D01*
X284988Y-4665472D01*
X280009Y-4660493D01*
G37*
G36*
X1880514Y-5244998D02*
G01*
X1875485Y-5249976D01*
X1875485Y-5329986D01*
X1880514Y-5334965D01*
X1960473Y-5334965D01*
X1965502Y-5329986D01*
X1965502Y-5307177D01*
X1928520Y-5307177D01*
X1928520Y-5274208D01*
X1965502Y-5274208D01*
X1965502Y-5249976D01*
X1960473Y-5244998D01*
G37*
G36*
X2039518Y-5244998D02*
G01*
X2034489Y-5249976D01*
X2034489Y-5272786D01*
X2071471Y-5272786D01*
X2071471Y-5305806D01*
X2034489Y-5305806D01*
X2034489Y-5329986D01*
X2039518Y-5334965D01*
X2119477Y-5334965D01*
X2124506Y-5329986D01*
X2124506Y-5249976D01*
X2119477Y-5244998D01*
G37*
G36*
X989482Y-4644999D02*
G01*
X984503Y-4649978D01*
X984503Y-4672787D01*
X1021486Y-4672787D01*
X1021486Y-4705807D01*
X984503Y-4705807D01*
X984503Y-4729988D01*
X989482Y-4735017D01*
X1069492Y-4735017D01*
X1074521Y-4729988D01*
X1074521Y-4649978D01*
X1069492Y-4644999D01*
G37*
G36*
X830478Y-4644999D02*
G01*
X825500Y-4649978D01*
X825500Y-4729988D01*
X830478Y-4734966D01*
X910488Y-4734966D01*
X915517Y-4729988D01*
X915517Y-4707178D01*
X878484Y-4707178D01*
X878484Y-4674209D01*
X915517Y-4674209D01*
X915517Y-4649978D01*
X910488Y-4644999D01*
G37*
G36*
X1175512Y-4630013D02*
G01*
X1170482Y-4634992D01*
X1170482Y-4715002D01*
X1175512Y-4719980D01*
X1255522Y-4719980D01*
X1260500Y-4715002D01*
X1260500Y-4692192D01*
X1223518Y-4692192D01*
X1223518Y-4659172D01*
X1260500Y-4659172D01*
X1260500Y-4634992D01*
X1255522Y-4630013D01*
G37*
G36*
X1334516Y-4630013D02*
G01*
X1329486Y-4634992D01*
X1329486Y-4657801D01*
X1366520Y-4657801D01*
X1366520Y-4690770D01*
X1329486Y-4690770D01*
X1329486Y-4715002D01*
X1334516Y-4719980D01*
X1414475Y-4719980D01*
X1419504Y-4715002D01*
X1419504Y-4634992D01*
X1414475Y-4630013D01*
G37*
G36*
X1820011Y-774496D02*
G01*
X1814982Y-779475D01*
X1814982Y-859485D01*
X1820011Y-864514D01*
X1899970Y-864514D01*
X1905000Y-859485D01*
X1905000Y-779475D01*
X1899970Y-774496D01*
X1877212Y-774496D01*
X1877212Y-811479D01*
X1844192Y-811479D01*
X1844192Y-774496D01*
G37*
G36*
X1820011Y-615492D02*
G01*
X1814982Y-620522D01*
X1814982Y-700481D01*
X1820011Y-705510D01*
X1842770Y-705510D01*
X1842770Y-668477D01*
X1875789Y-668477D01*
X1875789Y-705510D01*
X1900021Y-705510D01*
X1905000Y-700481D01*
X1905000Y-620522D01*
X1900021Y-615492D01*
G37*
G36*
X1399489Y-3084982D02*
G01*
X1394510Y-3090011D01*
X1394510Y-3112770D01*
X1431493Y-3112770D01*
X1431493Y-3145790D01*
X1394510Y-3145790D01*
X1394510Y-3169970D01*
X1399489Y-3175000D01*
X1479499Y-3175000D01*
X1484477Y-3169970D01*
X1484477Y-3090011D01*
X1479499Y-3084982D01*
G37*
G36*
X1240485Y-3084982D02*
G01*
X1235506Y-3090011D01*
X1235506Y-3169970D01*
X1240485Y-3175000D01*
X1320495Y-3175000D01*
X1325473Y-3169970D01*
X1325473Y-3147212D01*
X1288491Y-3147212D01*
X1288491Y-3114192D01*
X1325473Y-3114192D01*
X1325473Y-3090011D01*
X1320495Y-3084982D01*
G37*
G36*
X1564995Y-3244494D02*
G01*
X1560017Y-3249472D01*
X1560017Y-3329482D01*
X1564995Y-3334512D01*
X1645005Y-3334512D01*
X1649984Y-3329482D01*
X1649984Y-3249472D01*
X1645005Y-3244494D01*
X1622196Y-3244494D01*
X1622196Y-3281476D01*
X1589176Y-3281476D01*
X1589176Y-3244494D01*
G37*
G36*
X1564995Y-3085490D02*
G01*
X1560017Y-3090468D01*
X1560017Y-3170478D01*
X1564995Y-3175508D01*
X1587804Y-3175508D01*
X1587804Y-3138474D01*
X1620774Y-3138474D01*
X1620774Y-3175508D01*
X1645005Y-3175508D01*
X1649984Y-3170478D01*
X1649984Y-3090468D01*
X1645005Y-3085490D01*
G37*
G36*
X4091990Y-1129995D02*
G01*
X4050995Y-1130503D01*
X4046016Y-1135481D01*
X4046016Y-1250492D01*
X4050995Y-1255522D01*
X4179011Y-1255522D01*
X4183989Y-1250492D01*
X4183989Y-1135481D01*
X4179011Y-1130503D01*
X4136999Y-1131011D01*
X4136999Y-1175004D01*
X4091990Y-1175004D01*
G37*
G36*
X4050995Y-914501D02*
G01*
X4046016Y-919480D01*
X4046016Y-1034491D01*
X4050995Y-1039520D01*
X4093006Y-1039012D01*
X4093006Y-995019D01*
X4137964Y-995019D01*
X4137964Y-1040028D01*
X4179011Y-1039520D01*
X4183989Y-1034491D01*
X4183989Y-919480D01*
X4179011Y-914501D01*
G37*
G36*
X3865016Y-3082493D02*
G01*
X3858006Y-3087471D01*
X3858006Y-3132480D01*
X3865016Y-3137509D01*
X3912971Y-3137509D01*
X3918000Y-3132480D01*
X3918000Y-3087471D01*
X3912971Y-3082493D01*
G37*
G36*
X3766972Y-3082493D02*
G01*
X3761994Y-3087471D01*
X3761994Y-3132480D01*
X3766972Y-3137509D01*
X3814978Y-3137509D01*
X3821988Y-3132480D01*
X3821988Y-3087471D01*
X3814978Y-3082493D01*
G37*
G36*
X1722018Y-1997506D02*
G01*
X1716989Y-2002485D01*
X1716989Y-2047493D01*
X1722018Y-2052472D01*
X1769973Y-2052472D01*
X1776984Y-2047493D01*
X1776984Y-2002485D01*
X1769973Y-1997506D01*
G37*
G36*
X1820011Y-1997506D02*
G01*
X1813001Y-2002485D01*
X1813001Y-2047493D01*
X1820011Y-2052472D01*
X1868017Y-2052472D01*
X1872996Y-2047493D01*
X1872996Y-2002485D01*
X1868017Y-1997506D01*
G37*
G36*
X3827018Y-445008D02*
G01*
X3785971Y-445516D01*
X3780993Y-450494D01*
X3780993Y-565505D01*
X3785971Y-570484D01*
X3913987Y-570484D01*
X3919016Y-565505D01*
X3919016Y-450494D01*
X3913987Y-445516D01*
X3871976Y-445973D01*
X3871976Y-490016D01*
X3827018Y-490016D01*
G37*
G36*
X3785971Y-229514D02*
G01*
X3780993Y-234492D01*
X3780993Y-349504D01*
X3785971Y-354482D01*
X3827983Y-354025D01*
X3827983Y-309981D01*
X3872992Y-309981D01*
X3872992Y-354990D01*
X3913987Y-354482D01*
X3919016Y-349504D01*
X3919016Y-234492D01*
X3913987Y-229514D01*
G37*
G36*
X2116988Y-334975D02*
G01*
X2075992Y-335483D01*
X2071014Y-340512D01*
X2071014Y-455472D01*
X2075992Y-460501D01*
X2204008Y-460501D01*
X2208987Y-455472D01*
X2208987Y-340512D01*
X2204008Y-335483D01*
X2161997Y-335991D01*
X2161997Y-379984D01*
X2116988Y-379984D01*
G37*
G36*
X2075992Y-119481D02*
G01*
X2071014Y-124510D01*
X2071014Y-239521D01*
X2075992Y-244500D01*
X2118004Y-243992D01*
X2118004Y-199999D01*
X2163013Y-199999D01*
X2163013Y-245008D01*
X2204008Y-244500D01*
X2208987Y-239521D01*
X2208987Y-124510D01*
X2204008Y-119481D01*
G37*
G36*
X5685485Y-1385976D02*
G01*
X5680506Y-1391005D01*
X5680964Y-1432966D01*
X5725007Y-1432966D01*
X5725007Y-1477975D01*
X5679998Y-1477975D01*
X5680506Y-1518970D01*
X5685485Y-1524000D01*
X5800496Y-1524000D01*
X5805474Y-1518970D01*
X5805474Y-1391005D01*
X5800496Y-1385976D01*
G37*
G36*
X5469483Y-1385976D02*
G01*
X5464505Y-1391005D01*
X5464505Y-1518970D01*
X5469483Y-1524000D01*
X5584494Y-1524000D01*
X5589473Y-1518970D01*
X5589016Y-1477010D01*
X5544972Y-1477010D01*
X5544972Y-1432001D01*
X5589981Y-1432001D01*
X5589473Y-1391005D01*
X5584494Y-1385976D01*
G37*
G36*
X1610512Y-4409998D02*
G01*
X1605483Y-4414977D01*
X1605483Y-4494987D01*
X1610512Y-4499965D01*
X1690471Y-4499965D01*
X1695500Y-4494987D01*
X1695500Y-4472178D01*
X1658518Y-4472178D01*
X1658518Y-4439208D01*
X1695500Y-4439208D01*
X1695500Y-4414977D01*
X1690471Y-4409998D01*
G37*
G36*
X1769516Y-4409998D02*
G01*
X1764487Y-4414977D01*
X1764487Y-4437786D01*
X1801520Y-4437786D01*
X1801520Y-4470806D01*
X1764487Y-4470806D01*
X1764487Y-4494987D01*
X1769516Y-4500016D01*
X1849475Y-4500016D01*
X1854504Y-4494987D01*
X1854504Y-4414977D01*
X1849475Y-4409998D01*
G37*
G36*
X1610512Y-4245000D02*
G01*
X1605483Y-4249978D01*
X1605483Y-4329988D01*
X1610512Y-4334967D01*
X1690471Y-4334967D01*
X1695500Y-4329988D01*
X1695500Y-4307179D01*
X1658518Y-4307179D01*
X1658518Y-4274210D01*
X1695500Y-4274210D01*
X1695500Y-4249978D01*
X1690471Y-4245000D01*
G37*
G36*
X1769516Y-4245000D02*
G01*
X1764487Y-4249978D01*
X1764487Y-4272788D01*
X1801520Y-4272788D01*
X1801520Y-4305808D01*
X1764487Y-4305808D01*
X1764487Y-4329988D01*
X1769516Y-4334967D01*
X1849475Y-4334967D01*
X1854504Y-4329988D01*
X1854504Y-4249978D01*
X1849475Y-4245000D01*
G37*
G36*
X1610512Y-3744976D02*
G01*
X1605483Y-3750005D01*
X1605483Y-3830015D01*
X1610512Y-3834993D01*
X1690471Y-3834993D01*
X1695500Y-3830015D01*
X1695500Y-3807206D01*
X1658518Y-3807206D01*
X1658518Y-3774186D01*
X1695500Y-3774186D01*
X1695500Y-3750005D01*
X1690471Y-3744976D01*
G37*
G36*
X1769516Y-3744976D02*
G01*
X1764487Y-3750005D01*
X1764487Y-3772814D01*
X1801520Y-3772814D01*
X1801520Y-3805783D01*
X1764487Y-3805783D01*
X1764487Y-3830015D01*
X1769516Y-3834993D01*
X1849475Y-3834993D01*
X1854504Y-3830015D01*
X1854504Y-3750005D01*
X1849475Y-3744976D01*
G37*
G36*
X1610512Y-3579977D02*
G01*
X1605483Y-3585006D01*
X1605483Y-3665016D01*
X1610512Y-3669995D01*
X1690471Y-3669995D01*
X1695500Y-3665016D01*
X1695500Y-3642207D01*
X1658518Y-3642207D01*
X1658518Y-3609187D01*
X1695500Y-3609187D01*
X1695500Y-3585006D01*
X1690471Y-3579977D01*
G37*
G36*
X1769516Y-3579977D02*
G01*
X1764487Y-3585006D01*
X1764487Y-3607815D01*
X1801520Y-3607815D01*
X1801520Y-3640785D01*
X1764487Y-3640785D01*
X1764487Y-3665016D01*
X1769516Y-3669995D01*
X1849475Y-3669995D01*
X1854504Y-3665016D01*
X1854504Y-3585006D01*
X1849475Y-3579977D01*
G37*
G36*
X1769516Y-4080001D02*
G01*
X1764487Y-4084980D01*
X1764487Y-4107789D01*
X1801520Y-4107789D01*
X1801520Y-4140809D01*
X1764487Y-4140809D01*
X1764487Y-4164990D01*
X1769516Y-4169968D01*
X1849475Y-4169968D01*
X1854504Y-4164990D01*
X1854504Y-4084980D01*
X1849475Y-4080001D01*
G37*
G36*
X1610512Y-4080001D02*
G01*
X1605483Y-4084980D01*
X1605483Y-4164990D01*
X1610512Y-4169968D01*
X1690471Y-4169968D01*
X1695500Y-4164990D01*
X1695500Y-4142181D01*
X1658518Y-4142181D01*
X1658518Y-4109212D01*
X1695500Y-4109212D01*
X1695500Y-4084980D01*
X1690471Y-4080001D01*
G37*
G36*
X1769516Y-3915003D02*
G01*
X1764487Y-3919982D01*
X1764487Y-3942791D01*
X1801520Y-3942791D01*
X1801520Y-3975811D01*
X1764487Y-3975811D01*
X1764487Y-3999992D01*
X1769516Y-4004970D01*
X1849475Y-4004970D01*
X1854504Y-3999992D01*
X1854504Y-3919982D01*
X1849475Y-3915003D01*
G37*
G36*
X1610512Y-3915003D02*
G01*
X1605483Y-3919982D01*
X1605483Y-3999992D01*
X1610512Y-4004970D01*
X1690471Y-4004970D01*
X1695500Y-3999992D01*
X1695500Y-3977182D01*
X1658518Y-3977182D01*
X1658518Y-3944213D01*
X1695500Y-3944213D01*
X1695500Y-3919982D01*
X1690471Y-3915003D01*
G37*
G36*
X1769516Y-3410000D02*
G01*
X1764487Y-3414979D01*
X1764487Y-3437788D01*
X1801520Y-3437788D01*
X1801520Y-3470808D01*
X1764487Y-3470808D01*
X1764487Y-3494989D01*
X1769516Y-3500018D01*
X1849475Y-3500018D01*
X1854504Y-3494989D01*
X1854504Y-3414979D01*
X1849475Y-3410000D01*
G37*
G36*
X1610512Y-3410000D02*
G01*
X1605483Y-3414979D01*
X1605483Y-3494989D01*
X1610512Y-3500018D01*
X1690471Y-3500018D01*
X1695500Y-3494989D01*
X1695500Y-3472179D01*
X1658518Y-3472179D01*
X1658518Y-3439210D01*
X1695500Y-3439210D01*
X1695500Y-3414979D01*
X1690471Y-3410000D01*
G37*
G36*
X1399489Y-3259988D02*
G01*
X1394510Y-3265017D01*
X1394510Y-3287776D01*
X1431493Y-3287776D01*
X1431493Y-3320796D01*
X1394510Y-3320796D01*
X1394510Y-3344976D01*
X1399489Y-3350006D01*
X1479499Y-3350006D01*
X1484477Y-3344976D01*
X1484477Y-3265017D01*
X1479499Y-3259988D01*
G37*
G36*
X1240485Y-3259988D02*
G01*
X1235506Y-3265017D01*
X1235506Y-3344976D01*
X1240485Y-3350006D01*
X1320495Y-3350006D01*
X1325473Y-3344976D01*
X1325473Y-3322218D01*
X1288491Y-3322218D01*
X1288491Y-3289198D01*
X1325473Y-3289198D01*
X1325473Y-3265017D01*
X1320495Y-3259988D01*
G37*
G36*
X3259480Y-4739995D02*
G01*
X3254502Y-4744974D01*
X3254502Y-4767783D01*
X3291484Y-4767783D01*
X3291484Y-4800803D01*
X3254502Y-4800803D01*
X3254502Y-4824984D01*
X3259480Y-4830013D01*
X3339490Y-4830013D01*
X3344519Y-4824984D01*
X3344519Y-4744974D01*
X3339490Y-4739995D01*
G37*
G36*
X3100476Y-4739995D02*
G01*
X3095498Y-4744974D01*
X3095498Y-4824984D01*
X3100476Y-4830013D01*
X3180486Y-4830013D01*
X3185515Y-4824984D01*
X3185515Y-4802174D01*
X3148482Y-4802174D01*
X3148482Y-4769205D01*
X3185515Y-4769205D01*
X3185515Y-4744974D01*
X3180486Y-4739995D01*
G37*
G36*
X3189986Y-6045962D02*
G01*
X3185007Y-6050991D01*
X3185515Y-6093002D01*
X3229508Y-6093002D01*
X3229508Y-6137960D01*
X3184499Y-6137960D01*
X3185007Y-6179007D01*
X3189986Y-6183985D01*
X3304997Y-6183985D01*
X3310026Y-6179007D01*
X3310026Y-6050991D01*
X3304997Y-6045962D01*
G37*
G36*
X2975000Y-6045962D02*
G01*
X2969971Y-6050991D01*
X2969971Y-6179007D01*
X2975000Y-6183985D01*
X3090011Y-6183985D01*
X3094990Y-6179007D01*
X3094532Y-6137960D01*
X3050489Y-6137960D01*
X3050489Y-6093002D01*
X3094990Y-6093002D01*
X3094990Y-6050991D01*
X3090011Y-6045962D01*
G37*
G36*
X2226005Y-5319979D02*
G01*
X2220976Y-5325008D01*
X2220976Y-5439968D01*
X2226005Y-5444998D01*
X2268016Y-5444490D01*
X2268016Y-5400497D01*
X2313025Y-5400497D01*
X2313025Y-5445506D01*
X2354021Y-5444998D01*
X2358999Y-5439968D01*
X2358999Y-5325008D01*
X2354021Y-5319979D01*
G37*
G36*
X2226005Y-5534964D02*
G01*
X2220976Y-5539994D01*
X2220976Y-5655005D01*
X2226005Y-5659983D01*
X2354021Y-5659983D01*
X2358999Y-5655005D01*
X2358999Y-5539994D01*
X2354021Y-5534964D01*
X2313025Y-5535523D01*
X2313025Y-5579516D01*
X2268016Y-5579516D01*
X2268016Y-5535015D01*
G37*
G36*
X1997506Y-5827979D02*
G01*
X1992477Y-5833008D01*
X1992985Y-5875020D01*
X2036978Y-5875020D01*
X2036978Y-5919978D01*
X1991969Y-5919978D01*
X1992477Y-5960973D01*
X1997506Y-5966002D01*
X2112467Y-5966002D01*
X2117496Y-5960973D01*
X2117496Y-5833008D01*
X2112467Y-5827979D01*
G37*
G36*
X1782470Y-5827979D02*
G01*
X1777492Y-5833008D01*
X1777492Y-5960973D01*
X1782470Y-5966002D01*
X1897481Y-5966002D01*
X1902460Y-5960973D01*
X1902002Y-5919978D01*
X1858010Y-5919978D01*
X1858010Y-5875020D01*
X1902460Y-5875020D01*
X1902460Y-5833008D01*
X1897481Y-5827979D01*
G37*
G36*
X1787499Y-5513984D02*
G01*
X1782470Y-5518962D01*
X1782470Y-5646978D01*
X1787499Y-5651957D01*
X1902460Y-5651957D01*
X1907489Y-5646978D01*
X1906981Y-5604967D01*
X1862988Y-5604967D01*
X1862988Y-5560009D01*
X1907997Y-5560009D01*
X1907489Y-5518962D01*
X1902460Y-5513984D01*
G37*
G36*
X2002485Y-5513984D02*
G01*
X1997506Y-5518962D01*
X1998014Y-5560009D01*
X2042007Y-5560009D01*
X2042007Y-5604967D01*
X1997506Y-5604967D01*
X1997506Y-5646978D01*
X2002485Y-5651957D01*
X2117496Y-5651957D01*
X2122474Y-5646978D01*
X2122474Y-5518962D01*
X2117496Y-5513984D01*
G37*
G36*
X1582013Y-5779973D02*
G01*
X1541018Y-5780481D01*
X1535988Y-5785459D01*
X1535988Y-5900470D01*
X1541018Y-5905500D01*
X1668983Y-5905500D01*
X1674012Y-5900470D01*
X1674012Y-5785459D01*
X1668983Y-5780481D01*
X1627022Y-5780989D01*
X1627022Y-5824982D01*
X1582013Y-5824982D01*
G37*
G36*
X1541018Y-5564479D02*
G01*
X1535988Y-5569508D01*
X1535988Y-5684520D01*
X1541018Y-5689498D01*
X1582978Y-5688990D01*
X1582978Y-5644997D01*
X1627987Y-5644997D01*
X1627987Y-5690006D01*
X1668983Y-5689498D01*
X1674012Y-5684520D01*
X1674012Y-5569508D01*
X1668983Y-5564479D01*
G37*
G36*
X1847494Y-6643979D02*
G01*
X1842465Y-6649008D01*
X1842465Y-6776974D01*
X1847494Y-6782003D01*
X1962454Y-6782003D01*
X1967484Y-6776974D01*
X1966975Y-6734962D01*
X1922983Y-6734962D01*
X1922983Y-6690004D01*
X1967992Y-6690004D01*
X1967484Y-6649008D01*
X1962454Y-6643979D01*
G37*
G36*
X2062480Y-6643979D02*
G01*
X2057501Y-6649008D01*
X2058009Y-6690004D01*
X2102002Y-6690004D01*
X2102002Y-6734962D01*
X2057501Y-6734962D01*
X2057501Y-6776974D01*
X2062480Y-6782003D01*
X2177491Y-6782003D01*
X2182469Y-6776974D01*
X2182469Y-6649008D01*
X2177491Y-6643979D01*
G37*
G36*
X1707997Y-6202476D02*
G01*
X1703019Y-6207506D01*
X1703019Y-6322466D01*
X1707997Y-6327495D01*
X1749958Y-6326987D01*
X1749958Y-6282994D01*
X1794967Y-6282994D01*
X1794967Y-6328003D01*
X1835962Y-6327495D01*
X1840992Y-6322466D01*
X1840992Y-6207506D01*
X1835962Y-6202476D01*
G37*
G36*
X1707997Y-6417513D02*
G01*
X1703019Y-6422491D01*
X1703019Y-6537502D01*
X1707997Y-6542481D01*
X1835962Y-6542481D01*
X1840992Y-6537502D01*
X1840992Y-6422491D01*
X1835962Y-6417513D01*
X1794967Y-6417970D01*
X1794967Y-6461963D01*
X1749958Y-6461963D01*
X1749958Y-6417513D01*
G37*
G36*
X3557015Y-6419494D02*
G01*
X3515969Y-6420002D01*
X3510991Y-6424980D01*
X3510991Y-6539992D01*
X3515969Y-6544970D01*
X3643985Y-6544970D01*
X3649014Y-6539992D01*
X3649014Y-6424980D01*
X3643985Y-6420002D01*
X3602024Y-6420510D01*
X3602024Y-6464503D01*
X3557015Y-6464503D01*
G37*
G36*
X3515969Y-6204966D02*
G01*
X3510991Y-6209995D01*
X3510991Y-6325006D01*
X3515969Y-6329984D01*
X3557015Y-6329476D01*
X3557015Y-6285484D01*
X3602024Y-6285484D01*
X3602024Y-6329984D01*
X3643985Y-6329984D01*
X3649014Y-6325006D01*
X3649014Y-6209995D01*
X3643985Y-6204966D01*
G37*
G36*
X3007512Y-6439001D02*
G01*
X3002483Y-6443980D01*
X3002483Y-6571996D01*
X3007512Y-6576974D01*
X3122523Y-6576974D01*
X3127502Y-6571996D01*
X3126994Y-6529984D01*
X3083001Y-6529984D01*
X3083001Y-6484975D01*
X3128010Y-6484975D01*
X3127502Y-6443980D01*
X3122523Y-6439001D01*
G37*
G36*
X3222498Y-6439001D02*
G01*
X3217519Y-6443980D01*
X3218027Y-6484975D01*
X3262020Y-6484975D01*
X3262020Y-6529984D01*
X3217519Y-6529984D01*
X3217519Y-6571996D01*
X3222498Y-6576974D01*
X3337509Y-6576974D01*
X3342487Y-6571996D01*
X3342487Y-6443980D01*
X3337509Y-6439001D01*
G37*
G36*
X3520490Y-6665975D02*
G01*
X3515512Y-6671005D01*
X3515969Y-6712966D01*
X3560013Y-6712966D01*
X3560013Y-6757974D01*
X3515004Y-6757974D01*
X3515512Y-6798970D01*
X3520490Y-6803999D01*
X3635501Y-6803999D01*
X3640480Y-6798970D01*
X3640480Y-6671005D01*
X3635501Y-6665975D01*
G37*
G36*
X3304540Y-6665975D02*
G01*
X3299510Y-6671005D01*
X3299510Y-6798970D01*
X3304540Y-6803999D01*
X3419500Y-6803999D01*
X3424529Y-6798970D01*
X3424021Y-6757009D01*
X3380028Y-6757009D01*
X3380028Y-6712000D01*
X3424986Y-6712000D01*
X3424529Y-6671005D01*
X3419500Y-6665975D01*
G37*
G36*
X2245512Y-6890969D02*
G01*
X2240483Y-6895998D01*
X2240991Y-6938009D01*
X2284984Y-6938009D01*
X2284984Y-6982968D01*
X2239975Y-6982968D01*
X2240483Y-7023963D01*
X2245512Y-7028992D01*
X2360472Y-7028992D01*
X2365502Y-7023963D01*
X2365502Y-6895998D01*
X2360472Y-6890969D01*
G37*
G36*
X2029510Y-6890969D02*
G01*
X2024481Y-6895998D01*
X2024481Y-7023963D01*
X2029510Y-7028992D01*
X2144471Y-7028992D01*
X2149500Y-7023963D01*
X2148992Y-6982002D01*
X2104999Y-6982002D01*
X2104999Y-6936994D01*
X2150008Y-6936994D01*
X2149500Y-6895998D01*
X2144471Y-6890969D01*
G37*
G36*
X1512011Y-6409944D02*
G01*
X1471015Y-6410452D01*
X1465986Y-6415481D01*
X1465986Y-6530492D01*
X1471015Y-6535470D01*
X1598980Y-6535470D01*
X1604010Y-6530492D01*
X1604010Y-6415481D01*
X1598980Y-6410452D01*
X1557020Y-6410960D01*
X1557020Y-6454952D01*
X1512011Y-6454952D01*
G37*
G36*
X1471015Y-6194501D02*
G01*
X1465986Y-6199479D01*
X1465986Y-6314490D01*
X1471015Y-6319469D01*
X1512976Y-6319012D01*
X1512976Y-6275019D01*
X1557985Y-6275019D01*
X1557985Y-6319977D01*
X1598980Y-6319469D01*
X1604010Y-6314490D01*
X1604010Y-6199479D01*
X1598980Y-6194501D01*
G37*
G36*
X4774488Y-435000D02*
G01*
X4769510Y-439978D01*
X4769510Y-462788D01*
X4806492Y-462788D01*
X4806492Y-495808D01*
X4769510Y-495808D01*
X4769510Y-519988D01*
X4774488Y-525018D01*
X4854498Y-525018D01*
X4859477Y-519988D01*
X4859477Y-439978D01*
X4854498Y-435000D01*
G37*
G36*
X4615484Y-435000D02*
G01*
X4610506Y-439978D01*
X4610506Y-519988D01*
X4615484Y-525018D01*
X4695494Y-525018D01*
X4700473Y-519988D01*
X4700473Y-497179D01*
X4663490Y-497179D01*
X4663490Y-464210D01*
X4700473Y-464210D01*
X4700473Y-439978D01*
X4695494Y-435000D01*
G37*
G36*
X4080510Y-435000D02*
G01*
X4075480Y-439978D01*
X4075480Y-519988D01*
X4080510Y-525018D01*
X4160469Y-525018D01*
X4165498Y-519988D01*
X4165498Y-497179D01*
X4128515Y-497179D01*
X4128515Y-464210D01*
X4165498Y-464210D01*
X4165498Y-439978D01*
X4160469Y-435000D01*
G37*
G36*
X4239514Y-435000D02*
G01*
X4234484Y-439978D01*
X4234484Y-462788D01*
X4271467Y-462788D01*
X4271467Y-495808D01*
X4234484Y-495808D01*
X4234484Y-519988D01*
X4239514Y-525018D01*
X4319473Y-525018D01*
X4324502Y-519988D01*
X4324502Y-439978D01*
X4319473Y-435000D01*
G37*
G36*
X4339996Y-234746D02*
G01*
X4339996Y-349758D01*
X4369968Y-349758D01*
X4369968Y-234746D01*
G37*
G36*
X4290009Y-234746D02*
G01*
X4290009Y-349758D01*
X4319981Y-349758D01*
X4319981Y-234746D01*
G37*
G36*
X4769967Y-234746D02*
G01*
X4769967Y-349758D01*
X4830013Y-349758D01*
X4830013Y-234746D01*
G37*
G36*
X4389983Y-234746D02*
G01*
X4389983Y-349758D01*
X4420006Y-349758D01*
X4420006Y-234746D01*
G37*
G36*
X4209999Y-234746D02*
G01*
X4209999Y-349758D01*
X4269994Y-349758D01*
X4269994Y-234746D01*
G37*
G36*
X4129989Y-234746D02*
G01*
X4129989Y-349758D01*
X4189984Y-349758D01*
X4189984Y-234746D01*
G37*
G36*
X4439970Y-234746D02*
G01*
X4439970Y-349758D01*
X4469993Y-349758D01*
X4469993Y-234746D01*
G37*
G36*
X4490008Y-234746D02*
G01*
X4490008Y-349758D01*
X4519980Y-349758D01*
X4519980Y-234746D01*
G37*
G36*
X4690008Y-234746D02*
G01*
X4690008Y-349758D01*
X4750003Y-349758D01*
X4750003Y-234746D01*
G37*
G36*
X4539996Y-234746D02*
G01*
X4539996Y-349758D01*
X4569968Y-349758D01*
X4569968Y-234746D01*
G37*
G36*
X4589983Y-234746D02*
G01*
X4589983Y-349758D01*
X4620006Y-349758D01*
X4620006Y-234746D01*
G37*
G36*
X4639970Y-234746D02*
G01*
X4639970Y-349758D01*
X4669993Y-349758D01*
X4669993Y-234746D01*
G37*
G36*
X4046728Y-140766D02*
G01*
X4041749Y-141122D01*
X4036872Y-141986D01*
X4032046Y-143357D01*
X4027424Y-145135D01*
X4023004Y-147421D01*
X4018787Y-150114D01*
X4014927Y-153263D01*
X4011320Y-156718D01*
X4008120Y-160528D01*
X4005326Y-164642D01*
X4002938Y-169062D01*
X4001008Y-173634D01*
X3999534Y-178409D01*
X3998569Y-183286D01*
X3998061Y-188264D01*
X3998010Y-280720D01*
X3998214Y-285699D01*
X3998976Y-290626D01*
X4000195Y-295452D01*
X4001922Y-300177D01*
X4004056Y-304647D01*
X4006697Y-308914D01*
X4009694Y-312877D01*
X4013098Y-316534D01*
X4016806Y-319836D01*
X4020870Y-322732D01*
X4025188Y-325221D01*
X4029710Y-327253D01*
X4034434Y-328879D01*
X4039311Y-329996D01*
X4044238Y-330606D01*
X4049217Y-330708D01*
X4054195Y-330352D01*
X4059123Y-329488D01*
X4063898Y-328117D01*
X4068572Y-326288D01*
X4072991Y-324053D01*
X4077157Y-321310D01*
X4081068Y-318211D01*
X4084624Y-314756D01*
X4087825Y-310946D01*
X4090670Y-306832D01*
X4093057Y-302412D01*
X4094987Y-297840D01*
X4096461Y-293065D01*
X4097426Y-288188D01*
X4097934Y-283210D01*
X4097985Y-190754D01*
X4097731Y-185775D01*
X4097020Y-180848D01*
X4095750Y-176022D01*
X4094073Y-171297D01*
X4091889Y-166827D01*
X4089298Y-162560D01*
X4086301Y-158597D01*
X4082897Y-154940D01*
X4079138Y-151638D01*
X4075125Y-148742D01*
X4070807Y-146253D01*
X4066235Y-144170D01*
X4061510Y-142595D01*
X4056684Y-141478D01*
X4051706Y-140868D01*
G37*
G36*
X4910734Y-140766D02*
G01*
X4905756Y-141122D01*
X4900879Y-141986D01*
X4896053Y-143357D01*
X4891430Y-145135D01*
X4887010Y-147421D01*
X4882794Y-150114D01*
X4878933Y-153263D01*
X4875326Y-156718D01*
X4872126Y-160528D01*
X4869332Y-164642D01*
X4866944Y-169062D01*
X4865014Y-173634D01*
X4863541Y-178409D01*
X4862576Y-183286D01*
X4862068Y-188264D01*
X4862017Y-280720D01*
X4862220Y-285699D01*
X4862982Y-290626D01*
X4864201Y-295452D01*
X4865928Y-300177D01*
X4868062Y-304647D01*
X4870704Y-308914D01*
X4873701Y-312877D01*
X4877104Y-316534D01*
X4880813Y-319836D01*
X4884877Y-322732D01*
X4889195Y-325221D01*
X4893716Y-327253D01*
X4898440Y-328879D01*
X4903317Y-329996D01*
X4908245Y-330606D01*
X4913223Y-330708D01*
X4918202Y-330352D01*
X4923129Y-329488D01*
X4927904Y-328117D01*
X4932578Y-326288D01*
X4936998Y-324053D01*
X4941163Y-321310D01*
X4945075Y-318211D01*
X4948631Y-314756D01*
X4951831Y-310946D01*
X4954676Y-306832D01*
X4957064Y-302412D01*
X4958994Y-297840D01*
X4960467Y-293065D01*
X4961432Y-288188D01*
X4961940Y-283210D01*
X4961991Y-190754D01*
X4961737Y-185775D01*
X4961026Y-180848D01*
X4959756Y-176022D01*
X4958080Y-171297D01*
X4955895Y-166827D01*
X4953304Y-162560D01*
X4950307Y-158597D01*
X4946904Y-154940D01*
X4943144Y-151638D01*
X4939131Y-148742D01*
X4934813Y-146253D01*
X4930241Y-144170D01*
X4925517Y-142595D01*
X4920691Y-141478D01*
X4915712Y-140868D01*
G37*
G36*
X4910734Y262229D02*
G01*
X4905756Y261874D01*
X4900879Y261010D01*
X4896053Y259638D01*
X4891430Y257810D01*
X4887010Y255574D01*
X4882794Y252831D01*
X4878933Y249732D01*
X4875326Y246278D01*
X4872126Y242417D01*
X4869332Y238302D01*
X4866944Y233934D01*
X4865014Y229362D01*
X4863541Y224586D01*
X4862576Y219710D01*
X4862068Y214731D01*
X4862017Y152247D01*
X4862220Y147269D01*
X4862982Y142341D01*
X4864201Y137515D01*
X4865928Y132842D01*
X4868062Y128320D01*
X4870704Y124104D01*
X4873701Y120091D01*
X4877104Y116433D01*
X4880813Y113131D01*
X4884877Y110235D01*
X4889195Y107746D01*
X4893716Y105714D01*
X4898440Y104139D01*
X4903317Y103022D01*
X4908245Y102362D01*
X4913223Y102260D01*
X4918202Y102616D01*
X4923129Y103479D01*
X4927904Y104851D01*
X4932578Y106680D01*
X4936998Y108966D01*
X4941163Y111658D01*
X4945075Y114757D01*
X4948631Y118262D01*
X4951831Y122072D01*
X4954676Y126187D01*
X4957064Y130556D01*
X4958994Y135128D01*
X4960467Y139903D01*
X4961432Y144780D01*
X4961940Y149758D01*
X4961991Y212242D01*
X4961737Y217220D01*
X4961026Y222148D01*
X4959756Y226974D01*
X4958080Y231648D01*
X4955895Y236169D01*
X4953304Y240436D01*
X4950307Y244398D01*
X4946904Y248056D01*
X4943144Y251358D01*
X4939131Y254254D01*
X4934813Y256743D01*
X4930241Y258775D01*
X4925517Y260400D01*
X4920691Y261467D01*
X4915712Y262128D01*
G37*
G36*
X4046728Y262229D02*
G01*
X4041749Y261874D01*
X4036872Y261010D01*
X4032046Y259638D01*
X4027424Y257810D01*
X4023004Y255574D01*
X4018787Y252831D01*
X4014927Y249732D01*
X4011320Y246278D01*
X4008120Y242417D01*
X4005326Y238302D01*
X4002938Y233934D01*
X4001008Y229362D01*
X3999534Y224586D01*
X3998569Y219710D01*
X3998061Y214731D01*
X3998010Y152247D01*
X3998214Y147269D01*
X3998976Y142341D01*
X4000195Y137515D01*
X4001922Y132842D01*
X4004056Y128320D01*
X4006697Y124104D01*
X4009694Y120091D01*
X4013098Y116433D01*
X4016806Y113131D01*
X4020870Y110235D01*
X4025188Y107746D01*
X4029710Y105714D01*
X4034434Y104139D01*
X4039311Y103022D01*
X4044238Y102362D01*
X4049217Y102260D01*
X4054195Y102616D01*
X4059123Y103479D01*
X4063898Y104851D01*
X4068572Y106680D01*
X4072991Y108966D01*
X4077157Y111658D01*
X4081068Y114757D01*
X4084624Y118262D01*
X4087825Y122072D01*
X4090670Y126187D01*
X4093057Y130556D01*
X4094987Y135128D01*
X4096461Y139903D01*
X4097426Y144780D01*
X4097934Y149758D01*
X4097985Y212242D01*
X4097731Y217220D01*
X4097020Y222148D01*
X4095750Y226974D01*
X4094073Y231648D01*
X4091889Y236169D01*
X4089298Y240436D01*
X4086301Y244398D01*
X4082897Y248056D01*
X4079138Y251358D01*
X4075125Y254254D01*
X4070807Y256743D01*
X4066235Y258775D01*
X4061510Y260400D01*
X4056684Y261467D01*
X4051706Y262128D01*
G37*
G36*
X1433982Y-1956003D02*
G01*
X1430629Y-1956409D01*
X1427480Y-1957628D01*
X1424686Y-1959508D01*
X1422450Y-1962048D01*
X1420926Y-1965045D01*
X1420114Y-1968296D01*
X1420114Y-1971700D01*
X1420926Y-1974951D01*
X1422450Y-1977948D01*
X1424686Y-1980488D01*
X1427480Y-1982419D01*
X1430629Y-1983587D01*
X1433982Y-1983993D01*
X1477670Y-1983892D01*
X1480972Y-1983079D01*
X1483969Y-1981504D01*
X1486458Y-1979269D01*
X1488389Y-1976526D01*
X1489608Y-1973376D01*
X1490014Y-1970024D01*
X1489608Y-1966671D01*
X1488389Y-1963521D01*
X1486458Y-1960727D01*
X1483969Y-1958492D01*
X1480972Y-1956917D01*
X1477670Y-1956104D01*
G37*
G36*
X1433982Y-2005990D02*
G01*
X1430629Y-2006396D01*
X1427480Y-2007616D01*
X1424686Y-2009495D01*
X1422450Y-2012035D01*
X1420926Y-2015032D01*
X1420114Y-2018284D01*
X1420114Y-2021687D01*
X1420926Y-2024938D01*
X1422450Y-2027936D01*
X1424686Y-2030475D01*
X1427480Y-2032406D01*
X1430629Y-2033574D01*
X1433982Y-2033981D01*
X1477670Y-2033879D01*
X1480972Y-2033066D01*
X1483969Y-2031542D01*
X1486458Y-2029256D01*
X1488389Y-2026513D01*
X1489608Y-2023364D01*
X1490014Y-2020011D01*
X1489608Y-2016658D01*
X1488389Y-2013508D01*
X1486458Y-2010714D01*
X1483969Y-2008479D01*
X1480972Y-2006904D01*
X1477670Y-2006092D01*
G37*
G36*
X1433982Y-2056028D02*
G01*
X1430528Y-2056485D01*
X1427327Y-2057806D01*
X1424533Y-2059889D01*
X1422349Y-2062581D01*
X1421485Y-2064105D01*
X1420418Y-2067407D01*
X1420215Y-2070862D01*
X1420876Y-2074316D01*
X1421485Y-2075942D01*
X1423365Y-2078888D01*
X1425854Y-2081275D01*
X1428902Y-2082952D01*
X1432255Y-2083866D01*
X1433982Y-2084019D01*
X1475994Y-2084019D01*
X1479448Y-2083511D01*
X1482648Y-2082190D01*
X1485442Y-2080158D01*
X1487678Y-2077466D01*
X1489151Y-2074316D01*
X1489760Y-2070862D01*
X1489557Y-2067407D01*
X1489151Y-2065731D01*
X1487678Y-2062581D01*
X1485442Y-2059889D01*
X1482648Y-2057806D01*
X1479448Y-2056485D01*
X1475994Y-2056028D01*
G37*
G36*
X1433982Y-2106015D02*
G01*
X1430629Y-2106422D01*
X1427480Y-2107590D01*
X1424686Y-2109520D01*
X1422450Y-2112060D01*
X1420926Y-2115007D01*
X1420114Y-2118309D01*
X1420114Y-2121662D01*
X1420926Y-2124964D01*
X1422450Y-2127961D01*
X1424686Y-2130450D01*
X1427480Y-2132380D01*
X1430629Y-2133600D01*
X1433982Y-2134006D01*
X1477670Y-2133904D01*
X1480972Y-2133092D01*
X1483969Y-2131517D01*
X1486458Y-2129282D01*
X1488389Y-2126488D01*
X1489608Y-2123338D01*
X1490014Y-2119985D01*
X1489608Y-2116632D01*
X1488389Y-2113483D01*
X1486458Y-2110689D01*
X1483969Y-2108454D01*
X1480972Y-2106879D01*
X1477670Y-2106117D01*
G37*
G36*
X1433982Y-2156002D02*
G01*
X1430629Y-2156409D01*
X1427480Y-2157628D01*
X1424686Y-2159508D01*
X1422450Y-2162048D01*
X1420926Y-2165045D01*
X1420114Y-2168296D01*
X1420114Y-2171700D01*
X1420926Y-2174951D01*
X1422450Y-2177948D01*
X1424686Y-2180488D01*
X1427480Y-2182418D01*
X1430629Y-2183587D01*
X1433982Y-2183993D01*
X1477670Y-2183892D01*
X1480972Y-2183079D01*
X1483969Y-2181504D01*
X1486458Y-2179269D01*
X1488389Y-2176526D01*
X1489608Y-2173376D01*
X1490014Y-2170023D01*
X1489608Y-2166670D01*
X1488389Y-2163521D01*
X1486458Y-2160727D01*
X1483969Y-2158492D01*
X1480972Y-2156917D01*
X1477670Y-2156104D01*
G37*
G36*
X1433982Y-2205990D02*
G01*
X1430528Y-2206447D01*
X1427327Y-2207768D01*
X1424533Y-2209850D01*
X1422349Y-2212543D01*
X1421485Y-2214067D01*
X1420418Y-2217369D01*
X1420215Y-2220874D01*
X1420418Y-2222601D01*
X1421485Y-2225903D01*
X1423365Y-2228850D01*
X1425854Y-2231237D01*
X1428902Y-2232964D01*
X1432255Y-2233879D01*
X1475994Y-2233980D01*
X1479448Y-2233523D01*
X1482648Y-2232202D01*
X1485442Y-2230120D01*
X1487678Y-2227427D01*
X1489151Y-2224278D01*
X1489760Y-2220874D01*
X1489557Y-2217369D01*
X1489151Y-2215692D01*
X1487678Y-2212543D01*
X1485442Y-2209850D01*
X1482648Y-2207768D01*
X1479448Y-2206447D01*
X1475994Y-2205990D01*
G37*
G36*
X1379982Y-2259990D02*
G01*
X1376629Y-2260396D01*
X1373479Y-2261616D01*
X1370685Y-2263495D01*
X1368450Y-2266035D01*
X1366875Y-2269032D01*
X1366113Y-2272334D01*
X1366012Y-2316022D01*
X1366418Y-2319375D01*
X1367586Y-2322525D01*
X1369517Y-2325268D01*
X1370685Y-2326487D01*
X1373479Y-2328418D01*
X1376629Y-2329586D01*
X1379982Y-2329992D01*
X1383334Y-2329586D01*
X1386484Y-2328418D01*
X1389278Y-2326487D01*
X1391513Y-2323947D01*
X1393088Y-2320950D01*
X1393901Y-2317699D01*
X1394002Y-2274011D01*
X1393596Y-2270658D01*
X1392377Y-2267508D01*
X1390446Y-2264714D01*
X1387957Y-2262479D01*
X1384960Y-2260904D01*
X1381658Y-2260092D01*
G37*
G36*
X1329994Y-2259990D02*
G01*
X1326642Y-2260396D01*
X1323492Y-2261616D01*
X1320698Y-2263495D01*
X1318463Y-2266035D01*
X1316888Y-2269032D01*
X1316126Y-2272334D01*
X1316024Y-2316022D01*
X1316431Y-2319375D01*
X1317599Y-2322525D01*
X1319530Y-2325268D01*
X1320698Y-2326487D01*
X1323492Y-2328418D01*
X1326642Y-2329586D01*
X1329994Y-2329992D01*
X1333347Y-2329586D01*
X1336497Y-2328418D01*
X1339291Y-2326487D01*
X1341526Y-2323947D01*
X1343101Y-2320950D01*
X1343914Y-2317699D01*
X1344015Y-2274011D01*
X1343609Y-2270658D01*
X1342390Y-2267508D01*
X1340459Y-2264714D01*
X1337970Y-2262479D01*
X1334973Y-2260904D01*
X1331671Y-2260092D01*
G37*
G36*
X1280007Y-2259990D02*
G01*
X1276654Y-2260396D01*
X1273505Y-2261616D01*
X1270711Y-2263495D01*
X1268476Y-2266035D01*
X1266901Y-2269032D01*
X1266088Y-2272334D01*
X1265986Y-2316022D01*
X1266393Y-2319375D01*
X1267612Y-2322525D01*
X1269492Y-2325268D01*
X1272032Y-2327503D01*
X1275029Y-2329078D01*
X1278280Y-2329891D01*
X1281684Y-2329891D01*
X1284935Y-2329078D01*
X1286510Y-2328418D01*
X1289253Y-2326487D01*
X1291488Y-2323947D01*
X1292402Y-2322525D01*
X1293571Y-2319375D01*
X1293977Y-2316022D01*
X1293876Y-2272334D01*
X1293063Y-2269032D01*
X1291488Y-2266035D01*
X1289253Y-2263495D01*
X1286510Y-2261616D01*
X1283360Y-2260396D01*
G37*
G36*
X1230020Y-2259990D02*
G01*
X1226667Y-2260396D01*
X1223518Y-2261616D01*
X1220724Y-2263495D01*
X1218488Y-2266035D01*
X1216914Y-2269032D01*
X1216101Y-2272334D01*
X1215999Y-2316022D01*
X1216406Y-2319375D01*
X1217625Y-2322525D01*
X1219504Y-2325268D01*
X1222044Y-2327503D01*
X1225042Y-2329078D01*
X1228293Y-2329891D01*
X1231696Y-2329891D01*
X1234948Y-2329078D01*
X1236522Y-2328418D01*
X1239266Y-2326487D01*
X1241552Y-2323947D01*
X1243076Y-2320950D01*
X1243888Y-2317699D01*
X1243990Y-2274011D01*
X1243584Y-2270658D01*
X1242415Y-2267508D01*
X1240485Y-2264714D01*
X1237945Y-2262479D01*
X1234948Y-2260904D01*
X1231696Y-2260092D01*
G37*
G36*
X1179982Y-2259990D02*
G01*
X1176629Y-2260396D01*
X1173480Y-2261616D01*
X1170686Y-2263495D01*
X1168450Y-2266035D01*
X1166876Y-2269032D01*
X1166114Y-2272334D01*
X1166012Y-2316022D01*
X1166418Y-2319375D01*
X1167587Y-2322525D01*
X1169517Y-2325268D01*
X1170686Y-2326487D01*
X1173480Y-2328418D01*
X1176629Y-2329586D01*
X1179982Y-2329992D01*
X1183335Y-2329586D01*
X1186484Y-2328418D01*
X1189278Y-2326487D01*
X1191514Y-2323947D01*
X1193088Y-2320950D01*
X1193901Y-2317699D01*
X1194003Y-2274011D01*
X1193596Y-2270658D01*
X1192377Y-2267508D01*
X1190447Y-2264714D01*
X1187958Y-2262479D01*
X1184960Y-2260904D01*
X1181658Y-2260092D01*
G37*
G36*
X1129995Y-2259990D02*
G01*
X1126642Y-2260396D01*
X1123492Y-2261616D01*
X1120698Y-2263495D01*
X1118463Y-2266035D01*
X1116888Y-2269032D01*
X1116126Y-2272334D01*
X1115974Y-2274011D01*
X1116126Y-2317699D01*
X1116888Y-2320950D01*
X1118463Y-2323947D01*
X1120698Y-2326487D01*
X1123492Y-2328418D01*
X1126642Y-2329586D01*
X1129995Y-2329992D01*
X1133348Y-2329586D01*
X1136497Y-2328418D01*
X1139291Y-2326487D01*
X1141526Y-2323947D01*
X1143101Y-2320950D01*
X1143914Y-2317699D01*
X1144016Y-2274011D01*
X1143609Y-2270658D01*
X1142390Y-2267508D01*
X1140460Y-2264714D01*
X1137970Y-2262479D01*
X1134973Y-2260904D01*
X1131671Y-2260092D01*
G37*
G36*
X1033983Y-2205990D02*
G01*
X1030528Y-2206447D01*
X1027328Y-2207768D01*
X1024534Y-2209850D01*
X1022350Y-2212543D01*
X1021486Y-2214067D01*
X1020419Y-2217369D01*
X1020216Y-2220874D01*
X1020419Y-2222601D01*
X1021486Y-2225903D01*
X1023366Y-2228850D01*
X1025855Y-2231237D01*
X1028903Y-2232964D01*
X1032256Y-2233879D01*
X1075994Y-2233980D01*
X1079449Y-2233523D01*
X1082649Y-2232202D01*
X1085443Y-2230120D01*
X1087678Y-2227427D01*
X1089152Y-2224278D01*
X1089761Y-2220874D01*
X1089558Y-2217369D01*
X1089152Y-2215692D01*
X1087678Y-2212543D01*
X1085443Y-2209850D01*
X1082649Y-2207768D01*
X1079449Y-2206447D01*
X1075994Y-2205990D01*
G37*
G36*
X1033983Y-2156002D02*
G01*
X1030630Y-2156409D01*
X1027480Y-2157628D01*
X1024686Y-2159508D01*
X1022451Y-2162048D01*
X1020927Y-2165045D01*
X1020114Y-2168296D01*
X1020114Y-2171700D01*
X1020927Y-2174951D01*
X1022451Y-2177948D01*
X1024686Y-2180488D01*
X1027480Y-2182418D01*
X1030630Y-2183587D01*
X1033983Y-2183993D01*
X1077671Y-2183892D01*
X1080973Y-2183079D01*
X1083970Y-2181504D01*
X1086459Y-2179269D01*
X1088390Y-2176526D01*
X1089609Y-2173376D01*
X1090015Y-2170023D01*
X1089609Y-2166670D01*
X1088390Y-2163521D01*
X1086459Y-2160727D01*
X1083970Y-2158492D01*
X1080973Y-2156917D01*
X1077671Y-2156104D01*
G37*
G36*
X1033983Y-2106015D02*
G01*
X1030630Y-2106422D01*
X1027480Y-2107590D01*
X1024686Y-2109520D01*
X1022451Y-2112060D01*
X1020927Y-2115007D01*
X1020114Y-2118309D01*
X1020114Y-2121662D01*
X1020927Y-2124964D01*
X1022451Y-2127961D01*
X1024686Y-2130450D01*
X1027480Y-2132380D01*
X1030630Y-2133600D01*
X1033983Y-2134006D01*
X1077671Y-2133904D01*
X1080973Y-2133092D01*
X1083970Y-2131517D01*
X1086459Y-2129282D01*
X1088390Y-2126488D01*
X1089609Y-2123338D01*
X1090015Y-2119985D01*
X1089609Y-2116632D01*
X1088390Y-2113483D01*
X1086459Y-2110689D01*
X1083970Y-2108454D01*
X1080973Y-2106879D01*
X1077671Y-2106117D01*
G37*
G36*
X1033983Y-2056028D02*
G01*
X1030528Y-2056485D01*
X1027328Y-2057806D01*
X1024534Y-2059889D01*
X1022350Y-2062581D01*
X1021486Y-2064105D01*
X1020419Y-2067407D01*
X1020216Y-2070862D01*
X1020876Y-2074316D01*
X1021486Y-2075942D01*
X1023366Y-2078888D01*
X1025855Y-2081275D01*
X1028903Y-2082952D01*
X1032256Y-2083866D01*
X1033983Y-2084019D01*
X1075994Y-2084019D01*
X1079449Y-2083511D01*
X1082649Y-2082190D01*
X1085443Y-2080158D01*
X1087678Y-2077466D01*
X1089152Y-2074316D01*
X1089761Y-2070862D01*
X1089558Y-2067407D01*
X1089152Y-2065731D01*
X1087678Y-2062581D01*
X1085443Y-2059889D01*
X1082649Y-2057806D01*
X1079449Y-2056485D01*
X1075994Y-2056028D01*
G37*
G36*
X1033983Y-2005990D02*
G01*
X1030630Y-2006396D01*
X1027480Y-2007616D01*
X1024686Y-2009495D01*
X1022451Y-2012035D01*
X1020927Y-2015032D01*
X1020114Y-2018284D01*
X1020114Y-2021687D01*
X1020927Y-2024938D01*
X1022451Y-2027936D01*
X1024686Y-2030475D01*
X1027480Y-2032406D01*
X1030630Y-2033574D01*
X1033983Y-2033981D01*
X1077671Y-2033879D01*
X1080973Y-2033066D01*
X1083970Y-2031542D01*
X1086459Y-2029256D01*
X1088390Y-2026513D01*
X1089609Y-2023364D01*
X1090015Y-2020011D01*
X1089609Y-2016658D01*
X1088390Y-2013508D01*
X1086459Y-2010714D01*
X1083970Y-2008479D01*
X1080973Y-2006904D01*
X1077671Y-2006092D01*
G37*
G36*
X1033983Y-1956003D02*
G01*
X1030630Y-1956409D01*
X1027480Y-1957628D01*
X1024686Y-1959508D01*
X1022451Y-1962048D01*
X1020927Y-1965045D01*
X1020114Y-1968296D01*
X1020114Y-1971700D01*
X1020927Y-1974951D01*
X1022451Y-1977948D01*
X1024686Y-1980488D01*
X1027480Y-1982419D01*
X1030630Y-1983587D01*
X1033983Y-1983993D01*
X1077671Y-1983892D01*
X1080973Y-1983079D01*
X1083970Y-1981504D01*
X1086459Y-1979269D01*
X1088390Y-1976526D01*
X1089609Y-1973376D01*
X1090015Y-1970024D01*
X1089609Y-1966671D01*
X1088390Y-1963521D01*
X1086459Y-1960727D01*
X1083970Y-1958492D01*
X1080973Y-1956917D01*
X1077671Y-1956104D01*
G37*
G36*
X1129995Y-1859991D02*
G01*
X1126642Y-1860397D01*
X1123492Y-1861616D01*
X1120698Y-1863496D01*
X1118463Y-1866036D01*
X1116888Y-1869033D01*
X1116126Y-1872335D01*
X1115974Y-1874012D01*
X1116126Y-1917700D01*
X1116888Y-1920951D01*
X1118463Y-1923948D01*
X1120698Y-1926488D01*
X1123492Y-1928368D01*
X1126642Y-1929587D01*
X1129995Y-1929993D01*
X1133348Y-1929587D01*
X1136497Y-1928368D01*
X1139291Y-1926488D01*
X1141526Y-1923948D01*
X1143101Y-1920951D01*
X1143914Y-1917700D01*
X1144016Y-1874012D01*
X1143609Y-1870659D01*
X1142390Y-1867509D01*
X1140460Y-1864715D01*
X1137970Y-1862480D01*
X1134973Y-1860905D01*
X1131671Y-1860092D01*
G37*
G36*
X1179982Y-1859991D02*
G01*
X1176629Y-1860397D01*
X1173480Y-1861616D01*
X1170686Y-1863496D01*
X1168450Y-1866036D01*
X1166876Y-1869033D01*
X1166114Y-1872335D01*
X1166012Y-1915972D01*
X1166418Y-1919325D01*
X1166876Y-1920951D01*
X1168450Y-1923948D01*
X1170686Y-1926488D01*
X1173480Y-1928368D01*
X1176629Y-1929587D01*
X1179982Y-1929993D01*
X1183335Y-1929587D01*
X1186484Y-1928368D01*
X1189278Y-1926488D01*
X1191514Y-1923948D01*
X1193088Y-1920951D01*
X1193901Y-1917700D01*
X1194003Y-1874012D01*
X1193596Y-1870659D01*
X1192377Y-1867509D01*
X1190447Y-1864715D01*
X1187958Y-1862480D01*
X1184960Y-1860905D01*
X1181658Y-1860092D01*
G37*
G36*
X1230020Y-1859991D02*
G01*
X1226667Y-1860397D01*
X1223518Y-1861616D01*
X1220724Y-1863496D01*
X1218488Y-1866036D01*
X1216914Y-1869033D01*
X1216101Y-1872335D01*
X1215999Y-1915972D01*
X1216406Y-1919325D01*
X1217625Y-1922525D01*
X1219504Y-1925269D01*
X1222044Y-1927504D01*
X1225042Y-1929079D01*
X1228293Y-1929892D01*
X1231696Y-1929892D01*
X1234948Y-1929079D01*
X1237945Y-1927504D01*
X1240485Y-1925269D01*
X1242415Y-1922525D01*
X1243584Y-1919325D01*
X1243990Y-1915972D01*
X1243888Y-1872335D01*
X1243076Y-1869033D01*
X1241552Y-1866036D01*
X1239266Y-1863496D01*
X1236522Y-1861616D01*
X1233373Y-1860397D01*
G37*
G36*
X1280007Y-1859991D02*
G01*
X1276654Y-1860397D01*
X1273505Y-1861616D01*
X1270711Y-1863496D01*
X1268476Y-1866036D01*
X1266901Y-1869033D01*
X1266088Y-1872335D01*
X1265986Y-1915972D01*
X1266393Y-1919325D01*
X1267612Y-1922525D01*
X1269492Y-1925269D01*
X1272032Y-1927504D01*
X1275029Y-1929079D01*
X1278280Y-1929892D01*
X1281684Y-1929892D01*
X1284935Y-1929079D01*
X1287932Y-1927504D01*
X1290472Y-1925269D01*
X1292402Y-1922525D01*
X1293571Y-1919325D01*
X1293977Y-1915972D01*
X1293876Y-1872335D01*
X1293063Y-1869033D01*
X1291488Y-1866036D01*
X1289253Y-1863496D01*
X1286510Y-1861616D01*
X1283360Y-1860397D01*
G37*
G36*
X1329994Y-1859991D02*
G01*
X1326642Y-1860397D01*
X1323492Y-1861616D01*
X1320698Y-1863496D01*
X1318463Y-1866036D01*
X1316888Y-1869033D01*
X1316126Y-1872335D01*
X1316024Y-1915972D01*
X1316431Y-1919325D01*
X1316888Y-1920951D01*
X1318463Y-1923948D01*
X1320698Y-1926488D01*
X1323492Y-1928368D01*
X1326642Y-1929587D01*
X1329994Y-1929993D01*
X1333347Y-1929587D01*
X1336497Y-1928368D01*
X1339291Y-1926488D01*
X1341526Y-1923948D01*
X1343101Y-1920951D01*
X1343914Y-1917700D01*
X1344015Y-1874012D01*
X1343609Y-1870659D01*
X1342390Y-1867509D01*
X1340459Y-1864715D01*
X1337970Y-1862480D01*
X1334973Y-1860905D01*
X1331671Y-1860092D01*
G37*
G36*
X1379982Y-1859991D02*
G01*
X1376629Y-1860397D01*
X1373479Y-1861616D01*
X1370685Y-1863496D01*
X1368450Y-1866036D01*
X1366875Y-1869033D01*
X1366113Y-1872335D01*
X1366012Y-1915972D01*
X1366418Y-1919325D01*
X1366875Y-1920951D01*
X1368450Y-1923948D01*
X1370685Y-1926488D01*
X1373479Y-1928368D01*
X1376629Y-1929587D01*
X1379982Y-1929993D01*
X1383334Y-1929587D01*
X1386484Y-1928368D01*
X1389278Y-1926488D01*
X1391513Y-1923948D01*
X1393088Y-1920951D01*
X1393901Y-1917700D01*
X1394002Y-1874012D01*
X1393596Y-1870659D01*
X1392377Y-1867509D01*
X1390446Y-1864715D01*
X1387957Y-1862480D01*
X1384960Y-1860905D01*
X1381658Y-1860092D01*
G37*
G36*
X1141730Y-1982978D02*
G01*
X1141730Y-2207006D01*
X1365707Y-2207006D01*
X1365707Y-1982978D01*
G37*
G36*
X3280003Y-1352499D02*
G01*
X3272993Y-1357477D01*
X3272993Y-1402486D01*
X3280003Y-1407515D01*
X3328009Y-1407515D01*
X3332987Y-1402486D01*
X3332987Y-1357477D01*
X3328009Y-1352499D01*
G37*
G36*
X3182010Y-1352499D02*
G01*
X3176981Y-1357477D01*
X3176981Y-1402486D01*
X3182010Y-1407515D01*
X3230016Y-1407515D01*
X3236976Y-1402486D01*
X3236976Y-1357477D01*
X3230016Y-1352499D01*
G37*
G36*
X2085492Y-2445004D02*
G01*
X2080514Y-2449982D01*
X2080514Y-2529992D01*
X2085492Y-2534970D01*
X2165502Y-2534970D01*
X2170480Y-2529992D01*
X2170480Y-2507183D01*
X2133498Y-2507183D01*
X2133498Y-2474214D01*
X2170480Y-2474214D01*
X2170480Y-2449982D01*
X2165502Y-2445004D01*
G37*
G36*
X2244496Y-2445004D02*
G01*
X2239518Y-2449982D01*
X2239518Y-2472791D01*
X2276500Y-2472791D01*
X2276500Y-2505811D01*
X2239518Y-2505811D01*
X2239518Y-2529992D01*
X2244496Y-2534970D01*
X2324506Y-2534970D01*
X2329484Y-2529992D01*
X2329484Y-2449982D01*
X2324506Y-2445004D01*
G37*
G36*
X2126996Y-3132480D02*
G01*
X2122017Y-3137509D01*
X2122017Y-3182518D01*
X2126996Y-3187496D01*
X2175002Y-3187496D01*
X2182012Y-3182518D01*
X2182012Y-3137509D01*
X2175002Y-3132480D01*
G37*
G36*
X2224989Y-3132480D02*
G01*
X2217978Y-3137509D01*
X2217978Y-3182518D01*
X2224989Y-3187496D01*
X2272995Y-3187496D01*
X2277973Y-3182518D01*
X2277973Y-3137509D01*
X2272995Y-3132480D01*
G37*
G36*
X2061972Y-3572510D02*
G01*
X2056993Y-3577488D01*
X2056993Y-3622497D01*
X2061972Y-3627475D01*
X2109978Y-3627475D01*
X2116988Y-3622497D01*
X2116988Y-3577488D01*
X2109978Y-3572510D01*
G37*
G36*
X2160016Y-3572510D02*
G01*
X2153005Y-3577488D01*
X2153005Y-3622497D01*
X2160016Y-3627475D01*
X2207971Y-3627475D01*
X2213000Y-3622497D01*
X2213000Y-3577488D01*
X2207971Y-3572510D01*
G37*
G36*
X2061972Y-3892499D02*
G01*
X2056993Y-3897477D01*
X2056993Y-3942486D01*
X2061972Y-3947464D01*
X2109978Y-3947464D01*
X2116988Y-3942486D01*
X2116988Y-3897477D01*
X2109978Y-3892499D01*
G37*
G36*
X2160016Y-3892499D02*
G01*
X2153005Y-3897477D01*
X2153005Y-3942486D01*
X2160016Y-3947464D01*
X2207971Y-3947464D01*
X2213000Y-3942486D01*
X2213000Y-3897477D01*
X2207971Y-3892499D01*
G37*
G36*
X3087471Y-2836976D02*
G01*
X3082493Y-2842006D01*
X3082493Y-2890012D01*
X3087471Y-2896971D01*
X3132480Y-2896971D01*
X3137509Y-2890012D01*
X3137509Y-2842006D01*
X3132480Y-2836976D01*
G37*
G36*
X3087471Y-2932988D02*
G01*
X3082493Y-2939999D01*
X3082493Y-2988005D01*
X3087471Y-2992983D01*
X3132480Y-2992983D01*
X3137509Y-2988005D01*
X3137509Y-2939999D01*
X3132480Y-2932988D01*
G37*
G36*
X2722473Y-2757017D02*
G01*
X2717495Y-2761996D01*
X2717495Y-2810002D01*
X2722473Y-2817012D01*
X2767482Y-2817012D01*
X2772511Y-2810002D01*
X2772511Y-2761996D01*
X2767482Y-2757017D01*
G37*
G36*
X2722473Y-2852978D02*
G01*
X2717495Y-2859989D01*
X2717495Y-2907995D01*
X2722473Y-2912973D01*
X2767482Y-2912973D01*
X2772511Y-2907995D01*
X2772511Y-2859989D01*
X2767482Y-2852978D01*
G37*
G36*
X2602484Y-4553000D02*
G01*
X2597505Y-4560011D01*
X2597505Y-4608017D01*
X2602484Y-4612995D01*
X2647492Y-4612995D01*
X2652471Y-4608017D01*
X2652471Y-4560011D01*
X2647492Y-4553000D01*
G37*
G36*
X2602484Y-4456988D02*
G01*
X2597505Y-4462018D01*
X2597505Y-4509973D01*
X2602484Y-4516983D01*
X2647492Y-4516983D01*
X2652471Y-4509973D01*
X2652471Y-4462018D01*
X2647492Y-4456988D01*
G37*
G36*
X2897479Y-4547971D02*
G01*
X2892501Y-4554982D01*
X2892501Y-4602988D01*
X2897479Y-4608017D01*
X2942488Y-4608017D01*
X2947517Y-4602988D01*
X2947517Y-4554982D01*
X2942488Y-4547971D01*
G37*
G36*
X2897479Y-4452010D02*
G01*
X2892501Y-4456988D01*
X2892501Y-4504994D01*
X2897479Y-4512005D01*
X2942488Y-4512005D01*
X2947517Y-4504994D01*
X2947517Y-4456988D01*
X2942488Y-4452010D01*
G37*
G36*
X3096971Y-4537506D02*
G01*
X3091992Y-4542485D01*
X3091992Y-4587494D01*
X3096971Y-4592472D01*
X3144977Y-4592472D01*
X3151987Y-4587494D01*
X3151987Y-4542485D01*
X3144977Y-4537506D01*
G37*
G36*
X3195015Y-4537506D02*
G01*
X3188004Y-4542485D01*
X3188004Y-4587494D01*
X3195015Y-4592472D01*
X3242970Y-4592472D01*
X3247999Y-4587494D01*
X3247999Y-4542485D01*
X3242970Y-4537506D01*
G37*
G36*
X4224985Y-3547516D02*
G01*
X4217974Y-3552494D01*
X4217974Y-3597503D01*
X4224985Y-3602482D01*
X4272991Y-3602482D01*
X4278020Y-3597503D01*
X4278020Y-3552494D01*
X4272991Y-3547516D01*
G37*
G36*
X4126992Y-3547516D02*
G01*
X4122013Y-3552494D01*
X4122013Y-3597503D01*
X4126992Y-3602482D01*
X4174998Y-3602482D01*
X4182008Y-3597503D01*
X4182008Y-3552494D01*
X4174998Y-3547516D01*
G37*
G36*
X3925011Y-3577488D02*
G01*
X3918000Y-3582517D01*
X3918000Y-3627475D01*
X3925011Y-3632504D01*
X3973017Y-3632504D01*
X3977995Y-3627475D01*
X3977995Y-3582517D01*
X3973017Y-3577488D01*
G37*
G36*
X3827018Y-3577488D02*
G01*
X3821988Y-3582517D01*
X3821988Y-3627475D01*
X3827018Y-3632504D01*
X3874973Y-3632504D01*
X3881983Y-3627475D01*
X3881983Y-3582517D01*
X3874973Y-3577488D01*
G37*
G36*
X3795014Y-4112514D02*
G01*
X3788003Y-4117492D01*
X3788003Y-4162501D01*
X3795014Y-4167479D01*
X3842969Y-4167479D01*
X3847998Y-4162501D01*
X3847998Y-4117492D01*
X3842969Y-4112514D01*
G37*
G36*
X3696970Y-4112514D02*
G01*
X3691991Y-4117492D01*
X3691991Y-4162501D01*
X3696970Y-4167479D01*
X3744976Y-4167479D01*
X3751986Y-4162501D01*
X3751986Y-4117492D01*
X3744976Y-4112514D01*
G37*
G36*
X2855010Y-2169515D02*
G01*
X2849981Y-2174494D01*
X2849981Y-2254504D01*
X2855010Y-2259482D01*
X2934970Y-2259482D01*
X2939999Y-2254504D01*
X2939999Y-2174494D01*
X2934970Y-2169515D01*
X2912211Y-2169515D01*
X2912211Y-2206498D01*
X2879191Y-2206498D01*
X2879191Y-2169515D01*
G37*
G36*
X2855010Y-2010511D02*
G01*
X2849981Y-2015489D01*
X2849981Y-2095500D01*
X2855010Y-2100478D01*
X2877769Y-2100478D01*
X2877769Y-2063496D01*
X2910789Y-2063496D01*
X2910789Y-2100478D01*
X2935020Y-2100478D01*
X2939999Y-2095500D01*
X2939999Y-2015489D01*
X2935020Y-2010511D01*
G37*
G36*
X4069994Y-2832506D02*
G01*
X4062984Y-2837484D01*
X4062984Y-2882493D01*
X4069994Y-2887472D01*
X4118000Y-2887472D01*
X4122978Y-2882493D01*
X4122978Y-2837484D01*
X4118000Y-2832506D01*
G37*
G36*
X3972001Y-2832506D02*
G01*
X3966972Y-2837484D01*
X3966972Y-2882493D01*
X3972001Y-2887472D01*
X4020007Y-2887472D01*
X4027017Y-2882493D01*
X4027017Y-2837484D01*
X4020007Y-2832506D01*
G37*
G36*
X822045Y-2930093D02*
G01*
X814578Y-2930448D01*
X807212Y-2931566D01*
X799947Y-2933395D01*
X792937Y-2935986D01*
X786180Y-2939237D01*
X779780Y-2943098D01*
X773836Y-2947619D01*
X768350Y-2952699D01*
X763422Y-2958338D01*
X759053Y-2964383D01*
X755294Y-2970885D01*
X752246Y-2977692D01*
X749858Y-2984754D01*
X748182Y-2992069D01*
X747268Y-2999486D01*
X747064Y-3006953D01*
X747623Y-3014421D01*
X748944Y-3021787D01*
X750976Y-3028950D01*
X753668Y-3035909D01*
X757072Y-3042564D01*
X761136Y-3048863D01*
X765810Y-3054705D01*
X771042Y-3060039D01*
X776782Y-3064865D01*
X782929Y-3069082D01*
X789533Y-3072638D01*
X796391Y-3075533D01*
X803554Y-3077768D01*
X810869Y-3079242D01*
X818337Y-3080004D01*
X1005789Y-3080004D01*
X1013206Y-3079242D01*
X1020571Y-3077768D01*
X1027684Y-3075533D01*
X1031189Y-3074212D01*
X1037894Y-3070961D01*
X1044295Y-3067050D01*
X1050239Y-3062528D01*
X1055725Y-3057448D01*
X1060704Y-3051860D01*
X1065072Y-3045764D01*
X1068781Y-3039313D01*
X1071880Y-3032506D01*
X1074267Y-3025394D01*
X1075893Y-3018078D01*
X1076858Y-3010662D01*
X1077010Y-3003194D01*
X1076452Y-2995726D01*
X1075182Y-2988411D01*
X1073150Y-2981198D01*
X1070406Y-2974238D01*
X1067003Y-2967583D01*
X1062939Y-2961284D01*
X1058265Y-2955442D01*
X1053084Y-2950108D01*
X1047343Y-2945282D01*
X1041146Y-2941066D01*
X1034592Y-2937510D01*
X1027684Y-2934614D01*
X1020571Y-2932379D01*
X1013206Y-2930906D01*
X1005789Y-2930194D01*
G37*
G36*
X252120Y-2930093D02*
G01*
X244652Y-2930448D01*
X237236Y-2931566D01*
X229971Y-2933395D01*
X222961Y-2935986D01*
X216204Y-2939237D01*
X209854Y-2943098D01*
X203911Y-2947619D01*
X198424Y-2952699D01*
X193446Y-2958338D01*
X189077Y-2964383D01*
X185369Y-2970885D01*
X182270Y-2977692D01*
X179882Y-2984754D01*
X178257Y-2992069D01*
X177292Y-2999486D01*
X177139Y-3006953D01*
X177698Y-3014421D01*
X178968Y-3021787D01*
X181000Y-3028950D01*
X183743Y-3035909D01*
X187147Y-3042564D01*
X191211Y-3048863D01*
X195884Y-3054705D01*
X201066Y-3060039D01*
X206806Y-3064865D01*
X213004Y-3069082D01*
X219557Y-3072638D01*
X222961Y-3074212D01*
X229971Y-3076752D01*
X237236Y-3078581D01*
X244652Y-3079699D01*
X248361Y-3080004D01*
X372110Y-3080054D01*
X379577Y-3079699D01*
X386943Y-3078581D01*
X394208Y-3076752D01*
X401218Y-3074212D01*
X407974Y-3070961D01*
X414375Y-3067050D01*
X420319Y-3062528D01*
X425805Y-3057448D01*
X430733Y-3051860D01*
X435101Y-3045764D01*
X438861Y-3039313D01*
X441909Y-3032506D01*
X444296Y-3025394D01*
X445973Y-3018078D01*
X446887Y-3010662D01*
X447090Y-3003194D01*
X446532Y-2995726D01*
X445211Y-2988411D01*
X443179Y-2981198D01*
X440486Y-2974238D01*
X437032Y-2967583D01*
X433019Y-2961284D01*
X428345Y-2955442D01*
X423113Y-2950108D01*
X417372Y-2945282D01*
X411226Y-2941066D01*
X404622Y-2937510D01*
X397764Y-2934614D01*
X390601Y-2932379D01*
X383286Y-2930906D01*
X375818Y-2930194D01*
G37*
G36*
X822045Y-4379925D02*
G01*
X814578Y-4380280D01*
X807212Y-4381398D01*
X799947Y-4383227D01*
X792937Y-4385818D01*
X786180Y-4389069D01*
X779780Y-4392930D01*
X773836Y-4397451D01*
X768350Y-4402531D01*
X763422Y-4408170D01*
X759053Y-4414215D01*
X755294Y-4420717D01*
X752246Y-4427524D01*
X749858Y-4434586D01*
X748182Y-4441901D01*
X747268Y-4449318D01*
X747064Y-4456785D01*
X747623Y-4464253D01*
X748944Y-4471619D01*
X750976Y-4478782D01*
X753668Y-4485741D01*
X757072Y-4492396D01*
X761136Y-4498695D01*
X765810Y-4504537D01*
X771042Y-4509871D01*
X776782Y-4514697D01*
X782929Y-4518914D01*
X789533Y-4522470D01*
X796391Y-4525365D01*
X803554Y-4527600D01*
X810869Y-4529074D01*
X818337Y-4529836D01*
X1005789Y-4529836D01*
X1013206Y-4529074D01*
X1020571Y-4527600D01*
X1027684Y-4525365D01*
X1031189Y-4524044D01*
X1037894Y-4520793D01*
X1044295Y-4516882D01*
X1050239Y-4512360D01*
X1055725Y-4507280D01*
X1060704Y-4501692D01*
X1065072Y-4495596D01*
X1068781Y-4489145D01*
X1071880Y-4482338D01*
X1074267Y-4475226D01*
X1075893Y-4467910D01*
X1076858Y-4460494D01*
X1077010Y-4453026D01*
X1076452Y-4445609D01*
X1075182Y-4438243D01*
X1073150Y-4431030D01*
X1070406Y-4424070D01*
X1067003Y-4417415D01*
X1062939Y-4411116D01*
X1058265Y-4405274D01*
X1053084Y-4399940D01*
X1047343Y-4395114D01*
X1041146Y-4390898D01*
X1034592Y-4387342D01*
X1027684Y-4384446D01*
X1020571Y-4382211D01*
X1013206Y-4380738D01*
X1005789Y-4380026D01*
G37*
G36*
X252120Y-4379925D02*
G01*
X244652Y-4380280D01*
X237236Y-4381398D01*
X229971Y-4383227D01*
X222961Y-4385818D01*
X216204Y-4389069D01*
X209854Y-4392930D01*
X203911Y-4397451D01*
X198424Y-4402531D01*
X193446Y-4408170D01*
X189077Y-4414215D01*
X185369Y-4420717D01*
X182270Y-4427524D01*
X179882Y-4434586D01*
X178257Y-4441901D01*
X177292Y-4449318D01*
X177139Y-4456785D01*
X177698Y-4464253D01*
X178968Y-4471619D01*
X181000Y-4478782D01*
X183743Y-4485741D01*
X187147Y-4492396D01*
X191211Y-4498695D01*
X195884Y-4504537D01*
X201066Y-4509871D01*
X206806Y-4514697D01*
X213004Y-4518914D01*
X219557Y-4522470D01*
X222961Y-4524044D01*
X229971Y-4526584D01*
X237236Y-4528413D01*
X244652Y-4529531D01*
X248361Y-4529836D01*
X372110Y-4529886D01*
X379577Y-4529531D01*
X386943Y-4528413D01*
X394208Y-4526584D01*
X401218Y-4524044D01*
X407974Y-4520793D01*
X414375Y-4516882D01*
X420319Y-4512360D01*
X425805Y-4507280D01*
X430733Y-4501692D01*
X435101Y-4495596D01*
X438861Y-4489145D01*
X441909Y-4482338D01*
X444296Y-4475226D01*
X445973Y-4467910D01*
X446887Y-4460494D01*
X447090Y-4453026D01*
X446532Y-4445609D01*
X445211Y-4438243D01*
X443179Y-4431030D01*
X440486Y-4424070D01*
X437032Y-4417415D01*
X433019Y-4411116D01*
X428345Y-4405274D01*
X423113Y-4399940D01*
X417372Y-4395114D01*
X411226Y-4390898D01*
X404622Y-4387342D01*
X397764Y-4384446D01*
X390601Y-4382211D01*
X383286Y-4380738D01*
X375818Y-4380026D01*
G37*
G36*
X871982Y-3715969D02*
G01*
X869696Y-3716172D01*
X866038Y-3717340D01*
X864666Y-3718051D01*
X862787Y-3719423D01*
X860704Y-3721709D01*
X859180Y-3724351D01*
X858621Y-3725824D01*
X858113Y-3728059D01*
X858113Y-3731920D01*
X858621Y-3734155D01*
X859485Y-3736340D01*
X860704Y-3738270D01*
X862228Y-3740048D01*
X865327Y-3742334D01*
X868171Y-3743451D01*
X869696Y-3743807D01*
X871982Y-3744010D01*
X1104747Y-3743960D01*
X1106322Y-3743807D01*
X1108557Y-3743248D01*
X1110640Y-3742334D01*
X1113180Y-3740556D01*
X1114298Y-3739489D01*
X1116482Y-3736340D01*
X1117549Y-3733444D01*
X1117955Y-3731158D01*
X1118006Y-3729634D01*
X1117752Y-3727297D01*
X1116838Y-3724351D01*
X1114806Y-3721100D01*
X1113739Y-3719982D01*
X1111351Y-3718051D01*
X1109980Y-3717340D01*
X1107033Y-3716324D01*
X1103985Y-3715969D01*
G37*
G36*
X871982Y-3766007D02*
G01*
X869696Y-3766210D01*
X866038Y-3767378D01*
X864666Y-3768090D01*
X862787Y-3769461D01*
X860704Y-3771747D01*
X859180Y-3774389D01*
X858621Y-3775862D01*
X858113Y-3778097D01*
X858012Y-3780434D01*
X858418Y-3783482D01*
X858875Y-3784955D01*
X860298Y-3787698D01*
X862787Y-3790594D01*
X865327Y-3792321D01*
X867460Y-3793286D01*
X870458Y-3793947D01*
X1105560Y-3793947D01*
X1107033Y-3793693D01*
X1109980Y-3792677D01*
X1112570Y-3791102D01*
X1114806Y-3788918D01*
X1116838Y-3785666D01*
X1117752Y-3782720D01*
X1118006Y-3780434D01*
X1117955Y-3778859D01*
X1117092Y-3775100D01*
X1115720Y-3772357D01*
X1114298Y-3770528D01*
X1113180Y-3769461D01*
X1110640Y-3767734D01*
X1108557Y-3766769D01*
X1106322Y-3766210D01*
X1104747Y-3766058D01*
G37*
G36*
X871219Y-3816096D02*
G01*
X868171Y-3816604D01*
X864666Y-3818128D01*
X862787Y-3819499D01*
X860704Y-3821785D01*
X859180Y-3824427D01*
X858621Y-3825900D01*
X858113Y-3828135D01*
X858113Y-3831996D01*
X858621Y-3834231D01*
X859485Y-3836415D01*
X860704Y-3838346D01*
X862228Y-3840124D01*
X865327Y-3842410D01*
X868171Y-3843528D01*
X869696Y-3843883D01*
X871982Y-3844086D01*
X1104747Y-3844036D01*
X1106322Y-3843883D01*
X1108557Y-3843324D01*
X1110640Y-3842410D01*
X1113180Y-3840632D01*
X1114298Y-3839565D01*
X1116482Y-3836415D01*
X1117549Y-3833520D01*
X1117955Y-3831234D01*
X1118006Y-3829710D01*
X1117752Y-3827373D01*
X1116838Y-3824427D01*
X1114806Y-3821176D01*
X1113739Y-3820058D01*
X1111351Y-3818128D01*
X1109980Y-3817416D01*
X1107033Y-3816400D01*
X1105560Y-3816146D01*
G37*
G36*
X871982Y-3866083D02*
G01*
X869696Y-3866286D01*
X866038Y-3867454D01*
X864666Y-3868165D01*
X862787Y-3869537D01*
X860704Y-3871823D01*
X859180Y-3874465D01*
X858621Y-3875938D01*
X858113Y-3878173D01*
X858012Y-3880510D01*
X858418Y-3883558D01*
X858875Y-3885031D01*
X860298Y-3887774D01*
X862787Y-3890670D01*
X865327Y-3892397D01*
X867460Y-3893362D01*
X870458Y-3894023D01*
X1105560Y-3894023D01*
X1107033Y-3893769D01*
X1109980Y-3892753D01*
X1112570Y-3891178D01*
X1114806Y-3888994D01*
X1116838Y-3885742D01*
X1117752Y-3882796D01*
X1118006Y-3880510D01*
X1117955Y-3878935D01*
X1117092Y-3875176D01*
X1115720Y-3872433D01*
X1114298Y-3870604D01*
X1113180Y-3869537D01*
X1110640Y-3867810D01*
X1108557Y-3866845D01*
X1106322Y-3866286D01*
X1104747Y-3866134D01*
G37*
G36*
X871982Y-3915867D02*
G01*
X869696Y-3916070D01*
X866038Y-3917238D01*
X864666Y-3917950D01*
X862787Y-3919321D01*
X860704Y-3921607D01*
X859180Y-3924249D01*
X858621Y-3925722D01*
X858113Y-3927957D01*
X858012Y-3930294D01*
X858418Y-3933342D01*
X858875Y-3934815D01*
X860298Y-3937558D01*
X862787Y-3940454D01*
X865327Y-3942181D01*
X867460Y-3943146D01*
X870458Y-3943807D01*
X1105560Y-3943807D01*
X1107033Y-3943553D01*
X1109980Y-3942537D01*
X1112570Y-3940962D01*
X1114806Y-3938778D01*
X1116838Y-3935526D01*
X1117752Y-3932580D01*
X1118006Y-3930294D01*
X1117955Y-3928719D01*
X1117092Y-3924960D01*
X1115720Y-3922217D01*
X1114298Y-3920388D01*
X1113180Y-3919321D01*
X1110640Y-3917594D01*
X1108557Y-3916629D01*
X1106322Y-3916070D01*
X1104747Y-3915918D01*
G37*
G36*
X871219Y-3965956D02*
G01*
X868171Y-3966464D01*
X864666Y-3967987D01*
X862787Y-3969359D01*
X860704Y-3971645D01*
X859180Y-3974287D01*
X858621Y-3975760D01*
X858113Y-3977995D01*
X858113Y-3981856D01*
X858621Y-3984091D01*
X859485Y-3986276D01*
X860704Y-3988206D01*
X862228Y-3989984D01*
X865327Y-3992270D01*
X868171Y-3993387D01*
X869696Y-3993743D01*
X871982Y-3993946D01*
X1104747Y-3993896D01*
X1106322Y-3993743D01*
X1108557Y-3993184D01*
X1110640Y-3992270D01*
X1113180Y-3990492D01*
X1114298Y-3989425D01*
X1116482Y-3986276D01*
X1117549Y-3983380D01*
X1117955Y-3981094D01*
X1118006Y-3979570D01*
X1117752Y-3977233D01*
X1116838Y-3974287D01*
X1114806Y-3971036D01*
X1113739Y-3969918D01*
X1111351Y-3967987D01*
X1109980Y-3967276D01*
X1107033Y-3966260D01*
X1105560Y-3966006D01*
G37*
G36*
X871982Y-4015943D02*
G01*
X869696Y-4016146D01*
X866038Y-4017314D01*
X864666Y-4018026D01*
X862787Y-4019397D01*
X860704Y-4021683D01*
X859180Y-4024325D01*
X858621Y-4025798D01*
X858113Y-4028033D01*
X858012Y-4030370D01*
X858418Y-4033418D01*
X858875Y-4034891D01*
X860298Y-4037634D01*
X862787Y-4040530D01*
X865327Y-4042257D01*
X867460Y-4043222D01*
X870458Y-4043883D01*
X1105560Y-4043883D01*
X1107033Y-4043629D01*
X1109980Y-4042613D01*
X1112570Y-4041038D01*
X1114806Y-4038854D01*
X1116838Y-4035602D01*
X1117752Y-4032656D01*
X1118006Y-4030370D01*
X1117955Y-4028795D01*
X1117092Y-4025036D01*
X1115720Y-4022293D01*
X1114298Y-4020464D01*
X1113180Y-4019397D01*
X1110640Y-4017670D01*
X1108557Y-4016705D01*
X1106322Y-4016146D01*
X1104747Y-4015994D01*
G37*
G36*
X871219Y-4066032D02*
G01*
X868171Y-4066540D01*
X864666Y-4068064D01*
X862787Y-4069435D01*
X860704Y-4071721D01*
X859180Y-4074363D01*
X858621Y-4075836D01*
X858113Y-4078071D01*
X858012Y-4080408D01*
X858418Y-4083456D01*
X858875Y-4084929D01*
X860298Y-4087672D01*
X862787Y-4090568D01*
X865327Y-4092295D01*
X867460Y-4093260D01*
X870458Y-4093921D01*
X1105560Y-4093921D01*
X1107033Y-4093667D01*
X1109980Y-4092651D01*
X1112570Y-4091076D01*
X1114806Y-4088892D01*
X1116838Y-4085640D01*
X1117752Y-4082694D01*
X1118006Y-4080408D01*
X1117955Y-4078833D01*
X1117092Y-4075074D01*
X1115720Y-4072331D01*
X1114298Y-4070502D01*
X1113180Y-4069435D01*
X1110640Y-4067708D01*
X1108557Y-4066743D01*
X1106322Y-4066184D01*
X1104747Y-4066032D01*
G37*
G36*
X871982Y-4116019D02*
G01*
X869696Y-4116222D01*
X866038Y-4117390D01*
X864666Y-4118101D01*
X862787Y-4119473D01*
X860704Y-4121759D01*
X859180Y-4124401D01*
X858621Y-4125874D01*
X858113Y-4128109D01*
X858113Y-4131970D01*
X858621Y-4134205D01*
X859485Y-4136390D01*
X860704Y-4138320D01*
X862228Y-4140098D01*
X865327Y-4142384D01*
X868171Y-4143501D01*
X869696Y-4143857D01*
X871982Y-4144060D01*
X1104747Y-4144010D01*
X1106322Y-4143857D01*
X1108557Y-4143298D01*
X1110640Y-4142384D01*
X1113180Y-4140606D01*
X1114298Y-4139539D01*
X1116482Y-4136390D01*
X1117549Y-4133494D01*
X1117955Y-4131208D01*
X1118006Y-4129684D01*
X1117752Y-4127347D01*
X1116838Y-4124401D01*
X1114806Y-4121150D01*
X1113739Y-4120032D01*
X1111351Y-4118101D01*
X1109980Y-4117390D01*
X1107033Y-4116374D01*
X1103985Y-4116019D01*
G37*
G36*
X871982Y-4166057D02*
G01*
X869696Y-4166260D01*
X866038Y-4167428D01*
X864666Y-4168140D01*
X862787Y-4169511D01*
X860704Y-4171797D01*
X859180Y-4174439D01*
X858621Y-4175912D01*
X858113Y-4178147D01*
X858012Y-4180484D01*
X858418Y-4183532D01*
X858875Y-4185005D01*
X860298Y-4187748D01*
X862787Y-4190644D01*
X865327Y-4192371D01*
X867460Y-4193336D01*
X870458Y-4193997D01*
X1105560Y-4193997D01*
X1107033Y-4193743D01*
X1109980Y-4192727D01*
X1112570Y-4191152D01*
X1114806Y-4188968D01*
X1116838Y-4185716D01*
X1117752Y-4182770D01*
X1118006Y-4180484D01*
X1117955Y-4178909D01*
X1117092Y-4175150D01*
X1115720Y-4172407D01*
X1114298Y-4170578D01*
X1113180Y-4169511D01*
X1110640Y-4167784D01*
X1108557Y-4166819D01*
X1106322Y-4166260D01*
X1104747Y-4166108D01*
G37*
G36*
X871219Y-3665982D02*
G01*
X868171Y-3666490D01*
X864666Y-3668014D01*
X862787Y-3669385D01*
X860704Y-3671671D01*
X859180Y-3674313D01*
X858621Y-3675786D01*
X858113Y-3678021D01*
X858012Y-3680358D01*
X858418Y-3683406D01*
X858875Y-3684879D01*
X860298Y-3687622D01*
X862787Y-3690518D01*
X865327Y-3692245D01*
X867460Y-3693210D01*
X870458Y-3693871D01*
X1105560Y-3693871D01*
X1107033Y-3693617D01*
X1109980Y-3692601D01*
X1112570Y-3691026D01*
X1114806Y-3688842D01*
X1116838Y-3685590D01*
X1117752Y-3682644D01*
X1118006Y-3680358D01*
X1117955Y-3678783D01*
X1117092Y-3675024D01*
X1115720Y-3672281D01*
X1114298Y-3670452D01*
X1113180Y-3669385D01*
X1110640Y-3667658D01*
X1108557Y-3666693D01*
X1106322Y-3666134D01*
X1104747Y-3665982D01*
G37*
G36*
X871982Y-3615893D02*
G01*
X869696Y-3616096D01*
X866038Y-3617264D01*
X864666Y-3617976D01*
X862787Y-3619347D01*
X860704Y-3621633D01*
X859180Y-3624275D01*
X858621Y-3625748D01*
X858113Y-3627983D01*
X858012Y-3630320D01*
X858418Y-3633368D01*
X858875Y-3634841D01*
X860298Y-3637584D01*
X862787Y-3640480D01*
X865327Y-3642207D01*
X867460Y-3643172D01*
X870458Y-3643833D01*
X1105560Y-3643833D01*
X1107033Y-3643579D01*
X1109980Y-3642563D01*
X1112570Y-3640988D01*
X1114806Y-3638804D01*
X1116838Y-3635552D01*
X1117752Y-3632606D01*
X1118006Y-3630320D01*
X1117955Y-3628745D01*
X1117092Y-3624986D01*
X1115720Y-3622243D01*
X1114298Y-3620414D01*
X1113180Y-3619347D01*
X1110640Y-3617620D01*
X1108557Y-3616655D01*
X1106322Y-3616096D01*
X1104747Y-3615944D01*
G37*
G36*
X871982Y-3566109D02*
G01*
X869696Y-3566312D01*
X866038Y-3567480D01*
X864666Y-3568192D01*
X862787Y-3569563D01*
X860704Y-3571849D01*
X859180Y-3574491D01*
X858621Y-3575964D01*
X858113Y-3578199D01*
X858012Y-3580536D01*
X858418Y-3583584D01*
X858875Y-3585057D01*
X860298Y-3587800D01*
X862787Y-3590696D01*
X865327Y-3592423D01*
X867460Y-3593388D01*
X870458Y-3594049D01*
X1105560Y-3594049D01*
X1107033Y-3593795D01*
X1109980Y-3592779D01*
X1112570Y-3591204D01*
X1114806Y-3589020D01*
X1116838Y-3585768D01*
X1117752Y-3582822D01*
X1118006Y-3580536D01*
X1117955Y-3578961D01*
X1117092Y-3575202D01*
X1115720Y-3572459D01*
X1114298Y-3570630D01*
X1113180Y-3569563D01*
X1110640Y-3567836D01*
X1108557Y-3566871D01*
X1106322Y-3566312D01*
X1104747Y-3566160D01*
G37*
G36*
X871219Y-3516122D02*
G01*
X868171Y-3516629D01*
X864666Y-3518154D01*
X862787Y-3519525D01*
X860704Y-3521811D01*
X859180Y-3524453D01*
X858621Y-3525926D01*
X858113Y-3528161D01*
X858113Y-3532022D01*
X858621Y-3534257D01*
X859485Y-3536442D01*
X860704Y-3538372D01*
X862228Y-3540150D01*
X865327Y-3542436D01*
X868171Y-3543554D01*
X869696Y-3543909D01*
X871982Y-3544112D01*
X1104747Y-3544062D01*
X1106322Y-3543909D01*
X1108557Y-3543350D01*
X1110640Y-3542436D01*
X1113180Y-3540658D01*
X1114298Y-3539591D01*
X1116482Y-3536442D01*
X1117549Y-3533546D01*
X1117955Y-3531260D01*
X1118006Y-3529736D01*
X1117752Y-3527399D01*
X1116838Y-3524453D01*
X1114806Y-3521201D01*
X1113739Y-3520084D01*
X1111351Y-3518154D01*
X1109980Y-3517442D01*
X1107033Y-3516426D01*
X1105560Y-3516172D01*
G37*
G36*
X871982Y-3466033D02*
G01*
X869696Y-3466236D01*
X866038Y-3467404D01*
X864666Y-3468115D01*
X862787Y-3469487D01*
X860704Y-3471773D01*
X859180Y-3474415D01*
X858621Y-3475888D01*
X858113Y-3478123D01*
X858012Y-3480460D01*
X858418Y-3483508D01*
X858875Y-3484981D01*
X860298Y-3487724D01*
X862787Y-3490620D01*
X865327Y-3492347D01*
X867460Y-3493312D01*
X870458Y-3493973D01*
X1105560Y-3493973D01*
X1107033Y-3493719D01*
X1109980Y-3492703D01*
X1112570Y-3491128D01*
X1114806Y-3488944D01*
X1116838Y-3485692D01*
X1117752Y-3482746D01*
X1118006Y-3480460D01*
X1117955Y-3478885D01*
X1117092Y-3475126D01*
X1115720Y-3472383D01*
X1114298Y-3470554D01*
X1113180Y-3469487D01*
X1110640Y-3467760D01*
X1108557Y-3466795D01*
X1106322Y-3466236D01*
X1104747Y-3466084D01*
G37*
G36*
X871219Y-3416046D02*
G01*
X868171Y-3416554D01*
X864666Y-3418078D01*
X862787Y-3419449D01*
X860704Y-3421735D01*
X859180Y-3424377D01*
X858621Y-3425850D01*
X858113Y-3428085D01*
X858113Y-3431946D01*
X858621Y-3434181D01*
X859485Y-3436365D01*
X860704Y-3438296D01*
X862228Y-3440074D01*
X865327Y-3442360D01*
X868171Y-3443478D01*
X869696Y-3443833D01*
X871982Y-3444036D01*
X1104747Y-3443986D01*
X1106322Y-3443833D01*
X1108557Y-3443274D01*
X1110640Y-3442360D01*
X1113180Y-3440582D01*
X1114298Y-3439515D01*
X1116482Y-3436365D01*
X1117549Y-3433470D01*
X1117955Y-3431184D01*
X1118006Y-3429660D01*
X1117752Y-3427323D01*
X1116838Y-3424377D01*
X1114806Y-3421126D01*
X1113739Y-3420008D01*
X1111351Y-3418078D01*
X1109980Y-3417366D01*
X1107033Y-3416350D01*
X1105560Y-3416096D01*
G37*
G36*
X871982Y-3365957D02*
G01*
X869696Y-3366160D01*
X866038Y-3367328D01*
X864666Y-3368040D01*
X862787Y-3369411D01*
X860704Y-3371697D01*
X859180Y-3374339D01*
X858621Y-3375812D01*
X858113Y-3378047D01*
X858012Y-3380384D01*
X858418Y-3383432D01*
X858875Y-3384905D01*
X860298Y-3387648D01*
X862787Y-3390544D01*
X865327Y-3392271D01*
X867460Y-3393236D01*
X870458Y-3393897D01*
X1105560Y-3393897D01*
X1107033Y-3393643D01*
X1109980Y-3392627D01*
X1112570Y-3391052D01*
X1114806Y-3388868D01*
X1116838Y-3385616D01*
X1117752Y-3382670D01*
X1118006Y-3380384D01*
X1117955Y-3378809D01*
X1117092Y-3375050D01*
X1115720Y-3372307D01*
X1114298Y-3370478D01*
X1113180Y-3369411D01*
X1110640Y-3367684D01*
X1108557Y-3366719D01*
X1106322Y-3366160D01*
X1104747Y-3366008D01*
G37*
G36*
X871982Y-3315919D02*
G01*
X869696Y-3316122D01*
X866038Y-3317290D01*
X864666Y-3318001D01*
X862787Y-3319373D01*
X860704Y-3321659D01*
X859180Y-3324301D01*
X858621Y-3325774D01*
X858113Y-3328009D01*
X858113Y-3331870D01*
X858621Y-3334105D01*
X859485Y-3336290D01*
X860704Y-3338220D01*
X862228Y-3339998D01*
X865327Y-3342284D01*
X868171Y-3343401D01*
X869696Y-3343757D01*
X871982Y-3343960D01*
X1104747Y-3343910D01*
X1106322Y-3343757D01*
X1108557Y-3343198D01*
X1110640Y-3342284D01*
X1113180Y-3340506D01*
X1114298Y-3339439D01*
X1116482Y-3336290D01*
X1117549Y-3333394D01*
X1117955Y-3331108D01*
X1118006Y-3329584D01*
X1117752Y-3327247D01*
X1116838Y-3324301D01*
X1114806Y-3321050D01*
X1113739Y-3319932D01*
X1111351Y-3318001D01*
X1109980Y-3317290D01*
X1107033Y-3316274D01*
X1103985Y-3315919D01*
G37*
G36*
X871219Y-3265932D02*
G01*
X868171Y-3266440D01*
X864666Y-3267964D01*
X862787Y-3269335D01*
X860704Y-3271621D01*
X859180Y-3274263D01*
X858621Y-3275736D01*
X858113Y-3277971D01*
X858012Y-3280308D01*
X858418Y-3283356D01*
X858875Y-3284829D01*
X860298Y-3287572D01*
X862787Y-3290468D01*
X865327Y-3292195D01*
X867460Y-3293160D01*
X870458Y-3293821D01*
X1105560Y-3293821D01*
X1107033Y-3293567D01*
X1109980Y-3292551D01*
X1112570Y-3290976D01*
X1114806Y-3288792D01*
X1116838Y-3285540D01*
X1117752Y-3282594D01*
X1118006Y-3280308D01*
X1117955Y-3278733D01*
X1117092Y-3274974D01*
X1115720Y-3272231D01*
X1114298Y-3270402D01*
X1113180Y-3269335D01*
X1110640Y-3267608D01*
X1108557Y-3266643D01*
X1106322Y-3266084D01*
X1104747Y-3265932D01*
G37*
G36*
X4864963Y-4214469D02*
G01*
X4859985Y-4219498D01*
X4859985Y-4299508D01*
X4864963Y-4304487D01*
X4944973Y-4304487D01*
X4950002Y-4299508D01*
X4950002Y-4219498D01*
X4944973Y-4214469D01*
X4922215Y-4214469D01*
X4922215Y-4251502D01*
X4889195Y-4251502D01*
X4889195Y-4214469D01*
G37*
G36*
X4865014Y-4055465D02*
G01*
X4859985Y-4060494D01*
X4859985Y-4140504D01*
X4865014Y-4145483D01*
X4887772Y-4145483D01*
X4887772Y-4108500D01*
X4920792Y-4108500D01*
X4920792Y-4145483D01*
X4944973Y-4145483D01*
X4950002Y-4140504D01*
X4950002Y-4060494D01*
X4944973Y-4055465D01*
G37*
G36*
X4642510Y-5567984D02*
G01*
X4637481Y-5573014D01*
X4637989Y-5614974D01*
X4681982Y-5614974D01*
X4681982Y-5659983D01*
X4636973Y-5659983D01*
X4637481Y-5700979D01*
X4642510Y-5706008D01*
X4757470Y-5706008D01*
X4762500Y-5700979D01*
X4762500Y-5573014D01*
X4757470Y-5567984D01*
G37*
G36*
X4427474Y-5567984D02*
G01*
X4422495Y-5573014D01*
X4422495Y-5700979D01*
X4427474Y-5706008D01*
X4542485Y-5706008D01*
X4547514Y-5700979D01*
X4547006Y-5659983D01*
X4503013Y-5659983D01*
X4503013Y-5614974D01*
X4547514Y-5614974D01*
X4547514Y-5573014D01*
X4542485Y-5567984D01*
G37*
G36*
X1026007Y-5354980D02*
G01*
X1020978Y-5360009D01*
X1020978Y-5474970D01*
X1026007Y-5479999D01*
X1068019Y-5479491D01*
X1068019Y-5435498D01*
X1112977Y-5435498D01*
X1112977Y-5480507D01*
X1153972Y-5479999D01*
X1159002Y-5474970D01*
X1159002Y-5360009D01*
X1153972Y-5354980D01*
G37*
G36*
X1026007Y-5570016D02*
G01*
X1020978Y-5574995D01*
X1020978Y-5690006D01*
X1026007Y-5694984D01*
X1153972Y-5694984D01*
X1159002Y-5690006D01*
X1159002Y-5574995D01*
X1153972Y-5570016D01*
X1112977Y-5570474D01*
X1112977Y-5614517D01*
X1068019Y-5614517D01*
X1068019Y-5570016D01*
G37*
G36*
X1402486Y-5023002D02*
G01*
X1397508Y-5027980D01*
X1398016Y-5069992D01*
X1442008Y-5069992D01*
X1442008Y-5115001D01*
X1397000Y-5115001D01*
X1397508Y-5155996D01*
X1402486Y-5160975D01*
X1517497Y-5160975D01*
X1522476Y-5155996D01*
X1522476Y-5027980D01*
X1517497Y-5023002D01*
G37*
G36*
X1187500Y-5023002D02*
G01*
X1182471Y-5027980D01*
X1182471Y-5155996D01*
X1187500Y-5160975D01*
X1302512Y-5160975D01*
X1307490Y-5155996D01*
X1306982Y-5115001D01*
X1262989Y-5115001D01*
X1262989Y-5069992D01*
X1307490Y-5069992D01*
X1307490Y-5027980D01*
X1302512Y-5023002D01*
G37*
G36*
X770026Y-5085994D02*
G01*
X764997Y-5090972D01*
X764997Y-5218988D01*
X770026Y-5223967D01*
X884986Y-5223967D01*
X890016Y-5218988D01*
X889508Y-5176977D01*
X845515Y-5176977D01*
X845515Y-5132019D01*
X890524Y-5132019D01*
X890016Y-5090972D01*
X884986Y-5085994D01*
G37*
G36*
X985012Y-5085994D02*
G01*
X979982Y-5090972D01*
X980490Y-5132019D01*
X1024483Y-5132019D01*
X1024483Y-5176977D01*
X979982Y-5176977D01*
X979982Y-5218988D01*
X985012Y-5223967D01*
X1100023Y-5223967D01*
X1105001Y-5218988D01*
X1105001Y-5090972D01*
X1100023Y-5085994D01*
G37*
G36*
X342493Y-5074005D02*
G01*
X337515Y-5078984D01*
X337515Y-5207000D01*
X342493Y-5211978D01*
X457504Y-5211978D01*
X462483Y-5207000D01*
X461975Y-5164988D01*
X417982Y-5164988D01*
X417982Y-5119979D01*
X462991Y-5119979D01*
X462483Y-5078984D01*
X457504Y-5074005D01*
G37*
G36*
X557479Y-5074005D02*
G01*
X552500Y-5078984D01*
X553008Y-5119979D01*
X597001Y-5119979D01*
X597001Y-5164988D01*
X552500Y-5164988D01*
X552500Y-5207000D01*
X557479Y-5211978D01*
X672490Y-5211978D01*
X677519Y-5207000D01*
X677519Y-5078984D01*
X672490Y-5074005D01*
G37*
G36*
X4099966Y-1524508D02*
G01*
X4094987Y-1529486D01*
X4094987Y-1609496D01*
X4099966Y-1614474D01*
X4179976Y-1614474D01*
X4185005Y-1609496D01*
X4185005Y-1529486D01*
X4179976Y-1524508D01*
X4157218Y-1524508D01*
X4157218Y-1561490D01*
X4124198Y-1561490D01*
X4124198Y-1524508D01*
G37*
G36*
X4100017Y-1365504D02*
G01*
X4094987Y-1370482D01*
X4094987Y-1450492D01*
X4100017Y-1455470D01*
X4122775Y-1455470D01*
X4122775Y-1418488D01*
X4155795Y-1418488D01*
X4155795Y-1455470D01*
X4179976Y-1455470D01*
X4185005Y-1450492D01*
X4185005Y-1370482D01*
X4179976Y-1365504D01*
G37*
G36*
X4094987Y-1869490D02*
G01*
X4090009Y-1874520D01*
X4090009Y-1954479D01*
X4094987Y-1959508D01*
X4174998Y-1959508D01*
X4179976Y-1954479D01*
X4179976Y-1874520D01*
X4174998Y-1869490D01*
X4152188Y-1869490D01*
X4152188Y-1906473D01*
X4119219Y-1906473D01*
X4119219Y-1869490D01*
G37*
G36*
X4094987Y-1710486D02*
G01*
X4090009Y-1715516D01*
X4090009Y-1795475D01*
X4094987Y-1800504D01*
X4117797Y-1800504D01*
X4117797Y-1763522D01*
X4150766Y-1763522D01*
X4150766Y-1800504D01*
X4174998Y-1800504D01*
X4179976Y-1795475D01*
X4179976Y-1715516D01*
X4174998Y-1710486D01*
G37*
D10*
G01*
X1609996Y-6686487D03*
G01*
X1609996Y-7123487D03*
G01*
X669998Y-6676487D03*
G01*
X669998Y-7113487D03*
D11*
G01*
X3084984Y-2302250D03*
G01*
X3084984Y-2067758D03*
D12*
G01*
X1040005Y-6109990D03*
G01*
X1229997Y-6109990D03*
G01*
X1229997Y-6360002D03*
G01*
X1135001Y-6360002D03*
G01*
X1040005Y-6360002D03*
D13*
G01*
X2304493Y-2263236D03*
G01*
X2431493Y-2263236D03*
G01*
X2558493Y-2263236D03*
G01*
X2685493Y-2263236D03*
G01*
X2304493Y-1726737D03*
G01*
X2431493Y-1726737D03*
G01*
X2558493Y-1726737D03*
G01*
X2685493Y-1726737D03*
D14*
G01*
X3032000Y-1380002D03*
G01*
X2948002Y-1380002D03*
D15*
G01*
X1210007Y-5844992D03*
G01*
X1070002Y-5844992D03*
G01*
X1080010Y-6634982D03*
G01*
X1219989Y-6634982D03*
D14*
G01*
X4126994Y-3009996D03*
G01*
X4042996Y-3009996D03*
D16*
G01*
X1598500Y-980003D03*
G01*
X1598500Y-790011D03*
G01*
X1351511Y-885007D03*
G01*
X1818490Y-4809992D03*
G01*
X1818490Y-4620000D03*
G01*
X1571500Y-4714996D03*
G01*
X421490Y-4669988D03*
G01*
X421490Y-4859980D03*
G01*
X668505Y-4764984D03*
D17*
G01*
X1170002Y-930015D03*
G01*
X1075006Y-699993D03*
G01*
X979985Y-929990D03*
D19*
G01*
X4019628Y-5525053D03*
G01*
X4020339Y-5684946D03*
D20*
G01*
X3379980Y-2834990D03*
G01*
X3379980Y-2974995D03*
D19*
G01*
X5305351Y-5939937D03*
G01*
X5304640Y-5780044D03*
D17*
G01*
X5069994Y-29992D03*
G01*
X5164990Y-259989D03*
G01*
X5259986Y-29992D03*
D19*
G01*
X3064944Y-869640D03*
G01*
X2905051Y-870351D03*
G01*
X3240051Y-870351D03*
G01*
X3399944Y-869640D03*
D20*
G01*
X1845007Y-2199990D03*
G01*
X1845007Y-2339995D03*
G01*
X1940003Y-1855007D03*
G01*
X1940003Y-1715002D03*
D10*
G01*
X5669991Y-2601494D03*
G01*
X5669991Y-3038494D03*
D15*
G01*
X3199996Y-5379994D03*
G01*
X3340000Y-5379994D03*
D21*
G01*
X3039993Y-5144980D03*
G01*
X3259993Y-5144980D03*
D22*
G01*
X3259990Y-4974991D03*
D23*
G01*
X3039993Y-4974978D03*
D24*
G01*
X2292504Y-6602089D03*
G01*
X2357503Y-6602089D03*
G01*
X2422502Y-6602089D03*
G01*
X2487500Y-6602089D03*
G01*
X2552524Y-6602089D03*
G01*
X2617497Y-6602089D03*
G01*
X2682521Y-6602089D03*
G01*
X2747520Y-6602089D03*
G01*
X2812519Y-6602089D03*
G01*
X2877517Y-6602089D03*
G01*
X2292504Y-6027897D03*
G01*
X2357503Y-6027897D03*
G01*
X2422502Y-6027897D03*
G01*
X2487500Y-6027897D03*
G01*
X2552524Y-6027897D03*
G01*
X2617497Y-6027897D03*
G01*
X2682521Y-6027897D03*
G01*
X2747520Y-6027897D03*
G01*
X2812519Y-6027897D03*
G01*
X2877517Y-6027897D03*
D20*
G01*
X1979983Y-6454973D03*
G01*
X1979983Y-6314993D03*
G01*
X2545006Y-6965005D03*
G01*
X2545006Y-6825000D03*
D10*
G01*
X5679991Y-2403496D03*
G01*
X5679991Y-1966497D03*
D25*
G01*
X5864989Y-593008D03*
G01*
X5634992Y-593008D03*
G01*
X5404995Y-593008D03*
D26*
G01*
X5634989Y-1187000D03*
D20*
G01*
X2059993Y-2129988D03*
G01*
X2059993Y-2269992D03*
D21*
G01*
X1359999Y-1714985D03*
G01*
X1579999Y-1714985D03*
D22*
G01*
X1580009Y-1544975D03*
D23*
G01*
X1359999Y-1544982D03*
D27*
G01*
X3414499Y-2293030D03*
G01*
X3541499Y-2293030D03*
G01*
X3668499Y-2293030D03*
G01*
X3795499Y-2293030D03*
G01*
X3414499Y-1587012D03*
G01*
X3541499Y-1587012D03*
G01*
X3668499Y-1587012D03*
G01*
X3795499Y-1587012D03*
D20*
G01*
X2994992Y-5369986D03*
G01*
X2994992Y-5509991D03*
D28*
G01*
X2519199Y-3254979D03*
G01*
X2519199Y-3294984D03*
G01*
X2519199Y-3334989D03*
G01*
X2519199Y-3374994D03*
G01*
X2519199Y-3414999D03*
G01*
X2519199Y-3454979D03*
G01*
X2519199Y-3494984D03*
G01*
X2519199Y-3534989D03*
G01*
X2519199Y-3574994D03*
G01*
X2519199Y-3614999D03*
G01*
X2519199Y-3654978D03*
G01*
X2519199Y-3694983D03*
G01*
X2519199Y-3734988D03*
G01*
X2519199Y-3774993D03*
G01*
X2519199Y-3814998D03*
G01*
X2519199Y-3854978D03*
G01*
X2519199Y-3894983D03*
G01*
X2519199Y-3934988D03*
G01*
X2519199Y-3974993D03*
G01*
X2519199Y-4014998D03*
D29*
G01*
X2629943Y-4125742D03*
G01*
X2669948Y-4125742D03*
G01*
X2709953Y-4125742D03*
G01*
X2749958Y-4125742D03*
G01*
X2789963Y-4125742D03*
G01*
X2829943Y-4125742D03*
G01*
X2869948Y-4125742D03*
G01*
X2909953Y-4125742D03*
G01*
X2949958Y-4125742D03*
G01*
X2989963Y-4125742D03*
G01*
X3029943Y-4125742D03*
G01*
X3069948Y-4125742D03*
G01*
X3109953Y-4125742D03*
G01*
X3149958Y-4125742D03*
G01*
X3189963Y-4125742D03*
G01*
X3229942Y-4125742D03*
G01*
X3269947Y-4125742D03*
G01*
X3309952Y-4125742D03*
G01*
X3349957Y-4125742D03*
G01*
X3389962Y-4125742D03*
D28*
G01*
X3500706Y-4014998D03*
G01*
X3500706Y-3974993D03*
G01*
X3500706Y-3934988D03*
G01*
X3500706Y-3894983D03*
G01*
X3500706Y-3854978D03*
G01*
X3500706Y-3814998D03*
G01*
X3500706Y-3774993D03*
G01*
X3500706Y-3734988D03*
G01*
X3500706Y-3694983D03*
G01*
X3500706Y-3654978D03*
G01*
X3500706Y-3614999D03*
G01*
X3500706Y-3574994D03*
G01*
X3500706Y-3534989D03*
G01*
X3500706Y-3494984D03*
G01*
X3500706Y-3454979D03*
G01*
X3500706Y-3414999D03*
G01*
X3500706Y-3374994D03*
G01*
X3500706Y-3334989D03*
G01*
X3500706Y-3294984D03*
G01*
X3500706Y-3254979D03*
D29*
G01*
X3389962Y-3144235D03*
G01*
X3349957Y-3144235D03*
G01*
X3309952Y-3144235D03*
G01*
X3269947Y-3144235D03*
G01*
X3229942Y-3144235D03*
G01*
X3189963Y-3144235D03*
G01*
X3149958Y-3144235D03*
G01*
X3109953Y-3144235D03*
G01*
X3069948Y-3144235D03*
G01*
X3029943Y-3144235D03*
G01*
X2989963Y-3144235D03*
G01*
X2949958Y-3144235D03*
G01*
X2909953Y-3144235D03*
G01*
X2869948Y-3144235D03*
G01*
X2829943Y-3144235D03*
G01*
X2789963Y-3144235D03*
G01*
X2749958Y-3144235D03*
G01*
X2709953Y-3144235D03*
G01*
X2669948Y-3144235D03*
G01*
X2629943Y-3144235D03*
D30*
G01*
X3009953Y-3634988D03*
D31*
G01*
X5554982Y-4664984D03*
G01*
X5554982Y-4774991D03*
G01*
X5554982Y-4884999D03*
G01*
X5554982Y-4995006D03*
G01*
X5554982Y-5104988D03*
G01*
X5554982Y-5214995D03*
G01*
X5554982Y-5325003D03*
G01*
X5554982Y-5400009D03*
G01*
X5554982Y-5469986D03*
D32*
G01*
X5379976Y-5560004D03*
G01*
X4934993Y-5560004D03*
G01*
X4934993Y-4539990D03*
G01*
X5379976Y-4539990D03*
M02*
